<svg width="809" height="477" viewBox="0 0 809 477" fill="none" xmlns="http://www.w3.org/2000/svg">
<g clip-path="url(#clip0_4720_9579)">
<path d="M809 101.612C809 229.308 722.986 461.279 564.383 461.279C405.78 461.279 187.954 545.421 46.4744 315.357C-38.2595 221.03 1.87169 -30.0036 306.684 12.4638C506.442 68.4461 809 -26.0846 809 101.612Z" fill="#D8E0F4"/>
<path d="M740.752 160.278C744.987 160.278 748.42 156.845 748.42 152.609C748.42 148.374 744.987 144.941 740.752 144.941C736.517 144.941 733.084 148.374 733.084 152.609C733.084 156.845 736.517 160.278 740.752 160.278Z" fill="white"/>
<path d="M696.277 407.981C700.512 407.981 703.945 404.547 703.945 400.312C703.945 396.077 700.512 392.643 696.277 392.643C692.042 392.643 688.608 396.077 688.608 400.312C688.608 404.547 692.042 407.981 696.277 407.981Z" fill="white"/>
<path d="M486.167 407.981C490.402 407.981 493.836 404.547 493.836 400.312C493.836 396.077 490.402 392.643 486.167 392.643C481.932 392.643 478.499 396.077 478.499 400.312C478.499 404.547 481.932 407.981 486.167 407.981Z" fill="white"/>
<path d="M233.115 15.3376C237.35 15.3376 240.783 11.9042 240.783 7.66881C240.783 3.43344 237.35 0 233.115 0C228.879 0 225.446 3.43344 225.446 7.66881C225.446 11.9042 228.879 15.3376 233.115 15.3376Z" fill="white"/>
<path d="M7.66825 204.757C11.9033 204.757 15.3365 201.324 15.3365 197.088C15.3365 192.853 11.9033 189.42 7.66825 189.42C3.43319 189.42 0 192.853 0 197.088C0 201.324 3.43319 204.757 7.66825 204.757Z" fill="white"/>
<path d="M253.052 77.0715H134.194C126.359 77.0715 120.008 83.4234 120.008 91.2588V361.201C120.008 369.036 126.359 375.388 134.194 375.388H253.052C260.887 375.388 267.238 369.036 267.238 361.201V91.2588C267.238 83.4234 260.887 77.0715 253.052 77.0715Z" fill="#F6B69E" stroke="black" stroke-width="3"/>
<path d="M138.028 305.219C138.028 304.372 137.342 303.685 136.495 303.685C135.648 303.685 134.961 304.372 134.961 305.219V325.158C134.961 326.005 135.648 326.691 136.495 326.691C137.342 326.691 138.028 326.005 138.028 325.158V305.219Z" fill="#4A6FA5"/>
<path d="M143.396 301.384C143.396 300.537 142.71 299.85 141.863 299.85C141.016 299.85 140.329 300.537 140.329 301.384V328.992C140.329 329.839 141.016 330.526 141.863 330.526C142.71 330.526 143.396 329.839 143.396 328.992V301.384Z" fill="#4A6FA5"/>
<path d="M148.764 301.384C148.764 300.537 148.077 299.85 147.23 299.85C146.383 299.85 145.696 300.537 145.696 301.384V328.992C145.696 329.839 146.383 330.526 147.23 330.526C148.077 330.526 148.764 329.839 148.764 328.992V301.384Z" fill="#4A6FA5"/>
<path d="M154.132 301.384C154.132 300.537 153.445 299.85 152.598 299.85C151.751 299.85 151.064 300.537 151.064 301.384V328.992C151.064 329.839 151.751 330.526 152.598 330.526C153.445 330.526 154.132 329.839 154.132 328.992V301.384Z" fill="#4A6FA5"/>
<path d="M159.5 301.384C159.5 300.537 158.813 299.85 157.966 299.85C157.119 299.85 156.433 300.537 156.433 301.384V328.992C156.433 329.839 157.119 330.526 157.966 330.526C158.813 330.526 159.5 329.839 159.5 328.992V301.384Z" fill="#4A6FA5"/>
<path d="M164.867 297.55C164.867 296.703 164.18 296.016 163.333 296.016C162.486 296.016 161.8 296.703 161.8 297.55V332.826C161.8 333.673 162.486 334.36 163.333 334.36C164.18 334.36 164.867 333.673 164.867 332.826V297.55Z" fill="#4A6FA5"/>
<path d="M170.235 297.55C170.235 296.703 169.549 296.016 168.702 296.016C167.855 296.016 167.168 296.703 167.168 297.55V332.826C167.168 333.673 167.855 334.36 168.702 334.36C169.549 334.36 170.235 333.673 170.235 332.826V297.55Z" fill="#4A6FA5"/>
<path d="M175.602 305.219C175.602 304.372 174.916 303.685 174.069 303.685C173.222 303.685 172.535 304.372 172.535 305.219V325.158C172.535 326.005 173.222 326.691 174.069 326.691C174.916 326.691 175.602 326.005 175.602 325.158V305.219Z" fill="#4A6FA5"/>
<path d="M180.971 305.219C180.971 304.372 180.284 303.685 179.437 303.685C178.59 303.685 177.903 304.372 177.903 305.219V325.158C177.903 326.005 178.59 326.691 179.437 326.691C180.284 326.691 180.971 326.005 180.971 325.158V305.219Z" fill="#4A6FA5"/>
<path d="M186.339 305.219C186.339 304.372 185.652 303.685 184.805 303.685C183.958 303.685 183.271 304.372 183.271 305.219V325.158C183.271 326.005 183.958 326.691 184.805 326.691C185.652 326.691 186.339 326.005 186.339 325.158V305.219Z" fill="#4A6FA5"/>
<path d="M191.706 305.219C191.706 304.372 191.019 303.685 190.172 303.685C189.325 303.685 188.639 304.372 188.639 305.219V325.158C188.639 326.005 189.325 326.691 190.172 326.691C191.019 326.691 191.706 326.005 191.706 325.158V305.219Z" fill="#4A6FA5"/>
<path d="M197.074 305.219C197.074 304.372 196.387 303.685 195.54 303.685C194.693 303.685 194.007 304.372 194.007 305.219V325.158C194.007 326.005 194.693 326.691 195.54 326.691C196.387 326.691 197.074 326.005 197.074 325.158V305.219Z" fill="#4A6FA5"/>
<path d="M202.441 297.55C202.441 296.703 201.755 296.016 200.908 296.016C200.061 296.016 199.374 296.703 199.374 297.55V332.826C199.374 333.673 200.061 334.36 200.908 334.36C201.755 334.36 202.441 333.673 202.441 332.826V297.55Z" fill="#4A6FA5"/>
<path d="M207.809 297.55C207.809 296.703 207.123 296.016 206.276 296.016C205.429 296.016 204.742 296.703 204.742 297.55V332.826C204.742 333.673 205.429 334.36 206.276 334.36C207.123 334.36 207.809 333.673 207.809 332.826V297.55Z" fill="#4A6FA5"/>
<path d="M213.178 305.219C213.178 304.372 212.491 303.685 211.644 303.685C210.797 303.685 210.11 304.372 210.11 305.219V325.158C210.11 326.005 210.797 326.691 211.644 326.691C212.491 326.691 213.178 326.005 213.178 325.158V305.219Z" fill="#4A6FA5"/>
<path d="M218.545 305.219C218.545 304.372 217.858 303.685 217.011 303.685C216.164 303.685 215.478 304.372 215.478 305.219V325.158C215.478 326.005 216.164 326.691 217.011 326.691C217.858 326.691 218.545 326.005 218.545 325.158V305.219Z" fill="#4A6FA5"/>
<path d="M223.913 305.219C223.913 304.372 223.226 303.685 222.379 303.685C221.532 303.685 220.846 304.372 220.846 305.219V325.158C220.846 326.005 221.532 326.691 222.379 326.691C223.226 326.691 223.913 326.005 223.913 325.158V305.219Z" fill="#4A6FA5"/>
<path d="M229.28 305.219C229.28 304.372 228.594 303.685 227.747 303.685C226.9 303.685 226.213 304.372 226.213 305.219V325.158C226.213 326.005 226.9 326.691 227.747 326.691C228.594 326.691 229.28 326.005 229.28 325.158V305.219Z" fill="#4A6FA5"/>
<path d="M234.648 305.219C234.648 304.372 233.962 303.685 233.115 303.685C232.268 303.685 231.581 304.372 231.581 305.219V325.158C231.581 326.005 232.268 326.691 233.115 326.691C233.962 326.691 234.648 326.005 234.648 325.158V305.219Z" fill="#4A6FA5"/>
<path d="M240.017 305.219C240.017 304.372 239.33 303.685 238.483 303.685C237.636 303.685 236.949 304.372 236.949 305.219V325.158C236.949 326.005 237.636 326.691 238.483 326.691C239.33 326.691 240.017 326.005 240.017 325.158V305.219Z" fill="#4A6FA5"/>
<path d="M245.384 305.219C245.384 304.372 244.697 303.685 243.85 303.685C243.003 303.685 242.316 304.372 242.316 305.219V325.158C242.316 326.005 243.003 326.691 243.85 326.691C244.697 326.691 245.384 326.005 245.384 325.158V305.219Z" fill="#4A6FA5"/>
<path d="M250.752 305.219C250.752 304.372 250.065 303.685 249.218 303.685C248.371 303.685 247.685 304.372 247.685 305.219V325.158C247.685 326.005 248.371 326.691 249.218 326.691C250.065 326.691 250.752 326.005 250.752 325.158V305.219Z" fill="#4A6FA5"/>
<path d="M256.119 305.219C256.119 304.372 255.432 303.685 254.585 303.685C253.738 303.685 253.052 304.372 253.052 305.219V325.158C253.052 326.005 253.738 326.691 254.585 326.691C255.432 326.691 256.119 326.005 256.119 325.158V305.219Z" fill="#4A6FA5"/>
<path d="M216.628 85.8907H173.686C170.933 85.8907 168.701 88.1224 168.701 90.8754C168.701 93.6284 170.933 95.8601 173.686 95.8601H216.628C219.381 95.8601 221.612 93.6284 221.612 90.8754C221.612 88.1224 219.381 85.8907 216.628 85.8907Z" fill="black"/>
<path d="M181.109 109.439C181.233 109.411 181.36 109.395 181.489 109.39C181.618 109.381 181.746 109.376 181.875 109.376C181.99 109.376 182.124 109.386 182.276 109.404C182.427 109.418 182.561 109.445 182.676 109.487L182.752 109.59L180.074 118.873C179.862 118.896 179.637 118.913 179.398 118.922C179.158 118.931 178.926 118.936 178.701 118.936C178.365 118.936 178.102 118.88 177.914 118.77C177.73 118.655 177.592 118.439 177.5 118.121L175.057 109.59C175.218 109.521 175.388 109.462 175.567 109.411C175.747 109.36 175.931 109.335 176.119 109.335C176.373 109.335 176.573 109.402 176.72 109.535C176.872 109.669 176.989 109.889 177.072 110.198L178.362 114.767C178.464 115.13 178.563 115.533 178.659 115.975C178.76 116.412 178.85 116.819 178.928 117.196C178.951 117.298 178.997 117.348 179.066 117.348L181.109 109.439ZM183.756 111.302C183.89 111.279 184.042 111.263 184.212 111.254C184.387 111.245 184.529 111.24 184.64 111.24C184.759 111.24 184.895 111.245 185.047 111.254C185.203 111.263 185.353 111.279 185.495 111.302V118.867C185.353 118.894 185.203 118.91 185.047 118.915C184.895 118.924 184.759 118.929 184.64 118.929C184.529 118.929 184.387 118.924 184.212 118.915C184.042 118.91 183.89 118.894 183.756 118.867V111.302ZM192.127 111.302C192.256 111.274 192.373 111.256 192.479 111.247C192.585 111.238 192.691 111.233 192.796 111.233C192.925 111.233 193.063 111.242 193.21 111.261C193.358 111.274 193.507 111.304 193.659 111.35L193.735 111.447L191.368 118.873C191.193 118.896 190.979 118.913 190.726 118.922C190.473 118.931 190.236 118.936 190.015 118.936C189.73 118.936 189.486 118.89 189.284 118.798C189.086 118.706 188.938 118.496 188.842 118.169L186.723 111.426C186.88 111.362 187.043 111.311 187.213 111.274C187.383 111.233 187.556 111.212 187.731 111.212C187.984 111.212 188.184 111.272 188.331 111.392C188.483 111.511 188.605 111.725 188.697 112.034L189.684 115.153C189.785 115.485 189.884 115.839 189.981 116.216C190.077 116.594 190.167 116.987 190.25 117.396C190.268 117.47 190.307 117.507 190.367 117.507L192.127 111.302ZM200.378 117.465C200.378 117.999 200.295 118.37 200.129 118.577C199.964 118.779 199.686 118.88 199.294 118.88H195.892C195.584 118.88 195.34 118.791 195.16 118.611C194.981 118.432 194.891 118.188 194.891 117.88V111.385L194.967 111.302H200.143C200.166 111.431 200.18 111.553 200.185 111.668C200.189 111.783 200.192 111.889 200.192 111.985C200.192 112.087 200.18 112.202 200.157 112.33C200.139 112.459 200.106 112.588 200.06 112.717H197.417C197.325 112.717 197.203 112.717 197.051 112.717C196.904 112.712 196.75 112.71 196.589 112.71C196.589 112.83 196.591 112.945 196.596 113.055C196.601 113.166 196.603 113.29 196.603 113.428V114.367C196.759 114.362 196.911 114.36 197.058 114.36C197.21 114.355 197.33 114.353 197.417 114.353H199.432C199.469 114.459 199.492 114.576 199.501 114.705C199.515 114.834 199.522 114.944 199.522 115.036C199.522 115.133 199.515 115.245 199.501 115.374C199.492 115.503 199.469 115.62 199.432 115.726H197.417C197.33 115.726 197.21 115.726 197.058 115.726C196.911 115.726 196.759 115.726 196.603 115.726V116.789C196.603 116.927 196.601 117.049 196.596 117.155C196.591 117.261 196.589 117.373 196.589 117.493V117.5C196.727 117.491 196.861 117.484 196.989 117.479C197.123 117.47 197.282 117.465 197.466 117.465H200.378ZM207.845 113.559C207.845 113.895 207.769 114.201 207.618 114.477C207.466 114.748 207.268 114.976 207.024 115.16C206.78 115.34 206.525 115.462 206.258 115.526C206.493 115.609 206.684 115.733 206.831 115.899C206.983 116.06 207.114 116.262 207.224 116.506L207.68 117.541C207.762 117.725 207.852 117.896 207.949 118.052C208.05 118.209 208.156 118.337 208.266 118.439C208.16 118.581 207.999 118.708 207.783 118.818C207.572 118.924 207.344 118.977 207.1 118.977C206.838 118.977 206.628 118.91 206.472 118.777C206.32 118.643 206.184 118.436 206.065 118.156L205.416 116.679C205.306 116.426 205.172 116.253 205.016 116.161C204.859 116.064 204.634 116.016 204.339 116.016H203.711V118.867C203.569 118.894 203.419 118.91 203.263 118.915C203.111 118.924 202.975 118.929 202.856 118.929C202.745 118.929 202.607 118.924 202.441 118.915C202.276 118.91 202.126 118.894 201.993 118.867V111.371L202.069 111.295C202.58 111.281 203.063 111.27 203.518 111.261C203.978 111.251 204.438 111.247 204.898 111.247C205.46 111.247 205.961 111.325 206.403 111.481C206.849 111.638 207.201 111.886 207.459 112.227C207.716 112.567 207.845 113.011 207.845 113.559ZM203.711 112.524V114.691C203.918 114.691 204.116 114.689 204.305 114.684C204.498 114.679 204.65 114.677 204.76 114.677C205.101 114.677 205.365 114.624 205.554 114.518C205.743 114.408 205.874 114.27 205.947 114.104C206.021 113.939 206.058 113.766 206.058 113.587C206.058 113.32 205.968 113.078 205.789 112.862C205.614 112.646 205.292 112.537 204.822 112.537C204.648 112.537 204.466 112.535 204.277 112.531C204.089 112.526 203.9 112.524 203.711 112.524ZM215.106 117.465C215.106 117.999 215.024 118.37 214.858 118.577C214.692 118.779 214.414 118.88 214.023 118.88H210.62C210.312 118.88 210.068 118.791 209.889 118.611C209.709 118.432 209.62 118.188 209.62 117.88V111.385L209.696 111.302H214.872C214.895 111.431 214.909 111.553 214.913 111.668C214.918 111.783 214.92 111.889 214.92 111.985C214.92 112.087 214.909 112.202 214.886 112.33C214.867 112.459 214.835 112.588 214.789 112.717H212.146C212.054 112.717 211.932 112.717 211.78 112.717C211.633 112.712 211.479 112.71 211.317 112.71C211.317 112.83 211.32 112.945 211.324 113.055C211.329 113.166 211.331 113.29 211.331 113.428V114.367C211.488 114.362 211.64 114.36 211.787 114.36C211.939 114.355 212.058 114.353 212.146 114.353H214.161C214.198 114.459 214.221 114.576 214.23 114.705C214.244 114.834 214.251 114.944 214.251 115.036C214.251 115.133 214.244 115.245 214.23 115.374C214.221 115.503 214.198 115.62 214.161 115.726H212.146C212.058 115.726 211.939 115.726 211.787 115.726C211.64 115.726 211.488 115.726 211.331 115.726V116.789C211.331 116.927 211.329 117.049 211.324 117.155C211.32 117.261 211.317 117.373 211.317 117.493V117.5C211.456 117.491 211.589 117.484 211.718 117.479C211.851 117.47 212.01 117.465 212.194 117.465H215.106Z" fill="#FFF8EC"/>
<path d="M240.016 134.971H150.297C141.827 134.971 134.961 141.838 134.961 150.309V254.604C134.961 263.075 141.827 269.942 150.297 269.942H240.016C248.486 269.942 255.352 263.075 255.352 254.604V150.309C255.352 141.838 248.486 134.971 240.016 134.971Z" fill="white"/>
<path d="M154.385 178.824C154.321 178.824 154.215 178.824 154.068 178.824C153.921 178.819 153.792 178.814 153.681 178.81L153.005 180.998C152.895 181.025 152.775 181.041 152.646 181.046C152.517 181.055 152.386 181.06 152.253 181.06C152.105 181.06 151.954 181.051 151.797 181.032C151.641 181.014 151.51 180.986 151.404 180.949L151.342 180.86L154.434 171.556C154.572 171.533 154.737 171.517 154.93 171.508C155.128 171.498 155.301 171.494 155.448 171.494C155.586 171.494 155.754 171.501 155.952 171.514C156.15 171.524 156.315 171.54 156.449 171.563L159.492 180.873C159.373 180.947 159.219 181 159.03 181.032C158.841 181.069 158.657 181.087 158.478 181.087C158.202 181.087 157.985 181.025 157.829 180.901C157.673 180.772 157.541 180.521 157.436 180.149L157.022 178.81C156.911 178.814 156.78 178.819 156.628 178.824C156.476 178.824 156.368 178.824 156.304 178.824H154.385ZM154.716 175.469L154.116 177.409C154.217 177.409 154.332 177.409 154.461 177.409C154.595 177.404 154.691 177.402 154.751 177.402H155.986C156.042 177.402 156.131 177.404 156.256 177.409C156.38 177.409 156.492 177.409 156.594 177.409L156.117 175.856C155.998 175.46 155.871 175.023 155.738 174.544C155.604 174.066 155.487 173.626 155.386 173.226H155.303C155.234 173.567 155.14 173.951 155.02 174.379C154.905 174.807 154.804 175.17 154.716 175.469ZM166.483 175.925C166.483 176.495 166.355 176.969 166.097 177.347C165.844 177.724 165.492 178.007 165.041 178.196C164.595 178.38 164.084 178.472 163.509 178.472H162.501V180.984C162.363 181.012 162.216 181.028 162.06 181.032C161.908 181.041 161.77 181.046 161.646 181.046C161.535 181.046 161.395 181.041 161.225 181.032C161.054 181.028 160.902 181.012 160.769 180.984V173.488L160.845 173.413C161.241 173.408 161.671 173.399 162.136 173.385C162.6 173.371 163.058 173.364 163.509 173.364C164.084 173.364 164.595 173.454 165.041 173.633C165.492 173.813 165.844 174.091 166.097 174.469C166.355 174.846 166.483 175.331 166.483 175.925ZM162.501 174.669V177.167C162.681 177.163 162.853 177.16 163.019 177.16C163.189 177.16 163.313 177.16 163.392 177.16C163.755 177.16 164.031 177.094 164.22 176.96C164.408 176.827 164.535 176.666 164.599 176.477C164.668 176.284 164.703 176.097 164.703 175.918C164.703 175.738 164.668 175.554 164.599 175.366C164.535 175.172 164.408 175.011 164.22 174.883C164.031 174.749 163.755 174.682 163.392 174.682C163.249 174.682 163.111 174.682 162.978 174.682C162.844 174.682 162.685 174.678 162.501 174.669ZM168.997 179.445C168.933 179.445 168.838 179.442 168.714 179.438C168.59 179.433 168.479 179.431 168.383 179.431L167.851 180.991C167.746 181.014 167.628 181.03 167.499 181.039C167.375 181.053 167.246 181.06 167.113 181.06C166.961 181.06 166.812 181.048 166.664 181.025C166.522 181.007 166.402 180.977 166.306 180.936L166.25 180.846L168.969 173.419C169.14 173.396 169.317 173.38 169.501 173.371C169.69 173.357 169.857 173.35 170.005 173.35C170.143 173.35 170.295 173.357 170.46 173.371C170.63 173.38 170.801 173.396 170.971 173.419L173.656 180.901C173.522 180.966 173.359 181.012 173.166 181.039C172.977 181.071 172.814 181.087 172.676 181.087C172.459 181.087 172.264 181.046 172.089 180.963C171.914 180.876 171.774 180.666 171.668 180.335L171.364 179.431C171.272 179.431 171.166 179.433 171.047 179.438C170.927 179.442 170.835 179.445 170.771 179.445H168.997ZM169.246 176.912L168.852 178.064C168.94 178.064 169.034 178.062 169.135 178.058C169.241 178.053 169.324 178.051 169.384 178.051H170.426C170.485 178.051 170.559 178.053 170.647 178.058C170.739 178.058 170.824 178.06 170.902 178.064L170.564 177.077C170.462 176.751 170.352 176.376 170.232 175.952C170.117 175.524 170.014 175.143 169.922 174.807H169.853C169.765 175.129 169.667 175.488 169.556 175.883C169.446 176.279 169.342 176.622 169.246 176.912ZM181.2 180.542C181.085 180.699 180.921 180.827 180.71 180.929C180.503 181.03 180.289 181.078 180.068 181.074C179.769 181.074 179.548 181 179.405 180.853C179.263 180.701 179.134 180.492 179.019 180.225L178.322 178.63C178.188 178.327 178.043 178.113 177.887 177.988C177.735 177.864 177.516 177.798 177.231 177.788C177.162 177.784 177.068 177.786 176.948 177.795C176.833 177.8 176.711 177.804 176.582 177.809V180.984C176.444 181.012 176.297 181.028 176.141 181.032C175.989 181.041 175.851 181.046 175.727 181.046C175.616 181.046 175.476 181.041 175.306 181.032C175.136 181.028 174.984 181.012 174.85 180.984V173.419C174.984 173.396 175.136 173.38 175.306 173.371C175.476 173.362 175.616 173.357 175.727 173.357C175.851 173.357 175.989 173.362 176.141 173.371C176.297 173.38 176.444 173.396 176.582 173.419V176.394L176.955 176.387C177.121 176.387 177.231 176.364 177.286 176.318C177.346 176.272 177.418 176.182 177.5 176.049L178.784 173.965C178.894 173.767 179.014 173.617 179.143 173.516C179.272 173.41 179.477 173.357 179.757 173.357C179.858 173.357 180.017 173.364 180.233 173.378C180.45 173.387 180.631 173.401 180.779 173.419L180.889 173.544L179.26 176.118C179.072 176.436 178.862 176.684 178.632 176.863C178.996 176.951 179.269 177.103 179.453 177.319C179.642 177.535 179.81 177.804 179.957 178.127L180.558 179.514C180.677 179.79 180.783 180.006 180.875 180.163C180.972 180.314 181.08 180.441 181.2 180.542ZM184.373 179.445C184.308 179.445 184.214 179.442 184.09 179.438C183.965 179.433 183.855 179.431 183.758 179.431L183.227 180.991C183.121 181.014 183.004 181.03 182.875 181.039C182.751 181.053 182.622 181.06 182.489 181.06C182.337 181.06 182.187 181.048 182.04 181.025C181.897 181.007 181.778 180.977 181.681 180.936L181.626 180.846L184.345 173.419C184.515 173.396 184.692 173.38 184.876 173.371C185.065 173.357 185.233 173.35 185.38 173.35C185.518 173.35 185.67 173.357 185.836 173.371C186.006 173.38 186.176 173.396 186.346 173.419L189.031 180.901C188.898 180.966 188.734 181.012 188.541 181.039C188.352 181.071 188.189 181.087 188.051 181.087C187.835 181.087 187.639 181.046 187.465 180.963C187.29 180.876 187.149 180.666 187.044 180.335L186.74 179.431C186.648 179.431 186.542 179.433 186.422 179.438C186.303 179.442 186.211 179.445 186.146 179.445H184.373ZM184.621 176.912L184.228 178.064C184.315 178.064 184.409 178.062 184.511 178.058C184.617 178.053 184.699 178.051 184.759 178.051H185.801C185.861 178.051 185.935 178.053 186.022 178.058C186.114 178.058 186.199 178.06 186.277 178.064L185.939 177.077C185.838 176.751 185.728 176.376 185.608 175.952C185.493 175.524 185.389 175.143 185.297 174.807H185.228C185.141 175.129 185.042 175.488 184.932 175.883C184.821 176.279 184.718 176.622 184.621 176.912ZM191.957 180.984C191.819 181.012 191.672 181.028 191.516 181.032C191.364 181.041 191.226 181.046 191.102 181.046C190.991 181.046 190.851 181.041 190.681 181.032C190.51 181.028 190.359 181.012 190.225 180.984V173.419C190.359 173.392 190.51 173.373 190.681 173.364C190.851 173.355 190.991 173.35 191.102 173.35C191.226 173.35 191.364 173.355 191.516 173.364C191.672 173.373 191.819 173.392 191.957 173.419V175.545C191.957 175.697 191.955 175.835 191.95 175.959C191.946 176.079 191.944 176.212 191.944 176.36C192.026 176.36 192.137 176.357 192.275 176.353C192.417 176.348 192.528 176.346 192.606 176.346H194.242C194.32 176.346 194.428 176.348 194.566 176.353C194.704 176.357 194.815 176.36 194.897 176.36C194.897 176.212 194.895 176.079 194.89 175.959C194.886 175.835 194.884 175.697 194.884 175.545V173.419C195.017 173.392 195.16 173.373 195.311 173.364C195.468 173.355 195.608 173.35 195.732 173.35C195.843 173.35 195.983 173.355 196.153 173.364C196.324 173.373 196.478 173.392 196.616 173.419V180.984C196.473 181.012 196.324 181.028 196.167 181.032C196.011 181.041 195.87 181.046 195.746 181.046C195.622 181.046 195.482 181.041 195.325 181.032C195.169 181.028 195.022 181.012 194.884 180.984V178.575C194.884 178.414 194.886 178.274 194.89 178.154C194.895 178.035 194.897 177.901 194.897 177.754C194.815 177.754 194.704 177.756 194.566 177.761C194.428 177.765 194.32 177.768 194.242 177.768H192.606C192.528 177.768 192.417 177.765 192.275 177.761C192.137 177.756 192.026 177.754 191.944 177.754C191.944 177.901 191.946 178.035 191.95 178.154C191.955 178.274 191.957 178.414 191.957 178.575V180.984ZM208.108 180.542C207.993 180.699 207.83 180.827 207.618 180.929C207.411 181.03 207.197 181.078 206.976 181.074C206.677 181.074 206.456 181 206.314 180.853C206.171 180.701 206.042 180.492 205.927 180.225L205.23 178.63C205.097 178.327 204.952 178.113 204.796 177.988C204.644 177.864 204.425 177.798 204.14 177.788C204.071 177.784 203.977 177.786 203.857 177.795C203.742 177.8 203.62 177.804 203.491 177.809V180.984C203.353 181.012 203.206 181.028 203.049 181.032C202.898 181.041 202.76 181.046 202.635 181.046C202.525 181.046 202.385 181.041 202.214 181.032C202.044 181.028 201.892 181.012 201.759 180.984V173.419C201.892 173.396 202.044 173.38 202.214 173.371C202.385 173.362 202.525 173.357 202.635 173.357C202.76 173.357 202.898 173.362 203.049 173.371C203.206 173.38 203.353 173.396 203.491 173.419V176.394L203.864 176.387C204.029 176.387 204.14 176.364 204.195 176.318C204.255 176.272 204.326 176.182 204.409 176.049L205.693 173.965C205.803 173.767 205.923 173.617 206.052 173.516C206.18 173.41 206.385 173.357 206.666 173.357C206.767 173.357 206.926 173.364 207.142 173.378C207.358 173.387 207.54 173.401 207.687 173.419L207.798 173.544L206.169 176.118C205.98 176.436 205.771 176.684 205.541 176.863C205.904 176.951 206.178 177.103 206.362 177.319C206.551 177.535 206.719 177.804 206.866 178.127L207.466 179.514C207.586 179.79 207.692 180.006 207.784 180.163C207.88 180.314 207.989 180.441 208.108 180.542ZM211.281 179.445C211.217 179.445 211.123 179.442 210.998 179.438C210.874 179.433 210.764 179.431 210.667 179.431L210.136 180.991C210.03 181.014 209.913 181.03 209.784 181.039C209.659 181.053 209.531 181.06 209.397 181.06C209.245 181.06 209.096 181.048 208.949 181.025C208.806 181.007 208.686 180.977 208.59 180.936L208.535 180.846L211.254 173.419C211.424 173.396 211.601 173.38 211.785 173.371C211.974 173.357 212.142 173.35 212.289 173.35C212.427 173.35 212.579 173.357 212.744 173.371C212.915 173.38 213.085 173.396 213.255 173.419L215.94 180.901C215.806 180.966 215.643 181.012 215.45 181.039C215.261 181.071 215.098 181.087 214.96 181.087C214.744 181.087 214.548 181.046 214.373 180.963C214.198 180.876 214.058 180.666 213.952 180.335L213.649 179.431C213.556 179.431 213.451 179.433 213.331 179.438C213.211 179.442 213.119 179.445 213.055 179.445H211.281ZM211.53 176.912L211.136 178.064C211.224 178.064 211.318 178.062 211.419 178.058C211.525 178.053 211.608 178.051 211.668 178.051H212.71C212.77 178.051 212.843 178.053 212.931 178.058C213.023 178.058 213.108 178.06 213.186 178.064L212.848 177.077C212.747 176.751 212.636 176.376 212.517 175.952C212.402 175.524 212.298 175.143 212.206 174.807H212.137C212.05 175.129 211.951 175.488 211.84 175.883C211.73 176.279 211.626 176.622 211.53 176.912ZM217.618 173.419C217.792 173.387 217.986 173.364 218.197 173.35C218.409 173.337 218.591 173.33 218.743 173.33C218.89 173.33 219.071 173.337 219.288 173.35C219.504 173.364 219.686 173.387 219.833 173.419L220.751 176.725C220.801 176.9 220.866 177.156 220.944 177.492C221.027 177.823 221.089 178.117 221.13 178.375H221.213C221.25 178.117 221.308 177.823 221.386 177.492C221.469 177.16 221.535 176.905 221.586 176.725L222.497 173.419C222.658 173.387 222.844 173.364 223.056 173.35C223.268 173.337 223.445 173.33 223.587 173.33C223.735 173.33 223.919 173.337 224.139 173.35C224.365 173.364 224.556 173.387 224.712 173.419L225.458 180.963C225.205 181.023 224.91 181.053 224.574 181.053C224.445 181.053 224.31 181.048 224.167 181.039C224.029 181.03 223.9 181.014 223.781 180.991L223.525 177.781C223.502 177.524 223.486 177.234 223.477 176.912C223.468 176.59 223.463 176.275 223.463 175.966C223.463 175.653 223.461 175.382 223.456 175.152H223.38L222.048 179.838C221.919 179.861 221.768 179.88 221.593 179.893C221.423 179.903 221.278 179.907 221.158 179.907C221.029 179.907 220.88 179.903 220.709 179.893C220.539 179.88 220.397 179.861 220.282 179.838L218.95 175.152H218.867C218.867 175.382 218.864 175.653 218.86 175.966C218.86 176.275 218.855 176.59 218.846 176.912C218.837 177.234 218.821 177.526 218.798 177.788L218.549 180.991C218.31 181.032 218.048 181.053 217.763 181.053C217.417 181.053 217.121 181.023 216.872 180.963L217.618 173.419ZM233.698 178.237C233.698 179.171 233.415 179.893 232.849 180.404C232.288 180.915 231.492 181.17 230.461 181.17C229.435 181.17 228.639 180.915 228.073 180.404C227.507 179.893 227.224 179.171 227.224 178.237V173.433L227.307 173.357H227.949C228.289 173.357 228.543 173.445 228.708 173.62C228.878 173.79 228.964 174.07 228.964 174.462V178.23C228.964 178.727 229.083 179.114 229.322 179.39C229.562 179.661 229.941 179.797 230.461 179.797C230.986 179.797 231.365 179.661 231.6 179.39C231.839 179.114 231.959 178.727 231.959 178.23V173.419C232.097 173.396 232.242 173.38 232.394 173.371C232.55 173.362 232.686 173.357 232.801 173.357C232.916 173.357 233.058 173.362 233.229 173.371C233.403 173.38 233.56 173.401 233.698 173.433V178.237ZM145.508 189.524C145.683 189.492 145.877 189.469 146.088 189.455C146.3 189.441 146.482 189.434 146.633 189.434C146.781 189.434 146.962 189.441 147.179 189.455C147.395 189.469 147.577 189.492 147.724 189.524L148.642 192.83C148.692 193.005 148.757 193.26 148.835 193.596C148.918 193.927 148.98 194.222 149.021 194.48H149.104C149.141 194.222 149.198 193.927 149.277 193.596C149.359 193.265 149.426 193.009 149.477 192.83L150.388 189.524C150.549 189.492 150.735 189.469 150.947 189.455C151.158 189.441 151.336 189.434 151.478 189.434C151.625 189.434 151.809 189.441 152.03 189.455C152.256 189.469 152.447 189.492 152.603 189.524L153.348 197.068C153.095 197.128 152.801 197.157 152.465 197.157C152.336 197.157 152.201 197.153 152.058 197.144C151.92 197.134 151.791 197.118 151.671 197.095L151.416 193.886C151.393 193.628 151.377 193.338 151.368 193.016C151.359 192.694 151.354 192.379 151.354 192.071C151.354 191.758 151.352 191.486 151.347 191.256H151.271L149.939 195.943C149.81 195.966 149.659 195.984 149.484 195.998C149.313 196.007 149.169 196.012 149.049 196.012C148.92 196.012 148.771 196.007 148.6 195.998C148.43 195.984 148.287 195.966 148.172 195.943L146.84 191.256H146.758C146.758 191.486 146.755 191.758 146.751 192.071C146.751 192.379 146.746 192.694 146.737 193.016C146.728 193.338 146.712 193.631 146.689 193.893L146.44 197.095C146.201 197.137 145.939 197.157 145.653 197.157C145.308 197.157 145.012 197.128 144.763 197.068L145.508 189.524ZM157.042 195.549C156.977 195.549 156.883 195.547 156.759 195.542C156.634 195.538 156.524 195.535 156.427 195.535L155.896 197.095C155.79 197.118 155.673 197.134 155.544 197.144C155.42 197.157 155.291 197.164 155.157 197.164C155.006 197.164 154.856 197.153 154.709 197.13C154.566 197.111 154.447 197.082 154.35 197.04L154.295 196.95L157.014 189.524C157.184 189.501 157.361 189.485 157.545 189.476C157.734 189.462 157.902 189.455 158.049 189.455C158.187 189.455 158.339 189.462 158.505 189.476C158.675 189.485 158.845 189.501 159.015 189.524L161.7 197.006C161.567 197.07 161.403 197.116 161.21 197.144C161.021 197.176 160.858 197.192 160.72 197.192C160.504 197.192 160.308 197.151 160.133 197.068C159.959 196.98 159.818 196.771 159.712 196.44L159.409 195.535C159.317 195.535 159.211 195.538 159.091 195.542C158.972 195.547 158.88 195.549 158.815 195.549H157.042ZM157.29 193.016L156.897 194.169C156.984 194.169 157.078 194.167 157.18 194.162C157.285 194.157 157.368 194.155 157.428 194.155H158.47C158.53 194.155 158.604 194.157 158.691 194.162C158.783 194.162 158.868 194.164 158.946 194.169L158.608 193.182C158.507 192.855 158.396 192.48 158.277 192.057C158.162 191.629 158.058 191.247 157.966 190.911H157.897C157.81 191.233 157.711 191.592 157.601 191.988C157.49 192.384 157.387 192.726 157.29 193.016ZM162.135 196.488C162.139 196.267 162.204 196.028 162.328 195.77C162.457 195.508 162.611 195.319 162.79 195.204C163.112 195.388 163.478 195.552 163.888 195.694C164.302 195.837 164.73 195.908 165.171 195.908C165.503 195.904 165.786 195.828 166.02 195.68C166.255 195.529 166.372 195.322 166.372 195.059C166.372 194.673 166.078 194.381 165.489 194.183L164.254 193.706C163.711 193.518 163.257 193.262 162.894 192.94C162.53 192.614 162.349 192.181 162.349 191.643C162.349 190.985 162.604 190.437 163.115 190C163.625 189.563 164.329 189.342 165.227 189.338C165.728 189.333 166.223 189.39 166.71 189.51C167.203 189.63 167.619 189.768 167.96 189.924C167.96 190.173 167.907 190.419 167.801 190.663C167.695 190.902 167.55 191.093 167.366 191.236C167.03 191.084 166.664 190.96 166.269 190.863C165.878 190.766 165.521 190.718 165.199 190.718C164.877 190.723 164.624 190.796 164.44 190.939C164.26 191.081 164.171 191.261 164.171 191.477C164.171 191.666 164.244 191.811 164.392 191.912C164.543 192.009 164.75 192.103 165.013 192.195L166.227 192.657C166.816 192.864 167.297 193.157 167.67 193.534C168.042 193.911 168.229 194.378 168.229 194.935C168.229 195.418 168.1 195.835 167.842 196.184C167.585 196.534 167.228 196.803 166.773 196.992C166.317 197.18 165.79 197.275 165.192 197.275C164.502 197.279 163.895 197.197 163.37 197.026C162.846 196.856 162.434 196.677 162.135 196.488ZM169.72 189.524C169.854 189.501 170.005 189.485 170.176 189.476C170.351 189.466 170.493 189.462 170.604 189.462C170.723 189.462 170.859 189.466 171.011 189.476C171.167 189.485 171.317 189.501 171.459 189.524V197.088C171.317 197.116 171.167 197.132 171.011 197.137C170.859 197.146 170.723 197.151 170.604 197.151C170.493 197.151 170.351 197.146 170.176 197.137C170.005 197.132 169.854 197.116 169.72 197.088V189.524ZM176.671 189.524C176.804 189.501 176.956 189.485 177.126 189.476C177.301 189.466 177.444 189.462 177.554 189.462C177.674 189.462 177.809 189.466 177.961 189.476C178.118 189.485 178.267 189.501 178.41 189.524V197.088C178.267 197.116 178.118 197.132 177.961 197.137C177.809 197.146 177.674 197.151 177.554 197.151C177.444 197.151 177.301 197.146 177.126 197.137C176.956 197.132 176.804 197.116 176.671 197.088V189.524ZM182.943 193.127C182.874 193.002 182.789 192.837 182.688 192.63C182.591 192.418 182.495 192.209 182.398 192.002C182.301 191.79 182.223 191.622 182.163 191.498L182.108 191.519C182.122 191.831 182.136 192.177 182.15 192.554C182.168 192.927 182.182 193.276 182.191 193.603C182.2 193.925 182.205 194.167 182.205 194.328V197.088C182.062 197.116 181.922 197.132 181.784 197.137C181.65 197.146 181.526 197.151 181.411 197.151C181.301 197.151 181.172 197.146 181.025 197.137C180.877 197.132 180.735 197.116 180.597 197.088V189.558C180.735 189.531 180.903 189.508 181.101 189.489C181.298 189.471 181.457 189.462 181.577 189.462C181.706 189.462 181.869 189.466 182.067 189.476C182.269 189.48 182.44 189.496 182.578 189.524L184.696 193.493C184.765 193.612 184.853 193.785 184.959 194.01C185.064 194.231 185.17 194.456 185.276 194.687C185.382 194.912 185.467 195.089 185.531 195.218L185.593 195.204C185.575 194.933 185.552 194.615 185.524 194.252C185.501 193.884 185.481 193.527 185.462 193.182C185.444 192.832 185.435 192.552 185.435 192.34V190.435C185.435 190.048 185.513 189.788 185.669 189.655C185.826 189.522 186.074 189.455 186.415 189.455H187.001L187.084 189.538V197.068C186.942 197.095 186.771 197.116 186.573 197.13C186.376 197.144 186.217 197.151 186.097 197.151C185.973 197.151 185.805 197.146 185.593 197.137C185.382 197.132 185.209 197.116 185.076 197.088L182.943 193.127ZM192.23 192.885C192.552 192.871 192.867 192.864 193.175 192.864C193.488 192.86 193.805 192.858 194.127 192.858C194.597 192.858 194.914 192.94 195.08 193.106C195.25 193.272 195.335 193.511 195.335 193.824V196.812C195.087 196.895 194.788 196.973 194.438 197.047C194.088 197.116 193.723 197.171 193.341 197.213C192.959 197.254 192.6 197.275 192.264 197.275C191.381 197.275 190.674 197.1 190.145 196.75C189.621 196.396 189.241 195.924 189.007 195.335C188.772 194.746 188.655 194.1 188.655 193.396C188.655 192.416 188.832 191.629 189.186 191.035C189.54 190.442 190.005 190.012 190.58 189.745C191.155 189.473 191.774 189.338 192.437 189.338C192.952 189.338 193.456 189.4 193.948 189.524C194.445 189.644 194.88 189.807 195.252 190.014C195.22 190.258 195.135 190.506 194.997 190.759C194.864 191.012 194.716 191.206 194.555 191.339C194.233 191.15 193.895 191.006 193.541 190.904C193.191 190.803 192.839 190.752 192.485 190.752C191.859 190.752 191.362 190.962 190.994 191.381C190.626 191.799 190.442 192.466 190.442 193.382C190.442 195.098 191.151 195.957 192.568 195.957C192.775 195.957 192.975 195.945 193.168 195.922C193.361 195.894 193.543 195.864 193.713 195.832V194.97C193.713 194.735 193.723 194.505 193.741 194.279C193.598 194.279 193.458 194.279 193.32 194.279C193.182 194.279 193.051 194.279 192.927 194.279C192.402 194.279 192.14 194.033 192.14 193.541C192.14 193.444 192.149 193.329 192.167 193.196C192.186 193.062 192.207 192.959 192.23 192.885ZM198.905 195.549C198.84 195.549 198.746 195.547 198.622 195.542C198.498 195.538 198.387 195.535 198.291 195.535L197.759 197.095C197.653 197.118 197.536 197.134 197.407 197.144C197.283 197.157 197.154 197.164 197.021 197.164C196.869 197.164 196.719 197.153 196.572 197.13C196.429 197.111 196.31 197.082 196.213 197.04L196.158 196.95L198.877 189.524C199.047 189.501 199.225 189.485 199.409 189.476C199.597 189.462 199.765 189.455 199.912 189.455C200.05 189.455 200.202 189.462 200.368 189.476C200.538 189.485 200.708 189.501 200.879 189.524L203.563 197.006C203.43 197.07 203.266 197.116 203.073 197.144C202.885 197.176 202.721 197.192 202.583 197.192C202.367 197.192 202.171 197.151 201.997 197.068C201.822 196.98 201.681 196.771 201.576 196.44L201.272 195.535C201.18 195.535 201.074 195.538 200.954 195.542C200.835 195.547 200.743 195.549 200.678 195.549H198.905ZM199.153 193.016L198.76 194.169C198.847 194.169 198.942 194.167 199.043 194.162C199.149 194.157 199.231 194.155 199.291 194.155H200.333C200.393 194.155 200.467 194.157 200.554 194.162C200.646 194.162 200.731 194.164 200.81 194.169L200.471 193.182C200.37 192.855 200.26 192.48 200.14 192.057C200.025 191.629 199.922 191.247 199.83 190.911H199.761C199.673 191.233 199.574 191.592 199.464 191.988C199.353 192.384 199.25 192.726 199.153 193.016ZM205.264 191.76C205.264 191.613 205.266 191.477 205.271 191.353C205.276 191.229 205.278 191.088 205.278 190.932C205.19 190.932 205.066 190.934 204.905 190.939C204.744 190.943 204.618 190.946 204.526 190.946H203.138C203.115 190.817 203.099 190.695 203.09 190.58C203.081 190.46 203.076 190.35 203.076 190.249C203.076 190.152 203.081 190.039 203.09 189.91C203.099 189.782 203.115 189.653 203.138 189.524H209.081C209.108 189.625 209.129 189.738 209.143 189.862C209.156 189.986 209.163 190.092 209.163 190.18C209.163 190.428 209.097 190.619 208.963 190.752C208.834 190.881 208.607 190.946 208.28 190.946H207.721C207.634 190.946 207.509 190.943 207.348 190.939C207.192 190.934 207.072 190.932 206.989 190.932C206.989 191.088 206.992 191.229 206.996 191.353C207.001 191.477 207.003 191.613 207.003 191.76V197.088C206.897 197.111 206.757 197.128 206.582 197.137C206.412 197.146 206.265 197.151 206.141 197.151C206.016 197.151 205.869 197.146 205.699 197.137C205.533 197.128 205.388 197.111 205.264 197.088V191.76ZM218.933 192.029C218.933 192.6 218.804 193.074 218.546 193.451C218.293 193.828 217.941 194.111 217.49 194.3C217.044 194.484 216.533 194.576 215.958 194.576H214.951V197.088C214.813 197.116 214.665 197.132 214.509 197.137C214.357 197.146 214.219 197.151 214.095 197.151C213.984 197.151 213.844 197.146 213.674 197.137C213.504 197.132 213.352 197.116 213.218 197.088V189.593L213.294 189.517C213.69 189.512 214.12 189.503 214.585 189.489C215.049 189.476 215.507 189.469 215.958 189.469C216.533 189.469 217.044 189.558 217.49 189.738C217.941 189.917 218.293 190.196 218.546 190.573C218.804 190.95 218.933 191.436 218.933 192.029ZM214.951 190.773V193.272C215.13 193.267 215.303 193.265 215.468 193.265C215.638 193.265 215.763 193.265 215.841 193.265C216.204 193.265 216.48 193.198 216.669 193.065C216.858 192.931 216.984 192.77 217.049 192.581C217.118 192.388 217.152 192.202 217.152 192.022C217.152 191.843 217.118 191.659 217.049 191.47C216.984 191.277 216.858 191.116 216.669 190.987C216.48 190.854 216.204 190.787 215.841 190.787C215.698 190.787 215.56 190.787 215.427 190.787C215.293 190.787 215.135 190.782 214.951 190.773ZM221.446 195.549C221.382 195.549 221.288 195.547 221.163 195.542C221.039 195.538 220.929 195.535 220.832 195.535L220.301 197.095C220.195 197.118 220.078 197.134 219.949 197.144C219.825 197.157 219.696 197.164 219.562 197.164C219.41 197.164 219.261 197.153 219.114 197.13C218.971 197.111 218.851 197.082 218.755 197.04L218.7 196.95L221.419 189.524C221.589 189.501 221.766 189.485 221.95 189.476C222.139 189.462 222.307 189.455 222.454 189.455C222.592 189.455 222.744 189.462 222.909 189.476C223.08 189.485 223.25 189.501 223.42 189.524L226.105 197.006C225.971 197.07 225.808 197.116 225.615 197.144C225.426 197.176 225.263 197.192 225.125 197.192C224.909 197.192 224.713 197.151 224.538 197.068C224.363 196.98 224.223 196.771 224.117 196.44L223.814 195.535C223.722 195.535 223.616 195.538 223.496 195.542C223.376 195.547 223.284 195.549 223.22 195.549H221.446ZM221.695 193.016L221.301 194.169C221.389 194.169 221.483 194.167 221.584 194.162C221.69 194.157 221.773 194.155 221.833 194.155H222.875C222.935 194.155 223.008 194.157 223.096 194.162C223.188 194.162 223.273 194.164 223.351 194.169L223.013 193.182C222.912 192.855 222.801 192.48 222.682 192.057C222.567 191.629 222.463 191.247 222.371 190.911H222.302C222.215 191.233 222.116 191.592 222.005 191.988C221.895 192.384 221.791 192.726 221.695 193.016ZM233.849 193.32C233.849 194.581 233.561 195.533 232.986 196.177C232.411 196.817 231.489 197.137 230.219 197.137C229.694 197.137 229.223 197.132 228.804 197.123C228.385 197.118 227.909 197.109 227.375 197.095L227.3 197.019V189.593L227.375 189.517C227.909 189.503 228.385 189.492 228.804 189.483C229.223 189.473 229.694 189.469 230.219 189.469C231.479 189.469 232.4 189.802 232.979 190.469C233.559 191.132 233.849 192.082 233.849 193.32ZM232.075 193.32C232.075 193.035 232.052 192.745 232.006 192.45C231.96 192.156 231.873 191.887 231.744 191.643C231.62 191.399 231.433 191.203 231.185 191.056C230.941 190.904 230.617 190.828 230.212 190.828C229.982 190.828 229.777 190.826 229.598 190.821C229.423 190.817 229.23 190.815 229.018 190.815V195.812C229.234 195.812 229.43 195.809 229.605 195.805C229.779 195.8 229.982 195.798 230.212 195.798C230.617 195.798 230.941 195.724 231.185 195.577C231.433 195.425 231.62 195.227 231.744 194.983C231.873 194.739 231.96 194.473 232.006 194.183C232.052 193.893 232.075 193.605 232.075 193.32ZM237.064 195.549C237 195.549 236.906 195.547 236.781 195.542C236.657 195.538 236.547 195.535 236.45 195.535L235.919 197.095C235.813 197.118 235.695 197.134 235.567 197.144C235.442 197.157 235.314 197.164 235.18 197.164C235.028 197.164 234.879 197.153 234.732 197.13C234.589 197.111 234.469 197.082 234.373 197.04L234.317 196.95L237.037 189.524C237.207 189.501 237.384 189.485 237.568 189.476C237.757 189.462 237.925 189.455 238.072 189.455C238.21 189.455 238.362 189.462 238.527 189.476C238.698 189.485 238.868 189.501 239.038 189.524L241.723 197.006C241.589 197.07 241.426 197.116 241.233 197.144C241.044 197.176 240.881 197.192 240.743 197.192C240.526 197.192 240.331 197.151 240.156 197.068C239.981 196.98 239.841 196.771 239.735 196.44L239.431 195.535C239.339 195.535 239.234 195.538 239.114 195.542C238.994 195.547 238.902 195.549 238.838 195.549H237.064ZM237.313 193.016L236.919 194.169C237.007 194.169 237.101 194.167 237.202 194.162C237.308 194.157 237.391 194.155 237.451 194.155H238.493C238.553 194.155 238.626 194.157 238.714 194.162C238.806 194.162 238.891 194.164 238.969 194.169L238.631 193.182C238.53 192.855 238.419 192.48 238.3 192.057C238.185 191.629 238.081 191.247 237.989 190.911H237.92C237.833 191.233 237.734 191.592 237.623 191.988C237.513 192.384 237.409 192.726 237.313 193.016ZM150.168 212.592C150.172 212.372 150.237 212.132 150.361 211.875C150.49 211.612 150.644 211.424 150.823 211.309C151.145 211.493 151.511 211.656 151.921 211.799C152.335 211.941 152.763 212.013 153.204 212.013C153.536 212.008 153.819 211.932 154.053 211.785C154.288 211.633 154.405 211.426 154.405 211.164C154.405 210.777 154.111 210.485 153.522 210.287L152.286 209.811C151.744 209.622 151.29 209.367 150.927 209.045C150.563 208.718 150.382 208.286 150.382 207.747C150.382 207.089 150.637 206.542 151.148 206.105C151.658 205.668 152.362 205.447 153.26 205.442C153.761 205.437 154.256 205.495 154.743 205.615C155.236 205.734 155.652 205.872 155.992 206.029C155.992 206.277 155.94 206.523 155.834 206.767C155.728 207.007 155.583 207.197 155.399 207.34C155.063 207.188 154.697 207.064 154.302 206.967C153.911 206.871 153.554 206.822 153.232 206.822C152.91 206.827 152.657 206.901 152.473 207.043C152.293 207.186 152.204 207.365 152.204 207.582C152.204 207.77 152.277 207.915 152.424 208.016C152.576 208.113 152.783 208.207 153.046 208.299L154.26 208.762C154.849 208.969 155.33 209.261 155.703 209.638C156.075 210.016 156.262 210.483 156.262 211.04C156.262 211.523 156.133 211.939 155.875 212.289C155.618 212.638 155.261 212.908 154.805 213.096C154.35 213.285 153.823 213.379 153.225 213.379C152.535 213.384 151.928 213.301 151.403 213.131C150.879 212.961 150.467 212.781 150.168 212.592ZM159.667 211.654C159.603 211.654 159.508 211.652 159.384 211.647C159.26 211.642 159.15 211.64 159.053 211.64L158.521 213.2C158.416 213.223 158.298 213.239 158.17 213.248C158.045 213.262 157.916 213.269 157.783 213.269C157.631 213.269 157.482 213.257 157.334 213.234C157.192 213.216 157.072 213.186 156.976 213.145L156.92 213.055L159.64 205.628C159.81 205.605 159.987 205.589 160.171 205.58C160.36 205.566 160.527 205.559 160.675 205.559C160.813 205.559 160.965 205.566 161.13 205.58C161.3 205.589 161.471 205.605 161.641 205.628L164.326 213.11C164.192 213.175 164.029 213.221 163.836 213.248C163.647 213.28 163.484 213.296 163.346 213.296C163.129 213.296 162.934 213.255 162.759 213.172C162.584 213.085 162.444 212.875 162.338 212.544L162.034 211.64C161.942 211.64 161.836 211.642 161.717 211.647C161.597 211.652 161.505 211.654 161.441 211.654H159.667ZM159.916 209.121L159.522 210.273C159.61 210.273 159.704 210.271 159.805 210.267C159.911 210.262 159.994 210.26 160.054 210.26H161.096C161.156 210.26 161.229 210.262 161.317 210.267C161.409 210.267 161.494 210.269 161.572 210.273L161.234 209.286C161.133 208.96 161.022 208.585 160.902 208.161C160.787 207.734 160.684 207.352 160.592 207.016H160.523C160.435 207.338 160.337 207.697 160.226 208.092C160.116 208.488 160.012 208.831 159.916 209.121ZM167.308 211.654C167.243 211.654 167.149 211.652 167.025 211.647C166.901 211.642 166.79 211.64 166.694 211.64L166.162 213.2C166.056 213.223 165.939 213.239 165.81 213.248C165.686 213.262 165.557 213.269 165.424 213.269C165.272 213.269 165.122 213.257 164.975 213.234C164.832 213.216 164.713 213.186 164.616 213.145L164.561 213.055L167.28 205.628C167.45 205.605 167.628 205.589 167.812 205.58C168 205.566 168.168 205.559 168.315 205.559C168.453 205.559 168.605 205.566 168.771 205.58C168.941 205.589 169.111 205.605 169.282 205.628L171.966 213.11C171.833 213.175 171.669 213.221 171.476 213.248C171.288 213.28 171.124 213.296 170.986 213.296C170.77 213.296 170.574 213.255 170.4 213.172C170.225 213.085 170.084 212.875 169.979 212.544L169.675 211.64C169.583 211.64 169.477 211.642 169.357 211.647C169.238 211.652 169.146 211.654 169.081 211.654H167.308ZM167.556 209.121L167.163 210.273C167.25 210.273 167.345 210.271 167.446 210.267C167.552 210.262 167.634 210.26 167.694 210.26H168.736C168.796 210.26 168.87 210.262 168.957 210.267C169.049 210.267 169.134 210.269 169.213 210.273L168.874 209.286C168.773 208.96 168.663 208.585 168.543 208.161C168.428 207.734 168.325 207.352 168.233 207.016H168.164C168.076 207.338 167.977 207.697 167.867 208.092C167.756 208.488 167.653 208.831 167.556 209.121ZM173.666 207.865C173.666 207.717 173.669 207.582 173.673 207.457C173.678 207.333 173.68 207.193 173.68 207.036C173.593 207.036 173.468 207.039 173.307 207.043C173.146 207.048 173.02 207.05 172.928 207.05H171.541C171.518 206.921 171.502 206.799 171.492 206.684C171.483 206.565 171.479 206.454 171.479 206.353C171.479 206.256 171.483 206.144 171.492 206.015C171.502 205.886 171.518 205.757 171.541 205.628H177.483C177.51 205.73 177.531 205.842 177.545 205.967C177.559 206.091 177.566 206.197 177.566 206.284C177.566 206.533 177.499 206.724 177.365 206.857C177.237 206.986 177.009 207.05 176.682 207.05H176.123C176.036 207.05 175.912 207.048 175.75 207.043C175.594 207.039 175.474 207.036 175.392 207.036C175.392 207.193 175.394 207.333 175.399 207.457C175.403 207.582 175.405 207.717 175.405 207.865V213.193C175.3 213.216 175.159 213.232 174.984 213.241C174.814 213.25 174.667 213.255 174.543 213.255C174.419 213.255 174.271 213.25 174.101 213.241C173.935 213.232 173.79 213.216 173.666 213.193V207.865ZM181.656 205.628C181.789 205.605 181.941 205.589 182.111 205.58C182.286 205.571 182.429 205.566 182.539 205.566C182.659 205.566 182.795 205.571 182.946 205.58C183.103 205.589 183.252 205.605 183.395 205.628V213.193C183.252 213.221 183.103 213.237 182.946 213.241C182.795 213.25 182.659 213.255 182.539 213.255C182.429 213.255 182.286 213.25 182.111 213.241C181.941 213.237 181.789 213.221 181.656 213.193V205.628ZM186.748 207.865C186.748 207.717 186.751 207.582 186.755 207.457C186.76 207.333 186.762 207.193 186.762 207.036C186.675 207.036 186.55 207.039 186.389 207.043C186.228 207.048 186.102 207.05 186.01 207.05H184.623C184.6 206.921 184.584 206.799 184.574 206.684C184.565 206.565 184.561 206.454 184.561 206.353C184.561 206.256 184.565 206.144 184.574 206.015C184.584 205.886 184.6 205.757 184.623 205.628H190.565C190.592 205.73 190.613 205.842 190.627 205.967C190.641 206.091 190.648 206.197 190.648 206.284C190.648 206.533 190.581 206.724 190.447 206.857C190.319 206.986 190.091 207.05 189.764 207.05H189.205C189.118 207.05 188.994 207.048 188.833 207.043C188.676 207.039 188.556 207.036 188.474 207.036C188.474 207.193 188.476 207.333 188.481 207.457C188.485 207.582 188.487 207.717 188.487 207.865V213.193C188.382 213.216 188.241 213.232 188.066 213.241C187.896 213.25 187.749 213.255 187.625 213.255C187.501 213.255 187.353 213.25 187.183 213.241C187.017 213.232 186.873 213.216 186.748 213.193V207.865ZM198.048 210.446C198.048 211.38 197.765 212.102 197.199 212.613C196.638 213.124 195.842 213.379 194.811 213.379C193.785 213.379 192.989 213.124 192.424 212.613C191.858 212.102 191.575 211.38 191.575 210.446V205.642L191.658 205.566H192.299C192.64 205.566 192.893 205.654 193.058 205.829C193.229 205.999 193.314 206.279 193.314 206.671V210.439C193.314 210.936 193.433 211.323 193.673 211.599C193.912 211.87 194.292 212.006 194.811 212.006C195.336 212.006 195.716 211.87 195.95 211.599C196.189 211.323 196.309 210.936 196.309 210.439V205.628C196.447 205.605 196.592 205.589 196.744 205.58C196.9 205.571 197.036 205.566 197.151 205.566C197.266 205.566 197.409 205.571 197.579 205.58C197.754 205.589 197.91 205.61 198.048 205.642V210.446ZM209.406 212.751C209.291 212.908 209.128 213.036 208.916 213.138C208.709 213.239 208.495 213.287 208.275 213.283C207.976 213.283 207.755 213.209 207.612 213.062C207.469 212.91 207.341 212.701 207.226 212.434L206.529 210.839C206.395 210.536 206.25 210.322 206.094 210.197C205.942 210.073 205.723 210.007 205.438 209.997C205.369 209.993 205.275 209.995 205.155 210.004C205.04 210.009 204.918 210.013 204.789 210.018V213.193C204.651 213.221 204.504 213.237 204.348 213.241C204.196 213.25 204.058 213.255 203.934 213.255C203.823 213.255 203.683 213.25 203.513 213.241C203.342 213.237 203.191 213.221 203.057 213.193V205.628C203.191 205.605 203.342 205.589 203.513 205.58C203.683 205.571 203.823 205.566 203.934 205.566C204.058 205.566 204.196 205.571 204.348 205.58C204.504 205.589 204.651 205.605 204.789 205.628V208.603L205.162 208.596C205.328 208.596 205.438 208.573 205.493 208.527C205.553 208.481 205.624 208.391 205.707 208.258L206.991 206.174C207.101 205.976 207.221 205.826 207.35 205.725C207.479 205.619 207.683 205.566 207.964 205.566C208.065 205.566 208.224 205.573 208.44 205.587C208.656 205.596 208.838 205.61 208.985 205.628L209.096 205.753L207.467 208.327C207.279 208.645 207.069 208.893 206.839 209.072C207.203 209.16 207.476 209.312 207.66 209.528C207.849 209.744 208.017 210.013 208.164 210.336L208.765 211.723C208.884 211.999 208.99 212.215 209.082 212.372C209.179 212.523 209.287 212.65 209.406 212.751ZM212.58 211.654C212.515 211.654 212.421 211.652 212.297 211.647C212.172 211.642 212.062 211.64 211.965 211.64L211.434 213.2C211.328 213.223 211.211 213.239 211.082 213.248C210.958 213.262 210.829 213.269 210.695 213.269C210.544 213.269 210.394 213.257 210.247 213.234C210.104 213.216 209.985 213.186 209.888 213.145L209.833 213.055L212.552 205.628C212.722 205.605 212.899 205.589 213.083 205.58C213.272 205.566 213.44 205.559 213.587 205.559C213.725 205.559 213.877 205.566 214.043 205.58C214.213 205.589 214.383 205.605 214.553 205.628L217.238 213.11C217.105 213.175 216.941 213.221 216.748 213.248C216.559 213.28 216.396 213.296 216.258 213.296C216.042 213.296 215.846 213.255 215.671 213.172C215.497 213.085 215.356 212.875 215.25 212.544L214.947 211.64C214.855 211.64 214.749 211.642 214.629 211.647C214.51 211.652 214.418 211.654 214.353 211.654H212.58ZM212.828 209.121L212.435 210.273C212.522 210.273 212.616 210.271 212.718 210.267C212.823 210.262 212.906 210.26 212.966 210.26H214.008C214.068 210.26 214.142 210.262 214.229 210.267C214.321 210.267 214.406 210.269 214.484 210.273L214.146 209.286C214.045 208.96 213.935 208.585 213.815 208.161C213.7 207.734 213.596 207.352 213.504 207.016H213.435C213.348 207.338 213.249 207.697 213.139 208.092C213.028 208.488 212.925 208.831 212.828 209.121ZM218.916 205.628C219.091 205.596 219.284 205.573 219.496 205.559C219.707 205.546 219.889 205.539 220.041 205.539C220.188 205.539 220.37 205.546 220.586 205.559C220.802 205.573 220.984 205.596 221.131 205.628L222.049 208.934C222.1 209.109 222.164 209.365 222.242 209.701C222.325 210.032 222.387 210.326 222.429 210.584H222.511C222.548 210.326 222.606 210.032 222.684 209.701C222.767 209.369 222.834 209.114 222.884 208.934L223.795 205.628C223.956 205.596 224.143 205.573 224.354 205.559C224.566 205.546 224.743 205.539 224.886 205.539C225.033 205.539 225.217 205.546 225.438 205.559C225.663 205.573 225.854 205.596 226.01 205.628L226.756 213.172C226.503 213.232 226.208 213.262 225.872 213.262C225.744 213.262 225.608 213.257 225.465 213.248C225.327 213.239 225.198 213.223 225.079 213.2L224.823 209.99C224.8 209.733 224.784 209.443 224.775 209.121C224.766 208.799 224.761 208.484 224.761 208.175C224.761 207.862 224.759 207.591 224.754 207.361H224.678L223.347 212.047C223.218 212.07 223.066 212.089 222.891 212.102C222.721 212.112 222.576 212.116 222.456 212.116C222.327 212.116 222.178 212.112 222.008 212.102C221.837 212.089 221.695 212.07 221.58 212.047L220.248 207.361H220.165C220.165 207.591 220.163 207.862 220.158 208.175C220.158 208.484 220.153 208.799 220.144 209.121C220.135 209.443 220.119 209.735 220.096 209.997L219.848 213.2C219.608 213.241 219.346 213.262 219.061 213.262C218.716 213.262 218.419 213.232 218.17 213.172L218.916 205.628ZM234.996 210.446C234.996 211.38 234.713 212.102 234.147 212.613C233.586 213.124 232.79 213.379 231.759 213.379C230.733 213.379 229.937 213.124 229.371 212.613C228.806 212.102 228.523 211.38 228.523 210.446V205.642L228.605 205.566H229.247C229.588 205.566 229.841 205.654 230.006 205.829C230.177 205.999 230.262 206.279 230.262 206.671V210.439C230.262 210.936 230.381 211.323 230.621 211.599C230.86 211.87 231.239 212.006 231.759 212.006C232.284 212.006 232.663 211.87 232.898 211.599C233.137 211.323 233.257 210.936 233.257 210.439V205.628C233.395 205.605 233.54 205.589 233.692 205.58C233.848 205.571 233.984 205.566 234.099 205.566C234.214 205.566 234.357 205.571 234.527 205.58C234.702 205.589 234.858 205.61 234.996 205.642V210.446ZM143.072 228.697C143.077 228.476 143.141 228.237 143.266 227.979C143.394 227.717 143.548 227.528 143.728 227.413C144.05 227.597 144.416 227.761 144.825 227.903C145.239 228.046 145.667 228.117 146.109 228.117C146.44 228.113 146.723 228.037 146.958 227.889C147.192 227.738 147.31 227.531 147.31 227.268C147.31 226.882 147.015 226.59 146.426 226.392L145.191 225.915C144.648 225.727 144.195 225.471 143.831 225.149C143.468 224.823 143.286 224.39 143.286 223.852C143.286 223.194 143.542 222.646 144.052 222.209C144.563 221.772 145.267 221.551 146.164 221.547C146.666 221.542 147.16 221.599 147.648 221.719C148.14 221.839 148.557 221.977 148.897 222.133C148.897 222.382 148.844 222.628 148.738 222.872C148.633 223.111 148.488 223.302 148.304 223.445C147.968 223.293 147.602 223.169 147.206 223.072C146.815 222.975 146.459 222.927 146.136 222.927C145.814 222.932 145.561 223.005 145.377 223.148C145.198 223.29 145.108 223.47 145.108 223.686C145.108 223.875 145.182 224.02 145.329 224.121C145.481 224.218 145.688 224.312 145.95 224.404L147.165 224.866C147.754 225.073 148.235 225.366 148.607 225.743C148.98 226.12 149.166 226.587 149.166 227.144C149.166 227.627 149.037 228.044 148.78 228.393C148.522 228.743 148.166 229.012 147.71 229.201C147.255 229.389 146.728 229.484 146.13 229.484C145.439 229.488 144.832 229.406 144.308 229.235C143.783 229.065 143.371 228.886 143.072 228.697ZM156.109 227.896C156.109 228.43 156.026 228.801 155.861 229.008C155.695 229.21 155.417 229.311 155.026 229.311H151.623C151.315 229.311 151.071 229.222 150.892 229.042C150.712 228.863 150.622 228.619 150.622 228.31V221.816L150.698 221.733H155.874C155.897 221.862 155.911 221.984 155.916 222.099C155.92 222.214 155.923 222.32 155.923 222.416C155.923 222.517 155.911 222.632 155.888 222.761C155.87 222.89 155.838 223.019 155.792 223.148H153.148C153.056 223.148 152.934 223.148 152.783 223.148C152.635 223.143 152.481 223.141 152.32 223.141C152.32 223.261 152.322 223.376 152.327 223.486C152.332 223.596 152.334 223.721 152.334 223.859V224.797C152.49 224.793 152.642 224.79 152.789 224.79C152.941 224.786 153.061 224.784 153.148 224.784H155.164C155.2 224.889 155.223 225.007 155.233 225.136C155.246 225.264 155.253 225.375 155.253 225.467C155.253 225.563 155.246 225.676 155.233 225.805C155.223 225.934 155.2 226.051 155.164 226.157H153.148C153.061 226.157 152.941 226.157 152.789 226.157C152.642 226.157 152.49 226.157 152.334 226.157V227.22C152.334 227.358 152.332 227.48 152.327 227.586C152.322 227.692 152.32 227.804 152.32 227.924V227.931C152.458 227.922 152.592 227.915 152.72 227.91C152.854 227.901 153.013 227.896 153.197 227.896H156.109ZM164.273 225.529C164.273 226.79 163.986 227.742 163.411 228.386C162.836 229.026 161.913 229.346 160.643 229.346C160.119 229.346 159.647 229.341 159.228 229.332C158.81 229.327 158.334 229.318 157.8 229.304L157.724 229.228V221.802L157.8 221.726C158.334 221.712 158.81 221.701 159.228 221.692C159.647 221.682 160.119 221.678 160.643 221.678C161.904 221.678 162.824 222.011 163.404 222.678C163.984 223.341 164.273 224.291 164.273 225.529ZM162.5 225.529C162.5 225.244 162.477 224.954 162.431 224.659C162.385 224.365 162.297 224.096 162.168 223.852C162.044 223.608 161.858 223.412 161.609 223.265C161.366 223.113 161.041 223.037 160.636 223.037C160.406 223.037 160.202 223.035 160.022 223.03C159.847 223.026 159.654 223.024 159.442 223.024V228.021C159.659 228.021 159.854 228.018 160.029 228.014C160.204 228.009 160.406 228.007 160.636 228.007C161.041 228.007 161.366 227.933 161.609 227.786C161.858 227.634 162.044 227.436 162.168 227.192C162.297 226.948 162.385 226.682 162.431 226.392C162.477 226.102 162.5 225.814 162.5 225.529ZM167.489 227.758C167.424 227.758 167.33 227.756 167.206 227.751C167.082 227.747 166.971 227.745 166.875 227.745L166.343 229.304C166.237 229.327 166.12 229.343 165.991 229.353C165.867 229.366 165.738 229.373 165.605 229.373C165.453 229.373 165.303 229.362 165.156 229.339C165.013 229.32 164.894 229.291 164.797 229.249L164.742 229.159L167.461 221.733C167.631 221.71 167.808 221.694 167.993 221.685C168.181 221.671 168.349 221.664 168.496 221.664C168.634 221.664 168.786 221.671 168.952 221.685C169.122 221.694 169.292 221.71 169.463 221.733L172.147 229.215C172.014 229.279 171.85 229.325 171.657 229.353C171.469 229.385 171.305 229.401 171.167 229.401C170.951 229.401 170.755 229.36 170.581 229.277C170.406 229.189 170.265 228.98 170.16 228.649L169.856 227.745C169.764 227.745 169.658 227.747 169.538 227.751C169.419 227.756 169.327 227.758 169.262 227.758H167.489ZM167.737 225.225L167.344 226.378C167.431 226.378 167.526 226.376 167.627 226.371C167.733 226.366 167.815 226.364 167.875 226.364H168.917C168.977 226.364 169.051 226.366 169.138 226.371C169.23 226.371 169.315 226.373 169.394 226.378L169.055 225.391C168.954 225.064 168.844 224.689 168.724 224.266C168.609 223.838 168.506 223.456 168.414 223.12H168.345C168.257 223.442 168.158 223.801 168.048 224.197C167.937 224.593 167.834 224.935 167.737 225.225ZM175.688 225.336C175.619 225.212 175.534 225.046 175.433 224.839C175.336 224.627 175.24 224.418 175.143 224.211C175.047 223.999 174.968 223.831 174.909 223.707L174.853 223.728C174.867 224.04 174.881 224.386 174.895 224.763C174.913 225.136 174.927 225.485 174.936 225.812C174.945 226.134 174.95 226.376 174.95 226.537V229.297C174.807 229.325 174.667 229.341 174.529 229.346C174.396 229.355 174.271 229.36 174.156 229.36C174.046 229.36 173.917 229.355 173.77 229.346C173.623 229.341 173.48 229.325 173.342 229.297V221.767C173.48 221.74 173.648 221.717 173.846 221.698C174.044 221.68 174.202 221.671 174.322 221.671C174.451 221.671 174.614 221.675 174.812 221.685C175.014 221.689 175.185 221.705 175.323 221.733L177.441 225.702C177.51 225.821 177.598 225.994 177.704 226.219C177.809 226.44 177.915 226.666 178.021 226.896C178.127 227.121 178.212 227.298 178.276 227.427L178.339 227.413C178.32 227.142 178.297 226.824 178.27 226.461C178.247 226.093 178.226 225.736 178.207 225.391C178.189 225.041 178.18 224.761 178.18 224.549V222.644C178.18 222.257 178.258 221.997 178.414 221.864C178.571 221.731 178.819 221.664 179.16 221.664H179.746L179.829 221.747V229.277C179.687 229.304 179.516 229.325 179.319 229.339C179.121 229.353 178.962 229.36 178.842 229.36C178.718 229.36 178.55 229.355 178.339 229.346C178.127 229.341 177.954 229.325 177.821 229.297L175.688 225.336ZM184.975 225.094C185.297 225.08 185.612 225.073 185.92 225.073C186.233 225.069 186.55 225.067 186.873 225.067C187.342 225.067 187.659 225.149 187.825 225.315C187.995 225.481 188.08 225.72 188.08 226.033V229.021C187.832 229.104 187.533 229.182 187.183 229.256C186.833 229.325 186.468 229.38 186.086 229.422C185.704 229.463 185.345 229.484 185.009 229.484C184.126 229.484 183.42 229.309 182.89 228.959C182.366 228.605 181.986 228.133 181.752 227.544C181.517 226.955 181.4 226.309 181.4 225.605C181.4 224.625 181.577 223.838 181.931 223.244C182.285 222.651 182.75 222.221 183.325 221.954C183.9 221.682 184.519 221.547 185.182 221.547C185.697 221.547 186.201 221.609 186.693 221.733C187.19 221.853 187.625 222.016 187.997 222.223C187.965 222.467 187.88 222.715 187.742 222.968C187.609 223.221 187.461 223.415 187.3 223.548C186.978 223.359 186.64 223.215 186.286 223.113C185.936 223.012 185.584 222.961 185.23 222.961C184.604 222.961 184.107 223.171 183.739 223.59C183.371 224.008 183.187 224.675 183.187 225.591C183.187 227.307 183.896 228.166 185.313 228.166C185.52 228.166 185.72 228.154 185.913 228.131C186.106 228.103 186.288 228.073 186.458 228.041V227.179C186.458 226.944 186.468 226.714 186.486 226.488C186.343 226.488 186.203 226.488 186.065 226.488C185.927 226.488 185.796 226.488 185.672 226.488C185.147 226.488 184.885 226.242 184.885 225.75C184.885 225.653 184.894 225.538 184.913 225.405C184.931 225.271 184.952 225.168 184.975 225.094ZM199.402 225.529C199.402 226.79 199.114 227.742 198.539 228.386C197.964 229.026 197.041 229.346 195.772 229.346C195.247 229.346 194.775 229.341 194.357 229.332C193.938 229.327 193.462 229.318 192.928 229.304L192.852 229.228V221.802L192.928 221.726C193.462 221.712 193.938 221.701 194.357 221.692C194.775 221.682 195.247 221.678 195.772 221.678C197.032 221.678 197.952 222.011 198.532 222.678C199.112 223.341 199.402 224.291 199.402 225.529ZM197.628 225.529C197.628 225.244 197.605 224.954 197.559 224.659C197.513 224.365 197.426 224.096 197.297 223.852C197.173 223.608 196.986 223.412 196.738 223.265C196.494 223.113 196.17 223.037 195.765 223.037C195.535 223.037 195.33 223.035 195.15 223.03C194.976 223.026 194.782 223.024 194.571 223.024V228.021C194.787 228.021 194.982 228.018 195.157 228.014C195.332 228.009 195.535 228.007 195.765 228.007C196.17 228.007 196.494 227.933 196.738 227.786C196.986 227.634 197.173 227.436 197.297 227.192C197.426 226.948 197.513 226.682 197.559 226.392C197.605 226.102 197.628 225.814 197.628 225.529ZM201.027 221.733C201.16 221.71 201.312 221.694 201.482 221.685C201.657 221.675 201.8 221.671 201.91 221.671C202.03 221.671 202.165 221.675 202.317 221.685C202.474 221.694 202.623 221.71 202.766 221.733V229.297C202.623 229.325 202.474 229.341 202.317 229.346C202.165 229.355 202.03 229.36 201.91 229.36C201.8 229.36 201.657 229.355 201.482 229.346C201.312 229.341 201.16 229.325 201.027 229.297V221.733ZM205.436 221.733C205.611 221.701 205.804 221.678 206.016 221.664C206.227 221.65 206.409 221.643 206.561 221.643C206.708 221.643 206.89 221.65 207.106 221.664C207.322 221.678 207.504 221.701 207.651 221.733L208.569 225.039C208.62 225.214 208.684 225.469 208.762 225.805C208.845 226.136 208.907 226.431 208.949 226.688H209.031C209.068 226.431 209.126 226.136 209.204 225.805C209.287 225.474 209.354 225.218 209.404 225.039L210.315 221.733C210.476 221.701 210.662 221.678 210.874 221.664C211.086 221.65 211.263 221.643 211.406 221.643C211.553 221.643 211.737 221.65 211.958 221.664C212.183 221.678 212.374 221.701 212.53 221.733L213.276 229.277C213.023 229.337 212.728 229.366 212.392 229.366C212.264 229.366 212.128 229.362 211.985 229.353C211.847 229.343 211.718 229.327 211.599 229.304L211.343 226.095C211.32 225.837 211.304 225.547 211.295 225.225C211.286 224.903 211.281 224.588 211.281 224.28C211.281 223.967 211.279 223.695 211.274 223.465H211.199L209.867 228.152C209.738 228.175 209.586 228.193 209.411 228.207C209.241 228.216 209.096 228.221 208.976 228.221C208.847 228.221 208.698 228.216 208.528 228.207C208.357 228.193 208.215 228.175 208.1 228.152L206.768 223.465H206.685C206.685 223.695 206.683 223.967 206.678 224.28C206.678 224.588 206.673 224.903 206.664 225.225C206.655 225.547 206.639 225.84 206.616 226.102L206.367 229.304C206.128 229.346 205.866 229.366 205.581 229.366C205.236 229.366 204.939 229.337 204.69 229.277L205.436 221.733ZM216.968 227.758C216.904 227.758 216.809 227.756 216.685 227.751C216.561 227.747 216.45 227.745 216.354 227.745L215.822 229.304C215.717 229.327 215.599 229.343 215.47 229.353C215.346 229.366 215.217 229.373 215.084 229.373C214.932 229.373 214.783 229.362 214.635 229.339C214.493 229.32 214.373 229.291 214.277 229.249L214.221 229.159L216.94 221.733C217.111 221.71 217.288 221.694 217.472 221.685C217.661 221.671 217.828 221.664 217.976 221.664C218.114 221.664 218.266 221.671 218.431 221.685C218.601 221.694 218.772 221.71 218.942 221.733L221.627 229.215C221.493 229.279 221.33 229.325 221.137 229.353C220.948 229.385 220.785 229.401 220.647 229.401C220.43 229.401 220.235 229.36 220.06 229.277C219.885 229.189 219.745 228.98 219.639 228.649L219.335 227.745C219.243 227.745 219.137 227.747 219.018 227.751C218.898 227.756 218.806 227.758 218.742 227.758H216.968ZM217.217 225.225L216.823 226.378C216.911 226.378 217.005 226.376 217.106 226.371C217.212 226.366 217.295 226.364 217.355 226.364H218.397C218.456 226.364 218.53 226.366 218.618 226.371C218.71 226.371 218.795 226.373 218.873 226.378L218.535 225.391C218.433 225.064 218.323 224.689 218.203 224.266C218.088 223.838 217.985 223.456 217.893 223.12H217.824C217.736 223.442 217.638 223.801 217.527 224.197C217.417 224.593 217.313 224.935 217.217 225.225ZM225.168 225.336C225.099 225.212 225.014 225.046 224.912 224.839C224.816 224.627 224.719 224.418 224.623 224.211C224.526 223.999 224.448 223.831 224.388 223.707L224.333 223.728C224.346 224.04 224.36 224.386 224.374 224.763C224.392 225.136 224.406 225.485 224.415 225.812C224.425 226.134 224.429 226.376 224.429 226.537V229.297C224.287 229.325 224.146 229.341 224.008 229.346C223.875 229.355 223.751 229.36 223.636 229.36C223.525 229.36 223.396 229.355 223.249 229.346C223.102 229.341 222.959 229.325 222.821 229.297V221.767C222.959 221.74 223.127 221.717 223.325 221.698C223.523 221.68 223.682 221.671 223.801 221.671C223.93 221.671 224.093 221.675 224.291 221.685C224.494 221.689 224.664 221.705 224.802 221.733L226.921 225.702C226.99 225.821 227.077 225.994 227.183 226.219C227.289 226.44 227.395 226.666 227.5 226.896C227.606 227.121 227.691 227.298 227.756 227.427L227.818 227.413C227.799 227.142 227.776 226.824 227.749 226.461C227.726 226.093 227.705 225.736 227.687 225.391C227.668 225.041 227.659 224.761 227.659 224.549V222.644C227.659 222.257 227.737 221.997 227.894 221.864C228.05 221.731 228.299 221.664 228.639 221.664H229.226L229.309 221.747V229.277C229.166 229.304 228.996 229.325 228.798 229.339C228.6 229.353 228.441 229.36 228.322 229.36C228.197 229.36 228.03 229.355 227.818 229.346C227.606 229.341 227.434 229.325 227.3 229.297L225.168 225.336ZM233.246 227.758C233.182 227.758 233.088 227.756 232.963 227.751C232.839 227.747 232.729 227.745 232.632 227.745L232.101 229.304C231.995 229.327 231.877 229.343 231.749 229.353C231.624 229.366 231.496 229.373 231.362 229.373C231.21 229.373 231.061 229.362 230.914 229.339C230.771 229.32 230.651 229.291 230.555 229.249L230.499 229.159L233.219 221.733C233.389 221.71 233.566 221.694 233.75 221.685C233.939 221.671 234.107 221.664 234.254 221.664C234.392 221.664 234.544 221.671 234.709 221.685C234.88 221.694 235.05 221.71 235.22 221.733L237.905 229.215C237.771 229.279 237.608 229.325 237.415 229.353C237.226 229.385 237.063 229.401 236.925 229.401C236.708 229.401 236.513 229.36 236.338 229.277C236.163 229.189 236.023 228.98 235.917 228.649L235.613 227.745C235.521 227.745 235.416 227.747 235.296 227.751C235.176 227.756 235.084 227.758 235.02 227.758H233.246ZM233.495 225.225L233.101 226.378C233.189 226.378 233.283 226.376 233.384 226.371C233.49 226.366 233.573 226.364 233.633 226.364H234.675C234.735 226.364 234.808 226.366 234.896 226.371C234.988 226.371 235.073 226.373 235.151 226.378L234.813 225.391C234.712 225.064 234.601 224.689 234.482 224.266C234.367 223.838 234.263 223.456 234.171 223.12H234.102C234.015 223.442 233.916 223.801 233.805 224.197C233.695 224.593 233.591 224.935 233.495 225.225ZM238.202 222.195C238.506 222.011 238.867 221.857 239.286 221.733C239.704 221.609 240.121 221.547 240.535 221.547C241.234 221.547 241.796 221.724 242.219 222.078C242.647 222.428 242.861 222.902 242.861 223.5C242.861 223.969 242.732 224.381 242.474 224.735C242.217 225.09 241.878 225.379 241.46 225.605L240.859 225.929L240.763 226.854C240.666 226.882 240.563 226.902 240.452 226.916C240.346 226.925 240.243 226.93 240.142 226.93C240.045 226.93 239.937 226.925 239.817 226.916C239.702 226.902 239.592 226.882 239.486 226.854L239.396 225.322L239.534 225.156L240.059 224.887C240.316 224.754 240.56 224.595 240.79 224.411C241.02 224.222 241.135 223.976 241.135 223.672C241.135 223.456 241.057 223.272 240.901 223.12C240.749 222.968 240.516 222.892 240.204 222.892C239.96 222.892 239.709 222.938 239.451 223.03C239.198 223.123 238.982 223.228 238.803 223.348C238.646 223.233 238.508 223.065 238.389 222.844C238.274 222.619 238.211 222.402 238.202 222.195ZM240.135 227.627C240.286 227.627 240.441 227.646 240.597 227.682C240.758 227.715 240.889 227.761 240.99 227.82C241.032 227.894 241.064 228.002 241.087 228.145C241.11 228.287 241.122 228.416 241.122 228.531C241.122 228.646 241.11 228.775 241.087 228.918C241.064 229.056 241.032 229.164 240.99 229.242C240.889 229.302 240.758 229.348 240.597 229.38C240.441 229.417 240.286 229.435 240.135 229.435C239.785 229.435 239.497 229.371 239.272 229.242C239.235 229.169 239.205 229.063 239.182 228.925C239.159 228.782 239.148 228.651 239.148 228.531C239.148 228.421 239.159 228.294 239.182 228.152C239.205 228.004 239.235 227.894 239.272 227.82C239.497 227.692 239.785 227.627 240.135 227.627Z" fill="black"/>
<path d="M661.003 77.0715H303.663C295.828 77.0715 289.477 83.4234 289.477 91.2588V361.201C289.477 369.036 295.828 375.388 303.663 375.388H661.003C668.838 375.388 675.189 369.036 675.189 361.201V91.2588C675.189 83.4234 668.838 77.0715 661.003 77.0715Z" fill="#F6B69E" stroke="black" stroke-width="3"/>
<path d="M397.982 232.748H330.502C322.667 232.748 316.315 239.1 316.315 246.936V325.924C316.315 333.76 322.667 340.112 330.502 340.112H397.982C405.817 340.112 412.169 333.76 412.169 325.924V246.936C412.169 239.1 405.817 232.748 397.982 232.748Z" fill="#E4F2FF" stroke="#6B7C99" stroke-width="3"/>
<path d="M339.117 321.049C337.12 321.049 335.548 320.6 334.4 319.701C333.276 318.827 332.715 317.617 332.715 316.068C332.715 313.647 333.439 311.114 334.886 308.467C336.334 305.796 338.431 303.3 341.177 300.979C343.923 298.632 347.23 296.735 351.099 295.287C354.993 293.814 359.361 293.077 364.204 293.077C369.072 293.077 373.439 293.814 377.309 295.287C381.203 296.735 384.51 298.632 387.231 300.979C389.977 303.3 392.074 305.796 393.522 308.467C394.994 311.114 395.73 313.647 395.73 316.068C395.73 317.617 395.157 318.827 394.008 319.701C392.885 320.6 391.325 321.049 389.328 321.049H339.117ZM364.241 286.375C361.57 286.375 359.099 285.651 356.828 284.203C354.556 282.73 352.721 280.758 351.323 278.287C349.951 275.79 349.264 272.994 349.264 269.898C349.264 266.853 349.951 264.107 351.323 261.661C352.721 259.214 354.556 257.279 356.828 255.857C359.099 254.433 361.57 253.723 364.241 253.723C366.912 253.723 369.384 254.421 371.655 255.819C373.926 257.217 375.749 259.139 377.122 261.586C378.52 264.007 379.218 266.753 379.218 269.824C379.218 272.944 378.52 275.753 377.122 278.249C375.749 280.745 373.926 282.73 371.655 284.203C369.384 285.651 366.912 286.375 364.241 286.375Z" fill="#7C8ACF"/>
<path d="M397.982 107.747H330.502C322.667 107.747 316.315 114.099 316.315 121.934V200.923C316.315 208.758 322.667 215.11 330.502 215.11H397.982C405.817 215.11 412.169 208.758 412.169 200.923V121.934C412.169 114.099 405.817 107.747 397.982 107.747Z" fill="#E4F2FF" stroke="#6B7C99" stroke-width="3"/>
<path d="M339.117 196.048C337.12 196.048 335.548 195.598 334.4 194.7C333.276 193.825 332.715 192.615 332.715 191.067C332.715 188.646 333.439 186.112 334.886 183.466C336.334 180.794 338.431 178.298 341.177 175.977C343.923 173.63 347.23 171.733 351.099 170.285C354.993 168.812 359.361 168.076 364.204 168.076C369.072 168.076 373.439 168.812 377.309 170.285C381.203 171.733 384.51 173.63 387.231 175.977C389.977 178.298 392.074 180.794 393.522 183.466C394.994 186.112 395.73 188.646 395.73 191.067C395.73 192.615 395.157 193.825 394.008 194.7C392.885 195.598 391.325 196.048 389.328 196.048H339.117ZM364.241 161.373C361.57 161.373 359.099 160.649 356.828 159.201C354.556 157.728 352.721 155.757 351.323 153.285C349.951 150.789 349.264 147.993 349.264 144.897C349.264 141.852 349.951 139.105 351.323 136.659C352.721 134.213 354.556 132.278 356.828 130.855C359.099 129.432 361.57 128.721 364.241 128.721C366.912 128.721 369.384 129.42 371.655 130.818C373.926 132.216 375.749 134.137 377.122 136.585C378.52 139.006 379.218 141.752 379.218 144.822C379.218 147.943 378.52 150.751 377.122 153.247C375.749 155.744 373.926 157.728 371.655 159.201C369.384 160.649 366.912 161.373 364.241 161.373Z" fill="#7C8ACF"/>
<path d="M512.239 107.747H444.759C436.924 107.747 430.572 114.099 430.572 121.934V200.923C430.572 208.758 436.924 215.11 444.759 215.11H512.239C520.074 215.11 526.425 208.758 526.425 200.923V121.934C526.425 114.099 520.074 107.747 512.239 107.747Z" fill="#E4F2FF" stroke="#6B7C99" stroke-width="3"/>
<path d="M453.374 196.048C451.377 196.048 449.804 195.598 448.656 194.7C447.533 193.825 446.972 192.615 446.972 191.067C446.972 188.646 447.696 186.112 449.143 183.466C450.591 180.794 452.688 178.298 455.434 175.977C458.18 173.63 461.487 171.733 465.356 170.285C469.249 168.812 473.618 168.076 478.461 168.076C483.328 168.076 487.696 168.812 491.566 170.285C495.46 171.733 498.767 173.63 501.488 175.977C504.234 178.298 506.331 180.794 507.779 183.466C509.251 186.112 509.987 188.646 509.987 191.067C509.987 192.615 509.413 193.825 508.265 194.7C507.142 195.598 505.582 196.048 503.585 196.048H453.374ZM478.498 161.373C475.827 161.373 473.356 160.649 471.084 159.201C468.813 157.728 466.978 155.757 465.58 153.285C464.208 150.789 463.521 147.993 463.521 144.897C463.521 141.852 464.208 139.105 465.58 136.659C466.978 134.213 468.813 132.278 471.084 130.855C473.356 129.432 475.827 128.721 478.498 128.721C481.169 128.721 483.64 129.42 485.912 130.818C488.183 132.216 490.006 134.137 491.378 136.585C492.776 139.006 493.475 141.752 493.475 144.822C493.475 147.943 492.776 150.751 491.378 153.247C490.006 155.744 488.183 157.728 485.912 159.201C483.64 160.649 481.169 161.373 478.498 161.373Z" fill="#7C8ACF"/>
<path d="M626.496 107.747H559.015C551.181 107.747 544.829 114.099 544.829 121.934V200.923C544.829 208.758 551.181 215.11 559.015 215.11H626.496C634.331 215.11 640.682 208.758 640.682 200.923V121.934C640.682 114.099 634.331 107.747 626.496 107.747Z" fill="#E4F2FF" stroke="#6B7C99" stroke-width="3"/>
<path d="M567.631 196.048C565.634 196.048 564.061 195.598 562.913 194.7C561.79 193.825 561.229 192.615 561.229 191.067C561.229 188.646 561.952 186.112 563.4 183.466C564.848 180.794 566.944 178.298 569.69 175.977C572.436 173.63 575.744 171.733 579.612 170.285C583.506 168.812 587.875 168.076 592.717 168.076C597.585 168.076 601.953 168.812 605.822 170.285C609.716 171.733 613.024 173.63 615.744 175.977C618.49 178.298 620.588 180.794 622.035 183.466C623.508 186.112 624.244 188.646 624.244 191.067C624.244 192.615 623.67 193.825 622.522 194.7C621.399 195.598 619.838 196.048 617.842 196.048H567.631ZM592.755 161.373C590.084 161.373 587.613 160.649 585.341 159.201C583.07 157.728 581.235 155.757 579.837 153.285C578.464 150.789 577.778 147.993 577.778 144.897C577.778 141.852 578.464 139.105 579.837 136.659C581.235 134.213 583.07 132.278 585.341 130.855C587.613 129.432 590.084 128.721 592.755 128.721C595.426 128.721 597.897 129.42 600.169 130.818C602.44 132.216 604.263 134.137 605.635 136.585C607.033 139.006 607.732 141.752 607.732 144.822C607.732 147.943 607.033 150.751 605.635 153.247C604.263 155.744 602.44 157.728 600.169 159.201C597.897 160.649 595.426 161.373 592.755 161.373Z" fill="#7C8ACF"/>
<path d="M512.239 233.515H444.759C436.924 233.515 430.572 239.867 430.572 247.703V326.691C430.572 334.527 436.924 340.879 444.759 340.879H512.239C520.074 340.879 526.425 334.527 526.425 326.691V247.703C526.425 239.867 520.074 233.515 512.239 233.515Z" fill="#E4F2FF" stroke="#6B7C99" stroke-width="3"/>
<path d="M454.141 322.583C452.145 322.583 450.572 322.134 449.424 321.235C448.301 320.361 447.739 319.151 447.739 317.602C447.739 315.181 448.463 312.647 449.911 310.001C451.359 307.33 453.455 304.834 456.201 302.512C458.947 300.166 462.254 298.268 466.123 296.821C470.017 295.347 474.386 294.611 479.228 294.611C484.096 294.611 488.464 295.347 492.333 296.821C496.227 298.268 499.534 300.166 502.255 302.512C505.001 304.834 507.098 307.33 508.546 310.001C510.018 312.647 510.755 315.181 510.755 317.602C510.755 319.151 510.181 320.361 509.032 321.235C507.91 322.134 506.349 322.583 504.352 322.583H454.141ZM479.266 287.909C476.595 287.909 474.123 287.185 471.852 285.737C469.581 284.264 467.746 282.292 466.348 279.82C464.975 277.324 464.289 274.528 464.289 271.432C464.289 268.387 464.975 265.641 466.348 263.194C467.746 260.748 469.581 258.813 471.852 257.391C474.123 255.967 476.595 255.256 479.266 255.256C481.937 255.256 484.408 255.955 486.679 257.353C488.951 258.751 490.773 260.673 492.146 263.12C493.544 265.541 494.243 268.287 494.243 271.358C494.243 274.478 493.544 277.287 492.146 279.783C490.773 282.279 488.951 284.264 486.679 285.737C484.408 287.185 481.937 287.909 479.266 287.909Z" fill="#7C8ACF"/>
<path d="M626.496 232.748H559.015C551.181 232.748 544.829 239.1 544.829 246.936V325.924C544.829 333.76 551.181 340.112 559.015 340.112H626.496C634.331 340.112 640.682 333.76 640.682 325.924V246.936C640.682 239.1 634.331 232.748 626.496 232.748Z" fill="#E4F2FF" stroke="#6B7C99" stroke-width="3"/>
<path d="M568.398 321.816C566.402 321.816 564.829 321.367 563.681 320.468C562.557 319.594 561.996 318.384 561.996 316.835C561.996 314.414 562.72 311.881 564.168 309.234C565.615 306.563 567.712 304.067 570.458 301.745C573.204 299.399 576.511 297.502 580.38 296.054C584.274 294.58 588.642 293.844 593.485 293.844C598.353 293.844 602.721 294.58 606.59 296.054C610.484 297.502 613.791 299.399 616.512 301.745C619.258 304.067 621.355 306.563 622.803 309.234C624.275 311.881 625.011 314.414 625.011 316.835C625.011 318.384 624.438 319.594 623.289 320.468C622.167 321.367 620.606 321.816 618.609 321.816H568.398ZM593.523 287.142C590.852 287.142 588.38 286.418 586.109 284.97C583.838 283.497 582.003 281.525 580.605 279.053C579.232 276.557 578.546 273.761 578.546 270.665C578.546 267.62 579.232 264.874 580.605 262.427C582.003 259.981 583.838 258.046 586.109 256.624C588.38 255.2 590.852 254.489 593.523 254.489C596.193 254.489 598.665 255.188 600.936 256.586C603.208 257.984 605.03 259.906 606.403 262.353C607.801 264.774 608.499 267.52 608.499 270.591C608.499 273.711 607.801 276.52 606.403 279.016C605.03 281.512 603.208 283.497 600.936 284.97C598.665 286.418 596.193 287.142 593.523 287.142Z" fill="#7C8ACF"/>
<path d="M661.003 75.9212H303.663C295.193 75.9212 288.326 82.7881 288.326 91.2588V361.201C288.326 369.672 295.193 376.539 303.663 376.539H661.003C669.473 376.539 676.339 369.672 676.339 361.201V91.2588C676.339 82.7881 669.473 75.9212 661.003 75.9212Z" fill="black" fill-opacity="0.46"/>
<path d="M526.808 143.023H430.188C422.353 143.023 416.002 149.375 416.002 157.211V295.237C416.002 303.072 422.353 309.424 430.188 309.424H526.808C534.643 309.424 540.994 303.072 540.994 295.237V157.211C540.994 149.375 534.643 143.023 526.808 143.023Z" fill="#E4F2FF" stroke="#6B7C99" stroke-width="3"/>
<path d="M449.344 269.103C446.948 269.103 445.061 268.564 443.683 267.486C442.335 266.437 441.661 264.984 441.661 263.127C441.661 260.221 442.53 257.18 444.267 254.006C446.004 250.8 448.52 247.805 451.815 245.018C455.11 242.202 459.08 239.926 463.722 238.189C468.395 236.421 473.637 235.538 479.448 235.538C485.289 235.538 490.531 236.421 495.174 238.189C499.847 239.926 503.816 242.202 507.08 245.018C510.376 247.805 512.892 250.8 514.629 254.006C516.397 257.18 517.28 260.221 517.28 263.127C517.28 264.984 516.591 266.437 515.213 267.486C513.865 268.564 511.994 269.103 509.597 269.103H449.344ZM479.493 227.494C476.288 227.494 473.323 226.626 470.596 224.888C467.871 223.12 465.67 220.754 463.992 217.788C462.345 214.793 461.52 211.438 461.52 207.723C461.52 204.069 462.345 200.773 463.992 197.838C465.67 194.901 467.871 192.58 470.596 190.873C473.323 189.165 476.288 188.311 479.493 188.311C482.699 188.311 485.664 189.15 488.389 190.828C491.115 192.505 493.302 194.812 494.949 197.747C496.627 200.653 497.465 203.948 497.465 207.633C497.465 211.378 496.627 214.747 494.949 217.744C493.302 220.739 491.115 223.12 488.389 224.888C485.664 226.626 482.699 227.494 479.493 227.494Z" fill="#7C8ACF"/>
<path d="M15.3364 183.285C21.6889 183.285 26.8387 178.134 26.8387 171.781C26.8387 165.428 21.6889 160.278 15.3364 160.278C8.98377 160.278 3.83398 165.428 3.83398 171.781C3.83398 178.134 8.98377 183.285 15.3364 183.285Z" stroke="white" stroke-width="4"/>
<path d="M269.156 432.521C275.508 432.521 280.658 427.371 280.658 421.018C280.658 414.665 275.508 409.514 269.156 409.514C262.803 409.514 257.653 414.665 257.653 421.018C257.653 427.371 262.803 432.521 269.156 432.521Z" stroke="white" stroke-width="4"/>
<path d="M733.084 294.482C739.437 294.482 744.587 289.332 744.587 282.979C744.587 276.626 739.437 271.476 733.084 271.476C726.732 271.476 721.582 276.626 721.582 282.979C721.582 289.332 726.732 294.482 733.084 294.482Z" stroke="white" stroke-width="4"/>
<path d="M561.316 39.8778C567.668 39.8778 572.818 34.7276 572.818 28.3746C572.818 22.0215 567.668 16.8714 561.316 16.8714C554.963 16.8714 549.813 22.0215 549.813 28.3746C549.813 34.7276 554.963 39.8778 561.316 39.8778Z" stroke="white" stroke-width="4"/>
</g>
<defs>
<clipPath id="clip0_4720_9579">
<rect width="809" height="477" fill="white"/>
</clipPath>
</defs>
</svg>
