<svg width="678" height="482" viewBox="0 0 678 482" fill="none" xmlns="http://www.w3.org/2000/svg">
<g clip-path="url(#clip0_4684_9253)">
<path d="M677.448 176.864C677.448 272.785 682.766 408.89 409.574 460.414C265.333 510.608 38.7999 481.914 14.7396 270.936C-26.4549 136.38 43.646 -71.1479 228.109 24.2852C435.539 69.2597 683.284 8.66654 677.448 176.864Z" fill="#D8E0F4"/>
<path d="M353.624 61.1642C356.193 61.1642 358.277 59.0806 358.277 56.5104C358.277 53.9401 356.193 51.8566 353.624 51.8566C351.054 51.8566 348.971 53.9401 348.971 56.5104C348.971 59.0806 351.054 61.1642 353.624 61.1642Z" fill="white"/>
<path d="M84.4176 79.1145C86.9873 79.1145 89.0705 77.0309 89.0705 74.4607C89.0705 71.8905 86.9873 69.8069 84.4176 69.8069C81.8478 69.8069 79.7646 71.8905 79.7646 74.4607C79.7646 77.0309 81.8478 79.1145 84.4176 79.1145Z" fill="white"/>
<path d="M271.865 388.924C274.435 388.924 276.518 386.841 276.518 384.27C276.518 381.7 274.435 379.617 271.865 379.617C269.295 379.617 267.212 381.7 267.212 384.27C267.212 386.841 269.295 388.924 271.865 388.924Z" fill="white"/>
<path d="M617.511 163.548C621.182 163.548 624.158 160.571 624.158 156.899C624.158 153.228 621.182 150.251 617.511 150.251C613.84 150.251 610.864 153.228 610.864 156.899C610.864 160.571 613.84 163.548 617.511 163.548Z" fill="white"/>
<path d="M214.368 482C218.223 482 221.347 478.875 221.347 475.019C221.347 471.164 218.223 468.039 214.368 468.039C210.513 468.039 207.389 471.164 207.389 475.019C207.389 478.875 210.513 482 214.368 482Z" fill="white"/>
<path d="M7.97618 240.003C10.5459 240.003 12.6291 237.919 12.6291 235.349C12.6291 232.779 10.5459 230.695 7.97618 230.695C5.40643 230.695 3.32324 232.779 3.32324 235.349C3.32324 237.919 5.40643 240.003 7.97618 240.003Z" fill="white"/>
<path d="M572.312 187.481C574.882 187.481 576.965 185.398 576.965 182.828C576.965 180.257 574.882 178.174 572.312 178.174C569.742 178.174 567.659 180.257 567.659 182.828C567.659 185.398 569.742 187.481 572.312 187.481Z" fill="white"/>
<path d="M584.941 388.924C587.511 388.924 589.594 386.841 589.594 384.27C589.594 381.7 587.511 379.617 584.941 379.617C582.371 379.617 580.288 381.7 580.288 384.27C580.288 386.841 582.371 388.924 584.941 388.924Z" fill="white"/>
<path d="M243.615 474.022C251.14 474.022 257.241 467.92 257.241 460.393C257.241 452.866 251.14 446.764 243.615 446.764C236.089 446.764 229.988 452.866 229.988 460.393C229.988 467.92 236.089 474.022 243.615 474.022Z" stroke="white" stroke-width="4"/>
<path d="M602.556 382.941C610.082 382.941 616.183 376.839 616.183 369.312C616.183 361.785 610.082 355.683 602.556 355.683C595.03 355.683 588.93 361.785 588.93 369.312C588.93 376.839 595.03 382.941 602.556 382.941Z" stroke="white" stroke-width="4"/>
<path d="M567.327 359.007C574.852 359.007 580.953 352.905 580.953 345.378C580.953 337.851 574.852 331.749 567.327 331.749C559.801 331.749 553.7 337.851 553.7 345.378C553.7 352.905 559.801 359.007 567.327 359.007Z" stroke="white" stroke-width="4"/>
<path d="M14.9556 220.723C22.4813 220.723 28.582 214.621 28.582 207.094C28.582 199.567 22.4813 193.465 14.9556 193.465C7.42988 193.465 1.3291 199.567 1.3291 207.094C1.3291 214.621 7.42988 220.723 14.9556 220.723Z" stroke="white" stroke-width="4"/>
<path d="M243.615 50.5269C251.14 50.5269 257.241 44.425 257.241 36.8979C257.241 29.3708 251.14 23.269 243.615 23.269C236.089 23.269 229.988 29.3708 229.988 36.8979C229.988 44.425 236.089 50.5269 243.615 50.5269Z" stroke="white" stroke-width="4"/>
<path d="M84.7961 180.306C84.6538 180.004 84.9423 179.678 85.2594 179.784C85.3584 179.817 85.4395 179.89 85.4841 179.985L95.6587 201.98C95.6959 202.06 95.6946 202.154 95.6547 202.233C95.5457 202.452 95.2326 202.449 95.1289 202.227L84.7961 180.306Z" fill="#D9D9D9"/>
<path d="M100.603 161.02C100.493 160.801 100.644 160.541 100.889 160.526L123.479 159.235C123.578 159.23 123.676 159.267 123.747 159.337C123.961 159.551 123.821 159.918 123.519 159.935L100.927 161.208C100.792 161.216 100.664 161.142 100.603 161.02Z" fill="#D9D9D9"/>
<path d="M126.446 159.529C126.336 159.31 126.486 159.049 126.731 159.035L149.321 157.744C149.421 157.739 149.519 157.776 149.589 157.847C149.803 158.061 149.664 158.427 149.361 158.444L126.77 159.717C126.634 159.725 126.507 159.651 126.446 159.529Z" fill="#D9D9D9"/>
<path d="M212.041 105.375H109.012C102.22 105.375 96.7148 110.882 96.7148 117.674V351.694C96.7148 358.487 102.22 363.993 109.012 363.993H212.041C218.833 363.993 224.338 358.487 224.338 351.694V117.674C224.338 110.882 218.833 105.375 212.041 105.375Z" fill="#F6B69E" stroke="black" stroke-width="3"/>
<path d="M112.336 303.161C112.336 302.427 111.74 301.832 111.006 301.832C110.272 301.832 109.677 302.427 109.677 303.161V320.447C109.677 321.181 110.272 321.777 111.006 321.777C111.74 321.777 112.336 321.181 112.336 320.447V303.161Z" fill="#4A6FA5"/>
<path d="M116.988 299.837C116.988 299.103 116.393 298.508 115.659 298.508C114.924 298.508 114.329 299.103 114.329 299.837V323.771C114.329 324.505 114.924 325.101 115.659 325.101C116.393 325.101 116.988 324.505 116.988 323.771V299.837Z" fill="#4A6FA5"/>
<path d="M121.641 299.837C121.641 299.103 121.046 298.508 120.312 298.508C119.578 298.508 118.982 299.103 118.982 299.837V323.771C118.982 324.505 119.578 325.101 120.312 325.101C121.046 325.101 121.641 324.505 121.641 323.771V299.837Z" fill="#4A6FA5"/>
<path d="M126.295 299.837C126.295 299.103 125.699 298.508 124.965 298.508C124.231 298.508 123.636 299.103 123.636 299.837V323.771C123.636 324.505 124.231 325.101 124.965 325.101C125.699 325.101 126.295 324.505 126.295 323.771V299.837Z" fill="#4A6FA5"/>
<path d="M130.947 299.837C130.947 299.103 130.352 298.508 129.617 298.508C128.883 298.508 128.288 299.103 128.288 299.837V323.771C128.288 324.505 128.883 325.101 129.617 325.101C130.352 325.101 130.947 324.505 130.947 323.771V299.837Z" fill="#4A6FA5"/>
<path d="M135.6 296.513C135.6 295.779 135.005 295.183 134.271 295.183C133.537 295.183 132.941 295.779 132.941 296.513V327.095C132.941 327.83 133.537 328.425 134.271 328.425C135.005 328.425 135.6 327.83 135.6 327.095V296.513Z" fill="#4A6FA5"/>
<path d="M140.253 296.513C140.253 295.779 139.657 295.183 138.923 295.183C138.189 295.183 137.594 295.779 137.594 296.513V327.095C137.594 327.83 138.189 328.425 138.923 328.425C139.657 328.425 140.253 327.83 140.253 327.095V296.513Z" fill="#4A6FA5"/>
<path d="M144.906 303.161C144.906 302.427 144.311 301.832 143.576 301.832C142.842 301.832 142.247 302.427 142.247 303.161V320.447C142.247 321.181 142.842 321.777 143.576 321.777C144.311 321.777 144.906 321.181 144.906 320.447V303.161Z" fill="#4A6FA5"/>
<path d="M149.559 303.161C149.559 302.427 148.964 301.832 148.23 301.832C147.496 301.832 146.9 302.427 146.9 303.161V320.447C146.9 321.181 147.496 321.777 148.23 321.777C148.964 321.777 149.559 321.181 149.559 320.447V303.161Z" fill="#4A6FA5"/>
<path d="M154.212 303.161C154.212 302.427 153.616 301.832 152.882 301.832C152.148 301.832 151.553 302.427 151.553 303.161V320.447C151.553 321.181 152.148 321.777 152.882 321.777C153.616 321.777 154.212 321.181 154.212 320.447V303.161Z" fill="#4A6FA5"/>
<path d="M158.865 303.161C158.865 302.427 158.27 301.832 157.535 301.832C156.801 301.832 156.206 302.427 156.206 303.161V320.447C156.206 321.181 156.801 321.777 157.535 321.777C158.27 321.777 158.865 321.181 158.865 320.447V303.161Z" fill="#4A6FA5"/>
<path d="M163.517 303.161C163.517 302.427 162.922 301.832 162.188 301.832C161.454 301.832 160.858 302.427 160.858 303.161V320.447C160.858 321.181 161.454 321.777 162.188 321.777C162.922 321.777 163.517 321.181 163.517 320.447V303.161Z" fill="#4A6FA5"/>
<path d="M168.171 296.513C168.171 295.779 167.575 295.183 166.841 295.183C166.107 295.183 165.512 295.779 165.512 296.513V327.095C165.512 327.83 166.107 328.425 166.841 328.425C167.575 328.425 168.171 327.83 168.171 327.095V296.513Z" fill="#4A6FA5"/>
<path d="M172.824 296.513C172.824 295.779 172.229 295.183 171.494 295.183C170.76 295.183 170.165 295.779 170.165 296.513V327.095C170.165 327.83 170.76 328.425 171.494 328.425C172.229 328.425 172.824 327.83 172.824 327.095V296.513Z" fill="#4A6FA5"/>
<path d="M177.476 303.161C177.476 302.427 176.881 301.832 176.147 301.832C175.413 301.832 174.817 302.427 174.817 303.161V320.447C174.817 321.181 175.413 321.777 176.147 321.777C176.881 321.777 177.476 321.181 177.476 320.447V303.161Z" fill="#4A6FA5"/>
<path d="M182.13 303.161C182.13 302.427 181.534 301.832 180.8 301.832C180.066 301.832 179.471 302.427 179.471 303.161V320.447C179.471 321.181 180.066 321.777 180.8 321.777C181.534 321.777 182.13 321.181 182.13 320.447V303.161Z" fill="#4A6FA5"/>
<path d="M186.782 303.161C186.782 302.427 186.187 301.832 185.452 301.832C184.718 301.832 184.123 302.427 184.123 303.161V320.447C184.123 321.181 184.718 321.777 185.452 321.777C186.187 321.777 186.782 321.181 186.782 320.447V303.161Z" fill="#4A6FA5"/>
<path d="M191.435 303.161C191.435 302.427 190.84 301.832 190.106 301.832C189.372 301.832 188.776 302.427 188.776 303.161V320.447C188.776 321.181 189.372 321.777 190.106 321.777C190.84 321.777 191.435 321.181 191.435 320.447V303.161Z" fill="#4A6FA5"/>
<path d="M196.089 303.161C196.089 302.427 195.493 301.832 194.759 301.832C194.025 301.832 193.43 302.427 193.43 303.161V320.447C193.43 321.181 194.025 321.777 194.759 321.777C195.493 321.777 196.089 321.181 196.089 320.447V303.161Z" fill="#4A6FA5"/>
<path d="M200.741 303.161C200.741 302.427 200.146 301.832 199.411 301.832C198.677 301.832 198.082 302.427 198.082 303.161V320.447C198.082 321.181 198.677 321.777 199.411 321.777C200.146 321.777 200.741 321.181 200.741 320.447V303.161Z" fill="#4A6FA5"/>
<path d="M205.394 303.161C205.394 302.427 204.799 301.832 204.065 301.832C203.331 301.832 202.735 302.427 202.735 303.161V320.447C202.735 321.181 203.331 321.777 204.065 321.777C204.799 321.777 205.394 321.181 205.394 320.447V303.161Z" fill="#4A6FA5"/>
<path d="M210.047 303.161C210.047 302.427 209.452 301.832 208.718 301.832C207.984 301.832 207.389 302.427 207.389 303.161V320.447C207.389 321.181 207.984 321.777 208.718 321.777C209.452 321.777 210.047 321.181 210.047 320.447V303.161Z" fill="#4A6FA5"/>
<path d="M214.7 303.161C214.7 302.427 214.105 301.832 213.37 301.832C212.636 301.832 212.041 302.427 212.041 303.161V320.447C212.041 321.181 212.636 321.777 213.37 321.777C214.105 321.777 214.7 321.181 214.7 320.447V303.161Z" fill="#4A6FA5"/>
<path d="M180.468 113.021H143.244C140.858 113.021 138.924 114.955 138.924 117.342C138.924 119.729 140.858 121.663 143.244 121.663H180.468C182.854 121.663 184.789 119.729 184.789 117.342C184.789 114.955 182.854 113.021 180.468 113.021Z" fill="black"/>
<path d="M149.679 133.435C149.787 133.411 149.896 133.397 150.008 133.393C150.12 133.385 150.232 133.381 150.343 133.381C150.443 133.381 150.559 133.389 150.69 133.405C150.822 133.417 150.937 133.441 151.037 133.477L151.103 133.567L148.782 141.614C148.598 141.634 148.403 141.648 148.196 141.656C147.988 141.664 147.787 141.668 147.591 141.668C147.3 141.668 147.073 141.62 146.909 141.525C146.75 141.425 146.63 141.237 146.55 140.962L144.433 133.567C144.572 133.507 144.72 133.455 144.875 133.411C145.031 133.367 145.19 133.345 145.354 133.345C145.573 133.345 145.747 133.403 145.874 133.519C146.006 133.634 146.108 133.826 146.179 134.093L147.298 138.054C147.386 138.369 147.472 138.718 147.555 139.101C147.643 139.48 147.721 139.833 147.789 140.16C147.809 140.248 147.849 140.292 147.908 140.292L149.679 133.435ZM151.974 135.05C152.089 135.03 152.221 135.017 152.369 135.009C152.52 135.001 152.644 134.997 152.739 134.997C152.843 134.997 152.961 135.001 153.092 135.009C153.228 135.017 153.358 135.03 153.481 135.05V141.608C153.358 141.632 153.228 141.646 153.092 141.65C152.961 141.658 152.843 141.662 152.739 141.662C152.644 141.662 152.52 141.658 152.369 141.65C152.221 141.646 152.089 141.632 151.974 141.608V135.05ZM159.23 135.05C159.341 135.027 159.443 135.011 159.535 135.003C159.626 134.995 159.718 134.991 159.81 134.991C159.922 134.991 160.041 134.999 160.169 135.015C160.296 135.027 160.426 135.052 160.558 135.092L160.624 135.176L158.572 141.614C158.42 141.634 158.235 141.648 158.015 141.656C157.796 141.664 157.59 141.668 157.399 141.668C157.152 141.668 156.94 141.628 156.765 141.548C156.593 141.469 156.466 141.287 156.382 141.004L154.545 135.158C154.681 135.102 154.823 135.058 154.97 135.027C155.118 134.991 155.267 134.973 155.419 134.973C155.638 134.973 155.812 135.025 155.939 135.128C156.071 135.232 156.177 135.417 156.256 135.685L157.112 138.389C157.2 138.676 157.285 138.984 157.369 139.311C157.453 139.638 157.531 139.979 157.602 140.334C157.618 140.398 157.652 140.43 157.704 140.43L159.23 135.05ZM166.382 140.394C166.382 140.856 166.31 141.177 166.167 141.357C166.023 141.533 165.782 141.62 165.443 141.62H162.493C162.226 141.62 162.015 141.542 161.859 141.387C161.704 141.231 161.626 141.02 161.626 140.753V135.122L161.692 135.05H166.178C166.198 135.162 166.21 135.268 166.214 135.368C166.218 135.467 166.22 135.559 166.22 135.643C166.22 135.731 166.21 135.83 166.19 135.942C166.174 136.054 166.147 136.165 166.107 136.277H163.815C163.736 136.277 163.63 136.277 163.498 136.277C163.371 136.273 163.237 136.271 163.098 136.271C163.098 136.375 163.1 136.474 163.104 136.57C163.108 136.666 163.11 136.774 163.11 136.893V137.707C163.245 137.703 163.377 137.701 163.504 137.701C163.636 137.697 163.74 137.695 163.815 137.695H165.562C165.594 137.787 165.614 137.889 165.622 138C165.634 138.112 165.64 138.208 165.64 138.287C165.64 138.371 165.634 138.469 165.622 138.581C165.614 138.692 165.594 138.794 165.562 138.886H163.815C163.74 138.886 163.636 138.886 163.504 138.886C163.377 138.886 163.245 138.886 163.11 138.886V139.807C163.11 139.927 163.108 140.033 163.104 140.124C163.1 140.216 163.098 140.314 163.098 140.418V140.424C163.217 140.416 163.333 140.41 163.445 140.406C163.56 140.398 163.698 140.394 163.857 140.394H166.382ZM172.855 137.007C172.855 137.298 172.789 137.563 172.657 137.803C172.526 138.038 172.354 138.236 172.143 138.395C171.932 138.551 171.71 138.656 171.479 138.712C171.682 138.784 171.848 138.892 171.975 139.035C172.107 139.175 172.221 139.351 172.316 139.562L172.711 140.459C172.783 140.619 172.861 140.767 172.945 140.902C173.032 141.038 173.124 141.15 173.22 141.237C173.128 141.361 172.988 141.471 172.801 141.566C172.617 141.658 172.42 141.704 172.209 141.704C171.981 141.704 171.8 141.646 171.664 141.531C171.533 141.415 171.415 141.235 171.311 140.992L170.749 139.712C170.653 139.492 170.538 139.343 170.402 139.263C170.266 139.179 170.071 139.137 169.816 139.137H169.271V141.608C169.148 141.632 169.018 141.646 168.882 141.65C168.751 141.658 168.633 141.662 168.53 141.662C168.434 141.662 168.314 141.658 168.171 141.65C168.027 141.646 167.897 141.632 167.782 141.608V135.11L167.848 135.044C168.29 135.032 168.709 135.023 169.104 135.015C169.503 135.007 169.901 135.003 170.3 135.003C170.787 135.003 171.222 135.07 171.604 135.206C171.991 135.342 172.296 135.557 172.52 135.852C172.743 136.147 172.855 136.532 172.855 137.007ZM169.271 136.11V137.988C169.451 137.988 169.622 137.986 169.786 137.982C169.953 137.978 170.085 137.976 170.181 137.976C170.476 137.976 170.705 137.93 170.869 137.839C171.032 137.743 171.146 137.623 171.21 137.48C171.273 137.336 171.305 137.187 171.305 137.031C171.305 136.8 171.228 136.59 171.072 136.403C170.92 136.215 170.641 136.121 170.235 136.121C170.083 136.121 169.925 136.119 169.762 136.115C169.598 136.112 169.435 136.11 169.271 136.11ZM179.149 140.394C179.149 140.856 179.077 141.177 178.934 141.357C178.79 141.533 178.549 141.62 178.21 141.62H175.26C174.993 141.62 174.782 141.542 174.626 141.387C174.471 141.231 174.393 141.02 174.393 140.753V135.122L174.459 135.05H178.945C178.965 135.162 178.977 135.268 178.981 135.368C178.985 135.467 178.987 135.559 178.987 135.643C178.987 135.731 178.977 135.83 178.957 135.942C178.941 136.054 178.914 136.165 178.874 136.277H176.582C176.503 136.277 176.397 136.277 176.265 136.277C176.138 136.273 176.004 136.271 175.865 136.271C175.865 136.375 175.867 136.474 175.871 136.57C175.875 136.666 175.877 136.774 175.877 136.893V137.707C176.012 137.703 176.144 137.701 176.271 137.701C176.403 137.697 176.507 137.695 176.582 137.695H178.329C178.361 137.787 178.381 137.889 178.389 138C178.401 138.112 178.407 138.208 178.407 138.287C178.407 138.371 178.401 138.469 178.389 138.581C178.381 138.692 178.361 138.794 178.329 138.886H176.582C176.507 138.886 176.403 138.886 176.271 138.886C176.144 138.886 176.012 138.886 175.877 138.886V139.807C175.877 139.927 175.875 140.033 175.871 140.124C175.867 140.216 175.865 140.314 175.865 140.418V140.424C175.984 140.416 176.1 140.41 176.212 140.406C176.327 140.398 176.465 140.394 176.624 140.394H179.149Z" fill="#FFF8EC"/>
<path d="M200.741 155.57H122.971C115.629 155.57 109.677 161.523 109.677 168.866V259.283C109.677 266.626 115.629 272.579 122.971 272.579H200.741C208.084 272.579 214.036 266.626 214.036 259.283V168.866C214.036 161.523 208.084 155.57 200.741 155.57Z" fill="white"/>
<path d="M566.994 106.04H257.241C250.45 106.04 244.944 111.547 244.944 118.339V352.359C244.944 359.151 250.45 364.658 257.241 364.658H566.994C573.786 364.658 579.291 359.151 579.291 352.359V118.339C579.291 111.547 573.786 106.04 566.994 106.04Z" fill="#F6B69E" stroke="black" stroke-width="3"/>
<path d="M339 132.633H280.506C273.715 132.633 268.209 138.14 268.209 144.932V213.41C268.209 220.202 273.715 225.709 280.506 225.709H339C345.792 225.709 351.297 220.202 351.297 213.41V144.932C351.297 138.14 345.792 132.633 339 132.633Z" fill="#FFF8EC" stroke="#6B7C99" stroke-width="3"/>
<path d="M339 241H280.506C273.715 241 268.209 246.507 268.209 253.299V321.777C268.209 328.569 273.715 334.076 280.506 334.076H339C345.792 334.076 351.297 328.569 351.297 321.777V253.299C351.297 246.507 345.792 241 339 241Z" fill="#E4F2FF" stroke="#6B7C99" stroke-width="3"/>
<path d="M438.041 241H379.547C372.756 241 367.25 246.507 367.25 253.299V321.777C367.25 328.569 372.756 334.076 379.547 334.076H438.041C444.833 334.076 450.338 328.569 450.338 321.777V253.299C450.338 246.507 444.833 241 438.041 241Z" fill="#FFF8EC" stroke="#6B7C99" stroke-width="3"/>
<path d="M537.082 241H478.588C471.797 241 466.291 246.507 466.291 253.299V321.777C466.291 328.569 471.797 334.076 478.588 334.076H537.082C543.874 334.076 549.379 328.569 549.379 321.777V253.299C549.379 246.507 543.874 241 537.082 241Z" fill="#FFF8EC" stroke="#6B7C99" stroke-width="3"/>
<path d="M438.041 132.633H379.547C372.756 132.633 367.25 138.14 367.25 144.932V213.41C367.25 220.202 372.756 225.709 379.547 225.709H438.041C444.833 225.709 450.338 220.202 450.338 213.41V144.932C450.338 138.14 444.833 132.633 438.041 132.633Z" fill="#FFF8EC" stroke="#6B7C99" stroke-width="3"/>
<path d="M537.082 132.633H478.588C471.797 132.633 466.291 138.14 466.291 144.932V213.41C466.291 220.202 471.797 225.709 478.588 225.709H537.082C543.874 225.709 549.379 220.202 549.379 213.41V144.932C549.379 138.14 543.874 132.633 537.082 132.633Z" fill="#E4F2FF" stroke="#6B7C99" stroke-width="3"/>
<path d="M287.974 317.55C286.244 317.55 284.88 317.161 283.885 316.381C282.911 315.624 282.425 314.574 282.425 313.232C282.425 311.133 283.052 308.937 284.307 306.642C285.562 304.327 287.38 302.163 289.76 300.15C292.14 298.116 295.007 296.471 298.36 295.216C301.736 293.939 305.523 293.301 309.72 293.301C313.94 293.301 317.726 293.939 321.08 295.216C324.455 296.471 327.322 298.116 329.681 300.15C332.061 302.163 333.879 304.327 335.134 306.642C336.41 308.937 337.048 311.133 337.048 313.232C337.048 314.574 336.551 315.624 335.555 316.381C334.582 317.161 333.23 317.55 331.499 317.55H287.974ZM309.753 287.49C307.438 287.49 305.295 286.862 303.326 285.607C301.358 284.33 299.767 282.621 298.555 280.478C297.365 278.314 296.77 275.89 296.77 273.206C296.77 270.566 297.365 268.185 298.555 266.065C299.767 263.944 301.358 262.267 303.326 261.033C305.295 259.799 307.438 259.183 309.753 259.183C312.068 259.183 314.21 259.789 316.179 261.001C318.148 262.213 319.728 263.879 320.918 266C322.13 268.099 322.735 270.48 322.735 273.142C322.735 275.847 322.13 278.282 320.918 280.446C319.728 282.61 318.148 284.33 316.179 285.607C314.21 286.862 312.068 287.49 309.753 287.49Z" fill="#7C8ACF"/>
<path d="M486.722 209.848C484.991 209.848 483.627 209.459 482.632 208.679C481.658 207.921 481.172 206.872 481.172 205.53C481.172 203.431 481.799 201.235 483.054 198.94C484.309 196.625 486.127 194.461 488.507 192.448C490.887 190.414 493.754 188.769 497.108 187.514C500.483 186.237 504.27 185.599 508.467 185.599C512.687 185.599 516.473 186.237 519.827 187.514C523.203 188.769 526.069 190.414 528.428 192.448C530.808 194.461 532.626 196.625 533.881 198.94C535.157 201.235 535.795 203.431 535.795 205.53C535.795 206.872 535.298 207.921 534.302 208.679C533.329 209.459 531.977 209.848 530.246 209.848H486.722ZM508.5 179.788C506.185 179.788 504.042 179.16 502.074 177.905C500.105 176.628 498.514 174.919 497.302 172.776C496.112 170.612 495.518 168.188 495.518 165.504C495.518 162.864 496.112 160.483 497.302 158.363C498.514 156.242 500.105 154.564 502.074 153.331C504.042 152.097 506.185 151.481 508.5 151.481C510.815 151.481 512.957 152.087 514.926 153.299C516.895 154.511 518.475 156.177 519.665 158.298C520.877 160.397 521.482 162.778 521.482 165.44C521.482 168.145 520.877 170.579 519.665 172.743C518.475 174.907 516.895 176.628 514.926 177.905C512.957 179.16 510.815 179.788 508.5 179.788Z" fill="#7C8ACF"/>
</g>
<defs>
<clipPath id="clip0_4684_9253">
<rect width="678" height="482" fill="white"/>
</clipPath>
</defs>
</svg>
