<svg width="589" height="327" viewBox="0 0 589 327" fill="none" xmlns="http://www.w3.org/2000/svg">
<path d="M584.411 3.07957C584.411 3.07957 533.143 66.715 529.407 71.8676C525.67 77.0203 535.172 81.5142 538.214 77.7102C541.255 73.9063 584.411 3.07957 584.411 3.07957Z" fill="#C9C9CA" stroke="black" stroke-width="2"/>
<g filter="url(#filter0_i_3513_2485)">
<path d="M484.897 157.989C495.143 142.672 508.245 123.944 510.959 119.477C513.672 115.01 503.672 106.01 498.653 111.466C493.634 116.921 481.774 133.528 470.883 148.115C457.027 166.673 435.411 195.659 435.411 195.659C435.411 195.659 431.579 201.099 432.095 204.919C432.476 207.74 436.588 210.797 436.588 210.797C436.588 210.797 440.593 213.869 444.131 213.399C447.669 212.929 451.734 207.16 451.734 207.16C451.734 207.16 472.02 177.239 484.897 157.989Z" fill="#C9C9CB"/>
</g>
<path d="M484.897 157.989C495.143 142.672 508.245 123.944 510.959 119.477C513.672 115.01 503.672 106.01 498.653 111.466C493.634 116.921 481.774 133.528 470.883 148.115C457.027 166.673 435.411 195.659 435.411 195.659C435.411 195.659 431.579 201.099 432.095 204.919C432.476 207.74 436.588 210.797 436.588 210.797C436.588 210.797 440.593 213.869 444.131 213.399C447.669 212.929 451.734 207.16 451.734 207.16C451.734 207.16 472.02 177.239 484.897 157.989Z" stroke="black" stroke-width="2"/>
<path d="M443.281 202.208C443.617 202.445 444.105 202.564 444.81 202.45C445.523 202.335 446.396 201.987 447.383 201.373C449.354 200.146 451.612 197.961 453.708 194.987C455.804 192.012 456.976 189.327 457.354 187.245C457.74 185.115 457.264 183.913 456.534 183.398C455.804 182.884 454.512 182.84 452.636 183.921C450.802 184.977 448.669 186.984 446.572 189.96C444.477 192.934 443.179 195.796 442.687 198.065C442.441 199.201 442.407 200.139 442.539 200.85C442.669 201.552 442.946 201.972 443.281 202.208Z" fill="white" stroke="black" stroke-width="2"/>
<path d="M476.676 200.412C476.676 200.412 394.099 173.089 361.24 202.425C343.254 218.483 338.192 233.639 334.014 257.006C329.596 281.717 351.949 297.819 342.11 320.973C332.331 343.986 320.288 361.338 290.446 360.553C290.446 360.553 250.534 373.91 232.05 360.553C223.331 354.252 222.481 346.657 215.05 338.877C203.019 326.282 190.313 325.571 179.55 311.876C163.591 291.568 174.267 270.569 161.05 248.377C146.845 224.526 123.267 223.512 109.551 199.376C96.8222 176.977 91.1497 161.027 93.551 135.376C95.7687 111.687 97.0386 91.4326 117.551 79.3764C127.595 73.4731 135.166 69.9039 146.551 72.3765C158.352 74.9394 164.835 81.2386 170.551 91.8765C177.575 104.949 173.053 115.249 170.551 129.876C168 144.791 167.316 154.818 157.551 166.376C146.336 179.652 134.871 184.457 117.551 185.876C96.6625 187.588 67.5511 166.376 67.5511 166.376L5.55144 135.376L-22.4485 121.876" stroke="#F9D4AD" stroke-width="6" stroke-linecap="round" stroke-dasharray="20 20"/>
<defs>
<filter id="filter0_i_3513_2485" x="431.048" y="108.762" width="81.3691" height="105.686" filterUnits="userSpaceOnUse" color-interpolation-filters="sRGB">
<feFlood flood-opacity="0" result="BackgroundImageFix"/>
<feBlend mode="normal" in="SourceGraphic" in2="BackgroundImageFix" result="shape"/>
<feColorMatrix in="SourceAlpha" type="matrix" values="0 0 0 0 0 0 0 0 0 0 0 0 0 0 0 0 0 0 127 0" result="hardAlpha"/>
<feOffset dx="-2" dy="-4"/>
<feComposite in2="hardAlpha" operator="arithmetic" k2="-1" k3="1"/>
<feColorMatrix type="matrix" values="0 0 0 0 0 0 0 0 0 0 0 0 0 0 0 0 0 0 0.25 0"/>
<feBlend mode="normal" in2="shape" result="effect1_innerShadow_3513_2485"/>
</filter>
</defs>
</svg>
