<svg width="690" height="720" viewBox="0 0 690 720" fill="none" xmlns="http://www.w3.org/2000/svg">
<path d="M292.046 354.621C310.187 358.469 322.957 374.771 322.35 393.306L321.898 407.091L204.011 398.676C197.002 398.175 190.156 396.296 183.87 393.153L109.756 356.1C105.976 354.211 101.378 355.744 99.487 359.523C97.597 363.303 99.13 367.9 102.91 369.791L166.24 401.456C170.631 403.653 171.011 409.769 166.928 412.495L136.047 433.092C132.532 435.436 131.582 440.188 133.925 443.704C136.269 447.22 141.02 448.17 144.537 445.826L187.741 417.024C191.405 414.583 195.779 413.429 200.17 413.743L284.676 419.775C305.182 421.239 320.866 438.645 320.195 459.192L313.976 649.501C312.12 706.243 275.502 730.847 233.412 715.541C209.256 706.757 209.354 710.978 187.741 681.103C173.9 661.971 158.632 655.145 136.047 639.013C109.262 619.881 114.793 612.228 99.6664 581.616C83.8101 549.528 68.8756 562.484 49.7435 520.394C45.5123 511.085 44.3873 500.877 44.6583 491.683C45.2131 472.865 45.84 453.348 38.7794 435.896L13.0411 372.275C6.12294 355.174 15.7891 335.885 33.6288 331.191L99.6664 313.815L292.046 354.621Z" fill="#63903E"/>
<path d="M83.5311 196.683C101.821 212.862 126.736 219.337 150.591 214.118L235.691 195.502L298.489 237.367C316.111 249.115 326.41 269.138 325.718 290.306L323.908 345.727L248.732 329.786C236.824 327.259 226.28 320.395 219.152 310.526L186.703 265.588C184.228 262.163 179.441 261.389 176.015 263.862C172.592 266.337 171.817 271.124 174.289 274.549L199.407 309.323C202.416 313.49 198.71 319.178 193.683 318.112L102.163 298.696L12.9536 250.264C5.192 246.05 0.409934 237.739 1.53673 228.98C1.79436 226.977 2.08453 224.982 2.40706 222.995C3.71345 214.948 9.77686 208.628 17.5749 206.25L74.6601 188.836L83.5311 196.683Z" fill="#63903E"/>
<path d="M61.8879 294.249C67.9798 297.556 66.8869 306.617 60.184 308.382L19.2005 319.166C9.49549 321.719 0 314.399 0 304.364V286.374C0 274.77 12.4101 267.386 22.6087 272.923L61.8879 294.249Z" fill="#63903E"/>
<path d="M250.862 82.6973C257.424 111.131 273.926 136.291 297.392 153.636L303.563 158.197C319.751 170.16 329.023 189.317 328.364 209.435L327.421 238.258L241.842 181.205L178.13 127.553C173.031 123.258 168.665 118.159 165.209 112.457L154.137 94.189C145.208 79.4572 150.189 60.2619 165.154 51.7297L198.841 32.5228C216.653 22.3673 239.218 32.2523 243.83 52.2307L250.862 82.6973Z" fill="#63903E"/>
<path d="M152.123 120.386C156.443 127.514 161.898 133.895 168.273 139.264L208.54 173.171C213.392 177.261 211.443 185.138 205.244 186.496L147.317 199.172C128.234 203.345 108.304 198.161 93.6726 185.219L62.0222 157.218C49.8057 146.411 48.0468 127.688 60.1106 116.71C69.96 107.747 80.8641 99.7854 92.7086 93.0331L98.6463 89.6467C113.056 81.4284 131.39 86.1835 139.989 100.369L152.123 120.386Z" fill="#63903E"/>
<path d="M50.9692 167.873C55.446 171.837 53.849 179.175 48.1292 180.921L38.6873 183.801C26.7928 187.428 16.2149 176.114 22.1334 165.178C26.5147 157.081 37.244 155.733 44.1396 161.832L50.9692 167.873Z" fill="#63903E"/>
<path d="M255.821 36.145C251.631 17.9889 261.715 -1.99147 280.17 0.575017C309.416 4.64192 334.238 29.8764 333.145 63.3186L330.022 158.718L306.488 141.327C285.955 126.15 271.513 104.139 265.772 79.2595L255.821 36.145Z" fill="#63903E"/>
<path d="M397.273 354.621C379.132 358.469 366.362 374.771 366.969 393.306L367.421 407.091L485.308 398.676C492.317 398.175 499.163 396.296 505.449 393.153L579.564 356.1C583.343 354.211 587.941 355.744 589.832 359.523C591.722 363.303 590.189 367.9 586.409 369.791L523.079 401.456C518.688 403.653 518.308 409.769 522.391 412.495L553.272 433.092C556.787 435.436 557.737 440.188 555.394 443.704C553.05 447.22 548.299 448.17 544.782 445.826L501.578 417.024C497.914 414.583 493.54 413.429 489.149 413.743L404.643 419.775C384.137 421.239 368.453 438.645 369.124 459.192L375.343 649.501C377.199 706.243 413.817 730.847 455.907 715.541C480.063 706.757 479.965 710.978 501.578 681.103C515.419 661.971 530.687 655.145 553.272 639.013C580.057 619.881 574.526 612.228 589.653 581.616C605.509 549.528 620.443 562.484 639.576 520.394C643.807 511.085 644.932 500.877 644.661 491.683C644.106 472.865 643.479 453.348 650.54 435.896L676.278 372.275C683.196 355.174 673.53 335.885 655.69 331.191L589.653 313.815L397.273 354.621Z" fill="#63903E"/>
<path d="M605.788 196.683C587.498 212.862 562.583 219.337 538.728 214.118L453.628 195.502L390.831 237.367C373.208 249.115 362.909 269.138 363.601 290.306L365.411 345.727L440.587 329.786C452.495 327.259 463.039 320.395 470.167 310.526L502.617 265.588C505.091 262.163 509.878 261.389 513.304 263.862C516.727 266.337 517.502 271.124 515.03 274.549L489.912 309.323C486.903 313.49 490.609 319.178 495.636 318.112L587.157 298.696L676.365 250.264C684.127 246.05 688.909 237.739 687.782 228.98C687.525 226.977 687.235 224.982 686.912 222.995C685.606 214.948 679.542 208.628 671.744 206.25L614.659 188.836L605.788 196.683Z" fill="#63903E"/>
<path d="M627.431 294.249C621.339 297.556 622.432 306.617 629.135 308.382L670.119 319.166C679.824 321.719 689.319 314.399 689.319 304.364V286.374C689.319 274.77 676.909 267.386 666.71 272.923L627.431 294.249Z" fill="#63903E"/>
<path d="M438.457 82.6973C431.895 111.131 415.393 136.291 391.927 153.636L385.756 158.197C369.569 170.16 360.296 189.317 360.955 209.435L361.898 238.258L447.477 181.205L511.189 127.553C516.288 123.258 520.655 118.159 524.11 112.457L535.182 94.189C544.111 79.4572 539.13 60.2619 524.166 51.7297L490.478 32.5228C472.666 22.3673 450.101 32.2523 445.489 52.2307L438.457 82.6973Z" fill="#63903E"/>
<path d="M537.196 120.386C532.876 127.514 527.422 133.895 521.046 139.264L480.779 173.171C475.927 177.261 477.876 185.138 484.075 186.496L542.002 199.172C561.085 203.345 581.015 198.161 595.646 185.219L627.297 157.218C639.513 146.411 641.272 127.688 629.208 116.71C619.359 107.747 608.455 99.7854 596.611 93.0331L590.673 89.6467C576.263 81.4284 557.929 86.1835 549.33 100.369L537.196 120.386Z" fill="#63903E"/>
<path d="M638.35 167.873C633.873 171.837 635.47 179.175 641.19 180.921L650.632 183.801C662.526 187.428 673.104 176.114 667.186 165.178C662.804 157.081 652.075 155.733 645.179 161.832L638.35 167.873Z" fill="#63903E"/>
<path d="M433.498 36.145C437.688 17.9889 427.604 -1.99147 409.149 0.575017C379.903 4.64192 355.081 29.8764 356.174 63.3186L359.298 158.718L382.832 141.327C403.364 126.15 417.806 104.139 423.547 79.2595L433.498 36.145Z" fill="#63903E"/>
</svg>
