<svg width="452" height="302" viewBox="0 0 452 302" fill="none" xmlns="http://www.w3.org/2000/svg">
<path d="M451 151H406C406 167.569 392.569 181 376 181C359.431 181 346 167.569 346 151H301V106C284.431 106 271 92.5685 271 76C271 59.4315 284.431 46 301 46V1H451V151Z" stroke="white" stroke-width="2"/>
<path d="M346 151C346 167.569 359.431 181 376 181C392.569 181 406 167.569 406 151H451V301H301V256C317.569 256 331 242.569 331 226C331 209.431 317.569 196 301 196V151H346Z" stroke="white" stroke-width="2"/>
<path d="M151 196C134.431 196 121 209.431 121 226C121 242.569 134.431 256 151 256V301H1V151H46C46 167.569 59.4315 181 76 181C92.5685 181 106 167.569 106 151H151V196Z" stroke="white" stroke-width="2"/>
<path d="M151 46C167.569 46 181 59.4315 181 76C181 92.5685 167.569 106 151 106V151H106C106 167.569 92.5685 181 76 181C59.4315 181 46 167.569 46 151H1V1H151V46Z" stroke="white" stroke-width="2"/>
<path d="M226 121C242.569 121 256 134.431 256 151H301V196C317.569 196 331 209.431 331 226C331 242.569 317.569 256 301 256V301H151V256C134.431 256 121 242.569 121 226C121 209.431 134.431 196 151 196V151H196C196 134.431 209.431 121 226 121Z" stroke="white" stroke-width="2"/>
<path d="M301 46C284.431 46 271 59.4315 271 76C271 92.5685 284.431 106 301 106V151H256C256 134.431 242.569 121 226 121C209.431 121 196 134.431 196 151H151V106C167.569 106 181 92.5685 181 76C181 59.4315 167.569 46 151 46V1H301V46Z" stroke="white" stroke-width="2"/>
</svg>
