<svg width="340" height="350" viewBox="0 0 340 350" fill="none" xmlns="http://www.w3.org/2000/svg">
<g clip-path="url(#clip0_3811_1304)">
<path d="M320 0H20C8.9543 0 0 8.9543 0 20V330C0 341.046 8.9543 350 20 350H320C331.046 350 340 341.046 340 330V20C340 8.9543 331.046 0 320 0Z" fill="#F9FAFB" fill-opacity="0.98"/>
<path d="M115 72.5H43C41.067 72.5 39.5 74.067 39.5 76V164C39.5 165.933 41.067 167.5 43 167.5H115C116.933 167.5 118.5 165.933 118.5 164V76C118.5 74.067 116.933 72.5 115 72.5Z" fill="#324C73" stroke="black"/>
<path d="M206 72.5H134C132.067 72.5 130.5 74.067 130.5 76V164C130.5 165.933 132.067 167.5 134 167.5H206C207.933 167.5 209.5 165.933 209.5 164V76C209.5 74.067 207.933 72.5 206 72.5Z" fill="#324C73" stroke="black"/>
<path d="M297 72.5H225C223.067 72.5 221.5 74.067 221.5 76V164C221.5 165.933 223.067 167.5 225 167.5H297C298.933 167.5 300.5 165.933 300.5 164V76C300.5 74.067 298.933 72.5 297 72.5Z" fill="#324C73" stroke="black"/>
<path d="M115 179.5H43C41.067 179.5 39.5 181.067 39.5 183V271C39.5 272.933 41.067 274.5 43 274.5H115C116.933 274.5 118.5 272.933 118.5 271V183C118.5 181.067 116.933 179.5 115 179.5Z" fill="#324C73" stroke="black"/>
<path d="M206 179.5H134C132.067 179.5 130.5 181.067 130.5 183V271C130.5 272.933 132.067 274.5 134 274.5H206C207.933 274.5 209.5 272.933 209.5 271V183C209.5 181.067 207.933 179.5 206 179.5Z" fill="#324C73" stroke="black"/>
<path d="M297 179.5H225C223.067 179.5 221.5 181.067 221.5 183V271C221.5 272.933 223.067 274.5 225 274.5H297C298.933 274.5 300.5 272.933 300.5 271V183C300.5 181.067 298.933 179.5 297 179.5Z" fill="#324C73" stroke="black"/>
<path d="M110 78H48C46.3431 78 45 79.3431 45 81V159C45 160.657 46.3431 162 48 162H110C111.657 162 113 160.657 113 159V81C113 79.3431 111.657 78 110 78Z" stroke="#F9D4AD" stroke-width="2"/>
<path d="M201 77H139C136.791 77 135 78.7909 135 81V159C135 161.209 136.791 163 139 163H201C203.209 163 205 161.209 205 159V81C205 78.7909 203.209 77 201 77Z" fill="#F9D4AD"/>
<path d="M292 78H230C228.343 78 227 79.3431 227 81V159C227 160.657 228.343 162 230 162H292C293.657 162 295 160.657 295 159V81C295 79.3431 293.657 78 292 78Z" stroke="#F9D4AD" stroke-width="2"/>
<path d="M110 185H48C46.3431 185 45 186.343 45 188V266C45 267.657 46.3431 269 48 269H110C111.657 269 113 267.657 113 266V188C113 186.343 111.657 185 110 185Z" stroke="#F9D4AD" stroke-width="2"/>
<path d="M201 185H139C137.343 185 136 186.343 136 188V266C136 267.657 137.343 269 139 269H201C202.657 269 204 267.657 204 266V188C204 186.343 202.657 185 201 185Z" stroke="#F9D4AD" stroke-width="2"/>
<path d="M292 184H230C227.791 184 226 185.791 226 188V266C226 268.209 227.791 270 230 270H292C294.209 270 296 268.209 296 266V188C296 185.791 294.209 184 292 184Z" fill="#F9D4AD"/>
<path d="M170 118C175.523 118 180 113.299 180 107.5C180 101.701 175.523 97 170 97C164.477 97 160 101.701 160 107.5C160 113.299 164.477 118 170 118Z" fill="white"/>
<path d="M151.696 141.483C172.42 145.046 188.299 141.216 188.299 141.216C188.299 141.216 192.532 140.27 193.413 138.181C194.036 136.704 194.15 135.652 193.817 134.086C193.155 130.976 191.52 129.128 188.838 127.347C187.492 126.454 182.782 123.758 177.529 122.234L177.399 122.199C174.576 121.432 172.926 121.075 169.998 121.011C166.602 120.936 164.642 121.254 161.385 122.199C157.057 123.455 154.656 124.573 151.023 127.347C148.515 129.262 146.809 131.03 146.178 134.086C145.855 135.654 145.961 136.703 146.582 138.181C147.428 140.193 149.511 141.107 151.696 141.483Z" fill="white"/>
<path d="M261 225C266.523 225 271 220.299 271 214.5C271 208.701 266.523 204 261 204C255.477 204 251 208.701 251 214.5C251 220.299 255.477 225 261 225Z" fill="white"/>
<path d="M242.696 248.483C263.42 252.046 279.299 248.216 279.299 248.216C279.299 248.216 283.532 247.27 284.413 245.181C285.036 243.704 285.15 242.652 284.817 241.086C284.155 237.976 282.52 236.128 279.838 234.347C278.492 233.454 273.782 230.758 268.529 229.234L268.399 229.199C265.576 228.432 263.926 228.075 260.998 228.011C257.602 227.936 255.642 228.254 252.385 229.199C248.057 230.455 245.656 231.573 242.023 234.347C239.515 236.262 237.809 238.03 237.178 241.086C236.855 242.654 236.961 243.703 237.582 245.181C238.428 247.193 240.511 248.107 242.696 248.483Z" fill="white"/>
</g>
<defs>
<clipPath id="clip0_3811_1304">
<rect width="340" height="350" fill="white"/>
</clipPath>
</defs>
</svg>
