<svg width="340" height="350" viewBox="0 0 340 350" fill="none" xmlns="http://www.w3.org/2000/svg">
<path d="M320 0H20C8.9543 0 0 8.9543 0 20V330C0 341.046 8.9543 350 20 350H320C331.046 350 340 341.046 340 330V20C340 8.9543 331.046 0 320 0Z" fill="#F9FAFB" fill-opacity="0.98"/>
<path d="M169.5 197C221.139 197 263 162.078 263 119C263 75.9218 221.139 41 169.5 41C117.861 41 76 75.9218 76 119C76 162.078 117.861 197 169.5 197Z" fill="#D8E0F4"/>
<path d="M170 309C257.813 309 329 276.093 329 235.5C329 194.907 257.813 162 170 162C82.1867 162 11 194.907 11 235.5C11 276.093 82.1867 309 170 309Z" fill="#D8E0F4"/>
<path d="M117 70.5H45C42.7909 70.5 41 72.2909 41 74.5V162.5C41 164.709 42.7909 166.5 45 166.5H117C119.209 166.5 121 164.709 121 162.5V74.5C121 72.2909 119.209 70.5 117 70.5Z" fill="#324C73"/>
<path d="M208 70.5H136C133.791 70.5 132 72.2909 132 74.5V162.5C132 164.709 133.791 166.5 136 166.5H208C210.209 166.5 212 164.709 212 162.5V74.5C212 72.2909 210.209 70.5 208 70.5Z" fill="#324C73"/>
<path d="M299 70.5H227C224.791 70.5 223 72.2909 223 74.5V162.5C223 164.709 224.791 166.5 227 166.5H299C301.209 166.5 303 164.709 303 162.5V74.5C303 72.2909 301.209 70.5 299 70.5Z" fill="#324C73"/>
<path d="M117 177.5H45C42.7909 177.5 41 179.291 41 181.5V269.5C41 271.709 42.7909 273.5 45 273.5H117C119.209 273.5 121 271.709 121 269.5V181.5C121 179.291 119.209 177.5 117 177.5Z" fill="#324C73"/>
<path d="M208 177.5H136C133.791 177.5 132 179.291 132 181.5V269.5C132 271.709 133.791 273.5 136 273.5H208C210.209 273.5 212 271.709 212 269.5V181.5C212 179.291 210.209 177.5 208 177.5Z" fill="#324C73"/>
<path d="M299 177.5H227C224.791 177.5 223 179.291 223 181.5V269.5C223 271.709 224.791 273.5 227 273.5H299C301.209 273.5 303 271.709 303 269.5V181.5C303 179.291 301.209 177.5 299 177.5Z" fill="#324C73"/>
<path d="M203 75.5H141C138.791 75.5 137 77.2909 137 79.5V157.5C137 159.709 138.791 161.5 141 161.5H203C205.209 161.5 207 159.709 207 157.5V79.5C207 77.2909 205.209 75.5 203 75.5Z" fill="#F9D4AD"/>
<path d="M294 182.5H232C229.791 182.5 228 184.291 228 186.5V264.5C228 266.709 229.791 268.5 232 268.5H294C296.209 268.5 298 266.709 298 264.5V186.5C298 184.291 296.209 182.5 294 182.5Z" fill="#F9D4AD"/>
<path d="M203 183H141C139.067 183 137.5 184.567 137.5 186.5V264.5C137.5 266.433 139.067 268 141 268H203C204.933 268 206.5 266.433 206.5 264.5V186.5C206.5 184.567 204.933 183 203 183Z" stroke="white"/>
<path d="M112 183H50C48.067 183 46.5 184.567 46.5 186.5V264.5C46.5 266.433 48.067 268 50 268H112C113.933 268 115.5 266.433 115.5 264.5V186.5C115.5 184.567 113.933 183 112 183Z" stroke="white"/>
<path d="M112 76H50C48.067 76 46.5 77.567 46.5 79.5V157.5C46.5 159.433 48.067 161 50 161H112C113.933 161 115.5 159.433 115.5 157.5V79.5C115.5 77.567 113.933 76 112 76Z" stroke="white"/>
<path d="M294 76H232C230.067 76 228.5 77.567 228.5 79.5V157.5C228.5 159.433 230.067 161 232 161H294C295.933 161 297.5 159.433 297.5 157.5V79.5C297.5 77.567 295.933 76 294 76Z" stroke="white"/>
<path d="M172 116.5C177.523 116.5 182 111.799 182 106C182 100.201 177.523 95.5 172 95.5C166.477 95.5 162 100.201 162 106C162 111.799 166.477 116.5 172 116.5Z" fill="white"/>
<path d="M153.696 139.983C174.42 143.546 190.299 139.716 190.299 139.716C190.299 139.716 194.532 138.77 195.413 136.681C196.036 135.204 196.15 134.152 195.817 132.587C195.155 129.476 193.52 127.628 190.838 125.847C189.492 124.954 184.782 122.258 179.529 120.734L179.399 120.699C176.576 119.932 174.926 119.575 171.998 119.511C168.602 119.436 166.642 119.754 163.385 120.699C159.057 121.955 156.656 123.073 153.023 125.847C150.515 127.762 148.809 129.53 148.178 132.587C147.855 134.154 147.961 135.203 148.582 136.681C149.428 138.693 151.511 139.607 153.696 139.983Z" fill="white"/>
<path d="M263 223.5C268.523 223.5 273 218.799 273 213C273 207.201 268.523 202.5 263 202.5C257.477 202.5 253 207.201 253 213C253 218.799 257.477 223.5 263 223.5Z" fill="white"/>
<path d="M244.696 246.983C265.42 250.546 281.299 246.716 281.299 246.716C281.299 246.716 285.532 245.77 286.413 243.681C287.036 242.204 287.15 241.152 286.817 239.586C286.155 236.476 284.52 234.628 281.838 232.847C280.492 231.954 275.782 229.258 270.529 227.734L270.399 227.699C267.576 226.932 265.926 226.575 262.998 226.511C259.602 226.436 257.642 226.754 254.385 227.699C250.057 228.955 247.656 230.073 244.023 232.847C241.515 234.762 239.809 236.53 239.178 239.586C238.855 241.154 238.961 242.203 239.582 243.681C240.428 245.693 242.511 246.607 244.696 246.983Z" fill="white"/>
</svg>
