<svg width="390" height="248" viewBox="0 0 390 248" fill="none" xmlns="http://www.w3.org/2000/svg">
<g clip-path="url(#clip0_5399_9532)">
<path d="M226.065 35.4286C227.933 35.4286 229.448 33.8981 229.448 32.0101C229.448 30.1221 227.933 28.5916 226.065 28.5916C224.196 28.5916 222.682 30.1221 222.682 32.0101C222.682 33.8981 224.196 35.4286 226.065 35.4286Z" fill="white"/>
<path d="M318.336 206.356C320.205 206.356 321.72 204.686 321.72 202.627C321.72 200.567 320.205 198.897 318.336 198.897C316.468 198.897 314.953 200.567 314.953 202.627C314.953 204.686 316.468 206.356 318.336 206.356Z" fill="white"/>
<path d="M325.717 197.654C330.983 197.654 335.252 193.341 335.252 188.02C335.252 182.699 330.983 178.386 325.717 178.386C320.451 178.386 316.183 182.699 316.183 188.02C316.183 193.341 320.451 197.654 325.717 197.654Z" stroke="white" stroke-width="4"/>
<path d="M381.915 97.7611C381.915 150.465 390.331 200.763 242.048 229.072C163.758 256.652 32.6121 247.154 13.6708 145.786C0.321972 68.5276 37.9022 -38.5097 138.024 13.9264C250.612 38.6376 385.082 5.34468 381.915 97.7611Z" fill="#D8E0F4"/>
<path d="M62.2495 51.3795C62.1905 51.2444 62.2828 51.0916 62.4285 51.082L74.5819 50.28C74.649 50.2756 74.7142 50.303 74.7584 50.3541C74.8766 50.4903 74.7886 50.7042 74.6096 50.7158L62.4556 51.5065C62.367 51.5123 62.2846 51.4615 62.2495 51.3795Z" fill="#D9D9D9"/>
<path d="M289.98 51.2053H85.5051C79.2201 51.2053 74.125 56.3535 74.125 62.7041V179.838C74.125 186.188 79.2201 191.337 85.5051 191.337H289.98C296.265 191.337 301.36 186.188 301.36 179.838V62.7041C301.36 56.3535 296.265 51.2053 289.98 51.2053Z" fill="#6B7C99" stroke="black" stroke-width="3"/>
<path d="M273.846 58.812H93.0325C86.7474 58.812 81.6523 63.9602 81.6523 70.3108V172.231C81.6523 178.581 86.7474 183.729 93.0325 183.729H273.846C280.131 183.729 285.226 178.581 285.226 172.231V70.3108C285.226 63.9602 280.131 58.812 273.846 58.812Z" fill="#F6B69E" stroke="black" stroke-width="3"/>
<g filter="url(#filter0_i_5399_9532)">
<path d="M293.677 130.328C296.251 130.328 298.338 128.219 298.338 125.618C298.338 123.018 296.251 120.909 293.677 120.909C291.103 120.909 289.017 123.018 289.017 125.618C289.017 128.219 291.103 130.328 293.677 130.328Z" fill="white"/>
</g>
<path d="M293.677 130.017C296.081 130.017 298.03 128.048 298.03 125.618C298.03 123.189 296.081 121.22 293.677 121.22C291.273 121.22 289.324 123.189 289.324 125.618C289.324 128.048 291.273 130.017 293.677 130.017Z" stroke="white"/>
<path d="M62.2981 192.679C62.2347 192.524 62.3848 192.367 62.5404 192.426C62.5903 192.445 62.6296 192.483 62.6493 192.532L67.6424 204.89C67.6572 204.927 67.6566 204.969 67.6406 205.006C67.5889 205.125 67.421 205.123 67.3718 205.003L62.2981 192.679Z" fill="#D9D9D9"/>
<path d="M84.4021 82.5343C84.3406 82.3982 84.4329 82.2422 84.5805 82.2329L97.3281 81.4298C97.3933 81.4261 97.4573 81.4516 97.501 81.5007C97.624 81.6362 97.5367 81.855 97.3552 81.8661L84.6064 82.658C84.5196 82.663 84.4384 82.6139 84.4021 82.5343Z" fill="#D9D9D9"/>
<path d="M95.3473 70.8572C96.7062 70.8572 97.8079 69.7441 97.8079 68.371C97.8079 66.9979 96.7062 65.8848 95.3473 65.8848C93.9884 65.8848 92.8867 66.9979 92.8867 68.371C92.8867 69.7441 93.9884 70.8572 95.3473 70.8572Z" fill="#FF8083"/>
<path d="M102.766 72.1001L101.117 67.2831H102.056L103.235 71.105H103.292L104.474 67.2831H105.413L103.76 72.1001H102.766ZM106.163 72.1001V68.451H106.983V72.1001H106.163ZM106.577 67.84C106.442 67.84 106.326 67.7922 106.23 67.6971C106.132 67.6013 106.084 67.4863 106.084 67.3527C106.084 67.2147 106.132 67.0991 106.23 67.0059C106.326 66.9102 106.442 66.8623 106.577 66.8623C106.711 66.8623 106.825 66.9102 106.92 67.0059C107.017 67.0991 107.066 67.2147 107.066 67.3527C107.066 67.4863 107.017 67.6013 106.92 67.6971C106.825 67.7922 106.711 67.84 106.577 67.84ZM108.973 72.1001L107.688 68.451H108.566L109.399 71.289H109.458L110.288 68.451H111.153L109.871 72.1001H108.973ZM113.252 72.1735C112.893 72.1735 112.585 72.097 112.327 71.9435C112.071 71.7894 111.874 71.5718 111.735 71.289C111.597 71.0062 111.527 70.6712 111.527 70.284V70.2809C111.527 69.898 111.596 69.5642 111.732 69.2789C111.871 68.9942 112.067 68.7742 112.32 68.6182C112.574 68.4603 112.871 68.3814 113.212 68.3814C113.556 68.3814 113.851 68.4578 114.098 68.6114C114.346 68.763 114.538 68.9756 114.672 69.2491C114.807 69.5232 114.874 69.8433 114.874 70.2106V70.4841H111.94V69.9266H114.471L114.081 70.4474V70.1174C114.081 69.8744 114.045 69.673 113.972 69.5126C113.899 69.3529 113.798 69.2323 113.668 69.1521C113.541 69.0719 113.392 69.0322 113.222 69.0322C113.053 69.0322 112.901 69.0744 112.77 69.1589C112.639 69.2416 112.536 69.3634 112.459 69.5263C112.384 69.6866 112.347 69.8837 112.347 70.1174V70.4512C112.347 70.6755 112.384 70.8682 112.459 71.0286C112.534 71.1865 112.639 71.3089 112.776 71.3959C112.915 71.4804 113.079 71.5227 113.269 71.5227C113.416 71.5227 113.542 71.5016 113.648 71.4593C113.757 71.4146 113.843 71.3624 113.91 71.3021C113.976 71.2399 114.022 71.1809 114.048 71.1255L114.058 71.1019H114.838L114.831 71.1318C114.803 71.2499 114.75 71.3704 114.672 71.4923C114.598 71.6128 114.495 71.7253 114.366 71.8298C114.238 71.9323 114.081 72.0156 113.896 72.0803C113.711 72.1424 113.496 72.1735 113.252 72.1735ZM115.701 72.1001V68.451H116.523V69.0123H116.58C116.642 68.8165 116.752 68.6636 116.91 68.5548C117.071 68.4454 117.27 68.3913 117.508 68.3913C117.57 68.3913 117.631 68.3957 117.69 68.4044C117.752 68.4112 117.802 68.4199 117.842 68.4311V69.1757C117.776 69.1602 117.709 69.149 117.641 69.1422C117.574 69.1335 117.505 69.1291 117.432 69.1291C117.249 69.1291 117.09 69.1633 116.953 69.2323C116.817 69.3013 116.711 69.4007 116.636 69.5294C116.561 69.6562 116.523 69.8066 116.523 69.98V72.1001H115.701ZM119.974 72.1735C119.615 72.1735 119.306 72.097 119.049 71.9435C118.793 71.7894 118.596 71.5718 118.457 71.289C118.318 71.0062 118.249 70.6712 118.249 70.284V70.2809C118.249 69.898 118.317 69.5642 118.454 69.2789C118.593 68.9942 118.789 68.7742 119.042 68.6182C119.295 68.4603 119.592 68.3814 119.934 68.3814C120.278 68.3814 120.573 68.4578 120.82 68.6114C121.069 68.763 121.26 68.9756 121.395 69.2491C121.529 69.5232 121.596 69.8433 121.596 70.2106V70.4841H118.662V69.9266H121.193L120.803 70.4474V70.1174C120.803 69.8744 120.767 69.673 120.694 69.5126C120.621 69.3529 120.52 69.2323 120.39 69.1521C120.262 69.0719 120.113 69.0322 119.944 69.0322C119.774 69.0322 119.624 69.0744 119.491 69.1589C119.362 69.2416 119.258 69.3634 119.181 69.5263C119.106 69.6866 119.068 69.8837 119.068 70.1174V70.4512C119.068 70.6755 119.106 70.8682 119.181 71.0286C119.256 71.1865 119.362 71.3089 119.498 71.3959C119.637 71.4804 119.801 71.5227 119.99 71.5227C120.138 71.5227 120.265 71.5016 120.37 71.4593C120.478 71.4146 120.565 71.3624 120.631 71.3021C120.697 71.2399 120.743 71.1809 120.77 71.1255L120.78 71.1019H121.56L121.553 71.1318C121.525 71.2499 121.472 71.3704 121.395 71.4923C121.32 71.6128 121.217 71.7253 121.087 71.8298C120.959 71.9323 120.803 72.0156 120.618 72.0803C120.433 72.1424 120.218 72.1735 119.974 72.1735ZM124.231 72.1001V68.451H125.054V69.0185H125.11C125.186 68.8165 125.311 68.6592 125.483 68.548C125.657 68.4367 125.863 68.3814 126.101 68.3814C126.264 68.3814 126.411 68.4081 126.54 68.4616C126.673 68.5144 126.786 68.5902 126.881 68.6884C126.975 68.786 127.048 68.9029 127.098 69.039H127.158C127.218 68.9072 127.3 68.7929 127.406 68.6946C127.514 68.5946 127.64 68.5181 127.782 68.4647C127.928 68.4087 128.084 68.3814 128.252 68.3814C128.494 68.3814 128.701 68.4299 128.873 68.5281C129.047 68.6238 129.18 68.7618 129.273 68.942C129.368 69.1223 129.415 69.338 129.415 69.5897V72.1001H128.592V69.7936C128.592 69.6332 128.568 69.5008 128.519 69.3958C128.473 69.2913 128.401 69.2124 128.305 69.1589C128.207 69.1055 128.086 69.0788 127.938 69.0788C127.795 69.0788 127.67 69.1123 127.565 69.1788C127.459 69.2435 127.376 69.3317 127.317 69.443C127.259 69.5543 127.231 69.6798 127.231 69.8203V72.1001H126.408V69.7333C126.408 69.5971 126.382 69.4803 126.329 69.3827C126.278 69.2845 126.203 69.2099 126.104 69.1589C126.007 69.1055 125.891 69.0788 125.757 69.0788C125.623 69.0788 125.501 69.1142 125.394 69.1857C125.288 69.2547 125.204 69.3504 125.143 69.4728C125.083 69.5928 125.054 69.7289 125.054 69.88V72.1001H124.231ZM131.933 72.1735C131.574 72.1735 131.266 72.097 131.008 71.9435C130.752 71.7894 130.555 71.5718 130.416 71.289C130.278 71.0062 130.208 70.6712 130.208 70.284V70.2809C130.208 69.898 130.277 69.5642 130.413 69.2789C130.552 68.9942 130.748 68.7742 131.001 68.6182C131.255 68.4603 131.552 68.3814 131.893 68.3814C132.237 68.3814 132.532 68.4578 132.779 68.6114C133.028 68.763 133.22 68.9756 133.354 69.2491C133.488 69.5232 133.555 69.8433 133.555 70.2106V70.4841H130.621V69.9266H133.153L132.763 70.4474V70.1174C132.763 69.8744 132.726 69.673 132.654 69.5126C132.58 69.3529 132.48 69.2323 132.349 69.1521C132.222 69.0719 132.073 69.0322 131.903 69.0322C131.734 69.0322 131.583 69.0744 131.45 69.1589C131.321 69.2416 131.217 69.3634 131.14 69.5263C131.065 69.6866 131.028 69.8837 131.028 70.1174V70.4512C131.028 70.6755 131.065 70.8682 131.14 71.0286C131.215 71.1865 131.321 71.3089 131.457 71.3959C131.596 71.4804 131.76 71.5227 131.949 71.5227C132.097 71.5227 132.224 71.5016 132.329 71.4593C132.438 71.4146 132.524 71.3624 132.59 71.3021C132.657 71.2399 132.703 71.1809 132.729 71.1255L132.739 71.1019H133.519L133.512 71.1318C133.484 71.2499 133.431 71.3704 133.354 71.4923C133.279 71.6128 133.177 71.7253 133.047 71.8298C132.919 71.9323 132.763 72.0156 132.577 72.0803C132.392 72.1424 132.178 72.1735 131.933 72.1735ZM134.382 72.1001V68.451H135.205V69.0123H135.261C135.347 68.814 135.477 68.6592 135.651 68.548C135.825 68.4367 136.042 68.3814 136.301 68.3814C136.705 68.3814 137.013 68.4989 137.227 68.735C137.441 68.9706 137.547 69.3056 137.547 69.7401V72.1001H136.725V69.9334C136.725 69.6487 136.665 69.4349 136.546 69.2926C136.429 69.1502 136.247 69.0788 135.998 69.0788C135.835 69.0788 135.694 69.1154 135.575 69.1888C135.456 69.2627 135.365 69.3659 135.301 69.4996C135.237 69.6332 135.205 69.7911 135.205 69.9738V72.1001H134.382ZM139.824 72.1604C139.525 72.1604 139.264 72.0846 139.041 71.9329C138.819 71.7794 138.647 71.5613 138.526 71.2791C138.405 70.9963 138.344 70.6637 138.344 70.2809V70.274C138.344 69.8868 138.404 69.553 138.523 69.2727C138.644 68.9899 138.814 68.773 139.035 68.6213C139.257 68.4678 139.52 68.3913 139.824 68.3913C139.99 68.3913 140.144 68.4181 140.287 68.4715C140.43 68.5225 140.556 68.5958 140.664 68.6915C140.774 68.7873 140.86 68.901 140.921 69.0322H140.981V67.0388H141.8V72.1001H140.981V71.5296H140.921C140.855 71.6607 140.769 71.7738 140.66 71.8695C140.555 71.9634 140.432 72.0355 140.291 72.0871C140.149 72.1356 139.994 72.1604 139.824 72.1604ZM140.082 71.4593C140.27 71.4593 140.43 71.4127 140.564 71.3188C140.701 71.2231 140.806 71.0876 140.879 70.9117C140.953 70.7333 140.991 70.5233 140.991 70.2809V70.274C140.991 70.0291 140.953 69.819 140.879 69.6431C140.806 69.4672 140.701 69.3317 140.564 69.236C140.43 69.1403 140.27 69.0924 140.082 69.0924C139.897 69.0924 139.736 69.1403 139.6 69.236C139.466 69.3293 139.362 69.4648 139.289 69.6431C139.217 69.819 139.18 70.0291 139.18 70.274V70.2809C139.18 70.5257 139.217 70.7358 139.289 70.9117C139.362 71.0876 139.466 71.2231 139.6 71.3188C139.734 71.4127 139.895 71.4593 140.082 71.4593ZM144.388 72.1735C144.029 72.1735 143.721 72.097 143.463 71.9435C143.208 71.7894 143.01 71.5718 142.872 71.289C142.733 71.0062 142.663 70.6712 142.663 70.284V70.2809C142.663 69.898 142.732 69.5642 142.868 69.2789C143.007 68.9942 143.203 68.7742 143.456 68.6182C143.71 68.4603 144.007 68.3814 144.349 68.3814C144.692 68.3814 144.987 68.4578 145.234 68.6114C145.483 68.763 145.674 68.9756 145.809 69.2491C145.943 69.5232 146.01 69.8433 146.01 70.2106V70.4841H143.077V69.9266H145.607L145.217 70.4474V70.1174C145.217 69.8744 145.181 69.673 145.108 69.5126C145.036 69.3529 144.934 69.2323 144.805 69.1521C144.677 69.0719 144.528 69.0322 144.359 69.0322C144.189 69.0322 144.038 69.0744 143.906 69.1589C143.776 69.2416 143.672 69.3634 143.595 69.5263C143.52 69.6866 143.483 69.8837 143.483 70.1174V70.4512C143.483 70.6755 143.52 70.8682 143.595 71.0286C143.67 71.1865 143.776 71.3089 143.913 71.3959C144.051 71.4804 144.215 71.5227 144.405 71.5227C144.552 71.5227 144.679 71.5016 144.784 71.4593C144.893 71.4146 144.979 71.3624 145.046 71.3021C145.112 71.2399 145.158 71.1809 145.184 71.1255L145.195 71.1019H145.974L145.967 71.1318C145.939 71.2499 145.886 71.3704 145.809 71.4923C145.734 71.6128 145.631 71.7253 145.502 71.8298C145.374 71.9323 145.217 72.0156 145.032 72.0803C144.848 72.1424 144.632 72.1735 144.388 72.1735ZM146.837 72.1001V68.451H147.66V69.0123H147.716C147.802 68.814 147.932 68.6592 148.106 68.548C148.28 68.4367 148.497 68.3814 148.757 68.3814C149.16 68.3814 149.468 68.4989 149.682 68.735C149.895 68.9706 150.003 69.3056 150.003 69.7401V72.1001H149.179V69.9334C149.179 69.6487 149.12 69.4349 149.001 69.2926C148.884 69.1502 148.701 69.0788 148.453 69.0788C148.29 69.0788 148.149 69.1154 148.03 69.1888C147.911 69.2627 147.819 69.3659 147.755 69.4996C147.692 69.6332 147.66 69.7911 147.66 69.9738V72.1001H146.837ZM152.531 73.3818C152.213 73.3818 151.939 73.3395 151.708 73.255C151.479 73.1705 151.298 73.0505 151.166 72.8945C151.034 72.741 150.954 72.562 150.925 72.3575L150.928 72.3469H151.748L151.754 72.3575C151.781 72.4731 151.861 72.5676 151.996 72.6409C152.132 72.7167 152.315 72.7546 152.544 72.7546C152.826 72.7546 153.044 72.6912 153.198 72.5644C153.354 72.437 153.433 72.2568 153.433 72.0231V71.3226H153.377C153.308 71.4537 153.219 71.565 153.109 71.6564C153.001 71.7471 152.876 71.8161 152.736 71.8633C152.597 71.9075 152.443 71.9298 152.276 71.9298C151.972 71.9298 151.709 71.8565 151.487 71.7098C151.264 71.5606 151.093 71.3543 150.971 71.092C150.852 70.8291 150.793 70.5257 150.793 70.1808V70.1739C150.793 69.8221 150.853 69.5126 150.974 69.246C151.096 68.9787 151.267 68.7692 151.49 68.6182C151.714 68.4665 151.982 68.3913 152.293 68.3913C152.46 68.3913 152.613 68.4181 152.752 68.4715C152.893 68.525 153.016 68.6002 153.122 68.6984C153.23 68.796 153.318 68.9141 153.386 69.052H153.429V68.451H154.252V72.01C154.252 72.2903 154.182 72.5327 154.04 72.7379C153.902 72.9448 153.704 73.1039 153.446 73.2152C153.188 73.3265 152.883 73.3818 152.531 73.3818ZM152.531 71.2691C152.72 71.2691 152.883 71.2231 153.02 71.1318C153.156 71.0385 153.261 70.9105 153.334 70.7483C153.409 70.5854 153.446 70.3965 153.446 70.1808V70.1739C153.446 69.9583 153.409 69.7687 153.334 69.6065C153.261 69.4418 153.156 69.3137 153.02 69.2223C152.883 69.1291 152.72 69.0825 152.531 69.0825C152.339 69.0825 152.176 69.1291 152.042 69.2223C151.909 69.3137 151.808 69.4418 151.738 69.6065C151.67 69.7687 151.635 69.9583 151.635 70.1739V70.1808C151.635 70.394 151.67 70.5835 151.738 70.7483C151.808 70.9105 151.909 71.0385 152.042 71.1318C152.176 71.2231 152.339 71.2691 152.531 71.2691ZM156.249 72.1604C156.022 72.1604 155.817 72.1157 155.637 72.0268C155.459 71.9379 155.318 71.8117 155.214 71.6495C155.113 71.4848 155.062 71.2909 155.062 71.0684V71.0621C155.062 70.8458 155.115 70.66 155.221 70.5046C155.327 70.3461 155.482 70.223 155.686 70.1335C155.891 70.0447 156.14 69.9925 156.433 69.9769L157.768 69.8936V70.4412L156.549 70.5208C156.318 70.5344 156.147 70.5835 156.037 70.6681C155.927 70.7526 155.872 70.8707 155.872 71.0217V71.0286C155.872 71.1846 155.93 71.3058 156.047 71.3922C156.166 71.4792 156.317 71.5227 156.5 71.5227C156.665 71.5227 156.812 71.4892 156.942 71.4226C157.072 71.3555 157.174 71.2654 157.25 71.1523C157.325 71.036 157.362 70.9061 157.362 70.7613V69.6065C157.362 69.4237 157.304 69.2845 157.19 69.1888C157.075 69.0912 156.906 69.0421 156.681 69.0421C156.494 69.0421 156.341 69.0757 156.222 69.1422C156.103 69.2068 156.022 69.2994 155.98 69.4194L155.977 69.4324H155.201L155.204 69.4026C155.231 69.1981 155.31 69.0185 155.442 68.865C155.574 68.7114 155.749 68.5927 155.968 68.5082C156.185 68.4236 156.437 68.3814 156.721 68.3814C157.034 68.3814 157.298 68.4299 157.514 68.5281C157.73 68.6238 157.894 68.7636 158.006 68.9489C158.119 69.131 158.175 69.3504 158.175 69.6065V72.1001H157.362V71.5992H157.305C157.24 71.7154 157.154 71.8155 157.048 71.9C156.944 71.9845 156.826 72.0492 156.691 72.0933C156.557 72.1381 156.409 72.1604 156.249 72.1604ZM159.166 72.1001V68.451H159.989V69.0123H160.045C160.107 68.8165 160.217 68.6636 160.376 68.5548C160.537 68.4454 160.736 68.3913 160.974 68.3913C161.036 68.3913 161.096 68.3957 161.156 68.4044C161.217 68.4112 161.268 68.4199 161.308 68.4311V69.1757C161.241 69.1602 161.174 69.149 161.106 69.1422C161.04 69.1335 160.97 69.1291 160.898 69.1291C160.715 69.1291 160.555 69.1633 160.419 69.2323C160.282 69.3013 160.176 69.4007 160.101 69.5294C160.027 69.6562 159.989 69.8066 159.989 69.98V72.1001H159.166ZM162.012 72.1001V67.0388H162.835V72.1001H162.012ZM164.282 72.1001L163.066 70.4443L163.677 69.9371L165.27 72.1001H164.282ZM162.765 70.8918L162.735 69.9502H162.891L164.222 68.451H165.174L163.605 70.1174L163.228 70.4145L162.765 70.8918ZM166.774 72.1604C166.547 72.1604 166.343 72.1157 166.162 72.0268C165.984 71.9379 165.843 71.8117 165.74 71.6495C165.638 71.4848 165.588 71.2909 165.588 71.0684V71.0621C165.588 70.8458 165.641 70.66 165.746 70.5046C165.852 70.3461 166.007 70.223 166.212 70.1335C166.417 70.0447 166.666 69.9925 166.959 69.9769L168.294 69.8936V70.4412L167.075 70.5208C166.843 70.5344 166.672 70.5835 166.562 70.6681C166.452 70.7526 166.397 70.8707 166.397 71.0217V71.0286C166.397 71.1846 166.456 71.3058 166.572 71.3922C166.691 71.4792 166.842 71.5227 167.025 71.5227C167.19 71.5227 167.338 71.4892 167.468 71.4226C167.597 71.3555 167.7 71.2654 167.775 71.1523C167.85 71.036 167.887 70.9061 167.887 70.7613V69.6065C167.887 69.4237 167.83 69.2845 167.716 69.1888C167.601 69.0912 167.431 69.0421 167.207 69.0421C167.019 69.0421 166.867 69.0757 166.747 69.1422C166.629 69.2068 166.548 69.2994 166.506 69.4194L166.503 69.4324H165.726L165.73 69.4026C165.756 69.1981 165.836 69.0185 165.968 68.865C166.1 68.7114 166.275 68.5927 166.493 68.5082C166.711 68.4236 166.962 68.3814 167.246 68.3814C167.559 68.3814 167.823 68.4299 168.039 68.5281C168.255 68.6238 168.419 68.7636 168.532 68.9489C168.644 69.131 168.7 69.3504 168.7 69.6065V72.1001H167.887V71.5992H167.831C167.765 71.7154 167.679 71.8155 167.573 71.9C167.47 71.9845 167.351 72.0492 167.217 72.0933C167.082 72.1381 166.935 72.1604 166.774 72.1604ZM169.692 72.1001V68.451H170.514V69.0123H170.571C170.657 68.814 170.787 68.6592 170.961 68.548C171.134 68.4367 171.352 68.3814 171.612 68.3814C172.015 68.3814 172.323 68.4989 172.537 68.735C172.75 68.9706 172.858 69.3056 172.858 69.7401V72.1001H172.034V69.9334C172.034 69.6487 171.975 69.4349 171.856 69.2926C171.739 69.1502 171.556 69.0788 171.307 69.0788C171.145 69.0788 171.003 69.1154 170.885 69.1888C170.766 69.2627 170.674 69.3659 170.61 69.4996C170.546 69.6332 170.514 69.7911 170.514 69.9738V72.1001H169.692Z" fill="black"/>
<path d="M213.455 78.0051H99.0382C95.8107 78.0051 93.1943 80.6488 93.1943 83.9099V169.063C93.1943 172.324 95.8107 174.968 99.0382 174.968H213.455C216.682 174.968 219.298 172.324 219.298 169.063V83.9099C219.298 80.6488 216.682 78.0051 213.455 78.0051Z" fill="#FFF8EC"/>
<path d="M213.455 78.0051H99.0382C95.8107 78.0051 93.1943 80.6488 93.1943 83.9099V169.063C93.1943 172.324 95.8107 174.968 99.0382 174.968H213.455C216.682 174.968 219.298 172.324 219.298 169.063V83.9099C219.298 80.6488 216.682 78.0051 213.455 78.0051Z" stroke="#6B7C99"/>
<path d="M120.26 123.378C126.205 123.378 131.025 118.509 131.025 112.501C131.025 106.494 126.205 101.624 120.26 101.624C114.315 101.624 109.495 106.494 109.495 112.501C109.495 118.509 114.315 123.378 120.26 123.378Z" fill="#4A6FA5"/>
<path d="M103.344 140.16C103.344 133.295 108.852 127.729 115.647 127.729H124.874C131.669 127.729 137.177 133.295 137.177 140.16V151.348H103.344V140.16Z" fill="#4A6FA5"/>
<path d="M156.554 123.378C162.499 123.378 167.319 118.509 167.319 112.501C167.319 106.494 162.499 101.624 156.554 101.624C150.609 101.624 145.789 106.494 145.789 112.501C145.789 118.509 150.609 123.378 156.554 123.378Z" fill="#4A6FA5"/>
<path d="M139.638 140.16C139.638 133.295 145.146 127.729 151.941 127.729H161.168C167.963 127.729 173.471 133.295 173.471 140.16V151.348H139.638V140.16Z" fill="#4A6FA5"/>
<path d="M192.847 123.378C198.792 123.378 203.612 118.509 203.612 112.501C203.612 106.494 198.792 101.624 192.847 101.624C186.902 101.624 182.082 106.494 182.082 112.501C182.082 118.509 186.902 123.378 192.847 123.378Z" fill="#4A6FA5"/>
<path d="M175.931 140.16C175.931 133.295 181.439 127.729 188.234 127.729H197.461C204.255 127.729 209.763 133.295 209.763 140.16V151.348H175.931V140.16Z" fill="#4A6FA5"/>
<path d="M268.202 78.0051H233.754C230.527 78.0051 227.91 80.6488 227.91 83.9099V169.063C227.91 172.324 230.527 174.968 233.754 174.968H268.202C271.429 174.968 274.046 172.324 274.046 169.063V83.9099C274.046 80.6488 271.429 78.0051 268.202 78.0051Z" fill="#D8E0F4" stroke="#6B7C99"/>
<path d="M242.718 88.3341C242.412 88.3341 242.147 88.2906 241.925 88.2042C241.705 88.1147 241.531 87.9929 241.403 87.8368C241.276 87.679 241.199 87.4962 241.175 87.2893V87.2824H241.991L241.995 87.2893C242.039 87.4161 242.122 87.5199 242.242 87.6C242.363 87.6796 242.526 87.72 242.731 87.72C242.868 87.72 242.988 87.7007 243.092 87.6634C243.195 87.623 243.277 87.5683 243.336 87.4993C243.396 87.4304 243.425 87.3502 243.425 87.2594V87.2526C243.425 87.1457 243.382 87.0568 243.297 86.9853C243.21 86.912 243.068 86.8529 242.87 86.8088L242.285 86.6752C242.056 86.6236 241.867 86.5527 241.717 86.4613C241.567 86.37 241.455 86.2575 241.38 86.1238C241.307 85.9908 241.271 85.8348 241.271 85.6571V85.6533C241.271 85.4333 241.332 85.2394 241.453 85.0728C241.576 84.9056 241.747 84.7757 241.965 84.6818C242.183 84.5886 242.434 84.542 242.718 84.542C243.011 84.542 243.263 84.5861 243.475 84.675C243.687 84.7645 243.851 84.887 243.971 85.0423C244.089 85.1984 244.158 85.3755 244.176 85.5731V85.58H243.402L243.399 85.57C243.368 85.4544 243.294 85.3562 243.177 85.276C243.063 85.194 242.909 85.153 242.715 85.153C242.594 85.153 242.485 85.1716 242.388 85.2095C242.293 85.2475 242.218 85.3009 242.163 85.3699C242.111 85.4364 242.084 85.5153 242.084 85.6067V85.6098C242.084 85.6813 242.101 85.7435 242.137 85.7969C242.174 85.8504 242.232 85.897 242.312 85.9374C242.391 85.9772 242.496 86.0126 242.625 86.0443L243.21 86.1742C243.565 86.2544 243.827 86.3737 243.997 86.5316C244.166 86.6895 244.251 86.902 244.251 87.1693V87.1755C244.251 87.4074 244.185 87.61 244.053 87.7834C243.921 87.9568 243.739 88.0929 243.508 88.1905C243.277 88.2862 243.014 88.3341 242.718 88.3341ZM246.069 88.321C245.843 88.321 245.638 88.2763 245.458 88.1874C245.28 88.0985 245.139 87.9723 245.035 87.8101C244.934 87.6454 244.883 87.4515 244.883 87.229V87.2228C244.883 87.0065 244.936 86.8206 245.042 86.6652C245.147 86.5067 245.302 86.3837 245.507 86.2942C245.712 86.2053 245.961 86.1531 246.254 86.1375L247.589 86.0542V86.6018L246.37 86.6814C246.138 86.6951 245.968 86.7442 245.858 86.8287C245.748 86.9132 245.692 87.0313 245.692 87.1824V87.1892C245.692 87.3452 245.751 87.4664 245.868 87.5528C245.987 87.6398 246.137 87.6833 246.321 87.6833C246.485 87.6833 246.633 87.6498 246.763 87.5833C246.893 87.5161 246.995 87.426 247.07 87.3129C247.145 87.1967 247.182 87.0667 247.182 86.9219V85.7671C247.182 85.5843 247.125 85.4451 247.011 85.3494C246.896 85.2518 246.727 85.2027 246.502 85.2027C246.315 85.2027 246.162 85.2363 246.043 85.3028C245.924 85.3674 245.843 85.46 245.801 85.58L245.798 85.593H245.022L245.025 85.5632C245.052 85.3587 245.131 85.1791 245.263 85.0256C245.395 84.872 245.57 84.7533 245.788 84.6688C246.006 84.5843 246.258 84.542 246.541 84.542C246.854 84.542 247.119 84.5905 247.335 84.6887C247.55 84.7844 247.714 84.9242 247.827 85.1095C247.939 85.2916 247.996 85.511 247.996 85.7671V88.2608H247.182V87.7598H247.126C247.061 87.876 246.974 87.9761 246.869 88.0606C246.765 88.1451 246.647 88.2098 246.512 88.2539C246.378 88.2987 246.23 88.321 246.069 88.321ZM248.987 88.2608V84.6116H249.81V85.1729H249.866C249.928 84.9771 250.038 84.8242 250.197 84.7154C250.358 84.606 250.557 84.5519 250.794 84.5519C250.857 84.5519 250.917 84.5563 250.977 84.565C251.038 84.5718 251.089 84.5805 251.128 84.5917V85.3363C251.062 85.3208 250.995 85.3096 250.927 85.3028C250.861 85.2941 250.791 85.2897 250.719 85.2897C250.536 85.2897 250.376 85.3239 250.24 85.3929C250.103 85.4619 249.997 85.5613 249.922 85.69C249.848 85.8168 249.81 85.9672 249.81 86.1406V88.2608H248.987ZM252.744 88.321C252.518 88.321 252.314 88.2763 252.134 88.1874C251.955 88.0985 251.814 87.9723 251.71 87.8101C251.61 87.6454 251.558 87.4515 251.558 87.229V87.2228C251.558 87.0065 251.611 86.8206 251.717 86.6652C251.823 86.5067 251.978 86.3837 252.183 86.2942C252.388 86.2053 252.637 86.1531 252.93 86.1375L254.264 86.0542V86.6018L253.045 86.6814C252.814 86.6951 252.644 86.7442 252.533 86.8287C252.423 86.9132 252.368 87.0313 252.368 87.1824V87.1892C252.368 87.3452 252.426 87.4664 252.543 87.5528C252.662 87.6398 252.813 87.6833 252.996 87.6833C253.161 87.6833 253.309 87.6498 253.438 87.5833C253.569 87.5161 253.671 87.426 253.746 87.3129C253.821 87.1967 253.859 87.0667 253.859 86.9219V85.7671C253.859 85.5843 253.801 85.4451 253.686 85.3494C253.572 85.2518 253.402 85.2027 253.178 85.2027C252.991 85.2027 252.837 85.2363 252.718 85.3028C252.599 85.3674 252.519 85.46 252.477 85.58L252.474 85.593H251.698L251.701 85.5632C251.727 85.3587 251.806 85.1791 251.939 85.0256C252.071 84.872 252.246 84.7533 252.464 84.6688C252.682 84.5843 252.933 84.542 253.218 84.542C253.53 84.542 253.795 84.5905 254.01 84.6887C254.226 84.7844 254.39 84.9242 254.503 85.1095C254.615 85.2916 254.671 85.511 254.671 85.7671V88.2608H253.859V87.7598H253.802C253.736 87.876 253.65 87.9761 253.544 88.0606C253.441 88.1451 253.322 88.2098 253.187 88.2539C253.053 88.2987 252.906 88.321 252.744 88.321ZM255.663 88.2608V84.6116H256.486V85.1729H256.542C256.628 84.9746 256.758 84.8198 256.932 84.7086C257.106 84.5973 257.322 84.542 257.583 84.542C257.985 84.542 258.294 84.6595 258.508 84.8957C258.721 85.1312 258.828 85.4662 258.828 85.9007V88.2608H258.005V86.094C258.005 85.8093 257.946 85.5955 257.827 85.4532C257.711 85.3109 257.527 85.2394 257.279 85.2394C257.116 85.2394 256.975 85.276 256.855 85.3494C256.737 85.4234 256.645 85.5265 256.582 85.6602C256.518 85.7938 256.486 85.9517 256.486 86.1344V88.2608H255.663ZM235.137 96.3577C234.723 96.3577 234.425 96.2807 234.242 96.1271C234.059 95.9736 233.968 95.7225 233.968 95.3726V93.3364H233.406V92.6918H233.968V91.7974H234.804V92.6918H235.564V93.3364H234.804V95.1755C234.804 95.3564 234.841 95.4888 234.916 95.5733C234.993 95.6554 235.116 95.6964 235.286 95.6964C235.346 95.6964 235.394 95.6958 235.431 95.6933C235.471 95.6889 235.515 95.6846 235.564 95.6802V96.3211C235.506 96.3323 235.44 96.341 235.365 96.3478C235.293 96.354 235.217 96.3577 235.137 96.3577ZM237.375 96.4012C237.148 96.4012 236.945 96.3565 236.764 96.2676C236.585 96.1787 236.444 96.0525 236.34 95.8903C236.24 95.7256 236.189 95.5317 236.189 95.3092V95.303C236.189 95.0867 236.241 94.9008 236.347 94.7454C236.453 94.5869 236.608 94.4639 236.814 94.3744C237.018 94.2855 237.267 94.2333 237.56 94.2177L238.895 94.1344V94.682L237.675 94.7616C237.444 94.7753 237.274 94.8244 237.164 94.9089C237.053 94.9934 236.998 95.1115 236.998 95.2626V95.2694C236.998 95.4254 237.057 95.5466 237.173 95.633C237.292 95.72 237.443 95.7635 237.626 95.7635C237.791 95.7635 237.939 95.73 238.069 95.6635C238.199 95.5963 238.301 95.5062 238.376 95.3931C238.451 95.2769 238.489 95.1469 238.489 95.0021V93.8473C238.489 93.6645 238.431 93.5253 238.316 93.4296C238.202 93.332 238.032 93.2829 237.808 93.2829C237.621 93.2829 237.467 93.3165 237.349 93.383C237.229 93.4476 237.149 93.5402 237.108 93.6602L237.104 93.6732H236.328L236.331 93.6434C236.357 93.4389 236.436 93.2593 236.569 93.1058C236.701 92.9522 236.876 92.8335 237.094 92.749C237.312 92.6645 237.563 92.6222 237.848 92.6222C238.16 92.6222 238.425 92.6707 238.64 92.7689C238.856 92.8646 239.02 93.0044 239.133 93.1897C239.245 93.3718 239.301 93.5912 239.301 93.8473V96.341H238.489V95.84H238.432C238.366 95.9562 238.28 96.0563 238.174 96.1408C238.071 96.2253 237.952 96.29 237.817 96.3341C237.683 96.3789 237.536 96.4012 237.375 96.4012ZM240.293 96.341V92.6918H241.116V93.2531H241.172C241.258 93.0548 241.388 92.9 241.562 92.7888C241.736 92.6775 241.953 92.6222 242.213 92.6222C242.616 92.6222 242.924 92.7397 243.138 92.9759C243.351 93.2114 243.458 93.5464 243.458 93.9809V96.341H242.636V94.1742C242.636 93.8895 242.576 93.6757 242.457 93.5334C242.341 93.3911 242.158 93.3196 241.909 93.3196C241.746 93.3196 241.605 93.3562 241.486 93.4296C241.367 93.5036 241.276 93.6067 241.212 93.7404C241.148 93.874 241.116 94.0319 241.116 94.2146V96.341H240.293ZM245.987 97.6226C245.669 97.6226 245.395 97.5803 245.164 97.4958C244.935 97.4113 244.754 97.2913 244.622 97.1353C244.49 96.9818 244.409 96.8028 244.381 96.5983L244.384 96.5877H245.203L245.21 96.5983C245.237 96.7139 245.317 96.8084 245.451 96.8817C245.588 96.9575 245.771 96.9954 246 96.9954C246.282 96.9954 246.5 96.932 246.654 96.8052C246.81 96.6778 246.888 96.4976 246.888 96.2639V95.5634H246.832C246.764 95.6945 246.675 95.8058 246.565 95.8972C246.457 95.9879 246.332 96.0569 246.191 96.1041C246.053 96.1483 245.9 96.1706 245.732 96.1706C245.428 96.1706 245.165 96.0973 244.943 95.9506C244.72 95.8014 244.548 95.5951 244.427 95.3328C244.308 95.0699 244.249 94.7666 244.249 94.4216V94.4148C244.249 94.063 244.309 93.7534 244.43 93.4868C244.551 93.2195 244.724 93.01 244.946 92.859C245.17 92.7073 245.438 92.6321 245.748 92.6321C245.916 92.6321 246.069 92.6589 246.208 92.7123C246.349 92.7658 246.472 92.841 246.578 92.9392C246.686 93.0368 246.774 93.1549 246.842 93.2928H246.885V92.6918H247.708V96.2508C247.708 96.5311 247.638 96.7736 247.497 96.9787C247.358 97.1856 247.16 97.3448 246.902 97.456C246.644 97.5673 246.339 97.6226 245.987 97.6226ZM245.987 95.5099C246.176 95.5099 246.339 95.4639 246.476 95.3726C246.612 95.2793 246.717 95.1513 246.789 94.9891C246.864 94.8262 246.902 94.6373 246.902 94.4216V94.4148C246.902 94.1991 246.864 94.0095 246.789 93.8473C246.717 93.6826 246.612 93.5545 246.476 93.4632C246.339 93.3699 246.176 93.3233 245.987 93.3233C245.795 93.3233 245.632 93.3699 245.497 93.4632C245.365 93.5545 245.264 93.6826 245.194 93.8473C245.125 94.0095 245.091 94.1991 245.091 94.4148V94.4216C245.091 94.6348 245.125 94.8244 245.194 94.9891C245.264 95.1513 245.365 95.2793 245.497 95.3726C245.632 95.4639 245.795 95.5099 245.987 95.5099ZM250.273 97.6226C249.955 97.6226 249.681 97.5803 249.45 97.4958C249.221 97.4113 249.04 97.2913 248.908 97.1353C248.776 96.9818 248.696 96.8028 248.667 96.5983L248.67 96.5877H249.49L249.496 96.5983C249.522 96.7139 249.603 96.8084 249.738 96.8817C249.874 96.9575 250.057 96.9954 250.286 96.9954C250.567 96.9954 250.786 96.932 250.94 96.8052C251.097 96.6778 251.175 96.4976 251.175 96.2639V95.5634H251.119C251.05 95.6945 250.961 95.8058 250.851 95.8972C250.743 95.9879 250.619 96.0569 250.478 96.1041C250.339 96.1483 250.185 96.1706 250.018 96.1706C249.714 96.1706 249.451 96.0973 249.228 95.9506C249.006 95.8014 248.834 95.5951 248.713 95.3328C248.594 95.0699 248.534 94.7666 248.534 94.4216V94.4148C248.534 94.063 248.595 93.7534 248.717 93.4868C248.838 93.2195 249.009 93.01 249.232 92.859C249.457 92.7073 249.724 92.6321 250.035 92.6321C250.202 92.6321 250.355 92.6589 250.494 92.7123C250.635 92.7658 250.758 92.841 250.864 92.9392C250.972 93.0368 251.06 93.1549 251.128 93.2928H251.172V92.6918H251.994V96.2508C251.994 96.5311 251.923 96.7736 251.782 96.9787C251.644 97.1856 251.445 97.3448 251.188 97.456C250.93 97.5673 250.625 97.6226 250.273 97.6226ZM250.273 95.5099C250.462 95.5099 250.625 95.4639 250.762 95.3726C250.898 95.2793 251.003 95.1513 251.076 94.9891C251.151 94.8262 251.188 94.6373 251.188 94.4216V94.4148C251.188 94.1991 251.151 94.0095 251.076 93.8473C251.003 93.6826 250.898 93.5545 250.762 93.4632C250.625 93.3699 250.462 93.3233 250.273 93.3233C250.081 93.3233 249.918 93.3699 249.784 93.4632C249.652 93.5545 249.55 93.6826 249.48 93.8473C249.412 94.0095 249.377 94.1991 249.377 94.4148V94.4216C249.377 94.6348 249.412 94.8244 249.48 94.9891C249.55 95.1513 249.652 95.2793 249.784 95.3726C249.918 95.4639 250.081 95.5099 250.273 95.5099ZM253.99 96.4012C253.764 96.4012 253.56 96.3565 253.379 96.2676C253.201 96.1787 253.06 96.0525 252.956 95.8903C252.855 95.7256 252.804 95.5317 252.804 95.3092V95.303C252.804 95.0867 252.857 94.9008 252.963 94.7454C253.069 94.5869 253.224 94.4639 253.429 94.3744C253.633 94.2855 253.882 94.2333 254.175 94.2177L255.51 94.1344V94.682L254.291 94.7616C254.06 94.7753 253.889 94.8244 253.779 94.9089C253.669 94.9934 253.614 95.1115 253.614 95.2626V95.2694C253.614 95.4254 253.672 95.5466 253.789 95.633C253.908 95.72 254.058 95.7635 254.242 95.7635C254.407 95.7635 254.554 95.73 254.684 95.6635C254.814 95.5963 254.917 95.5062 254.992 95.3931C255.067 95.2769 255.104 95.1469 255.104 95.0021V93.8473C255.104 93.6645 255.046 93.5253 254.932 93.4296C254.818 93.332 254.648 93.2829 254.423 93.2829C254.236 93.2829 254.083 93.3165 253.964 93.383C253.845 93.4476 253.764 93.5402 253.723 93.6602L253.719 93.6732H252.943L252.946 93.6434C252.973 93.4389 253.052 93.2593 253.184 93.1058C253.317 92.9522 253.491 92.8335 253.71 92.749C253.927 92.6645 254.179 92.6222 254.463 92.6222C254.776 92.6222 255.04 92.6707 255.255 92.7689C255.471 92.8646 255.636 93.0044 255.748 93.1897C255.86 93.3718 255.917 93.5912 255.917 93.8473V96.341H255.104V95.84H255.048C254.982 95.9562 254.896 96.0563 254.79 96.1408C254.686 96.2253 254.568 96.29 254.433 96.3341C254.299 96.3789 254.151 96.4012 253.99 96.4012ZM256.908 97.553V92.6918H257.731V93.263H257.787C257.853 93.1319 257.939 93.0194 258.045 92.9255C258.153 92.8323 258.278 92.7602 258.419 92.7086C258.559 92.6576 258.714 92.6321 258.884 92.6321C259.186 92.6321 259.447 92.7086 259.667 92.8621C259.89 93.0156 260.062 93.2338 260.183 93.5166C260.306 93.7969 260.368 94.1301 260.368 94.5148V94.5217C260.368 94.9089 260.307 95.2427 260.186 95.523C260.065 95.8033 259.893 96.0202 259.671 96.1738C259.45 96.3254 259.188 96.4012 258.884 96.4012C258.719 96.4012 258.565 96.3758 258.422 96.3242C258.278 96.2707 258.153 96.1961 258.045 96.1004C257.937 96.0047 257.851 95.8916 257.787 95.7598H257.731V97.553H256.908ZM258.626 95.7001C258.814 95.7001 258.975 95.6535 259.109 95.5597C259.243 95.4639 259.347 95.3284 259.419 95.1525C259.492 94.9742 259.529 94.7641 259.529 94.5217V94.5148C259.529 94.2681 259.492 94.0561 259.419 93.8808C259.347 93.7049 259.243 93.5701 259.109 93.4768C258.975 93.3811 258.814 93.3332 258.626 93.3332C258.439 93.3332 258.278 93.3811 258.141 93.4768C258.006 93.5701 257.902 93.7049 257.827 93.8808C257.754 94.0561 257.718 94.2668 257.718 94.5117V94.5179C257.718 94.7628 257.754 94.9742 257.827 95.1525C257.902 95.3284 258.008 95.4639 258.144 95.5597C258.281 95.6535 258.441 95.7001 258.626 95.7001ZM262.186 96.4012C261.959 96.4012 261.755 96.3565 261.574 96.2676C261.396 96.1787 261.255 96.0525 261.152 95.8903C261.05 95.7256 261 95.5317 261 95.3092V95.303C261 95.0867 261.053 94.9008 261.158 94.7454C261.264 94.5869 261.419 94.4639 261.624 94.3744C261.829 94.2855 262.078 94.2333 262.371 94.2177L263.706 94.1344V94.682L262.486 94.7616C262.255 94.7753 262.084 94.8244 261.974 94.9089C261.864 94.9934 261.809 95.1115 261.809 95.2626V95.2694C261.809 95.4254 261.868 95.5466 261.985 95.633C262.103 95.72 262.254 95.7635 262.437 95.7635C262.602 95.7635 262.75 95.73 262.88 95.6635C263.009 95.5963 263.112 95.5062 263.187 95.3931C263.262 95.2769 263.299 95.1469 263.299 95.0021V93.8473C263.299 93.6645 263.242 93.5253 263.127 93.4296C263.013 93.332 262.843 93.2829 262.619 93.2829C262.431 93.2829 262.279 93.3165 262.159 93.383C262.04 93.4476 261.96 93.5402 261.918 93.6602L261.915 93.6732H261.139L261.142 93.6434C261.168 93.4389 261.248 93.2593 261.38 93.1058C261.511 92.9522 261.687 92.8335 261.905 92.749C262.123 92.6645 262.374 92.6222 262.658 92.6222C262.971 92.6222 263.235 92.6707 263.451 92.7689C263.667 92.8646 263.831 93.0044 263.944 93.1897C264.056 93.3718 264.112 93.5912 264.112 93.8473V96.341H263.299V95.84H263.243C263.177 95.9562 263.091 96.0563 262.985 96.1408C262.882 96.2253 262.763 96.29 262.629 96.3341C262.494 96.3789 262.347 96.4012 262.186 96.4012ZM265.104 96.341V92.6918H265.926V93.2531H265.983C266.068 93.0548 266.199 92.9 266.373 92.7888C266.546 92.6775 266.764 92.6222 267.024 92.6222C267.427 92.6222 267.735 92.7397 267.949 92.9759C268.162 93.2114 268.269 93.5464 268.269 93.9809V96.341H267.446V94.1742C267.446 93.8895 267.387 93.6757 267.268 93.5334C267.151 93.3911 266.968 93.3196 266.72 93.3196C266.557 93.3196 266.415 93.3562 266.297 93.4296C266.178 93.5036 266.086 93.6067 266.022 93.7404C265.958 93.874 265.926 94.0319 265.926 94.2146V96.341H265.104Z" fill="black"/>
<path d="M262.05 103.489H239.905C236.678 103.489 234.062 106.132 234.062 109.394V158.496C234.062 161.757 236.678 164.401 239.905 164.401H262.05C265.278 164.401 267.894 161.757 267.894 158.496V109.394C267.894 106.132 265.278 103.489 262.05 103.489Z" fill="white" stroke="#6B7C99"/>
<path d="M240.924 110.637V108.447H241.737C241.952 108.447 242.135 108.489 242.286 108.574C242.439 108.659 242.554 108.782 242.635 108.945C242.716 109.106 242.756 109.301 242.756 109.53V109.533C242.756 109.767 242.716 109.967 242.636 110.131C242.556 110.295 242.44 110.421 242.288 110.507C242.137 110.594 241.953 110.637 241.737 110.637H240.924ZM241.312 110.307H241.686C241.829 110.307 241.951 110.277 242.052 110.218C242.153 110.158 242.23 110.071 242.282 109.957C242.335 109.842 242.361 109.704 242.361 109.539V109.536C242.361 109.377 242.334 109.24 242.28 109.127C242.227 109.012 242.15 108.925 242.049 108.866C241.948 108.806 241.827 108.776 241.686 108.776H241.312V110.307ZM243.867 110.67C243.704 110.67 243.563 110.635 243.446 110.565C243.33 110.495 243.24 110.396 243.177 110.268C243.114 110.139 243.083 109.987 243.083 109.811V109.809C243.083 109.635 243.114 109.484 243.176 109.354C243.239 109.225 243.328 109.125 243.443 109.054C243.558 108.982 243.694 108.946 243.849 108.946C244.005 108.946 244.139 108.981 244.251 109.051C244.364 109.119 244.452 109.216 244.512 109.341C244.573 109.465 244.604 109.611 244.604 109.778V109.902H243.27V109.649H244.421L244.244 109.886V109.735C244.244 109.625 244.227 109.533 244.194 109.461C244.161 109.388 244.115 109.333 244.056 109.296C243.998 109.26 243.93 109.242 243.853 109.242C243.776 109.242 243.707 109.261 243.648 109.3C243.589 109.337 243.541 109.393 243.506 109.467C243.472 109.539 243.455 109.629 243.455 109.735V109.887C243.455 109.989 243.472 110.077 243.506 110.149C243.541 110.221 243.589 110.277 243.651 110.316C243.713 110.355 243.788 110.374 243.874 110.374C243.941 110.374 243.999 110.364 244.047 110.345C244.096 110.325 244.135 110.301 244.166 110.274C244.196 110.246 244.217 110.219 244.228 110.193L244.233 110.183H244.588L244.584 110.196C244.572 110.25 244.548 110.305 244.512 110.361C244.479 110.415 244.432 110.466 244.373 110.513C244.314 110.56 244.244 110.598 244.159 110.627C244.075 110.656 243.978 110.67 243.867 110.67ZM244.98 110.637V108.978H245.354V109.233H245.379C245.419 109.143 245.478 109.073 245.556 109.022C245.636 108.971 245.734 108.946 245.852 108.946C246.036 108.946 246.176 109 246.273 109.107C246.37 109.214 246.419 109.367 246.419 109.564V110.637H246.045V109.652C246.045 109.522 246.018 109.425 245.964 109.36C245.911 109.296 245.828 109.264 245.714 109.264C245.64 109.264 245.576 109.28 245.522 109.313C245.468 109.347 245.427 109.393 245.397 109.454C245.368 109.515 245.354 109.587 245.354 109.67V110.637H244.98ZM247.568 111.22C247.423 111.22 247.299 111.2 247.194 111.162C247.09 111.123 247.007 111.069 246.948 110.998C246.888 110.928 246.851 110.847 246.838 110.753L246.84 110.749H247.212L247.215 110.753C247.227 110.806 247.263 110.849 247.324 110.883C247.386 110.917 247.469 110.934 247.574 110.934C247.702 110.934 247.801 110.905 247.871 110.847C247.942 110.79 247.978 110.708 247.978 110.602V110.283H247.952C247.921 110.343 247.88 110.394 247.831 110.435C247.781 110.476 247.725 110.507 247.661 110.529C247.598 110.549 247.529 110.559 247.452 110.559C247.314 110.559 247.194 110.526 247.093 110.459C246.992 110.391 246.914 110.298 246.859 110.178C246.805 110.059 246.778 109.921 246.778 109.764V109.761C246.778 109.601 246.805 109.461 246.86 109.339C246.915 109.218 246.993 109.122 247.095 109.054C247.197 108.985 247.319 108.951 247.46 108.951C247.536 108.951 247.605 108.963 247.668 108.987C247.733 109.011 247.789 109.046 247.837 109.09C247.886 109.135 247.926 109.188 247.957 109.251H247.976V108.978H248.35V110.596C248.35 110.723 248.318 110.834 248.254 110.926C248.191 111.021 248.101 111.093 247.984 111.143C247.867 111.194 247.728 111.22 247.568 111.22ZM247.568 110.259C247.654 110.259 247.728 110.238 247.79 110.196C247.852 110.154 247.899 110.096 247.933 110.022C247.966 109.948 247.984 109.862 247.984 109.764V109.761C247.984 109.663 247.966 109.577 247.933 109.503C247.899 109.428 247.852 109.37 247.79 109.329C247.728 109.286 247.654 109.265 247.568 109.265C247.481 109.265 247.407 109.286 247.346 109.329C247.286 109.37 247.239 109.428 247.207 109.503C247.176 109.577 247.161 109.663 247.161 109.761V109.764C247.161 109.861 247.176 109.947 247.207 110.022C247.239 110.096 247.286 110.154 247.346 110.196C247.407 110.238 247.481 110.259 247.568 110.259ZM249.258 110.664C249.154 110.664 249.062 110.643 248.98 110.603C248.898 110.563 248.834 110.505 248.788 110.431C248.742 110.357 248.719 110.269 248.719 110.168V110.165C248.719 110.067 248.743 109.982 248.791 109.911C248.839 109.839 248.909 109.783 249.002 109.743C249.095 109.702 249.208 109.679 249.342 109.671L249.948 109.633V109.883L249.394 109.919C249.289 109.925 249.212 109.947 249.162 109.986C249.111 110.024 249.087 110.078 249.087 110.146V110.149C249.087 110.22 249.113 110.275 249.166 110.315C249.22 110.354 249.288 110.374 249.372 110.374C249.447 110.374 249.514 110.359 249.573 110.328C249.632 110.298 249.678 110.257 249.713 110.206C249.747 110.153 249.764 110.094 249.764 110.028V109.503C249.764 109.42 249.737 109.357 249.686 109.313C249.634 109.269 249.557 109.247 249.455 109.247C249.369 109.247 249.3 109.262 249.245 109.292C249.192 109.321 249.155 109.364 249.136 109.418L249.135 109.424H248.782L248.783 109.41C248.795 109.318 248.831 109.236 248.891 109.166C248.951 109.096 249.031 109.042 249.13 109.004C249.229 108.965 249.343 108.946 249.472 108.946C249.614 108.946 249.735 108.968 249.833 109.013C249.931 109.057 250.006 109.12 250.057 109.204C250.108 109.287 250.133 109.387 250.133 109.503V110.637H249.764V110.409H249.738C249.708 110.461 249.669 110.507 249.621 110.546C249.574 110.584 249.52 110.614 249.459 110.633C249.398 110.654 249.331 110.664 249.258 110.664ZM250.584 110.637V108.978H250.958V109.233H250.984C251.023 109.143 251.082 109.073 251.161 109.022C251.24 108.971 251.339 108.946 251.457 108.946C251.64 108.946 251.78 109 251.877 109.107C251.974 109.214 252.023 109.367 252.023 109.564V110.637H251.649V109.652C251.649 109.522 251.622 109.425 251.568 109.36C251.515 109.296 251.432 109.264 251.318 109.264C251.245 109.264 251.181 109.28 251.126 109.313C251.072 109.347 251.03 109.393 251.002 109.454C250.973 109.515 250.958 109.587 250.958 109.67V110.637H250.584ZM253.908 110.67C253.769 110.67 253.649 110.65 253.548 110.61C253.448 110.57 253.369 110.515 253.311 110.444C253.252 110.372 253.218 110.289 253.207 110.195V110.192H253.578L253.58 110.195C253.599 110.252 253.637 110.3 253.692 110.336C253.747 110.372 253.821 110.39 253.914 110.39C253.976 110.39 254.031 110.382 254.078 110.365C254.125 110.347 254.162 110.322 254.189 110.29C254.216 110.259 254.23 110.223 254.23 110.182V110.178C254.23 110.13 254.21 110.089 254.171 110.057C254.132 110.024 254.067 109.997 253.978 109.976L253.711 109.916C253.607 109.893 253.521 109.86 253.454 109.819C253.385 109.777 253.334 109.726 253.3 109.666C253.267 109.605 253.251 109.534 253.251 109.453V109.451C253.251 109.351 253.278 109.264 253.333 109.187C253.389 109.111 253.466 109.052 253.566 109.01C253.665 108.967 253.779 108.946 253.908 108.946C254.042 108.946 254.156 108.966 254.252 109.007C254.349 109.047 254.424 109.103 254.478 109.173C254.531 109.244 254.563 109.325 254.571 109.415V109.418H254.219L254.218 109.413C254.203 109.361 254.17 109.316 254.117 109.28C254.065 109.242 253.995 109.224 253.907 109.224C253.852 109.224 253.802 109.232 253.758 109.25C253.715 109.267 253.681 109.291 253.656 109.323C253.632 109.353 253.62 109.388 253.62 109.43V109.432C253.62 109.464 253.628 109.492 253.644 109.516C253.661 109.541 253.687 109.562 253.724 109.581C253.76 109.599 253.807 109.615 253.866 109.629L254.132 109.688C254.293 109.725 254.413 109.779 254.489 109.85C254.566 109.922 254.605 110.019 254.605 110.141V110.144C254.605 110.249 254.575 110.341 254.515 110.42C254.455 110.499 254.373 110.56 254.267 110.605C254.162 110.648 254.042 110.67 253.908 110.67ZM254.988 110.637V108.978H255.361V110.637H254.988ZM255.176 108.7C255.115 108.7 255.063 108.679 255.018 108.635C254.974 108.592 254.953 108.539 254.953 108.479C254.953 108.416 254.974 108.364 255.018 108.321C255.063 108.277 255.115 108.255 255.176 108.255C255.237 108.255 255.289 108.277 255.332 108.321C255.376 108.364 255.399 108.416 255.399 108.479C255.399 108.539 255.376 108.592 255.332 108.635C255.289 108.679 255.237 108.7 255.176 108.7ZM256.272 110.664C256.168 110.664 256.076 110.643 255.993 110.603C255.912 110.563 255.848 110.505 255.802 110.431C255.755 110.357 255.732 110.269 255.732 110.168V110.165C255.732 110.067 255.756 109.982 255.804 109.911C255.853 109.839 255.923 109.783 256.016 109.743C256.109 109.702 256.222 109.679 256.355 109.671L256.962 109.633V109.883L256.408 109.919C256.303 109.925 256.225 109.947 256.175 109.986C256.125 110.024 256.1 110.078 256.1 110.146V110.149C256.1 110.22 256.127 110.275 256.18 110.315C256.234 110.354 256.302 110.374 256.385 110.374C256.46 110.374 256.527 110.359 256.586 110.328C256.646 110.298 256.692 110.257 256.726 110.206C256.761 110.153 256.777 110.094 256.777 110.028V109.503C256.777 109.42 256.751 109.357 256.7 109.313C256.647 109.269 256.57 109.247 256.468 109.247C256.383 109.247 256.313 109.262 256.259 109.292C256.205 109.321 256.169 109.364 256.15 109.418L256.148 109.424H255.795L255.797 109.41C255.809 109.318 255.845 109.236 255.905 109.166C255.965 109.096 256.045 109.042 256.144 109.004C256.243 108.965 256.357 108.946 256.486 108.946C256.628 108.946 256.748 108.968 256.847 109.013C256.944 109.057 257.02 109.12 257.071 109.204C257.122 109.287 257.147 109.387 257.147 109.503V110.637H256.777V110.409H256.752C256.722 110.461 256.683 110.507 256.635 110.546C256.588 110.584 256.534 110.614 256.473 110.633C256.412 110.654 256.345 110.664 256.272 110.664ZM257.598 111.187V108.978H257.972V109.237H257.997C258.027 109.178 258.067 109.127 258.114 109.084C258.164 109.042 258.22 109.009 258.284 108.986C258.348 108.962 258.419 108.951 258.496 108.951C258.633 108.951 258.752 108.986 258.852 109.055C258.953 109.125 259.031 109.224 259.086 109.353C259.142 109.48 259.17 109.631 259.17 109.807V109.809C259.17 109.986 259.142 110.137 259.088 110.265C259.032 110.392 258.954 110.491 258.853 110.561C258.753 110.63 258.634 110.664 258.496 110.664C258.421 110.664 258.351 110.652 258.285 110.629C258.22 110.605 258.164 110.571 258.114 110.527C258.065 110.484 258.027 110.432 257.997 110.372H257.972V111.187H257.598ZM258.379 110.345C258.464 110.345 258.537 110.324 258.598 110.282C258.659 110.238 258.706 110.176 258.739 110.096C258.772 110.016 258.789 109.92 258.789 109.809V109.807C258.789 109.694 258.772 109.598 258.739 109.518C258.706 109.438 258.659 109.377 258.598 109.334C258.537 109.291 258.464 109.269 258.379 109.269C258.293 109.269 258.22 109.291 258.158 109.334C258.097 109.377 258.049 109.438 258.015 109.518C257.982 109.598 257.966 109.694 257.966 109.805V109.808C257.966 109.919 257.982 110.016 258.015 110.096C258.049 110.176 258.097 110.238 258.159 110.282C258.222 110.324 258.295 110.345 258.379 110.345ZM259.997 110.664C259.893 110.664 259.801 110.643 259.719 110.603C259.638 110.563 259.574 110.505 259.526 110.431C259.48 110.357 259.457 110.269 259.457 110.168V110.165C259.457 110.067 259.481 109.982 259.529 109.911C259.577 109.839 259.648 109.783 259.741 109.743C259.834 109.702 259.948 109.679 260.08 109.671L260.688 109.633V109.883L260.133 109.919C260.028 109.925 259.951 109.947 259.9 109.986C259.85 110.024 259.825 110.078 259.825 110.146V110.149C259.825 110.22 259.852 110.275 259.905 110.315C259.959 110.354 260.028 110.374 260.111 110.374C260.186 110.374 260.253 110.359 260.312 110.328C260.371 110.298 260.418 110.257 260.451 110.206C260.486 110.153 260.502 110.094 260.502 110.028V109.503C260.502 109.42 260.477 109.357 260.424 109.313C260.373 109.269 260.295 109.247 260.193 109.247C260.108 109.247 260.039 109.262 259.985 109.292C259.93 109.321 259.894 109.364 259.875 109.418L259.873 109.424H259.521L259.522 109.41C259.534 109.318 259.57 109.236 259.63 109.166C259.69 109.096 259.77 109.042 259.869 109.004C259.968 108.965 260.082 108.946 260.212 108.946C260.354 108.946 260.474 108.968 260.572 109.013C260.67 109.057 260.744 109.12 260.795 109.204C260.846 109.287 260.872 109.387 260.872 109.503V110.637H260.502V110.409H260.477C260.447 110.461 260.408 110.507 260.36 110.546C260.313 110.584 260.259 110.614 260.198 110.633C260.136 110.654 260.069 110.664 259.997 110.664ZM239.208 113.778C239.068 113.778 238.948 113.758 238.848 113.718C238.747 113.678 238.668 113.622 238.61 113.552C238.552 113.48 238.517 113.397 238.507 113.303V113.3H238.878L238.879 113.303C238.899 113.36 238.937 113.407 238.992 113.444C239.047 113.48 239.121 113.498 239.214 113.498C239.276 113.498 239.331 113.49 239.378 113.473C239.425 113.455 239.462 113.43 239.489 113.398C239.516 113.367 239.529 113.33 239.529 113.289V113.286C239.529 113.238 239.51 113.197 239.471 113.164C239.431 113.131 239.367 113.105 239.277 113.084L239.011 113.023C238.907 113 238.821 112.968 238.753 112.926C238.685 112.885 238.634 112.834 238.6 112.773C238.567 112.713 238.55 112.642 238.55 112.561V112.559C238.55 112.459 238.578 112.371 238.633 112.295C238.689 112.219 238.766 112.16 238.865 112.118C238.964 112.075 239.079 112.054 239.208 112.054C239.341 112.054 239.456 112.074 239.552 112.115C239.648 112.155 239.723 112.211 239.777 112.281C239.831 112.352 239.862 112.433 239.87 112.523V112.526H239.519L239.517 112.521C239.503 112.469 239.47 112.424 239.417 112.387C239.364 112.35 239.294 112.332 239.206 112.332C239.152 112.332 239.102 112.34 239.058 112.358C239.015 112.374 238.98 112.399 238.956 112.43C238.931 112.461 238.92 112.496 238.92 112.538V112.54C238.92 112.572 238.928 112.6 238.944 112.624C238.961 112.649 238.987 112.67 239.023 112.688C239.059 112.706 239.107 112.722 239.166 112.737L239.431 112.796C239.593 112.832 239.712 112.887 239.789 112.958C239.866 113.03 239.904 113.126 239.904 113.248V113.251C239.904 113.356 239.875 113.448 239.815 113.527C239.754 113.606 239.672 113.668 239.567 113.713C239.462 113.756 239.342 113.778 239.208 113.778ZM240.731 113.772C240.628 113.772 240.536 113.751 240.453 113.711C240.372 113.67 240.308 113.613 240.261 113.539C240.215 113.465 240.192 113.376 240.192 113.276V113.273C240.192 113.174 240.216 113.09 240.264 113.019C240.312 112.947 240.382 112.891 240.476 112.851C240.569 112.81 240.682 112.786 240.815 112.779L241.422 112.741V112.99L240.868 113.026C240.763 113.033 240.685 113.055 240.635 113.094C240.585 113.131 240.56 113.186 240.56 113.254V113.257C240.56 113.328 240.587 113.383 240.64 113.422C240.694 113.462 240.762 113.482 240.845 113.482C240.92 113.482 240.987 113.466 241.047 113.436C241.106 113.406 241.152 113.365 241.186 113.314C241.22 113.261 241.237 113.202 241.237 113.136V112.611C241.237 112.528 241.211 112.465 241.159 112.421C241.107 112.376 241.03 112.355 240.928 112.355C240.843 112.355 240.773 112.369 240.719 112.4C240.665 112.429 240.628 112.471 240.609 112.526L240.608 112.532H240.255L240.256 112.518C240.269 112.425 240.304 112.344 240.365 112.274C240.425 112.204 240.504 112.15 240.603 112.111C240.702 112.073 240.817 112.054 240.946 112.054C241.088 112.054 241.208 112.076 241.306 112.121C241.404 112.164 241.479 112.228 241.53 112.312C241.581 112.395 241.607 112.494 241.607 112.611V113.744H241.237V113.517H241.212C241.181 113.569 241.143 113.615 241.095 113.654C241.047 113.691 240.993 113.721 240.932 113.741C240.871 113.762 240.804 113.772 240.731 113.772ZM241.88 114.311C241.865 114.311 241.85 114.31 241.832 114.309C241.815 114.309 241.801 114.308 241.79 114.307V114.01C241.797 114.011 241.805 114.012 241.813 114.012C241.821 114.012 241.829 114.012 241.838 114.012C241.918 114.012 241.976 113.995 242.009 113.964C242.043 113.933 242.06 113.879 242.06 113.803V112.086H242.435V113.808C242.435 113.978 242.388 114.104 242.295 114.186C242.203 114.269 242.065 114.311 241.88 114.311ZM242.247 111.808C242.187 111.808 242.134 111.786 242.091 111.743C242.046 111.699 242.024 111.647 242.024 111.586C242.024 111.523 242.046 111.471 242.091 111.428C242.134 111.385 242.187 111.363 242.247 111.363C242.309 111.363 242.361 111.385 242.404 111.428C242.447 111.471 242.469 111.523 242.469 111.586C242.469 111.647 242.447 111.699 242.404 111.743C242.361 111.786 242.309 111.808 242.247 111.808ZM243.345 113.772C243.242 113.772 243.149 113.751 243.067 113.711C242.986 113.67 242.922 113.613 242.875 113.539C242.829 113.465 242.806 113.376 242.806 113.276V113.273C242.806 113.174 242.83 113.09 242.878 113.019C242.926 112.947 242.997 112.891 243.09 112.851C243.183 112.81 243.296 112.786 243.429 112.779L244.036 112.741V112.99L243.481 113.026C243.376 113.033 243.299 113.055 243.249 113.094C243.199 113.131 243.174 113.186 243.174 113.254V113.257C243.174 113.328 243.2 113.383 243.253 113.422C243.307 113.462 243.376 113.482 243.459 113.482C243.534 113.482 243.601 113.466 243.66 113.436C243.72 113.406 243.766 113.365 243.8 113.314C243.834 113.261 243.851 113.202 243.851 113.136V112.611C243.851 112.528 243.825 112.465 243.773 112.421C243.721 112.376 243.644 112.355 243.542 112.355C243.456 112.355 243.387 112.369 243.333 112.4C243.279 112.429 243.242 112.471 243.223 112.526L243.222 112.532H242.869L242.871 112.518C242.882 112.425 242.919 112.344 242.978 112.274C243.039 112.204 243.118 112.15 243.217 112.111C243.317 112.073 243.43 112.054 243.56 112.054C243.702 112.054 243.822 112.076 243.92 112.121C244.019 112.164 244.093 112.228 244.144 112.312C244.195 112.395 244.22 112.494 244.22 112.611V113.744H243.851V113.517H243.825C243.795 113.569 243.756 113.615 243.708 113.654C243.661 113.691 243.607 113.721 243.546 113.741C243.485 113.762 243.418 113.772 243.345 113.772ZM245.508 113.744V111.444H245.882V113.744H245.508ZM246.54 113.744L245.988 112.992L246.265 112.761L246.989 113.744H246.54ZM245.85 113.195L245.837 112.767H245.908L246.513 112.086H246.945L246.232 112.843L246.061 112.978L245.85 113.195ZM247.672 113.772C247.57 113.772 247.477 113.751 247.395 113.711C247.314 113.67 247.25 113.613 247.202 113.539C247.156 113.465 247.134 113.376 247.134 113.276V113.273C247.134 113.174 247.158 113.09 247.206 113.019C247.254 112.947 247.324 112.891 247.417 112.851C247.511 112.81 247.624 112.786 247.757 112.779L248.363 112.741V112.99L247.81 113.026C247.704 113.033 247.626 113.055 247.576 113.094C247.527 113.131 247.501 113.186 247.501 113.254V113.257C247.501 113.328 247.528 113.383 247.581 113.422C247.635 113.462 247.704 113.482 247.787 113.482C247.862 113.482 247.929 113.466 247.988 113.436C248.047 113.406 248.094 113.365 248.128 113.314C248.161 113.261 248.179 113.202 248.179 113.136V112.611C248.179 112.528 248.153 112.465 248.101 112.421C248.049 112.376 247.971 112.355 247.869 112.355C247.784 112.355 247.715 112.369 247.661 112.4C247.607 112.429 247.57 112.471 247.551 112.526L247.549 112.532H247.196L247.198 112.518C247.21 112.425 247.246 112.344 247.306 112.274C247.366 112.204 247.446 112.15 247.545 112.111C247.644 112.073 247.759 112.054 247.887 112.054C248.03 112.054 248.15 112.076 248.248 112.121C248.346 112.164 248.42 112.228 248.472 112.312C248.523 112.395 248.548 112.494 248.548 112.611V113.744H248.179V113.517H248.153C248.123 113.569 248.084 113.615 248.036 113.654C247.989 113.691 247.935 113.721 247.874 113.741C247.813 113.762 247.746 113.772 247.672 113.772ZM248.999 113.744V112.086H249.373V112.344H249.399C249.434 112.251 249.49 112.18 249.568 112.13C249.648 112.079 249.741 112.054 249.849 112.054C249.923 112.054 249.99 112.066 250.049 112.09C250.109 112.115 250.161 112.149 250.204 112.194C250.247 112.238 250.279 112.291 250.303 112.353H250.33C250.357 112.293 250.394 112.241 250.442 112.197C250.492 112.151 250.548 112.116 250.613 112.092C250.68 112.067 250.751 112.054 250.827 112.054C250.937 112.054 251.031 112.076 251.109 112.121C251.188 112.164 251.249 112.227 251.291 112.309C251.334 112.391 251.355 112.489 251.355 112.603V113.744H250.981V112.696C250.981 112.623 250.97 112.563 250.949 112.515C250.927 112.468 250.895 112.432 250.851 112.407C250.807 112.383 250.751 112.371 250.684 112.371C250.619 112.371 250.562 112.386 250.514 112.417C250.466 112.446 250.429 112.486 250.402 112.537C250.376 112.587 250.362 112.644 250.362 112.708V113.744H249.989V112.668C249.989 112.607 249.977 112.553 249.953 112.509C249.93 112.465 249.896 112.431 249.851 112.407C249.806 112.383 249.754 112.371 249.693 112.371C249.632 112.371 249.577 112.387 249.528 112.42C249.48 112.451 249.442 112.494 249.414 112.55C249.387 112.605 249.373 112.667 249.373 112.735V113.744H248.999ZM252.341 113.778C252.219 113.778 252.116 113.754 252.033 113.706C251.95 113.658 251.887 113.588 251.846 113.496C251.803 113.402 251.782 113.29 251.782 113.159V112.086H252.156V113.072C252.156 113.2 252.181 113.297 252.231 113.362C252.282 113.427 252.363 113.459 252.476 113.459C252.536 113.459 252.589 113.45 252.635 113.432C252.682 113.412 252.722 113.385 252.752 113.35C252.784 113.314 252.807 113.272 252.823 113.222C252.839 113.172 252.847 113.115 252.847 113.053V112.086H253.221V113.744H252.847V113.493H252.822C252.797 113.551 252.762 113.602 252.717 113.645C252.671 113.688 252.618 113.721 252.554 113.744C252.491 113.767 252.42 113.778 252.341 113.778ZM254.815 113.744L254.369 112.086H254.745L255.017 113.333H255.044L255.359 112.086H255.715L256.032 113.333H256.059L256.331 112.086H256.701L256.256 113.744H255.865L255.545 112.542H255.519L255.201 113.744H254.815ZM257.429 113.772C257.325 113.772 257.233 113.751 257.151 113.711C257.07 113.67 257.005 113.613 256.959 113.539C256.912 113.465 256.89 113.376 256.89 113.276V113.273C256.89 113.174 256.914 113.09 256.962 113.019C257.01 112.947 257.08 112.891 257.173 112.851C257.266 112.81 257.379 112.786 257.513 112.779L258.119 112.741V112.99L257.565 113.026C257.46 113.033 257.382 113.055 257.333 113.094C257.282 113.131 257.258 113.186 257.258 113.254V113.257C257.258 113.328 257.284 113.383 257.337 113.422C257.391 113.462 257.46 113.482 257.543 113.482C257.618 113.482 257.685 113.466 257.744 113.436C257.803 113.406 257.849 113.365 257.884 113.314C257.918 113.261 257.935 113.202 257.935 113.136V112.611C257.935 112.528 257.909 112.465 257.857 112.421C257.804 112.376 257.728 112.355 257.625 112.355C257.541 112.355 257.47 112.369 257.417 112.4C257.363 112.429 257.326 112.471 257.307 112.526L257.306 112.532H256.952L256.954 112.518C256.966 112.425 257.002 112.344 257.062 112.274C257.122 112.204 257.202 112.15 257.301 112.111C257.4 112.073 257.514 112.054 257.643 112.054C257.785 112.054 257.906 112.076 258.004 112.121C258.102 112.164 258.177 112.228 258.228 112.312C258.279 112.395 258.304 112.494 258.304 112.611V113.744H257.935V113.517H257.909C257.879 113.569 257.84 113.615 257.792 113.654C257.745 113.691 257.691 113.721 257.63 113.741C257.569 113.762 257.502 113.772 257.429 113.772ZM258.77 113.744V111.444H259.144V113.744H258.77ZM259.802 113.744L259.249 112.992L259.527 112.761L260.251 113.744H259.802ZM259.112 113.195L259.099 112.767H259.169L259.775 112.086H260.207L259.494 112.843L259.323 112.978L259.112 113.195ZM261.169 113.752C260.98 113.752 260.845 113.717 260.762 113.647C260.679 113.577 260.637 113.463 260.637 113.304V112.379H260.382V112.086H260.637V111.679H261.017V112.086H261.362V112.379H261.017V113.215C261.017 113.297 261.034 113.357 261.068 113.395C261.103 113.433 261.159 113.452 261.236 113.452C261.263 113.452 261.286 113.451 261.303 113.45C261.321 113.448 261.34 113.446 261.362 113.444V113.735C261.337 113.74 261.306 113.744 261.273 113.747C261.239 113.751 261.205 113.752 261.169 113.752ZM262.282 113.778C262.16 113.778 262.058 113.754 261.974 113.706C261.891 113.658 261.829 113.588 261.786 113.496C261.744 113.402 261.724 113.29 261.724 113.159V112.086H262.098V113.072C262.098 113.2 262.122 113.297 262.173 113.362C262.222 113.427 262.304 113.459 262.417 113.459C262.477 113.459 262.531 113.45 262.576 113.432C262.623 113.412 262.662 113.385 262.694 113.35C262.724 113.314 262.748 113.272 262.764 113.222C262.78 113.172 262.788 113.115 262.788 113.053V112.086H263.162V113.744H262.788V113.493H262.762C262.738 113.551 262.703 113.602 262.657 113.645C262.612 113.688 262.558 113.721 262.496 113.744C262.432 113.767 262.361 113.778 262.282 113.778ZM248.307 116.852V115.194H248.679V116.852H248.307ZM248.495 114.916C248.433 114.916 248.381 114.894 248.337 114.851C248.293 114.807 248.271 114.755 248.271 114.694C248.271 114.631 248.293 114.579 248.337 114.536C248.381 114.493 248.433 114.471 248.495 114.471C248.556 114.471 248.608 114.493 248.651 114.536C248.695 114.579 248.717 114.631 248.717 114.694C248.717 114.755 248.695 114.807 248.651 114.851C248.608 114.894 248.556 114.916 248.495 114.916ZM249.788 116.86C249.6 116.86 249.464 116.825 249.381 116.755C249.298 116.685 249.256 116.571 249.256 116.412V115.487H249.001V115.194H249.256V114.787H249.637V115.194H249.982V115.487H249.637V116.323C249.637 116.405 249.653 116.465 249.688 116.503C249.723 116.541 249.779 116.559 249.856 116.559C249.883 116.559 249.905 116.559 249.922 116.557C249.94 116.556 249.96 116.554 249.982 116.552V116.843C249.956 116.848 249.926 116.852 249.892 116.855C249.859 116.858 249.824 116.86 249.788 116.86ZM250.901 116.886C250.779 116.886 250.677 116.861 250.594 116.814C250.51 116.766 250.448 116.695 250.406 116.603C250.364 116.51 250.343 116.398 250.343 116.267V115.194H250.717V116.18C250.717 116.308 250.741 116.405 250.792 116.47C250.842 116.534 250.923 116.567 251.037 116.567C251.096 116.567 251.15 116.557 251.196 116.539C251.243 116.52 251.281 116.493 251.313 116.457C251.344 116.422 251.368 116.38 251.384 116.33C251.4 116.28 251.408 116.223 251.408 116.16V115.194H251.782V116.852H251.408V116.6H251.382C251.357 116.659 251.322 116.71 251.277 116.753C251.232 116.796 251.178 116.829 251.115 116.852C251.051 116.874 250.981 116.886 250.901 116.886ZM253.42 116.169L253.419 116.061C253.415 115.987 253.422 115.921 253.44 115.864C253.458 115.807 253.489 115.755 253.532 115.71C253.576 115.663 253.632 115.619 253.7 115.577C253.762 115.539 253.811 115.503 253.847 115.47C253.884 115.436 253.91 115.401 253.925 115.363C253.941 115.326 253.949 115.283 253.949 115.233V115.23C253.949 115.176 253.936 115.129 253.91 115.089C253.884 115.047 253.847 115.014 253.799 114.99C253.752 114.966 253.697 114.954 253.633 114.954C253.569 114.954 253.514 114.966 253.466 114.992C253.417 115.017 253.38 115.053 253.351 115.099C253.323 115.145 253.308 115.199 253.305 115.26L253.302 115.262L252.95 115.263V115.26C252.955 115.142 252.985 115.036 253.039 114.943C253.094 114.85 253.173 114.777 253.276 114.724C253.38 114.671 253.505 114.644 253.653 114.644C253.791 114.644 253.91 114.669 254.012 114.718C254.115 114.767 254.195 114.835 254.253 114.92C254.31 115.006 254.338 115.105 254.338 115.216V115.219C254.338 115.296 254.326 115.366 254.301 115.429C254.277 115.492 254.241 115.548 254.194 115.598C254.147 115.648 254.09 115.694 254.021 115.735C253.955 115.774 253.904 115.81 253.866 115.843C253.831 115.876 253.805 115.912 253.79 115.949C253.776 115.987 253.769 116.03 253.769 116.081V116.169H253.42ZM253.611 116.89C253.536 116.89 253.476 116.869 253.43 116.826C253.385 116.783 253.362 116.725 253.362 116.652C253.362 116.579 253.385 116.521 253.43 116.479C253.476 116.435 253.536 116.413 253.611 116.413C253.687 116.413 253.748 116.435 253.793 116.479C253.838 116.521 253.861 116.579 253.861 116.652C253.861 116.725 253.838 116.783 253.793 116.826C253.748 116.869 253.687 116.89 253.611 116.89Z" fill="black"/>
<path d="M156.246 246.757C161.681 246.757 166.088 242.304 166.088 236.812C166.088 231.32 161.681 226.867 156.246 226.867C150.81 226.867 146.403 231.32 146.403 236.812C146.403 242.304 150.81 246.757 156.246 246.757Z" stroke="white" stroke-width="4"/>
<path d="M135.331 244.271C138.049 244.271 140.252 242.045 140.252 239.298C140.252 236.552 138.049 234.326 135.331 234.326C132.613 234.326 130.41 236.552 130.41 239.298C130.41 242.045 132.613 244.271 135.331 244.271Z" fill="white"/>
<path d="M11.3804 106.286C13.2489 106.286 14.7636 104.755 14.7636 102.867C14.7636 100.979 13.2489 99.4487 11.3804 99.4487C9.51182 99.4487 7.99707 100.979 7.99707 102.867C7.99707 104.755 9.51182 106.286 11.3804 106.286Z" fill="white"/>
<path d="M11.0727 106.907C16.5414 106.907 20.915 111.253 20.915 116.541C20.915 121.829 16.5414 126.175 11.0727 126.175C5.6041 126.175 1.23047 121.829 1.23047 116.541C1.23047 111.253 5.6041 106.907 11.0727 106.907Z" stroke="white" stroke-width="4"/>
<path d="M145.173 27.3485C150.609 27.3485 155.016 22.896 155.016 17.4036C155.016 11.9112 150.609 7.45874 145.173 7.45874C139.738 7.45874 135.331 11.9112 135.331 17.4036C135.331 22.896 139.738 27.3485 145.173 27.3485Z" stroke="white" stroke-width="4"/>
<path d="M43.3677 21.1327C45.2362 21.1327 46.7509 19.6022 46.7509 17.7142C46.7509 15.8262 45.2362 14.2957 43.3677 14.2957C41.4991 14.2957 39.9844 15.8262 39.9844 17.7142C39.9844 19.6022 41.4991 21.1327 43.3677 21.1327Z" fill="white"/>
<path d="M378.927 89.5037C384.396 89.5037 388.77 93.8496 388.77 99.1377C388.77 104.426 384.396 108.772 378.927 108.772C373.459 108.772 369.085 104.426 369.085 99.1377C369.085 93.8496 373.459 89.5037 378.927 89.5037Z" stroke="white" stroke-width="4"/>
<path d="M381.696 85.1528C383.564 85.1528 385.079 83.6222 385.079 81.7342C385.079 79.8462 383.564 78.3157 381.696 78.3157C379.827 78.3157 378.312 79.8462 378.312 81.7342C378.312 83.6222 379.827 85.1528 381.696 85.1528Z" fill="white"/>
<path d="M321.719 38.5364C324.437 38.5364 326.64 36.3102 326.64 33.564C326.64 30.8178 324.437 28.5916 321.719 28.5916C319.001 28.5916 316.798 30.8178 316.798 33.564C316.798 36.3102 319.001 38.5364 321.719 38.5364Z" fill="white"/>
</g>
<defs>
<filter id="filter0_i_5399_9532" x="289.017" y="120.909" width="9.32129" height="11.4182" filterUnits="userSpaceOnUse" color-interpolation-filters="sRGB">
<feFlood flood-opacity="0" result="BackgroundImageFix"/>
<feBlend mode="normal" in="SourceGraphic" in2="BackgroundImageFix" result="shape"/>
<feColorMatrix in="SourceAlpha" type="matrix" values="0 0 0 0 0 0 0 0 0 0 0 0 0 0 0 0 0 0 127 0" result="hardAlpha"/>
<feOffset dy="2"/>
<feGaussianBlur stdDeviation="2"/>
<feComposite in2="hardAlpha" operator="arithmetic" k2="-1" k3="1"/>
<feColorMatrix type="matrix" values="0 0 0 0 0 0 0 0 0 0 0 0 0 0 0 0 0 0 1 0"/>
<feBlend mode="normal" in2="shape" result="effect1_innerShadow_5399_9532"/>
</filter>
<clipPath id="clip0_5399_9532">
<rect width="390" height="248" fill="white"/>
</clipPath>
</defs>
</svg>
