<svg width="340" height="350" viewBox="0 0 340 350" fill="none" xmlns="http://www.w3.org/2000/svg">
<rect width="340" height="350" rx="20" fill="#F9FAFB" fill-opacity="0.98"/>
<g clip-path="url(#clip0_4363_4604)">
<path d="M227.753 272.118C289.311 272.118 339.213 249.123 339.213 220.757C339.213 192.392 289.311 169.397 227.753 169.397C166.195 169.397 116.293 192.392 116.293 220.757C116.293 249.123 166.195 272.118 227.753 272.118Z" fill="#D8E0F4"/>
<path d="M135.494 281.456C204.553 281.456 260.536 229.195 260.536 164.728C260.536 100.261 204.553 48 135.494 48C66.436 48 10.4531 100.261 10.4531 164.728C10.4531 229.195 66.436 281.456 135.494 281.456Z" fill="#D8E0F4"/>
<g filter="url(#filter0_d_4363_4604)">
<path d="M241.173 63.833L9.40735 120.751C7.39824 121.244 6.17072 123.268 6.66562 125.271L45.9278 284.184C46.4227 286.187 48.4526 287.411 50.4617 286.918L282.227 230C284.236 229.506 285.464 227.482 284.969 225.479L245.707 66.5665C245.212 64.5634 243.182 63.3396 241.173 63.833Z" fill="#324C73"/>
<path d="M241.284 64.2864L9.51903 121.204C7.76106 121.636 6.68698 123.407 7.12001 125.16L46.3822 284.072C46.8153 285.825 48.5914 286.896 50.3494 286.464L282.115 229.546C283.873 229.114 284.947 227.344 284.514 225.591L245.252 66.6782C244.819 64.9255 243.042 63.8546 241.284 64.2864Z" stroke="black"/>
</g>
<path d="M229.408 77.3816L27.0474 127.684C25.0397 128.183 23.8179 130.21 24.3185 132.212L56.8299 262.216C57.3305 264.218 59.3638 265.436 61.3715 264.937L263.732 214.634C265.74 214.135 266.962 212.108 266.461 210.106L233.95 80.1023C233.449 78.1006 231.416 76.8825 229.408 77.3816Z" stroke="white" stroke-width="2"/>
<path d="M80.9529 132.004C81.3843 133.729 83.6118 134.421 85.3421 133.99C89.6781 132.913 94.0692 135.543 95.1501 139.866C96.2319 144.189 93.5931 148.568 89.2573 149.646C87.5268 150.076 85.8855 151.728 86.317 153.453L89.4805 166.102C89.8559 167.604 88.9395 169.124 87.4337 169.499L74.746 172.653C73.0156 173.083 72.3232 175.303 72.7546 177.028C73.8355 181.352 71.1963 185.73 66.8602 186.807C62.5243 187.886 58.1331 185.255 57.0519 180.932C56.6203 179.207 54.9628 177.571 53.2324 178L40.5444 181.155C39.0387 181.529 37.5137 180.615 37.1382 179.114L25.4474 132.366C25.072 130.864 25.9883 129.344 27.4941 128.97L74.3833 117.314C75.8892 116.94 77.4142 117.853 77.7896 119.355L80.9529 132.004Z" fill="#F9D4AD"/>
<mask id="mask0_4363_4604" style="mask-type:luminance" maskUnits="userSpaceOnUse" x="25" y="117" width="71" height="71">
<path d="M80.9529 132.004C81.3843 133.729 83.6118 134.421 85.3421 133.99C89.6781 132.913 94.0692 135.543 95.1501 139.866C96.2319 144.189 93.5931 148.568 89.2573 149.646C87.5268 150.076 85.8855 151.728 86.317 153.453L89.4805 166.102C89.8559 167.604 88.9395 169.124 87.4337 169.499L74.746 172.653C73.0156 173.083 72.3232 175.303 72.7546 177.028C73.8355 181.352 71.1963 185.73 66.8602 186.807C62.5243 187.886 58.1331 185.255 57.0519 180.932C56.6203 179.207 54.9628 177.571 53.2324 178L40.5444 181.155C39.0387 181.529 37.5137 180.615 37.1382 179.114L25.4474 132.366C25.072 130.864 25.9883 129.344 27.4941 128.97L74.3833 117.314C75.8892 116.94 77.4142 117.853 77.7896 119.355L80.9529 132.004Z" fill="white"/>
</mask>
<g mask="url(#mask0_4363_4604)">
<path d="M85.3424 133.99L85.569 134.896C89.4031 133.944 93.2861 136.27 94.2419 140.092L95.1504 139.866L96.0599 139.64C94.8535 134.817 89.9538 131.882 85.1159 133.084L85.3424 133.99ZM95.1504 139.866L94.2419 140.092C95.1982 143.915 92.8649 147.786 89.0309 148.74L89.2576 149.646L89.4842 150.552C94.3224 149.35 97.2663 144.464 96.0599 139.64L95.1504 139.866ZM86.3173 153.453L85.4086 153.679L88.572 166.328L89.4808 166.102L90.3895 165.877L87.2261 153.228L86.3173 153.453ZM87.434 169.499L87.2075 168.593L74.5198 171.746L74.7463 172.653L74.9729 173.559L87.6607 170.405L87.434 169.499ZM72.7549 177.028L71.8461 177.254C72.8019 181.077 70.4682 184.949 66.634 185.901L66.8606 186.807L67.0872 187.714C71.9251 186.511 74.8698 181.626 73.6638 176.802L72.7549 177.028ZM66.8606 186.807L66.634 185.901C62.8 186.855 58.9171 184.529 57.9609 180.706L57.0522 180.932L56.1434 181.158C57.3498 185.981 62.2492 188.917 67.0872 187.714L66.8606 186.807ZM53.2328 178L53.0062 177.094L40.3182 180.249L40.5448 181.155L40.7714 182.061L53.4593 178.907L53.2328 178ZM37.1386 179.114L38.0474 178.888L26.3566 132.14L25.4477 132.366L24.5389 132.592L36.2298 179.34L37.1386 179.114ZM27.4944 128.97L27.7211 129.876L74.6103 118.22L74.3837 117.314L74.1571 116.408L27.2678 128.064L27.4944 128.97ZM77.7899 119.355L76.8811 119.58L80.0444 132.23L80.9532 132.004L81.8621 131.778L78.6988 119.129L77.7899 119.355ZM74.3837 117.314L74.6103 118.22C75.6141 117.971 76.6309 118.58 76.8811 119.58L77.7899 119.355L78.6988 119.129C78.1982 117.127 76.1648 115.909 74.1571 116.408L74.3837 117.314ZM25.4477 132.366L26.3566 132.14C26.1063 131.139 26.7172 130.125 27.7211 129.876L27.4944 128.97L27.2678 128.064C25.2601 128.563 24.0384 130.59 24.5389 132.592L25.4477 132.366ZM74.7463 172.653L74.5198 171.746C73.2848 172.054 72.4853 172.988 72.0719 174.004C71.6608 175.015 71.5833 176.203 71.8461 177.254L72.7549 177.028L73.6638 176.802C73.4953 176.129 73.5482 175.344 73.8079 174.706C74.0655 174.073 74.4774 173.682 74.9729 173.559L74.7463 172.653ZM89.2576 149.646L89.0309 148.74C87.9764 149.002 86.9604 149.628 86.2584 150.465C85.5528 151.305 85.1006 152.448 85.4086 153.679L86.3173 153.453L87.2261 153.228C87.1026 152.733 87.2553 152.188 87.6951 151.664C88.1385 151.135 88.8082 150.721 89.4842 150.552L89.2576 149.646ZM57.0522 180.932L57.9609 180.706C57.698 179.655 57.0696 178.642 56.2305 177.941C55.3871 177.238 54.2411 176.787 53.0062 177.094L53.2328 178L53.4593 178.907C53.9549 178.784 54.5028 178.936 55.0286 179.374C55.5587 179.817 55.9749 180.484 56.1434 181.158L57.0522 180.932ZM89.4808 166.102L88.572 166.328C88.8222 167.329 88.2114 168.344 87.2075 168.593L87.434 169.499L87.6607 170.405C89.6684 169.906 90.8901 167.879 90.3895 165.877L89.4808 166.102ZM40.5448 181.155L40.3182 180.249C39.3144 180.498 38.2977 179.889 38.0474 178.888L37.1386 179.114L36.2298 179.34C36.7303 181.342 38.7637 182.56 40.7714 182.061L40.5448 181.155ZM85.3424 133.99L85.1159 133.084C84.4402 133.252 83.6536 133.199 83.0131 132.94C82.3778 132.683 81.9856 132.272 81.8621 131.778L80.9532 132.004L80.0444 132.23C80.3523 133.461 81.2896 134.258 82.3084 134.671C83.3221 135.081 84.5143 135.159 85.569 134.896L85.3424 133.99Z" fill="black"/>
</g>
<path d="M244.57 127.552C244.945 129.053 244.029 130.573 242.523 130.948L230.847 133.85C229.103 134.284 228.387 136.495 228.822 138.234C229.903 142.557 227.452 146.889 223.346 147.909C219.242 148.93 215.038 146.252 213.958 141.93C213.522 140.19 211.849 138.573 210.105 139.006L198.429 141.908C196.923 142.283 195.398 141.369 195.022 139.868L191.813 127.031C191.407 125.412 192.98 123.864 194.604 123.46C198.708 122.44 201.159 118.107 200.077 113.784C198.997 109.461 194.793 106.784 190.689 107.804C189.064 108.208 186.947 107.576 186.542 105.957L183.332 93.1197C182.957 91.6185 183.873 90.098 185.379 89.7238L229.473 78.7628C230.979 78.3885 232.504 79.3021 232.88 80.8033L244.57 127.552Z" fill="#F9D4AD"/>
<mask id="mask1_4363_4604" style="mask-type:luminance" maskUnits="userSpaceOnUse" x="183" y="78" width="62" height="71">
<path d="M244.57 127.552C244.945 129.053 244.029 130.573 242.523 130.948L230.847 133.85C229.103 134.284 228.387 136.495 228.822 138.234C229.903 142.557 227.452 146.889 223.346 147.909C219.242 148.93 215.038 146.252 213.958 141.93C213.522 140.19 211.849 138.573 210.105 139.006L198.429 141.908C196.923 142.283 195.398 141.369 195.022 139.868L191.813 127.031C191.407 125.412 192.98 123.864 194.604 123.46C198.708 122.44 201.159 118.107 200.077 113.784C198.997 109.461 194.793 106.784 190.689 107.804C189.064 108.208 186.947 107.576 186.542 105.957L183.332 93.1197C182.957 91.6185 183.873 90.098 185.379 89.7238L229.473 78.7628C230.979 78.3885 232.504 79.3021 232.88 80.8033L244.57 127.552Z" fill="white"/>
</mask>
<g mask="url(#mask1_4363_4604)">
<path d="M242.523 130.948L242.296 130.042L230.621 132.944L230.847 133.85L231.073 134.756L242.75 131.854L242.523 130.948ZM228.822 138.234L227.913 138.46C228.881 142.33 226.676 146.119 223.12 147.003L223.346 147.909L223.573 148.816C228.226 147.659 230.926 142.784 229.731 138.008L228.822 138.234ZM223.346 147.909L223.12 147.003C219.564 147.886 215.833 145.573 214.866 141.704L213.957 141.93L213.048 142.155C214.243 146.93 218.921 149.972 223.573 148.816L223.346 147.909ZM210.105 139.006L209.878 138.1L198.202 141.003L198.429 141.908L198.655 142.815L210.332 139.912L210.105 139.006ZM195.022 139.868L195.932 139.642L192.721 126.805L191.812 127.031L190.903 127.257L194.114 140.094L195.022 139.868ZM194.604 123.46L194.829 124.366C199.482 123.209 202.181 118.334 200.987 113.558L200.077 113.784L199.169 114.01C200.136 117.88 197.932 121.67 194.377 122.554L194.604 123.46ZM200.077 113.784L200.987 113.558C199.792 108.782 195.114 105.742 190.462 106.898L190.688 107.804L190.914 108.71C194.471 107.826 198.201 110.14 199.169 114.01L200.077 113.784ZM186.542 105.957L187.45 105.731L184.241 92.8938L183.332 93.1197L182.423 93.3457L185.633 106.183L186.542 105.957ZM185.379 89.7238L185.605 90.6298L229.699 79.6689L229.473 78.7628L229.246 77.8567L185.152 88.8177L185.379 89.7238ZM232.879 80.8033L231.97 81.0292L243.661 127.778L244.57 127.552L245.479 127.326L233.788 80.5774L232.879 80.8033ZM229.473 78.7628L229.699 79.6689C230.704 79.4194 231.72 80.0284 231.97 81.0292L232.879 80.8033L233.788 80.5774C233.288 78.5758 231.254 77.3576 229.246 77.8567L229.473 78.7628ZM191.812 127.031L192.721 126.805C192.612 126.371 192.747 125.879 193.16 125.394C193.577 124.906 194.205 124.522 194.829 124.366L194.604 123.46L194.377 122.554C193.378 122.802 192.407 123.394 191.733 124.185C191.056 124.98 190.607 126.072 190.903 127.257L191.812 127.031ZM198.429 141.908L198.202 141.003C197.198 141.252 196.182 140.643 195.932 139.642L195.022 139.868L194.114 140.094C194.614 142.096 196.647 143.314 198.655 142.815L198.429 141.908ZM183.332 93.1197L184.241 92.8938C183.991 91.893 184.601 90.8794 185.605 90.6298L185.379 89.7238L185.152 88.8177C183.144 89.3167 181.922 91.3439 182.423 93.3457L183.332 93.1197ZM230.847 133.85L230.621 132.944C229.386 133.251 228.575 134.177 228.152 135.195C227.732 136.207 227.648 137.399 227.913 138.46L228.822 138.234L229.731 138.008C229.562 137.33 229.618 136.547 229.883 135.91C230.145 135.279 230.565 134.883 231.073 134.756L230.847 133.85ZM213.957 141.93L214.866 141.704C214.601 140.642 213.966 139.629 213.118 138.932C212.265 138.232 211.114 137.793 209.878 138.1L210.105 139.006L210.332 139.912C210.84 139.786 211.398 139.939 211.926 140.374C212.46 140.812 212.878 141.477 213.048 142.155L213.957 141.93ZM190.688 107.804L190.462 106.898C189.836 107.054 189.102 107.008 188.503 106.771C187.91 106.536 187.559 106.165 187.45 105.731L186.542 105.957L185.633 106.183C185.929 107.367 186.84 108.122 187.812 108.507C188.78 108.89 189.916 108.959 190.914 108.71L190.688 107.804ZM242.523 130.948L242.75 131.854C244.758 131.355 245.979 129.327 245.479 127.326L244.57 127.552L243.661 127.778C243.911 128.778 243.3 129.792 242.296 130.042L242.523 130.948Z" fill="black"/>
</g>
<path d="M132.397 119.36C132.809 121.008 131.218 122.585 129.566 122.996C125.398 124.032 122.894 128.376 123.976 132.7C125.057 137.023 129.313 139.688 133.481 138.652C135.134 138.241 137.28 138.888 137.692 140.536L140.89 153.322C141.265 154.824 140.349 156.344 138.843 156.718L126.89 159.69C125.148 160.122 124.44 162.335 124.874 164.071C125.955 168.394 123.452 172.738 119.284 173.775C115.116 174.81 110.862 172.146 109.78 167.824C109.346 166.088 107.677 164.465 105.937 164.898L93.9828 167.869C92.4771 168.244 90.9521 167.33 90.5767 165.829L87.3791 153.042C86.9669 151.395 88.5576 149.818 90.2106 149.408C94.379 148.372 96.8817 144.026 95.8008 139.703C94.719 135.38 90.4635 132.716 86.2955 133.752C84.6427 134.163 82.4955 133.515 82.0834 131.867L78.8859 119.081C78.5104 117.579 79.4267 116.059 80.9326 115.685L125.793 104.533C127.299 104.159 128.824 105.073 129.199 106.574L132.397 119.36Z" fill="#F9D4AD"/>
<mask id="mask2_4363_4604" style="mask-type:luminance" maskUnits="userSpaceOnUse" x="78" y="104" width="63" height="70">
<path d="M132.397 119.36C132.809 121.008 131.218 122.585 129.566 122.996C125.398 124.032 122.894 128.376 123.976 132.7C125.057 137.023 129.313 139.688 133.481 138.652C135.134 138.241 137.28 138.888 137.692 140.536L140.89 153.322C141.265 154.824 140.349 156.344 138.843 156.718L126.89 159.69C125.148 160.122 124.44 162.335 124.874 164.071C125.955 168.394 123.452 172.738 119.284 173.775C115.116 174.81 110.862 172.146 109.78 167.824C109.346 166.088 107.677 164.465 105.937 164.898L93.9828 167.869C92.4771 168.244 90.9521 167.33 90.5767 165.829L87.3791 153.042C86.9669 151.395 88.5576 149.818 90.2106 149.408C94.379 148.372 96.8817 144.026 95.8008 139.703C94.719 135.38 90.4635 132.716 86.2955 133.752C84.6427 134.163 82.4955 133.515 82.0834 131.867L78.8859 119.081C78.5104 117.579 79.4267 116.059 80.9326 115.685L125.793 104.533C127.299 104.159 128.824 105.073 129.199 106.574L132.397 119.36Z" fill="white"/>
</mask>
<g mask="url(#mask2_4363_4604)">
<path d="M129.566 122.996L129.339 122.09C124.636 123.259 121.87 128.136 123.067 132.925L123.976 132.699L124.885 132.474C123.92 128.617 126.159 124.805 129.793 123.902L129.566 122.996ZM123.976 132.699L123.067 132.925C124.265 137.715 129.004 140.727 133.708 139.558L133.481 138.652L133.255 137.746C129.621 138.649 125.849 136.33 124.885 132.474L123.976 132.699ZM137.692 140.536L136.784 140.762L139.981 153.548L140.89 153.322L141.799 153.096L138.602 140.31L137.692 140.536ZM138.843 156.718L138.617 155.812L126.663 158.783L126.89 159.69L127.117 160.596L139.07 157.624L138.843 156.718ZM124.874 164.071L123.966 164.297C124.93 168.154 122.69 171.966 119.058 172.869L119.285 173.775L119.511 174.681C124.215 173.511 126.981 168.635 125.784 163.845L124.874 164.071ZM119.285 173.775L119.058 172.869C115.426 173.772 111.654 171.454 110.689 167.598L109.78 167.823L108.872 168.049C110.07 172.838 114.807 175.85 119.511 174.681L119.285 173.775ZM105.937 164.898L105.711 163.992L93.7564 166.963L93.9831 167.869L94.2098 168.776L106.164 165.804L105.937 164.898ZM90.577 165.829L91.4858 165.603L88.2882 152.817L87.3794 153.042L86.4706 153.268L89.6682 166.055L90.577 165.829ZM90.211 149.408L90.4375 150.313C95.1408 149.144 97.9076 144.267 96.7096 139.477L95.8011 139.703L94.8916 139.929C95.8564 143.786 93.6171 147.599 89.9844 148.502L90.211 149.408ZM95.8011 139.703L96.7096 139.477C95.5117 134.688 90.7727 131.677 86.0692 132.846L86.2958 133.752L86.5224 134.658C90.1551 133.755 93.9278 136.072 94.8916 139.929L95.8011 139.703ZM82.0837 131.867L82.9926 131.641L79.7951 118.855L78.8863 119.081L77.9774 119.307L81.1749 132.093L82.0837 131.867ZM80.9329 115.685L81.1595 116.591L126.02 105.439L125.793 104.533L125.567 103.627L80.7063 114.779L80.9329 115.685ZM129.2 106.574L128.29 106.8L131.488 119.586L132.397 119.36L133.306 119.134L130.108 106.348L129.2 106.574ZM125.793 104.533L126.02 105.439C127.024 105.19 128.04 105.799 128.29 106.8L129.2 106.574L130.108 106.348C129.608 104.346 127.575 103.128 125.567 103.627L125.793 104.533ZM87.3794 153.042L88.2882 152.817C88.1756 152.366 88.3153 151.86 88.7358 151.364C89.1594 150.865 89.7984 150.473 90.4375 150.313L90.211 149.408L89.9844 148.502C88.9707 148.754 87.9877 149.354 87.3057 150.158C86.6205 150.965 86.1711 152.071 86.4706 153.268L87.3794 153.042ZM78.8863 119.081L79.7951 118.855C79.5447 117.854 80.1556 116.84 81.1595 116.591L80.9329 115.685L80.7063 114.779C78.6985 115.278 77.4768 117.305 77.9774 119.307L78.8863 119.081ZM126.89 159.69L126.663 158.783C125.428 159.09 124.621 160.02 124.201 161.036C123.783 162.048 123.701 163.239 123.966 164.297L124.874 164.071L125.784 163.845C125.614 163.168 125.67 162.385 125.933 161.747C126.193 161.116 126.611 160.722 127.117 160.596L126.89 159.69ZM133.481 138.652L133.708 139.558C134.347 139.399 135.096 139.446 135.705 139.689C136.309 139.929 136.671 140.311 136.784 140.762L137.692 140.536L138.602 140.31C138.302 139.112 137.384 138.346 136.4 137.954C135.419 137.564 134.268 137.494 133.255 137.746L133.481 138.652ZM109.78 167.823L110.689 167.598C110.425 166.539 109.792 165.525 108.946 164.828C108.096 164.126 106.946 163.685 105.711 163.992L105.937 164.898L106.164 165.804C106.669 165.679 107.224 165.832 107.752 166.267C108.285 166.707 108.702 167.372 108.872 168.049L109.78 167.823ZM86.2958 133.752L86.0692 132.846C85.4305 133.005 84.6814 132.957 84.0721 132.714C83.4673 132.473 83.1052 132.091 82.9926 131.641L82.0837 131.867L81.1749 132.093C81.4744 133.29 82.3919 134.056 83.377 134.449C84.3574 134.839 85.5084 134.91 86.5224 134.658L86.2958 133.752ZM140.89 153.322L139.981 153.548C140.232 154.549 139.621 155.562 138.617 155.812L138.843 156.718L139.07 157.624C141.078 157.126 142.3 155.098 141.799 153.096L140.89 153.322ZM93.9831 167.869L93.7564 166.963C92.7528 167.213 91.7361 166.604 91.4858 165.603L90.577 165.829L89.6682 166.055C90.1688 168.057 92.2022 169.275 94.2098 168.776L93.9831 167.869ZM129.566 122.996L129.793 123.902C130.806 123.65 131.79 123.049 132.471 122.245C133.156 121.437 133.606 120.331 133.306 119.134L132.397 119.36L131.488 119.586C131.601 120.036 131.461 120.543 131.04 121.039C130.617 121.538 129.978 121.931 129.339 122.09L129.566 122.996Z" fill="black"/>
</g>
<path d="M185.467 106.022C185.898 107.747 188.126 108.439 189.856 108.009C194.191 106.931 198.583 109.561 199.664 113.884C200.745 118.207 198.107 122.586 193.771 123.664C192.041 124.094 190.399 125.746 190.831 127.471L193.994 140.121C194.369 141.622 193.453 143.143 191.947 143.517L179.259 146.671C177.53 147.101 176.836 149.322 177.268 151.046C178.349 155.37 175.71 159.748 171.374 160.825C167.038 161.903 162.646 159.272 161.565 154.95C161.134 153.225 159.477 151.589 157.746 152.019L145.058 155.173C143.552 155.547 142.027 154.633 141.652 153.133L138.489 140.482C138.057 138.757 135.83 138.067 134.1 138.497C129.765 139.575 125.372 136.944 124.291 132.621C123.21 128.297 125.85 123.919 130.185 122.841C131.915 122.411 133.556 120.759 133.124 119.034L129.961 106.384C129.586 104.883 130.502 103.362 132.008 102.988L178.897 91.3322C180.403 90.9579 181.928 91.8714 182.304 93.3727L185.467 106.022Z" fill="#F9D4AD"/>
<mask id="mask3_4363_4604" style="mask-type:luminance" maskUnits="userSpaceOnUse" x="124" y="91" width="76" height="71">
<path d="M185.467 106.022C185.898 107.747 188.126 108.439 189.856 108.009C194.191 106.931 198.583 109.561 199.664 113.884C200.745 118.207 198.107 122.586 193.771 123.664C192.041 124.094 190.399 125.746 190.831 127.471L193.994 140.121C194.369 141.622 193.453 143.143 191.947 143.517L179.259 146.671C177.53 147.101 176.836 149.322 177.268 151.046C178.349 155.37 175.71 159.748 171.374 160.825C167.038 161.903 162.646 159.272 161.565 154.95C161.134 153.225 159.477 151.589 157.746 152.019L145.058 155.173C143.552 155.547 142.027 154.633 141.652 153.133L138.489 140.482C138.057 138.757 135.83 138.067 134.1 138.497C129.765 139.575 125.372 136.944 124.291 132.621C123.21 128.297 125.85 123.919 130.185 122.841C131.915 122.411 133.556 120.759 133.124 119.034L129.961 106.384C129.586 104.883 130.502 103.362 132.008 102.988L178.897 91.3322C180.403 90.9579 181.928 91.8714 182.304 93.3727L185.467 106.022Z" fill="white"/>
</mask>
<g mask="url(#mask3_4363_4604)">
<path d="M189.856 108.009L190.083 108.915C193.916 107.962 197.8 110.288 198.756 114.11L199.664 113.884L200.573 113.658C199.367 108.835 194.467 105.9 189.629 107.102L189.856 108.009ZM199.664 113.884L198.756 114.11C199.711 117.933 197.378 121.805 193.544 122.758L193.771 123.664L193.998 124.57C198.835 123.367 201.779 118.482 200.573 113.658L199.664 113.884ZM190.831 127.471L189.922 127.697L193.085 140.347L193.994 140.121L194.903 139.895L191.739 127.245L190.831 127.471ZM191.947 143.517L191.721 142.611L179.033 145.765L179.26 146.671L179.486 147.577L192.174 144.423L191.947 143.517ZM177.268 151.046L176.36 151.272C177.315 155.095 174.982 158.966 171.147 159.92L171.374 160.825L171.601 161.732C176.439 160.529 179.383 155.645 178.177 150.82L177.268 151.046ZM171.374 160.825L171.147 159.92C167.314 160.873 163.431 158.547 162.474 154.724L161.566 154.95L160.657 155.176C161.864 159.999 166.763 162.934 171.601 161.732L171.374 160.825ZM157.746 152.019L157.519 151.113L144.832 154.266L145.058 155.173L145.285 156.079L157.973 152.924L157.746 152.019ZM141.652 153.133L142.561 152.907L139.397 140.256L138.489 140.482L137.579 140.708L140.743 153.358L141.652 153.133ZM134.101 138.497L133.874 137.591C130.04 138.544 126.156 136.217 125.2 132.394L124.291 132.62L123.383 132.846C124.589 137.67 129.49 140.606 134.327 139.403L134.101 138.497ZM124.291 132.62L125.2 132.394C124.244 128.572 126.577 124.701 130.412 123.747L130.185 122.841L129.959 121.935C125.121 123.138 122.176 128.023 123.383 132.846L124.291 132.62ZM133.125 119.034L134.034 118.808L130.87 106.158L129.962 106.384L129.052 106.61L132.216 119.26L133.125 119.034ZM132.008 102.988L132.235 103.894L179.124 92.2382L178.897 91.3321L178.671 90.426L131.781 102.082L132.008 102.988ZM182.304 93.3726L181.394 93.5985L184.558 106.248L185.467 106.022L186.375 105.796L183.212 93.1467L182.304 93.3726ZM178.897 91.3321L179.124 92.2382C180.128 91.9887 181.144 92.5977 181.394 93.5985L182.304 93.3726L183.212 93.1467C182.712 91.1451 180.679 89.927 178.671 90.426L178.897 91.3321ZM138.489 140.482L139.397 140.256C139.089 139.025 138.152 138.228 137.133 137.816C136.12 137.406 134.929 137.329 133.874 137.591L134.101 138.497L134.327 139.403C135.004 139.235 135.789 139.288 136.43 139.546C137.064 139.803 137.457 140.214 137.579 140.708L138.489 140.482ZM129.962 106.384L130.87 106.158C130.62 105.157 131.231 104.143 132.235 103.894L132.008 102.988L131.781 102.082C129.773 102.581 128.552 104.608 129.052 106.61L129.962 106.384ZM179.26 146.671L179.033 145.765C177.799 146.072 176.999 147.006 176.586 148.022C176.174 149.033 176.097 150.221 176.36 151.272L177.268 151.046L178.177 150.82C178.008 150.146 178.062 149.363 178.321 148.724C178.579 148.091 178.991 147.701 179.486 147.577L179.26 146.671ZM193.771 123.664L193.544 122.758C192.49 123.02 191.473 123.646 190.772 124.483C190.067 125.324 189.614 126.466 189.922 127.697L190.831 127.471L191.739 127.245C191.616 126.751 191.769 126.205 192.209 125.681C192.652 125.153 193.321 124.738 193.998 124.57L193.771 123.664ZM161.566 154.95L162.474 154.724C162.212 153.672 161.583 152.659 160.744 151.96C159.9 151.257 158.755 150.805 157.519 151.113L157.746 152.019L157.973 152.924C158.468 152.802 159.016 152.954 159.543 153.392C160.073 153.835 160.489 154.502 160.657 155.176L161.566 154.95ZM130.185 122.841L130.412 123.747C131.467 123.485 132.482 122.859 133.185 122.022C133.89 121.181 134.341 120.039 134.034 118.808L133.125 119.034L132.216 119.26C132.34 119.754 132.187 120.3 131.747 120.824C131.304 121.352 130.634 121.767 129.959 121.935L130.185 122.841ZM193.994 140.121L193.085 140.347C193.336 141.348 192.725 142.361 191.721 142.611L191.947 143.517L192.174 144.423C194.182 143.924 195.404 141.897 194.903 139.895L193.994 140.121ZM145.058 155.173L144.832 154.266C143.828 154.516 142.811 153.907 142.561 152.907L141.652 153.133L140.743 153.358C141.244 155.36 143.277 156.577 145.285 156.079L145.058 155.173ZM189.856 108.009L189.629 107.102C188.954 107.27 188.167 107.217 187.526 106.958C186.891 106.701 186.499 106.29 186.375 105.796L185.467 106.022L184.558 106.248C184.865 107.479 185.803 108.276 186.822 108.689C187.836 109.099 189.028 109.177 190.083 108.915L189.856 108.009Z" fill="black"/>
</g>
<path d="M198.636 158.801C199.067 160.527 201.294 161.218 203.024 160.787C207.361 159.71 211.752 162.341 212.834 166.664C213.914 170.986 211.276 175.365 206.939 176.443C205.209 176.873 203.568 178.525 203.999 180.25L207.163 192.9C207.539 194.401 206.622 195.921 205.117 196.296L158.227 207.951C156.722 208.325 155.197 207.412 154.822 205.91L151.658 193.26C151.227 191.535 149.001 190.845 147.27 191.276C142.934 192.353 138.542 189.723 137.461 185.4C136.379 181.076 139.019 176.698 143.355 175.62C145.085 175.19 146.726 173.538 146.295 171.813L143.131 159.163C142.755 157.662 143.672 156.141 145.177 155.767L157.564 152.688C158.508 152.454 159.428 153.13 159.664 154.071C161.04 159.576 166.429 162.976 171.699 161.666C176.97 160.356 180.126 154.831 178.749 149.327C178.514 148.386 179.008 147.358 179.952 147.123L192.066 144.112C193.572 143.737 195.096 144.651 195.472 146.152L198.636 158.801Z" fill="#F9D4AD"/>
<mask id="mask4_4363_4604" style="mask-type:luminance" maskUnits="userSpaceOnUse" x="137" y="144" width="77" height="65">
<path d="M198.636 158.801C199.067 160.527 201.294 161.218 203.024 160.787C207.361 159.71 211.752 162.341 212.834 166.664C213.914 170.986 211.276 175.365 206.939 176.443C205.209 176.873 203.568 178.525 203.999 180.25L207.163 192.9C207.539 194.401 206.622 195.921 205.117 196.296L158.227 207.951C156.722 208.325 155.197 207.412 154.822 205.91L151.658 193.26C151.227 191.535 149.001 190.845 147.27 191.276C142.934 192.353 138.542 189.723 137.461 185.4C136.379 181.076 139.019 176.698 143.355 175.62C145.085 175.19 146.726 173.538 146.295 171.813L143.131 159.163C142.755 157.662 143.672 156.141 145.177 155.767L157.564 152.688C158.508 152.454 159.428 153.13 159.664 154.071C161.04 159.576 166.429 162.976 171.699 161.666C176.97 160.356 180.126 154.831 178.749 149.327C178.514 148.386 179.008 147.358 179.952 147.123L192.066 144.112C193.572 143.737 195.096 144.651 195.472 146.152L198.636 158.801Z" fill="white"/>
</mask>
<g mask="url(#mask4_4363_4604)">
<path d="M203.024 160.787L203.251 161.693C207.085 160.741 210.968 163.067 211.924 166.89L212.833 166.664L213.742 166.438C212.535 161.615 207.636 158.679 202.798 159.881L203.024 160.787ZM212.833 166.664L211.924 166.89C212.88 170.712 210.547 174.584 206.712 175.537L206.939 176.443L207.166 177.349C212.003 176.146 214.948 171.261 213.742 166.438L212.833 166.664ZM203.999 180.25L203.09 180.476L206.253 193.126L207.163 192.9L208.071 192.674L204.908 180.024L203.999 180.25ZM205.116 196.296L204.89 195.389L158.001 207.045L158.227 207.951L158.454 208.857L205.342 197.202L205.116 196.296ZM154.822 205.911L155.73 205.685L152.566 193.034L151.658 193.26L150.749 193.486L153.912 206.137L154.822 205.911ZM147.27 191.276L147.044 190.369C143.209 191.322 139.326 188.996 138.37 185.174L137.461 185.4L136.552 185.626C137.758 190.449 142.658 193.384 147.496 192.181L147.27 191.276ZM137.461 185.4L138.37 185.174C137.413 181.351 139.747 177.479 143.581 176.526L143.354 175.62L143.129 174.713C138.29 175.916 135.345 180.802 136.552 185.626L137.461 185.4ZM146.294 171.813L147.203 171.587L144.04 158.937L143.131 159.163L142.222 159.389L145.385 172.039L146.294 171.813ZM145.177 155.767L145.404 156.673L157.791 153.594L157.564 152.688L157.337 151.782L144.95 154.861L145.177 155.767ZM159.664 154.071L158.755 154.297C160.247 160.262 166.114 164.016 171.926 162.572L171.699 161.666L171.472 160.76C166.743 161.936 161.834 158.89 160.573 153.845L159.664 154.071ZM171.699 161.666L171.926 162.572C177.737 161.127 181.15 155.066 179.658 149.101L178.749 149.327L177.84 149.553C179.101 154.597 176.201 159.584 171.472 160.76L171.699 161.666ZM179.952 147.124L180.178 148.029L192.293 145.018L192.066 144.112L191.84 143.205L179.725 146.217L179.952 147.124ZM195.472 146.152L194.563 146.378L197.726 159.027L198.636 158.801L199.544 158.575L196.381 145.926L195.472 146.152ZM157.564 152.688L157.791 153.594C158.135 153.509 158.619 153.753 158.755 154.297L159.664 154.071L160.573 153.845C160.238 152.507 158.882 151.399 157.337 151.782L157.564 152.688ZM143.131 159.163L144.04 158.937C143.789 157.936 144.401 156.923 145.404 156.673L145.177 155.767L144.95 154.861C142.943 155.36 141.722 157.387 142.222 159.389L143.131 159.163ZM192.066 144.112L192.293 145.018C193.296 144.768 194.313 145.377 194.563 146.378L195.472 146.152L196.381 145.926C195.88 143.924 193.847 142.707 191.84 143.205L192.066 144.112ZM151.658 193.26L152.566 193.034C152.259 191.803 151.321 191.007 150.303 190.594C149.29 190.184 148.098 190.107 147.044 190.369L147.27 191.276L147.496 192.181C148.172 192.013 148.958 192.067 149.599 192.325C150.234 192.582 150.626 192.992 150.749 193.486L151.658 193.26ZM178.749 149.327L179.658 149.101C179.522 148.557 179.834 148.114 180.178 148.029L179.952 147.124L179.725 146.217C178.18 146.601 177.505 148.215 177.84 149.553L178.749 149.327ZM158.227 207.951L158.001 207.045C156.997 207.294 155.98 206.686 155.73 205.685L154.822 205.911L153.912 206.137C154.413 208.139 156.447 209.356 158.454 208.857L158.227 207.951ZM206.939 176.443L206.713 175.537C205.659 175.798 204.642 176.425 203.94 177.262C203.235 178.102 202.782 179.245 203.09 180.476L203.999 180.25L204.908 180.024C204.785 179.53 204.937 178.984 205.377 178.46C205.821 177.931 206.49 177.517 207.166 177.349L206.939 176.443ZM207.163 192.9L206.253 193.126C206.504 194.127 205.893 195.14 204.89 195.389L205.116 196.296L205.342 197.202C207.35 196.703 208.572 194.676 208.071 192.674L207.163 192.9ZM143.354 175.62L143.581 176.526C144.636 176.263 145.652 175.638 146.353 174.801C147.059 173.961 147.511 172.818 147.203 171.587L146.294 171.813L145.385 172.039C145.509 172.533 145.356 173.079 144.917 173.603C144.474 174.131 143.804 174.546 143.129 174.713L143.354 175.62ZM203.024 160.787L202.798 159.881C202.122 160.05 201.335 159.996 200.694 159.738C200.059 159.48 199.668 159.069 199.544 158.575L198.636 158.801L197.726 159.027C198.034 160.259 198.972 161.055 199.99 161.468C201.005 161.878 202.196 161.955 203.251 161.693L203.024 160.787Z" fill="black"/>
</g>
<path d="M94.5086 186.264C94.8383 187.554 93.7649 188.797 92.47 189.126C88.1398 190.227 85.5246 194.62 86.6284 198.937C87.7324 203.254 92.1375 205.862 96.4681 204.761C97.7625 204.432 99.3014 205.009 99.632 206.301L102.91 219.121C103.293 220.621 102.385 222.146 100.882 222.528L54.0551 234.429C52.5513 234.811 51.0215 233.907 50.6381 232.407L38.701 185.721C38.3177 184.222 39.2259 182.697 40.7298 182.315L54.0904 178.919C54.7342 178.756 55.3706 179.189 55.5347 179.831C56.9188 185.243 62.0818 188.605 67.0663 187.338C72.0508 186.071 74.9698 180.656 73.5859 175.243C73.4218 174.601 73.7723 173.917 74.416 173.753L87.556 170.413C89.0597 170.031 90.5896 170.937 90.9729 172.436L94.5086 186.264Z" fill="#F9D4AD"/>
<mask id="mask5_4363_4604" style="mask-type:luminance" maskUnits="userSpaceOnUse" x="38" y="170" width="65" height="65">
<path d="M94.5086 186.264C94.8383 187.554 93.7649 188.797 92.47 189.126C88.1398 190.227 85.5246 194.62 86.6284 198.937C87.7324 203.254 92.1375 205.862 96.4681 204.761C97.7625 204.432 99.3014 205.009 99.632 206.301L102.91 219.121C103.293 220.621 102.385 222.146 100.882 222.528L54.0551 234.429C52.5513 234.811 51.0215 233.907 50.6381 232.407L38.701 185.721C38.3177 184.222 39.2259 182.697 40.7298 182.315L54.0904 178.919C54.7342 178.756 55.3706 179.189 55.5347 179.831C56.9188 185.243 62.0818 188.605 67.0663 187.338C72.0508 186.071 74.9698 180.656 73.5859 175.243C73.4218 174.601 73.7723 173.917 74.416 173.753L87.556 170.413C89.0597 170.031 90.5896 170.937 90.9729 172.436L94.5086 186.264Z" fill="white"/>
</mask>
<g mask="url(#mask5_4363_4604)">
<path d="M92.4704 189.126L92.239 188.221C87.4073 189.45 84.4895 194.351 85.7211 199.167L86.6287 198.937L87.5364 198.706C86.5603 194.889 88.8728 191.005 92.7017 190.031L92.4704 189.126ZM86.6287 198.937L85.7211 199.167C86.953 203.985 91.8679 206.894 96.6997 205.666L96.4684 204.761L96.237 203.856C92.4077 204.829 88.5127 202.524 87.5364 198.706L86.6287 198.937ZM99.6324 206.301L98.7248 206.532L102.003 219.352L102.911 219.121L103.818 218.891L100.54 206.07L99.6324 206.301ZM100.882 222.528L100.65 221.623L53.8241 233.525L54.0554 234.43L54.2869 235.334L101.113 223.433L100.882 222.528ZM50.6385 232.407L51.5462 232.176L39.609 185.491L38.7014 185.721L37.7938 185.952L49.7309 232.638L50.6385 232.407ZM40.7301 182.315L40.9615 183.22L54.3222 179.824L54.0907 178.919L53.8594 178.014L40.4987 181.41L40.7301 182.315ZM55.535 179.831L54.6274 180.061C56.1202 185.9 61.7408 189.655 67.298 188.243L67.0666 187.338L66.8353 186.433C62.4234 187.554 57.7179 184.588 56.4426 179.6L55.535 179.831ZM67.0666 187.338L67.298 188.243C72.8553 186.831 75.9865 180.85 74.4938 175.012L73.5862 175.243L72.6786 175.474C73.9537 180.461 71.2471 185.311 66.8353 186.433L67.0666 187.338ZM74.4164 173.753L74.6477 174.658L87.7877 171.319L87.5563 170.413L87.3249 169.508L74.1849 172.849L74.4164 173.753ZM90.9732 172.436L90.0656 172.666L93.6012 186.494L94.5089 186.264L95.4166 186.033L91.8808 172.205L90.9732 172.436ZM87.5563 170.413L87.7877 171.319C88.7902 171.064 89.8101 171.667 90.0656 172.666L90.9732 172.436L91.8808 172.205C91.3697 170.207 89.33 168.999 87.3249 169.508L87.5563 170.413ZM73.5862 175.243L74.4938 175.012C74.4707 174.922 74.4853 174.831 74.522 174.764C74.5564 174.7 74.6009 174.67 74.6477 174.658L74.4164 173.753L74.1849 172.849C72.9735 173.157 72.4044 174.401 72.6786 175.474L73.5862 175.243ZM54.0907 178.919L54.3222 179.824C54.369 179.812 54.4225 179.818 54.4831 179.857C54.5478 179.898 54.6042 179.971 54.6274 180.061L55.535 179.831L56.4426 179.6C56.1684 178.528 55.0709 177.706 53.8594 178.014L54.0907 178.919ZM38.7014 185.721L39.609 185.491C39.3535 184.491 39.9589 183.475 40.9615 183.22L40.7301 182.315L40.4987 181.41C38.4937 181.92 37.2826 183.954 37.7938 185.952L38.7014 185.721ZM54.0554 234.43L53.8241 233.525C52.8216 233.78 51.8017 233.175 51.5462 232.176L50.6385 232.407L49.7309 232.638C50.242 234.637 52.2818 235.844 54.2869 235.334L54.0554 234.43ZM96.4684 204.761L96.6997 205.666C97.1446 205.553 97.6354 205.599 98.027 205.774C98.4091 205.947 98.6433 206.214 98.7248 206.532L99.6324 206.301L100.54 206.07C100.291 205.096 99.5902 204.429 98.7978 204.073C98.0129 203.719 97.0866 203.64 96.237 203.856L96.4684 204.761ZM102.911 219.121L102.003 219.352C102.259 220.352 101.653 221.369 100.65 221.623L100.882 222.528L101.113 223.433C103.119 222.924 104.33 220.89 103.818 218.891L102.911 219.121ZM92.4704 189.126L92.7017 190.031C93.5519 189.815 94.3272 189.303 94.8461 188.619C95.3707 187.926 95.6657 187.006 95.4166 186.033L94.5089 186.264L93.6012 186.494C93.6828 186.812 93.6051 187.158 93.3517 187.493C93.0928 187.835 92.6839 188.108 92.239 188.221L92.4704 189.126Z" fill="black"/>
</g>
<mask id="mask6_4363_4604" style="mask-type:alpha" maskUnits="userSpaceOnUse" x="25" y="78" width="220" height="157">
<path d="M80.9529 132.007C81.3843 133.733 83.6118 134.424 85.3421 133.994C89.6781 132.917 94.0692 135.547 95.1501 139.87C96.2319 144.193 93.5931 148.572 89.2573 149.649C87.5268 150.08 85.8855 151.732 86.317 153.457L89.4805 166.106C89.8559 167.608 88.9395 169.128 87.4337 169.503L74.746 172.656C73.0156 173.087 72.3232 175.307 72.7546 177.032C73.8355 181.356 71.1963 185.733 66.8602 186.811C62.5243 187.89 58.1331 185.258 57.0519 180.935C56.6203 179.211 54.9628 177.575 53.2324 178.004L40.5444 181.159C39.0387 181.533 37.5137 180.619 37.1382 179.118L25.4474 132.369C25.072 130.868 25.9883 129.348 27.4941 128.973L74.3833 117.318C75.8892 116.943 77.4142 117.857 77.7896 119.358L80.9529 132.007Z" fill="#F9D4AD"/>
<mask id="mask7_4363_4604" style="mask-type:alpha" maskUnits="userSpaceOnUse" x="25" y="117" width="71" height="71">
<path d="M80.9529 132.007C81.3843 133.733 83.6118 134.424 85.3421 133.994C89.6781 132.917 94.0692 135.547 95.1501 139.87C96.2319 144.193 93.5931 148.572 89.2573 149.649C87.5268 150.08 85.8855 151.732 86.317 153.457L89.4805 166.106C89.8559 167.608 88.9395 169.128 87.4337 169.503L74.746 172.656C73.0156 173.087 72.3232 175.307 72.7546 177.032C73.8355 181.356 71.1963 185.733 66.8602 186.811C62.5243 187.89 58.1331 185.258 57.0519 180.935C56.6203 179.211 54.9628 177.575 53.2324 178.004L40.5444 181.159C39.0387 181.533 37.5137 180.619 37.1382 179.118L25.4474 132.369C25.072 130.868 25.9883 129.348 27.4941 128.973L74.3833 117.318C75.8892 116.943 77.4142 117.857 77.7896 119.358L80.9529 132.007Z" fill="white"/>
</mask>
<g mask="url(#mask7_4363_4604)">
<path d="M85.3424 133.994L85.569 134.9C89.4031 133.947 93.2861 136.273 94.2419 140.096L95.1504 139.87L96.0599 139.644C94.8535 134.821 89.9538 131.886 85.1159 133.088L85.3424 133.994ZM95.1504 139.87L94.2419 140.096C95.1982 143.919 92.8649 147.79 89.0309 148.744L89.2576 149.649L89.4842 150.556C94.3224 149.353 97.2663 144.468 96.0599 139.644L95.1504 139.87ZM86.3173 153.457L85.4086 153.683L88.572 166.332L89.4808 166.106L90.3895 165.88L87.2261 153.231L86.3173 153.457ZM87.434 169.503L87.2075 168.597L74.5198 171.75L74.7463 172.656L74.9729 173.563L87.6607 170.408L87.434 169.503ZM72.7549 177.032L71.8461 177.258C72.8019 181.081 70.4682 184.952 66.634 185.905L66.8606 186.811L67.0872 187.718C71.9251 186.515 74.8698 181.63 73.6638 176.806L72.7549 177.032ZM66.8606 186.811L66.634 185.905C62.8 186.859 58.9171 184.532 57.9609 180.709L57.0522 180.935L56.1434 181.161C57.3498 185.985 62.2492 188.92 67.0872 187.718L66.8606 186.811ZM53.2328 178.004L53.0062 177.098L40.3182 180.252L40.5448 181.158L40.7714 182.064L53.4593 178.911L53.2328 178.004ZM37.1386 179.118L38.0474 178.892L26.3566 132.143L25.4477 132.369L24.5389 132.595L36.2298 179.344L37.1386 179.118ZM27.4944 128.973L27.7211 129.879L74.6103 118.224L74.3837 117.318L74.1571 116.412L27.2678 128.067L27.4944 128.973ZM77.7899 119.358L76.8811 119.584L80.0444 132.233L80.9532 132.007L81.8621 131.781L78.6988 119.132L77.7899 119.358ZM74.3837 117.318L74.6103 118.224C75.6141 117.974 76.6309 118.583 76.8811 119.584L77.7899 119.358L78.6988 119.132C78.1982 117.131 76.1648 115.913 74.1571 116.412L74.3837 117.318ZM25.4477 132.369L26.3566 132.143C26.1063 131.143 26.7172 130.129 27.7211 129.879L27.4944 128.973L27.2678 128.067C25.2601 128.566 24.0384 130.594 24.5389 132.595L25.4477 132.369ZM74.7463 172.656L74.5198 171.75C73.2848 172.057 72.4853 172.992 72.0719 174.007C71.6608 175.019 71.5833 176.206 71.8461 177.258L72.7549 177.032L73.6638 176.806C73.4953 176.133 73.5482 175.348 73.8079 174.71C74.0655 174.076 74.4774 173.686 74.9729 173.563L74.7463 172.656ZM89.2576 149.649L89.0309 148.744C87.9764 149.006 86.9604 149.632 86.2584 150.468C85.5528 151.309 85.1006 152.452 85.4086 153.683L86.3173 153.457L87.2261 153.231C87.1026 152.737 87.2553 152.191 87.6951 151.666C88.1385 151.139 88.8082 150.724 89.4842 150.556L89.2576 149.649ZM57.0522 180.935L57.9609 180.709C57.698 179.658 57.0696 178.646 56.2305 177.945C55.3871 177.242 54.2411 176.791 53.0062 177.098L53.2328 178.004L53.4593 178.911C53.9549 178.788 54.5028 178.94 55.0286 179.378C55.5587 179.82 55.9749 180.488 56.1434 181.161L57.0522 180.935ZM89.4808 166.106L88.572 166.332C88.8222 167.333 88.2114 168.347 87.2075 168.597L87.434 169.503L87.6607 170.408C89.6684 169.91 90.8901 167.882 90.3895 165.88L89.4808 166.106ZM40.5448 181.158L40.3182 180.252C39.3144 180.502 38.2977 179.892 38.0474 178.892L37.1386 179.118L36.2298 179.344C36.7303 181.345 38.7637 182.563 40.7714 182.064L40.5448 181.158ZM85.3424 133.994L85.1159 133.088C84.4402 133.256 83.6536 133.203 83.0131 132.944C82.3778 132.687 81.9856 132.276 81.8621 131.781L80.9532 132.007L80.0444 132.233C80.3523 133.464 81.2896 134.262 82.3084 134.674C83.3221 135.084 84.5143 135.162 85.569 134.9L85.3424 133.994Z" fill="black"/>
</g>
<path d="M244.57 127.555C244.945 129.056 244.029 130.577 242.523 130.951L230.847 133.854C229.103 134.287 228.387 136.498 228.822 138.238C229.903 142.561 227.452 146.893 223.346 147.913C219.242 148.932 215.038 146.256 213.958 141.932C213.522 140.193 211.849 138.576 210.105 139.01L198.429 141.912C196.923 142.286 195.398 141.373 195.022 139.872L191.813 127.034C191.407 125.415 192.98 123.867 194.604 123.464C198.708 122.443 201.159 118.111 200.077 113.788C198.997 109.465 194.793 106.788 190.689 107.808C189.064 108.212 186.947 107.579 186.542 105.96L183.332 93.1232C182.957 91.622 183.873 90.1016 185.379 89.7273L229.473 78.7664C230.979 78.3921 232.504 79.3056 232.88 80.8069L244.57 127.555Z" fill="#F9D4AD"/>
<mask id="mask8_4363_4604" style="mask-type:alpha" maskUnits="userSpaceOnUse" x="183" y="78" width="62" height="71">
<path d="M244.57 127.555C244.945 129.056 244.029 130.577 242.523 130.951L230.847 133.854C229.103 134.287 228.387 136.498 228.822 138.238C229.903 142.561 227.452 146.893 223.346 147.913C219.242 148.932 215.038 146.256 213.958 141.932C213.522 140.193 211.849 138.576 210.105 139.01L198.429 141.912C196.923 142.286 195.398 141.373 195.022 139.872L191.813 127.034C191.407 125.415 192.98 123.867 194.604 123.464C198.708 122.443 201.159 118.111 200.077 113.788C198.997 109.465 194.793 106.788 190.689 107.808C189.064 108.212 186.947 107.579 186.542 105.96L183.332 93.1232C182.957 91.622 183.873 90.1016 185.379 89.7273L229.473 78.7664C230.979 78.3921 232.504 79.3056 232.88 80.8069L244.57 127.555Z" fill="white"/>
</mask>
<g mask="url(#mask8_4363_4604)">
<path d="M242.523 130.951L242.296 130.045L230.621 132.947L230.847 133.854L231.073 134.76L242.75 131.857L242.523 130.951ZM228.822 138.238L227.913 138.463C228.881 142.334 226.676 146.122 223.12 147.007L223.346 147.912L223.573 148.818C228.226 147.662 230.926 142.788 229.731 138.012L228.822 138.238ZM223.346 147.912L223.12 147.007C219.564 147.89 215.833 145.577 214.866 141.706L213.957 141.932L213.048 142.158C214.243 146.935 218.921 149.975 223.573 148.818L223.346 147.912ZM210.105 139.01L209.878 138.104L198.202 141.006L198.429 141.912L198.655 142.818L210.332 139.916L210.105 139.01ZM195.022 139.872L195.932 139.646L192.721 126.808L191.812 127.034L190.903 127.26L194.114 140.098L195.022 139.872ZM194.604 123.464L194.829 124.37C199.482 123.213 202.181 118.338 200.987 113.562L200.077 113.788L199.169 114.014C200.136 117.884 197.932 121.673 194.377 122.557L194.604 123.464ZM200.077 113.788L200.987 113.562C199.792 108.786 195.114 105.745 190.462 106.902L190.688 107.808L190.914 108.714C194.471 107.83 198.201 110.144 199.169 114.014L200.077 113.788ZM186.542 105.96L187.45 105.734L184.241 92.8973L183.332 93.1232L182.423 93.3492L185.633 106.186L186.542 105.96ZM185.379 89.7273L185.605 90.6334L229.699 79.6724L229.473 78.7663L229.246 77.8602L185.152 88.8212L185.379 89.7273ZM232.879 80.8068L231.97 81.0327L243.661 127.781L244.57 127.555L245.479 127.329L233.788 80.5809L232.879 80.8068ZM229.473 78.7663L229.699 79.6724C230.704 79.4229 231.72 80.0319 231.97 81.0327L232.879 80.8068L233.788 80.5809C233.288 78.5793 231.254 77.3612 229.246 77.8602L229.473 78.7663ZM191.812 127.034L192.721 126.808C192.612 126.374 192.747 125.883 193.16 125.398C193.577 124.909 194.205 124.525 194.829 124.37L194.604 123.464L194.377 122.557C193.378 122.806 192.407 123.397 191.733 124.188C191.056 124.983 190.607 126.075 190.903 127.26L191.812 127.034ZM198.429 141.912L198.202 141.006C197.198 141.256 196.182 140.647 195.932 139.646L195.022 139.872L194.114 140.098C194.614 142.099 196.647 143.317 198.655 142.818L198.429 141.912ZM183.332 93.1232L184.241 92.8973C183.991 91.8965 184.601 90.8829 185.605 90.6334L185.379 89.7273L185.152 88.8212C183.144 89.3202 181.922 91.3474 182.423 93.3492L183.332 93.1232ZM230.847 133.854L230.621 132.947C229.386 133.255 228.575 134.181 228.152 135.198C227.732 136.21 227.648 137.403 227.913 138.463L228.822 138.238L229.731 138.012C229.562 137.333 229.618 136.55 229.883 135.913C230.145 135.282 230.565 134.886 231.073 134.76L230.847 133.854ZM213.957 141.932L214.866 141.706C214.601 140.645 213.966 139.632 213.118 138.936C212.265 138.235 211.114 137.796 209.878 138.104L210.105 139.01L210.332 139.916C210.84 139.789 211.398 139.943 211.926 140.377C212.46 140.815 212.878 141.48 213.048 142.158L213.957 141.932ZM190.688 107.808L190.462 106.902C189.836 107.057 189.102 107.011 188.503 106.775C187.91 106.54 187.559 106.169 187.45 105.734L186.542 105.96L185.633 106.186C185.929 107.371 186.84 108.125 187.812 108.51C188.78 108.894 189.916 108.962 190.914 108.714L190.688 107.808ZM242.523 130.951L242.75 131.857C244.758 131.358 245.979 129.331 245.479 127.329L244.57 127.555L243.661 127.781C243.911 128.782 243.3 129.795 242.296 130.045L242.523 130.951Z" fill="black"/>
</g>
<path d="M132.396 119.364C132.808 121.011 131.217 122.589 129.565 123C125.397 124.036 122.893 128.38 123.975 132.703C125.056 137.026 129.312 139.691 133.48 138.655C135.133 138.244 137.279 138.891 137.691 140.539L140.889 153.326C141.264 154.827 140.348 156.348 138.842 156.722L126.889 159.694C125.148 160.126 124.439 162.339 124.873 164.075C125.954 168.398 123.451 172.742 119.283 173.779C115.115 174.814 110.861 172.15 109.779 167.827C109.345 166.091 107.676 164.469 105.936 164.902L93.9818 167.873C92.4761 168.247 90.9511 167.334 90.5757 165.833L87.3781 153.046C86.9659 151.398 88.5567 149.822 90.2097 149.411C94.378 148.375 96.8807 144.03 95.7998 139.707C94.718 135.384 90.4625 132.72 86.2945 133.756C84.6417 134.167 82.4946 133.518 82.0824 131.87L78.8849 119.084C78.5094 117.583 79.4257 116.063 80.9316 115.688L125.792 104.537C127.298 104.163 128.823 105.076 129.198 106.577L132.396 119.364Z" fill="#F9D4AD"/>
<mask id="mask9_4363_4604" style="mask-type:alpha" maskUnits="userSpaceOnUse" x="78" y="104" width="63" height="71">
<path d="M132.396 119.364C132.808 121.011 131.217 122.589 129.565 123C125.397 124.036 122.893 128.38 123.975 132.703C125.056 137.026 129.312 139.691 133.48 138.655C135.133 138.244 137.279 138.891 137.691 140.539L140.889 153.326C141.264 154.827 140.348 156.348 138.842 156.722L126.889 159.694C125.148 160.126 124.439 162.339 124.873 164.075C125.954 168.398 123.451 172.742 119.283 173.779C115.115 174.814 110.861 172.15 109.779 167.827C109.345 166.091 107.676 164.469 105.936 164.902L93.9818 167.873C92.4761 168.247 90.9511 167.334 90.5757 165.833L87.3781 153.046C86.9659 151.398 88.5567 149.822 90.2097 149.411C94.378 148.375 96.8807 144.03 95.7998 139.707C94.718 135.384 90.4625 132.72 86.2945 133.756C84.6417 134.167 82.4946 133.518 82.0824 131.87L78.8849 119.084C78.5094 117.583 79.4257 116.063 80.9316 115.688L125.792 104.537C127.298 104.163 128.823 105.076 129.198 106.577L132.396 119.364Z" fill="white"/>
</mask>
<g mask="url(#mask9_4363_4604)">
<path d="M129.565 123L129.338 122.094C124.635 123.263 121.869 128.14 123.066 132.929L123.975 132.703L124.884 132.477C123.919 128.621 126.158 124.809 129.792 123.906L129.565 123ZM123.975 132.703L123.066 132.929C124.264 137.719 129.003 140.731 133.707 139.561L133.48 138.655L133.254 137.749C129.62 138.652 125.848 136.334 124.884 132.477L123.975 132.703ZM137.691 140.539L136.783 140.765L139.98 153.552L140.889 153.326L141.798 153.1L138.601 140.313L137.691 140.539ZM138.842 156.722L138.616 155.815L126.662 158.787L126.889 159.694L127.116 160.599L139.069 157.628L138.842 156.722ZM124.873 164.075L123.965 164.301C124.929 168.158 122.689 171.97 119.057 172.873L119.284 173.779L119.51 174.684C124.214 173.515 126.98 168.639 125.783 163.849L124.873 164.075ZM119.284 173.779L119.057 172.873C115.425 173.775 111.653 171.458 110.688 167.601L109.779 167.827L108.871 168.053C110.069 172.842 114.806 175.853 119.51 174.684L119.284 173.779ZM105.936 164.902L105.71 163.996L93.7554 166.967L93.9821 167.873L94.2088 168.779L106.163 165.807L105.936 164.902ZM90.576 165.833L91.4848 165.607L88.2873 152.82L87.3784 153.046L86.4696 153.272L89.6672 166.059L90.576 165.833ZM90.21 149.411L90.4366 150.317C95.1398 149.148 97.9066 144.271 96.7087 139.481L95.8001 139.707L94.8907 139.933C95.8554 143.79 93.6161 147.602 89.9834 148.506L90.21 149.411ZM95.8001 139.707L96.7087 139.481C95.5107 134.691 90.7717 131.68 86.0683 132.85L86.2948 133.756L86.5214 134.662C90.1542 133.759 93.9269 136.076 94.8907 139.933L95.8001 139.707ZM82.0828 131.87L82.9916 131.644L79.7941 118.858L78.8853 119.084L77.9765 119.31L81.1739 132.096L82.0828 131.87ZM80.9319 115.688L81.1585 116.594L126.019 105.443L125.792 104.537L125.566 103.631L80.7054 114.782L80.9319 115.688ZM129.199 106.577L128.289 106.803L131.487 119.589L132.396 119.364L133.305 119.138L130.107 106.352L129.199 106.577ZM125.792 104.537L126.019 105.443C127.023 105.194 128.039 105.803 128.289 106.803L129.199 106.577L130.107 106.352C129.607 104.35 127.574 103.132 125.566 103.631L125.792 104.537ZM87.3784 153.046L88.2873 152.82C88.1746 152.37 88.3143 151.864 88.7348 151.368C89.1584 150.869 89.7974 150.476 90.4366 150.317L90.21 149.411L89.9834 148.506C88.9697 148.758 87.9867 149.358 87.3047 150.161C86.6196 150.969 86.1701 152.075 86.4696 153.272L87.3784 153.046ZM78.8853 119.084L79.7941 118.858C79.5437 117.858 80.1546 116.844 81.1585 116.594L80.9319 115.688L80.7054 114.782C78.6976 115.281 77.4758 117.309 77.9765 119.31L78.8853 119.084ZM126.889 159.694L126.662 158.787C125.427 159.094 124.62 160.022 124.2 161.04C123.782 162.052 123.7 163.243 123.965 164.301L124.873 164.075L125.783 163.849C125.613 163.171 125.669 162.389 125.932 161.751C126.192 161.12 126.61 160.725 127.116 160.599L126.889 159.694ZM133.48 138.655L133.707 139.561C134.346 139.403 135.095 139.45 135.704 139.692C136.308 139.933 136.67 140.315 136.783 140.765L137.691 140.539L138.601 140.313C138.301 139.116 137.383 138.35 136.399 137.958C135.418 137.568 134.267 137.497 133.254 137.749L133.48 138.655ZM109.779 167.827L110.688 167.601C110.424 166.543 109.791 165.529 108.945 164.832C108.095 164.13 106.945 163.689 105.71 163.996L105.936 164.902L106.163 165.807C106.668 165.682 107.223 165.835 107.751 166.271C108.284 166.71 108.701 167.375 108.871 168.053L109.779 167.827ZM86.2948 133.756L86.0683 132.85C85.4295 133.008 84.6804 132.961 84.0712 132.718C83.4664 132.477 83.1043 132.095 82.9916 131.644L82.0828 131.87L81.1739 132.096C81.4734 133.294 82.3909 134.06 83.376 134.452C84.3565 134.843 85.5074 134.914 86.5214 134.662L86.2948 133.756ZM140.889 153.326L139.98 153.552C140.231 154.553 139.62 155.566 138.616 155.815L138.842 156.722L139.069 157.628C141.077 157.128 142.299 155.102 141.798 153.1L140.889 153.326ZM93.9821 167.873L93.7554 166.967C92.7518 167.217 91.7351 166.608 91.4848 165.607L90.576 165.833L89.6672 166.059C90.1678 168.06 92.2012 169.278 94.2088 168.779L93.9821 167.873ZM129.565 123L129.792 123.906C130.805 123.654 131.789 123.052 132.47 122.248C133.155 121.441 133.605 120.335 133.305 119.138L132.396 119.364L131.487 119.589C131.6 120.04 131.46 120.547 131.039 121.043C130.616 121.542 129.977 121.935 129.338 122.094L129.565 123Z" fill="black"/>
</g>
<path d="M185.467 106.026C185.898 107.751 188.126 108.442 189.856 108.012C194.191 106.935 198.583 109.565 199.664 113.888C200.745 118.211 198.107 122.59 193.771 123.668C192.041 124.098 190.399 125.75 190.831 127.475L193.994 140.125C194.369 141.626 193.453 143.146 191.947 143.521L179.259 146.674C177.53 147.105 176.836 149.325 177.268 151.05C178.349 155.373 175.71 159.752 171.374 160.829C167.038 161.907 162.646 159.276 161.565 154.954C161.134 153.229 159.477 151.592 157.746 152.022L145.058 155.177C143.552 155.55 142.027 154.637 141.652 153.135L138.489 140.485C138.057 138.76 135.83 138.071 134.1 138.501C129.765 139.578 125.372 136.947 124.291 132.624C123.21 128.301 125.85 123.923 130.185 122.845C131.915 122.415 133.556 120.762 133.124 119.038L129.961 106.387C129.586 104.886 130.502 103.366 132.008 102.992L178.897 91.3358C180.403 90.9615 181.928 91.8751 182.304 93.3763L185.467 106.026Z" fill="#F9D4AD"/>
<mask id="mask10_4363_4604" style="mask-type:alpha" maskUnits="userSpaceOnUse" x="124" y="91" width="76" height="71">
<path d="M185.467 106.026C185.898 107.751 188.126 108.442 189.856 108.012C194.191 106.935 198.583 109.565 199.664 113.888C200.745 118.211 198.107 122.59 193.771 123.668C192.041 124.098 190.399 125.75 190.831 127.475L193.994 140.125C194.369 141.626 193.453 143.146 191.947 143.521L179.259 146.674C177.53 147.105 176.836 149.325 177.268 151.05C178.349 155.373 175.71 159.752 171.374 160.829C167.038 161.907 162.646 159.276 161.565 154.954C161.134 153.229 159.477 151.592 157.746 152.022L145.058 155.177C143.552 155.55 142.027 154.637 141.652 153.135L138.489 140.485C138.057 138.76 135.83 138.071 134.1 138.501C129.765 139.578 125.372 136.947 124.291 132.624C123.21 128.301 125.85 123.923 130.185 122.845C131.915 122.415 133.556 120.762 133.124 119.038L129.961 106.387C129.586 104.886 130.502 103.366 132.008 102.992L178.897 91.3358C180.403 90.9615 181.928 91.8751 182.304 93.3763L185.467 106.026Z" fill="white"/>
</mask>
<g mask="url(#mask10_4363_4604)">
<path d="M189.856 108.012L190.083 108.918C193.916 107.965 197.8 110.291 198.756 114.114L199.664 113.888L200.573 113.662C199.367 108.839 194.467 105.904 189.629 107.106L189.856 108.012ZM199.664 113.888L198.756 114.114C199.711 117.937 197.378 121.808 193.544 122.762L193.771 123.668L193.998 124.574C198.835 123.371 201.779 118.485 200.573 113.662L199.664 113.888ZM190.831 127.475L189.922 127.701L193.085 140.35L193.994 140.125L194.903 139.899L191.739 127.249L190.831 127.475ZM191.947 143.521L191.721 142.615L179.033 145.768L179.26 146.674L179.486 147.581L192.174 144.427L191.947 143.521ZM177.268 151.05L176.36 151.276C177.315 155.098 174.982 158.97 171.147 159.923L171.374 160.829L171.601 161.736C176.439 160.533 179.383 155.647 178.177 150.824L177.268 151.05ZM171.374 160.829L171.147 159.923C167.314 160.876 163.431 158.55 162.474 154.728L161.566 154.954L160.657 155.18C161.864 160.003 166.763 162.938 171.601 161.736L171.374 160.829ZM157.746 152.022L157.519 151.116L144.832 154.27L145.058 155.177L145.285 156.083L157.973 152.928L157.746 152.022ZM141.652 153.135L142.561 152.909L139.397 140.259L138.489 140.485L137.579 140.711L140.743 153.361L141.652 153.135ZM134.101 138.501L133.874 137.595C130.04 138.548 126.156 136.221 125.2 132.398L124.291 132.624L123.383 132.85C124.589 137.674 129.49 140.609 134.327 139.407L134.101 138.501ZM124.291 132.624L125.2 132.398C124.244 128.576 126.577 124.704 130.412 123.751L130.185 122.845L129.959 121.939C125.121 123.141 122.176 128.026 123.383 132.85L124.291 132.624ZM133.125 119.037L134.034 118.812L130.87 106.162L129.962 106.387L129.052 106.613L132.216 119.263L133.125 119.037ZM132.008 102.991L132.235 103.897L179.124 92.2419L178.897 91.3358L178.671 90.4297L131.781 102.085L132.008 102.991ZM182.304 93.3763L181.394 93.6022L184.558 106.251L185.467 106.025L186.375 105.8L183.212 93.1504L182.304 93.3763ZM178.897 91.3358L179.124 92.2419C180.128 91.9924 181.144 92.6014 181.394 93.6022L182.304 93.3763L183.212 93.1504C182.712 91.1487 180.679 89.9307 178.671 90.4297L178.897 91.3358ZM138.489 140.485L139.397 140.259C139.089 139.028 138.152 138.231 137.133 137.819C136.12 137.41 134.929 137.332 133.874 137.595L134.101 138.501L134.327 139.407C135.004 139.239 135.789 139.291 136.43 139.55C137.064 139.807 137.457 140.217 137.579 140.711L138.489 140.485ZM129.962 106.387L130.87 106.162C130.62 105.161 131.231 104.147 132.235 103.897L132.008 102.991L131.781 102.085C129.773 102.584 128.552 104.612 129.052 106.613L129.962 106.387ZM179.26 146.674L179.033 145.768C177.799 146.076 176.999 147.009 176.586 148.025C176.174 149.036 176.097 150.225 176.36 151.276L177.268 151.05L178.177 150.824C178.008 150.15 178.062 149.366 178.321 148.728C178.579 148.095 178.991 147.703 179.486 147.581L179.26 146.674ZM193.771 123.668L193.544 122.762C192.49 123.024 191.473 123.65 190.772 124.487C190.067 125.327 189.614 126.47 189.922 127.701L190.831 127.475L191.739 127.249C191.616 126.755 191.769 126.209 192.209 125.685C192.652 125.157 193.321 124.742 193.998 124.574L193.771 123.668ZM161.566 154.954L162.474 154.728C162.212 153.676 161.583 152.663 160.744 151.963C159.9 151.26 158.755 150.809 157.519 151.116L157.746 152.022L157.973 152.928C158.468 152.805 159.016 152.957 159.543 153.396C160.073 153.838 160.489 154.505 160.657 155.18L161.566 154.954ZM130.185 122.845L130.412 123.751C131.467 123.489 132.482 122.862 133.185 122.026C133.89 121.185 134.341 120.042 134.034 118.812L133.125 119.037L132.216 119.263C132.34 119.757 132.187 120.303 131.747 120.828C131.304 121.356 130.634 121.771 129.959 121.939L130.185 122.845ZM193.994 140.125L193.085 140.35C193.336 141.351 192.725 142.365 191.721 142.615L191.947 143.521L192.174 144.427C194.182 143.928 195.404 141.901 194.903 139.899L193.994 140.125ZM145.058 155.177L144.832 154.27C143.828 154.519 142.811 153.91 142.561 152.909L141.652 153.135L140.743 153.361C141.244 155.363 143.277 156.581 145.285 156.083L145.058 155.177ZM189.856 108.012L189.629 107.106C188.954 107.274 188.167 107.221 187.526 106.962C186.891 106.705 186.499 106.294 186.375 105.8L185.467 106.025L184.558 106.251C184.865 107.482 185.803 108.28 186.822 108.692C187.836 109.103 189.028 109.18 190.083 108.918L189.856 108.012Z" fill="black"/>
</g>
<path d="M198.636 158.805C199.067 160.53 201.294 161.221 203.024 160.791C207.361 159.713 211.752 162.345 212.834 166.667C213.914 170.99 211.276 175.369 206.939 176.446C205.209 176.877 203.568 178.529 203.999 180.254L207.163 192.903C207.539 194.405 206.622 195.925 205.117 196.3L158.227 207.955C156.722 208.329 155.197 207.416 154.822 205.914L151.658 193.264C151.227 191.539 149.001 190.849 147.27 191.279C142.934 192.357 138.542 189.726 137.461 185.404C136.379 181.08 139.019 176.701 143.355 175.624C145.085 175.193 146.726 173.541 146.295 171.817L143.131 159.167C142.755 157.665 143.672 156.145 145.177 155.771L157.564 152.692C158.508 152.456 159.428 153.134 159.664 154.075C161.04 159.58 166.429 162.98 171.699 161.67C176.97 160.359 180.126 154.835 178.749 149.331C178.514 148.39 179.008 147.362 179.952 147.126L192.066 144.116C193.572 143.741 195.096 144.654 195.472 146.156L198.636 158.805Z" fill="#F9D4AD"/>
<mask id="mask11_4363_4604" style="mask-type:alpha" maskUnits="userSpaceOnUse" x="137" y="144" width="77" height="65">
<path d="M198.636 158.805C199.067 160.53 201.294 161.221 203.024 160.791C207.361 159.713 211.752 162.345 212.834 166.667C213.914 170.99 211.276 175.369 206.939 176.446C205.209 176.877 203.568 178.529 203.999 180.254L207.163 192.903C207.539 194.405 206.622 195.925 205.117 196.3L158.227 207.955C156.722 208.329 155.197 207.416 154.822 205.914L151.658 193.264C151.227 191.539 149.001 190.849 147.27 191.279C142.934 192.357 138.542 189.726 137.461 185.404C136.379 181.08 139.019 176.701 143.355 175.624C145.085 175.193 146.726 173.541 146.295 171.817L143.131 159.167C142.755 157.665 143.672 156.145 145.177 155.771L157.564 152.692C158.508 152.456 159.428 153.134 159.664 154.075C161.04 159.58 166.429 162.98 171.699 161.67C176.97 160.359 180.126 154.835 178.749 149.331C178.514 148.39 179.008 147.362 179.952 147.126L192.066 144.116C193.572 143.741 195.096 144.654 195.472 146.156L198.636 158.805Z" fill="white"/>
</mask>
<g mask="url(#mask11_4363_4604)">
<path d="M203.024 160.791L203.251 161.697C207.085 160.744 210.968 163.07 211.924 166.893L212.833 166.667L213.742 166.441C212.535 161.618 207.636 158.682 202.798 159.885L203.024 160.791ZM212.833 166.667L211.924 166.893C212.88 170.716 210.547 174.587 206.712 175.541L206.939 176.446L207.166 177.352C212.003 176.149 214.948 171.265 213.742 166.441L212.833 166.667ZM203.999 180.254L203.09 180.48L206.253 193.129L207.163 192.903L208.071 192.677L204.908 180.028L203.999 180.254ZM205.116 196.3L204.89 195.393L158.001 207.049L158.227 207.955L158.454 208.86L205.342 197.205L205.116 196.3ZM154.822 205.914L155.73 205.688L152.566 193.038L151.658 193.264L150.749 193.49L153.912 206.14L154.822 205.914ZM147.27 191.279L147.044 190.373C143.209 191.326 139.326 189 138.37 185.178L137.461 185.404L136.552 185.63C137.758 190.453 142.658 193.388 147.496 192.185L147.27 191.279ZM137.461 185.404L138.37 185.178C137.413 181.355 139.747 177.483 143.581 176.53L143.354 175.624L143.129 174.717C138.29 175.92 135.345 180.806 136.552 185.63L137.461 185.404ZM146.294 171.817L147.203 171.591L144.04 158.941L143.131 159.167L142.222 159.393L145.385 172.043L146.294 171.817ZM145.177 155.771L145.404 156.676L157.791 153.598L157.564 152.692L157.337 151.785L144.95 154.865L145.177 155.771ZM159.664 154.075L158.755 154.301C160.247 160.265 166.114 164.02 171.926 162.575L171.699 161.67L171.472 160.764C166.743 161.939 161.834 158.893 160.573 153.849L159.664 154.075ZM171.699 161.67L171.926 162.575C177.737 161.131 181.15 155.069 179.658 149.105L178.749 149.331L177.84 149.557C179.101 154.601 176.201 159.588 171.472 160.764L171.699 161.67ZM179.952 147.126L180.178 148.033L192.293 145.021L192.066 144.116L191.84 143.209L179.725 146.22L179.952 147.126ZM195.472 146.156L194.563 146.382L197.726 159.031L198.636 158.805L199.544 158.579L196.381 145.93L195.472 146.156ZM157.564 152.692L157.791 153.598C158.135 153.512 158.619 153.756 158.755 154.301L159.664 154.075L160.573 153.849C160.238 152.511 158.882 151.401 157.337 151.785L157.564 152.692ZM143.131 159.167L144.04 158.941C143.789 157.94 144.401 156.927 145.404 156.676L145.177 155.771L144.95 154.865C142.943 155.364 141.722 157.391 142.222 159.393L143.131 159.167ZM192.066 144.116L192.293 145.021C193.296 144.772 194.313 145.381 194.563 146.382L195.472 146.156L196.381 145.93C195.88 143.928 193.847 142.71 191.84 143.209L192.066 144.116ZM151.658 193.264L152.566 193.038C152.259 191.807 151.321 191.009 150.303 190.598C149.29 190.188 148.098 190.111 147.044 190.373L147.27 191.279L147.496 192.185C148.172 192.017 148.958 192.069 149.599 192.329C150.234 192.586 150.626 192.996 150.749 193.49L151.658 193.264ZM178.749 149.331L179.658 149.105C179.522 148.56 179.834 148.118 180.178 148.033L179.952 147.126L179.725 146.22C178.18 146.604 177.505 148.219 177.84 149.557L178.749 149.331ZM158.227 207.955L158.001 207.049C156.997 207.298 155.98 206.689 155.73 205.688L154.822 205.914L153.912 206.14C154.413 208.141 156.447 209.36 158.454 208.86L158.227 207.955ZM206.939 176.446L206.713 175.541C205.659 175.802 204.642 176.429 203.94 177.265C203.235 178.106 202.782 179.248 203.09 180.48L203.999 180.254L204.908 180.028C204.785 179.534 204.937 178.987 205.377 178.464C205.821 177.935 206.49 177.52 207.166 177.352L206.939 176.446ZM207.163 192.903L206.253 193.129C206.504 194.13 205.893 195.143 204.89 195.393L205.116 196.3L205.342 197.205C207.35 196.707 208.572 194.679 208.071 192.677L207.163 192.903ZM143.354 175.624L143.581 176.53C144.636 176.267 145.652 175.641 146.353 174.805C147.059 173.964 147.511 172.821 147.203 171.591L146.294 171.817L145.385 172.043C145.509 172.537 145.356 173.082 144.917 173.607C144.474 174.134 143.804 174.549 143.129 174.717L143.354 175.624ZM203.024 160.791L202.798 159.885C202.122 160.052 201.335 160 200.694 159.74C200.059 159.484 199.668 159.073 199.544 158.579L198.636 158.805L197.726 159.031C198.034 160.261 198.972 161.059 199.99 161.472C201.005 161.882 202.196 161.959 203.251 161.697L203.024 160.791Z" fill="black"/>
</g>
<path d="M94.5086 186.267C94.8383 187.558 93.7649 188.801 92.47 189.13C88.1398 190.231 85.5246 194.623 86.6284 198.94C87.7324 203.257 92.1375 205.866 96.4681 204.765C97.7625 204.436 99.3014 205.013 99.632 206.304L102.91 219.125C103.293 220.625 102.385 222.15 100.882 222.532L54.0551 234.433C52.5513 234.815 51.0215 233.91 50.6381 232.41L38.701 185.725C38.3177 184.226 39.2259 182.7 40.7298 182.318L54.0904 178.923C54.7342 178.759 55.3706 179.193 55.5347 179.834C56.9188 185.247 62.0818 188.609 67.0663 187.341C72.0508 186.074 74.9698 180.659 73.5859 175.246C73.4218 174.605 73.7723 173.92 74.416 173.757L87.556 170.417C89.0597 170.035 90.5896 170.941 90.9729 172.439L94.5086 186.267Z" fill="#F9D4AD"/>
<mask id="mask12_4363_4604" style="mask-type:alpha" maskUnits="userSpaceOnUse" x="38" y="170" width="65" height="65">
<path d="M94.5086 186.267C94.8383 187.558 93.7649 188.801 92.47 189.13C88.1398 190.231 85.5246 194.623 86.6284 198.94C87.7324 203.257 92.1375 205.866 96.4681 204.765C97.7625 204.436 99.3014 205.013 99.632 206.304L102.91 219.125C103.293 220.625 102.385 222.15 100.882 222.532L54.0551 234.433C52.5513 234.815 51.0215 233.91 50.6381 232.41L38.701 185.725C38.3177 184.226 39.2259 182.7 40.7298 182.318L54.0904 178.923C54.7342 178.759 55.3706 179.193 55.5347 179.834C56.9188 185.247 62.0818 188.609 67.0663 187.341C72.0508 186.074 74.9698 180.659 73.5859 175.246C73.4218 174.605 73.7723 173.92 74.416 173.757L87.556 170.417C89.0597 170.035 90.5896 170.941 90.9729 172.439L94.5086 186.267Z" fill="white"/>
</mask>
<g mask="url(#mask12_4363_4604)">
<path d="M92.4704 189.13L92.239 188.225C87.4073 189.453 84.4895 194.354 85.7211 199.171L86.6287 198.94L87.5364 198.71C86.5603 194.892 88.8728 191.008 92.7017 190.035L92.4704 189.13ZM86.6287 198.94L85.7211 199.171C86.953 203.988 91.8679 206.898 96.6997 205.67L96.4684 204.765L96.237 203.86C92.4077 204.833 88.5127 202.527 87.5364 198.71L86.6287 198.94ZM99.6324 206.305L98.7248 206.535L102.003 219.356L102.911 219.125L103.818 218.894L100.54 206.074L99.6324 206.305ZM100.882 222.532L100.65 221.627L53.8241 233.528L54.0554 234.433L54.2869 235.338L101.113 223.436L100.882 222.532ZM50.6385 232.411L51.5462 232.18L39.609 185.494L38.7014 185.725L37.7938 185.956L49.7309 232.641L50.6385 232.411ZM40.7301 182.318L40.9615 183.223L54.3222 179.828L54.0907 178.923L53.8594 178.018L40.4987 181.413L40.7301 182.318ZM55.535 179.834L54.6274 180.065C56.1202 185.903 61.7408 189.658 67.298 188.246L67.0666 187.341L66.8353 186.437C62.4234 187.558 57.7179 184.591 56.4426 179.604L55.535 179.834ZM67.0666 187.341L67.298 188.246C72.8553 186.834 75.9865 180.854 74.4938 175.016L73.5862 175.247L72.6786 175.477C73.9537 180.465 71.2471 185.315 66.8353 186.437L67.0666 187.341ZM74.4164 173.757L74.6477 174.662L87.7877 171.322L87.5563 170.417L87.3249 169.512L74.1849 172.852L74.4164 173.757ZM90.9732 172.439L90.0656 172.67L93.6012 186.498L94.5089 186.267L95.4166 186.036L91.8808 172.209L90.9732 172.439ZM87.5563 170.417L87.7877 171.322C88.7902 171.068 89.8101 171.671 90.0656 172.67L90.9732 172.439L91.8808 172.209C91.3697 170.21 89.33 169.003 87.3249 169.512L87.5563 170.417ZM73.5862 175.247L74.4938 175.016C74.4707 174.925 74.4853 174.835 74.522 174.767C74.5564 174.704 74.6009 174.673 74.6477 174.662L74.4164 173.757L74.1849 172.852C72.9735 173.159 72.4044 174.405 72.6786 175.477L73.5862 175.247ZM54.0907 178.923L54.3222 179.828C54.369 179.816 54.4225 179.821 54.4831 179.86C54.5478 179.902 54.6042 179.974 54.6274 180.065L55.535 179.834L56.4426 179.604C56.1684 178.532 55.0709 177.71 53.8594 178.018L54.0907 178.923ZM38.7014 185.725L39.609 185.494C39.3535 184.495 39.9589 183.478 40.9615 183.223L40.7301 182.318L40.4987 181.413C38.4937 181.923 37.2826 183.957 37.7938 185.956L38.7014 185.725ZM54.0554 234.433L53.8241 233.528C52.8216 233.783 51.8017 233.179 51.5462 232.18L50.6385 232.411L49.7309 232.641C50.242 234.64 52.2818 235.848 54.2869 235.338L54.0554 234.433ZM96.4684 204.765L96.6997 205.67C97.1446 205.557 97.6354 205.602 98.027 205.778C98.4091 205.951 98.6433 206.218 98.7248 206.535L99.6324 206.305L100.54 206.074C100.291 205.1 99.5902 204.433 98.7978 204.076C98.0129 203.723 97.0866 203.644 96.237 203.86L96.4684 204.765ZM102.911 219.125L102.003 219.356C102.259 220.356 101.653 221.372 100.65 221.627L100.882 222.532L101.113 223.436C103.119 222.928 104.33 220.894 103.818 218.894L102.911 219.125ZM92.4704 189.13L92.7017 190.035C93.5519 189.819 94.3272 189.307 94.8461 188.623C95.3707 187.93 95.6657 187.01 95.4166 186.036L94.5089 186.267L93.6012 186.498C93.6828 186.816 93.6051 187.162 93.3517 187.496C93.0928 187.838 92.6839 188.112 92.239 188.225L92.4704 189.13Z" fill="black"/>
</g>
</mask>
<g mask="url(#mask6_4363_4604)">
<path d="M158.077 141.783C163.096 140.536 166.1 135.265 164.786 130.01C163.472 124.756 158.338 121.508 153.319 122.756C148.299 124.003 145.296 129.274 146.61 134.529C147.924 139.783 153.058 143.031 158.077 141.783Z" fill="white"/>
<path d="M146.764 167.198C166.406 165.744 179.969 158.686 179.969 158.686C179.969 158.686 183.602 156.874 183.929 154.782C184.161 153.302 184.026 152.323 183.368 150.98C182.063 148.311 180.157 147.007 177.317 145.999C175.891 145.493 170.999 144.115 165.88 143.921L165.755 143.919C163.015 143.862 161.434 143.91 158.758 144.513C155.655 145.213 153.947 145.944 151.2 147.536C147.551 149.652 145.624 151.208 142.949 154.542C141.104 156.844 139.954 158.831 140.074 161.742C140.135 163.236 140.469 164.162 141.368 165.361C142.593 166.993 144.693 167.351 146.764 167.198Z" fill="white"/>
</g>
<g filter="url(#filter1_d_4363_4604)">
<path d="M297.091 196.282C297.608 198.349 295.634 200.308 293.53 200.682C293.287 200.725 293.043 200.776 292.8 200.837C286.748 202.341 283.115 208.648 284.684 214.925C286.253 221.201 292.432 225.07 298.483 223.565C298.727 223.505 298.966 223.436 299.201 223.361C301.235 222.705 303.901 223.51 304.418 225.578L309.548 246.093C309.923 247.594 309.007 249.115 307.501 249.489L239.908 266.291C238.403 266.666 236.878 265.752 236.503 264.251L231.372 243.736C230.855 241.668 228.19 240.863 226.156 241.518C225.921 241.594 225.682 241.662 225.438 241.723C219.387 243.227 213.209 239.359 211.639 233.083C210.069 226.806 213.703 220.499 219.754 218.994C219.997 218.934 220.241 218.882 220.484 218.839C222.589 218.466 224.563 216.507 224.046 214.439L218.916 193.925C218.54 192.423 219.456 190.903 220.962 190.529L238.013 186.29C238.767 186.103 239.513 186.605 239.701 187.355C241.645 195.128 249.241 199.931 256.669 198.085C264.096 196.239 268.542 188.441 266.599 180.669C266.412 179.918 266.834 179.126 267.587 178.939L288.555 173.727C290.06 173.353 291.586 174.266 291.961 175.768L297.091 196.282Z" fill="#F9D4AD"/>
<mask id="mask13_4363_4604" style="mask-type:luminance" maskUnits="userSpaceOnUse" x="211" y="173" width="99" height="94">
<path d="M297.091 196.282C297.608 198.349 295.634 200.308 293.53 200.682C293.287 200.725 293.043 200.776 292.8 200.837C286.748 202.341 283.115 208.648 284.684 214.925C286.253 221.201 292.432 225.07 298.483 223.565C298.727 223.505 298.966 223.436 299.201 223.361C301.235 222.705 303.901 223.51 304.418 225.578L309.548 246.093C309.923 247.594 309.007 249.115 307.501 249.489L239.908 266.291C238.403 266.666 236.878 265.752 236.503 264.251L231.372 243.736C230.855 241.668 228.19 240.863 226.156 241.518C225.921 241.594 225.682 241.662 225.438 241.723C219.387 243.227 213.209 239.359 211.639 233.083C210.069 226.806 213.703 220.499 219.754 218.994C219.997 218.934 220.241 218.882 220.484 218.839C222.589 218.466 224.563 216.507 224.046 214.439L218.916 193.925C218.54 192.423 219.456 190.903 220.962 190.529L238.013 186.29C238.767 186.103 239.513 186.605 239.701 187.355C241.645 195.128 249.241 199.931 256.669 198.085C264.096 196.239 268.542 188.441 266.599 180.669C266.412 179.918 266.834 179.126 267.587 178.939L288.555 173.727C290.06 173.353 291.586 174.266 291.961 175.768L297.091 196.282Z" fill="white"/>
</mask>
<g mask="url(#mask13_4363_4604)">
<path d="M293.531 200.682L293.366 199.762C293.102 199.809 292.837 199.866 292.573 199.931L292.8 200.837L293.027 201.743C293.25 201.688 293.472 201.64 293.694 201.601L293.531 200.682ZM292.8 200.837L292.573 199.931C285.987 201.568 282.089 208.408 283.775 215.151L284.685 214.925L285.593 214.699C284.141 208.889 287.511 203.115 293.027 201.743L292.8 200.837ZM284.685 214.925L283.775 215.151C285.462 221.894 292.124 226.109 298.71 224.471L298.483 223.565L298.257 222.66C292.741 224.03 287.046 220.509 285.593 214.699L284.685 214.925ZM298.483 223.565L298.71 224.471C298.974 224.406 299.235 224.332 299.489 224.249L299.202 223.361L298.914 222.472C298.699 222.542 298.48 222.604 298.257 222.66L298.483 223.565ZM304.418 225.578L303.509 225.804L308.639 246.319L309.548 246.093L310.457 245.867L305.327 225.353L304.418 225.578ZM307.501 249.489L307.275 248.583L239.682 265.385L239.909 266.292L240.136 267.197L307.728 250.395L307.501 249.489ZM236.503 264.251L237.412 264.025L232.282 243.51L231.372 243.736L230.464 243.962L235.594 264.477L236.503 264.251ZM226.156 241.518L225.869 240.63C225.653 240.699 225.435 240.762 225.212 240.817L225.439 241.723L225.665 242.629C225.93 242.563 226.189 242.489 226.445 242.407L226.156 241.518ZM225.439 241.723L225.212 240.817C219.696 242.188 214.001 238.666 212.548 232.857L211.639 233.083L210.731 233.308C212.417 240.051 219.078 244.266 225.665 242.629L225.439 241.723ZM211.639 233.083L212.548 232.857C211.095 227.047 214.465 221.272 219.981 219.901L219.754 218.994L219.528 218.088C212.941 219.725 209.044 226.566 210.731 233.308L211.639 233.083ZM219.754 218.994L219.981 219.901C220.204 219.845 220.427 219.798 220.65 219.758L220.485 218.839L220.321 217.919C220.056 217.967 219.792 218.023 219.528 218.088L219.754 218.994ZM224.046 214.439L224.955 214.213L219.825 193.699L218.916 193.925L218.007 194.151L223.137 214.665L224.046 214.439ZM220.963 190.529L221.189 191.435L238.24 187.197L238.013 186.29L237.786 185.384L220.736 189.623L220.963 190.529ZM239.702 187.355L238.792 187.581C240.851 195.812 248.926 200.972 256.896 198.992L256.669 198.085L256.442 197.179C249.558 198.89 242.44 194.443 240.61 187.129L239.702 187.355ZM256.669 198.085L256.896 198.992C264.867 197.01 269.567 188.674 267.508 180.443L266.599 180.669L265.691 180.895C267.519 188.209 263.328 195.468 256.442 197.179L256.669 198.085ZM267.587 178.939L267.814 179.845L288.782 174.633L288.555 173.727L288.328 172.82L267.361 178.033L267.587 178.939ZM291.962 175.768L291.052 175.994L296.183 196.508L297.092 196.282L298 196.056L292.87 175.542L291.962 175.768ZM238.013 186.29L238.24 187.197C238.437 187.147 238.717 187.275 238.792 187.581L239.702 187.355L240.61 187.129C240.312 185.934 239.096 185.059 237.786 185.384L238.013 186.29ZM218.916 193.925L219.825 193.699C219.574 192.698 220.185 191.685 221.189 191.435L220.963 190.529L220.736 189.623C218.729 190.121 217.506 192.149 218.007 194.151L218.916 193.925ZM288.555 173.727L288.782 174.633C289.786 174.384 290.802 174.993 291.052 175.994L291.962 175.768L292.87 175.542C292.369 173.539 290.336 172.322 288.328 172.82L288.555 173.727ZM231.372 243.736L232.282 243.51C231.931 242.106 230.86 241.191 229.67 240.735C228.487 240.281 227.091 240.236 225.869 240.63L226.156 241.518L226.445 242.407C227.256 242.146 228.21 242.176 228.997 242.477C229.777 242.777 230.298 243.297 230.464 243.962L231.372 243.736ZM266.599 180.669L267.508 180.443C267.432 180.136 267.617 179.894 267.814 179.845L267.587 178.939L267.361 178.033C266.051 178.358 265.392 179.7 265.691 180.895L266.599 180.669ZM239.909 266.292L239.682 265.385C238.679 265.635 237.662 265.025 237.412 264.025L236.503 264.251L235.594 264.477C236.095 266.478 238.128 267.696 240.136 267.197L239.909 266.292ZM299.202 223.361L299.489 224.249C300.301 223.988 301.256 224.018 302.043 224.32C302.822 224.619 303.343 225.14 303.509 225.804L304.418 225.578L305.327 225.353C304.975 223.949 303.906 223.033 302.715 222.576C301.531 222.124 300.137 222.079 298.914 222.472L299.202 223.361ZM309.548 246.093L308.639 246.319C308.89 247.32 308.279 248.334 307.275 248.583L307.501 249.489L307.728 250.395C309.736 249.896 310.958 247.869 310.457 245.867L309.548 246.093ZM220.485 218.839L220.65 219.758C221.914 219.534 223.125 218.841 223.956 217.887C224.792 216.926 225.306 215.617 224.955 214.213L224.046 214.439L223.137 214.665C223.303 215.329 223.089 216.033 222.541 216.663C221.988 217.298 221.16 217.771 220.321 217.919L220.485 218.839ZM293.531 200.682L293.694 201.601C294.96 201.376 296.17 200.684 297.001 199.729C297.837 198.769 298.351 197.459 298 196.056L297.092 196.282L296.183 196.508C296.349 197.172 296.134 197.876 295.586 198.504C295.034 199.139 294.205 199.613 293.366 199.762L293.531 200.682Z" fill="black"/>
</g>
</g>
</g>
<defs>
<filter id="filter0_d_4363_4604" x="-0.476562" y="63.6908" width="286.587" height="239.369" filterUnits="userSpaceOnUse" color-interpolation-filters="sRGB">
<feFlood flood-opacity="0" result="BackgroundImageFix"/>
<feColorMatrix in="SourceAlpha" type="matrix" values="0 0 0 0 0 0 0 0 0 0 0 0 0 0 0 0 0 0 127 0" result="hardAlpha"/>
<feOffset dx="-3" dy="12"/>
<feGaussianBlur stdDeviation="2"/>
<feComposite in2="hardAlpha" operator="out"/>
<feColorMatrix type="matrix" values="0 0 0 0 0 0 0 0 0 0 0 0 0 0 0 0 0 0 0.25 0"/>
<feBlend mode="normal" in2="BackgroundImageFix" result="effect1_dropShadow_4363_4604"/>
<feBlend mode="normal" in="SourceGraphic" in2="effect1_dropShadow_4363_4604" result="shape"/>
</filter>
<filter id="filter1_d_4363_4604" x="207.273" y="173.643" width="106.358" height="100.732" filterUnits="userSpaceOnUse" color-interpolation-filters="sRGB">
<feFlood flood-opacity="0" result="BackgroundImageFix"/>
<feColorMatrix in="SourceAlpha" type="matrix" values="0 0 0 0 0 0 0 0 0 0 0 0 0 0 0 0 0 0 127 0" result="hardAlpha"/>
<feOffset dy="4"/>
<feGaussianBlur stdDeviation="2"/>
<feComposite in2="hardAlpha" operator="out"/>
<feColorMatrix type="matrix" values="0 0 0 0 0 0 0 0 0 0 0 0 0 0 0 0 0 0 0.25 0"/>
<feBlend mode="normal" in2="BackgroundImageFix" result="effect1_dropShadow_4363_4604"/>
<feBlend mode="normal" in="SourceGraphic" in2="effect1_dropShadow_4363_4604" result="shape"/>
</filter>
<clipPath id="clip0_4363_4604">
<rect width="340" height="254" fill="white" transform="translate(0 48)"/>
</clipPath>
</defs>
</svg>
