<svg width="340" height="350" viewBox="0 0 340 350" fill="none" xmlns="http://www.w3.org/2000/svg">
<mask id="mask0_4669_695" style="mask-type:luminance" maskUnits="userSpaceOnUse" x="0" y="0" width="340" height="350">
<path d="M320 0H20C8.9543 0 0 8.9543 0 20V330C0 341.046 8.9543 350 20 350H320C331.046 350 340 341.046 340 330V20C340 8.9543 331.046 0 320 0Z" fill="white"/>
</mask>
<g mask="url(#mask0_4669_695)">
<mask id="mask1_4669_695" style="mask-type:luminance" maskUnits="userSpaceOnUse" x="-12" y="39" width="364" height="272">
<path d="M351.5 39H-11.5V311H351.5V39Z" fill="white"/>
</mask>
<g mask="url(#mask1_4669_695)">
<path d="M231.66 279C297.382 279 350.66 254.376 350.66 224C350.66 193.624 297.382 169 231.66 169C165.938 169 112.66 193.624 112.66 224C112.66 254.376 165.938 279 231.66 279Z" fill="#D8E0F4"/>
<path d="M133.16 289C206.89 289 266.66 233.036 266.66 164C266.66 94.9644 206.89 39 133.16 39C59.4301 39 -0.339844 94.9644 -0.339844 164C-0.339844 233.036 59.4301 289 133.16 289Z" fill="#D8E0F4"/>
<g filter="url(#filter0_d_4669_695)">
<path d="M245.988 55.9551L-1.45577 116.907C-3.60079 117.435 -4.91134 119.602 -4.38297 121.747L37.5352 291.922C38.0636 294.067 40.2308 295.377 42.3759 294.849L289.819 233.897C291.964 233.369 293.275 231.202 292.746 229.057L250.828 58.8823C250.3 56.7373 248.133 55.4267 245.988 55.9551Z" fill="#324C73"/>
<path d="M246.107 56.4405L-1.3363 117.392C-3.21319 117.854 -4.35992 119.751 -3.8976 121.628L38.0205 291.802C38.4829 293.679 40.3792 294.826 42.2561 294.363L289.7 233.412C291.576 232.949 292.723 231.053 292.261 229.176L250.343 59.0018C249.88 57.1249 247.984 55.9782 246.107 56.4405Z" stroke="black"/>
</g>
<path d="M233.427 70.4637L17.377 124.331C15.2335 124.865 13.9291 127.036 14.4635 129.18L49.1742 268.397C49.7086 270.54 51.8796 271.845 54.0231 271.31L270.073 217.443C272.216 216.909 273.521 214.738 272.986 212.594L238.276 73.3772C237.741 71.2337 235.57 69.9293 233.427 70.4637Z" stroke="white" stroke-width="2"/>
<path d="M74.9292 128.957C75.3898 130.804 77.7679 131.545 79.6153 131.084C84.2446 129.93 88.9328 132.747 90.0868 137.377C91.2418 142.006 88.4245 146.695 83.7953 147.849C81.9478 148.31 80.1955 150.079 80.6561 151.926L84.0336 165.472C84.4344 167.08 83.4561 168.708 81.8484 169.109L68.3024 172.487C66.4549 172.947 65.7157 175.325 66.1763 177.172C67.3303 181.802 64.5126 186.49 59.8832 187.644C55.2539 188.799 50.5657 185.982 49.4113 181.352C48.9506 179.505 47.1809 177.753 45.3335 178.213L31.7872 181.591C30.1796 181.992 28.5514 181.013 28.1506 179.406L15.6689 129.344C15.2681 127.737 16.2464 126.109 17.854 125.708L67.9152 113.226C69.5229 112.825 71.1511 113.804 71.5519 115.411L74.9292 128.957Z" fill="#F9D4AD"/>
<mask id="mask2_4669_695" style="mask-type:luminance" maskUnits="userSpaceOnUse" x="15" y="113" width="76" height="75">
<path d="M74.9292 128.957C75.3898 130.804 77.7679 131.545 79.6153 131.084C84.2446 129.93 88.9328 132.747 90.0868 137.377C91.2418 142.006 88.4245 146.695 83.7953 147.849C81.9478 148.31 80.1955 150.079 80.6561 151.926L84.0336 165.472C84.4344 167.08 83.4561 168.708 81.8484 169.109L68.3024 172.487C66.4549 172.947 65.7157 175.325 66.1763 177.172C67.3303 181.802 64.5126 186.49 59.8832 187.644C55.2539 188.799 50.5657 185.982 49.4113 181.352C48.9506 179.505 47.1809 177.753 45.3335 178.213L31.7872 181.591C30.1796 181.992 28.5514 181.013 28.1506 179.406L15.6689 129.344C15.2681 127.737 16.2464 126.109 17.854 125.708L67.9152 113.226C69.5229 112.825 71.1511 113.804 71.5519 115.411L74.9292 128.957Z" fill="white"/>
</mask>
<g mask="url(#mask2_4669_695)">
<path d="M79.6155 131.084L79.8574 132.055C83.9509 131.034 88.0965 133.525 89.117 137.618L90.087 137.376L91.058 137.135C89.77 131.969 84.5388 128.826 79.3736 130.114L79.6155 131.084ZM90.087 137.376L89.117 137.618C90.138 141.712 87.6468 145.858 83.5535 146.879L83.7955 147.849L84.0374 148.82C89.2029 147.532 92.346 142.3 91.058 137.135L90.087 137.376ZM80.6563 151.926L79.6861 152.168L83.0635 165.714L84.0338 165.472L85.004 165.231L81.6266 151.685L80.6563 151.926ZM81.8486 169.109L81.6067 168.139L68.0607 171.516L68.3026 172.487L68.5446 173.457L82.0906 170.079L81.8486 169.109ZM66.1765 177.172L65.2062 177.414C66.2267 181.508 63.7352 185.654 59.6416 186.674L59.8834 187.644L60.1253 188.615C65.2905 187.327 68.4344 182.096 67.1468 176.93L66.1765 177.172ZM59.8834 187.644L59.6416 186.674C55.5482 187.695 51.4026 185.204 50.3817 181.11L49.4115 181.352L48.4412 181.594C49.7292 186.759 54.9601 189.903 60.1253 188.615L59.8834 187.644ZM45.3337 178.213L45.0919 177.243L31.5456 180.621L31.7874 181.591L32.0294 182.561L45.5756 179.184L45.3337 178.213ZM28.1508 179.406L29.1212 179.164L16.6395 129.103L15.6691 129.344L14.6988 129.586L27.1805 179.648L28.1508 179.406ZM17.8542 125.708L18.0963 126.678L68.1575 114.196L67.9154 113.226L67.6735 112.256L17.6124 124.737L17.8542 125.708ZM71.5522 115.411L70.5819 115.653L73.9591 129.199L74.9294 128.957L75.8997 128.715L72.5224 115.169L71.5522 115.411ZM67.9154 113.226L68.1575 114.196C69.2292 113.929 70.3147 114.581 70.5819 115.653L71.5522 115.411L72.5224 115.169C71.988 113.026 69.8171 111.721 67.6735 112.256L67.9154 113.226ZM15.6691 129.344L16.6395 129.103C16.3723 128.031 17.0245 126.945 18.0963 126.678L17.8542 125.708L17.6124 124.737C15.4689 125.272 14.1644 127.443 14.6988 129.586L15.6691 129.344ZM68.3026 172.487L68.0607 171.516C66.7422 171.845 65.8887 172.846 65.4474 173.933C65.0084 175.016 64.9256 176.288 65.2062 177.414L66.1765 177.172L67.1468 176.93C66.9669 176.209 67.0234 175.369 67.3007 174.685C67.5757 174.007 68.0156 173.589 68.5446 173.457L68.3026 172.487ZM83.7955 147.849L83.5535 146.879C82.4277 147.16 81.3429 147.83 80.5934 148.726C79.8401 149.626 79.3573 150.85 79.6861 152.168L80.6563 151.926L81.6266 151.685C81.4949 151.155 81.6578 150.571 82.1273 150.01C82.6007 149.444 83.3157 149 84.0374 148.82L83.7955 147.849ZM49.4115 181.352L50.3817 181.11C50.101 179.985 49.4301 178.9 48.5342 178.15C47.6339 177.397 46.4102 176.914 45.0919 177.243L45.3337 178.213L45.5756 179.184C46.1047 179.052 46.6896 179.215 47.251 179.684C47.817 180.158 48.2613 180.873 48.4412 181.594L49.4115 181.352ZM84.0338 165.472L83.0635 165.714C83.3307 166.786 82.6785 167.872 81.6067 168.139L81.8486 169.109L82.0906 170.079C84.2341 169.545 85.5385 167.374 85.004 165.231L84.0338 165.472ZM31.7874 181.591L31.5456 180.621C30.4739 180.888 29.3884 180.236 29.1212 179.164L28.1508 179.406L27.1805 179.648C27.7149 181.791 29.8858 183.096 32.0294 182.561L31.7874 181.591ZM79.6155 131.084L79.3736 130.114C78.6522 130.294 77.8125 130.237 77.1287 129.959C76.4504 129.684 76.0316 129.244 75.8997 128.715L74.9294 128.957L73.9591 129.199C74.2878 130.517 75.2885 131.371 76.3762 131.813C77.4585 132.252 78.7314 132.335 79.8574 132.055L79.6155 131.084Z" fill="black"/>
</g>
<path d="M249.614 124.189C250.015 125.797 249.037 127.425 247.429 127.826L234.963 130.934C233.101 131.398 232.337 133.766 232.801 135.629C233.955 140.258 231.338 144.897 226.955 145.989C222.573 147.082 218.085 144.215 216.931 139.586C216.466 137.723 214.68 135.991 212.818 136.455L200.352 139.563C198.744 139.964 197.116 138.986 196.715 137.378L193.288 123.631C192.855 121.897 194.534 120.24 196.268 119.807C200.65 118.715 203.267 114.076 202.112 109.446C200.958 104.817 196.47 101.95 192.088 103.042C190.354 103.475 188.093 102.798 187.661 101.064L184.234 87.3171C183.833 85.7095 184.811 84.0813 186.419 83.6805L233.496 71.9428C235.104 71.542 236.732 72.5203 237.133 74.1279L249.614 124.189Z" fill="#F9D4AD"/>
<mask id="mask3_4669_695" style="mask-type:luminance" maskUnits="userSpaceOnUse" x="184" y="71" width="66" height="76">
<path d="M249.614 124.189C250.015 125.797 249.037 127.425 247.429 127.826L234.963 130.934C233.101 131.398 232.337 133.766 232.801 135.629C233.955 140.258 231.338 144.897 226.955 145.989C222.573 147.082 218.085 144.215 216.931 139.586C216.466 137.723 214.68 135.991 212.818 136.455L200.352 139.563C198.744 139.964 197.116 138.986 196.715 137.378L193.288 123.631C192.855 121.897 194.534 120.24 196.268 119.807C200.65 118.715 203.267 114.076 202.112 109.446C200.958 104.817 196.47 101.95 192.088 103.042C190.354 103.475 188.093 102.798 187.661 101.064L184.234 87.3171C183.833 85.7095 184.811 84.0813 186.419 83.6805L233.496 71.9428C235.104 71.542 236.732 72.5203 237.133 74.1279L249.614 124.189Z" fill="white"/>
</mask>
<g mask="url(#mask3_4669_695)">
<path d="M247.429 127.826L247.187 126.856L234.722 129.964L234.963 130.934L235.205 131.904L247.671 128.796L247.429 127.826ZM232.801 135.629L231.831 135.87C232.864 140.015 230.51 144.072 226.714 145.019L226.955 145.989L227.197 146.96C232.165 145.721 235.047 140.501 233.772 135.387L232.801 135.629ZM226.955 145.989L226.714 145.019C222.917 145.965 218.934 143.488 217.901 139.344L216.931 139.586L215.96 139.827C217.236 144.941 222.23 148.198 227.197 146.96L226.955 145.989ZM212.818 136.455L212.576 135.485L200.11 138.593L200.352 139.563L200.594 140.534L213.06 137.426L212.818 136.455ZM196.715 137.378L197.686 137.136L194.258 123.389L193.288 123.631L192.317 123.873L195.745 137.62L196.715 137.378ZM196.268 119.808L196.509 120.778C201.476 119.539 204.358 114.319 203.083 109.204L202.112 109.446L201.142 109.688C202.175 113.833 199.822 117.89 196.026 118.837L196.268 119.808ZM202.112 109.446L203.083 109.204C201.807 104.09 196.813 100.834 191.846 102.072L192.088 103.042L192.329 104.013C196.126 103.066 200.109 105.544 201.142 109.688L202.112 109.446ZM187.661 101.064L188.631 100.822L185.204 87.0753L184.234 87.3172L183.263 87.5592L186.691 101.306L187.661 101.064ZM186.419 83.6806L186.661 84.6509L233.738 72.9132L233.496 71.9429L233.254 70.9726L186.177 82.7103L186.419 83.6806ZM237.133 74.128L236.162 74.3699L248.644 124.431L249.614 124.189L250.585 123.947L238.103 73.8861L237.133 74.128ZM233.496 71.9429L233.738 72.9132C234.81 72.646 235.895 73.2982 236.162 74.3699L237.133 74.128L238.103 73.8861C237.569 71.7426 235.398 70.4381 233.254 70.9726L233.496 71.9429ZM193.288 123.631L194.258 123.389C194.142 122.924 194.286 122.398 194.727 121.879C195.172 121.356 195.842 120.944 196.509 120.778L196.268 119.808L196.026 118.837C194.96 119.103 193.923 119.736 193.203 120.584C192.48 121.435 192.001 122.604 192.317 123.873L193.288 123.631ZM200.352 139.563L200.11 138.593C199.038 138.86 197.953 138.208 197.686 137.136L196.715 137.378L195.745 137.62C196.279 139.764 198.45 141.068 200.594 140.534L200.352 139.563ZM184.234 87.3172L185.204 87.0753C184.937 86.0036 185.589 84.9181 186.661 84.6509L186.419 83.6806L186.177 82.7103C184.033 83.2447 182.729 85.4156 183.263 87.5592L184.234 87.3172ZM234.963 130.934L234.722 129.964C233.403 130.292 232.538 131.284 232.086 132.374C231.637 133.458 231.548 134.734 231.831 135.87L232.801 135.629L233.772 135.387C233.591 134.66 233.651 133.822 233.934 133.14C234.214 132.464 234.662 132.04 235.205 131.904L234.963 130.934ZM216.931 139.586L217.901 139.344C217.618 138.208 216.94 137.122 216.035 136.376C215.124 135.626 213.895 135.156 212.576 135.485L212.818 136.455L213.06 137.426C213.603 137.29 214.198 137.454 214.762 137.92C215.332 138.389 215.779 139.101 215.96 139.827L216.931 139.586ZM192.088 103.042L191.846 102.072C191.178 102.239 190.394 102.189 189.755 101.936C189.122 101.684 188.747 101.287 188.631 100.822L187.661 101.064L186.691 101.306C187.007 102.575 187.979 103.383 189.017 103.795C190.051 104.205 191.263 104.279 192.329 104.013L192.088 103.042ZM247.429 127.826L247.671 128.796C249.815 128.262 251.119 126.091 250.585 123.947L249.614 124.189L248.644 124.431C248.911 125.503 248.259 126.588 247.187 126.856L247.429 127.826Z" fill="black"/>
</g>
<path d="M129.853 115.417C130.293 117.182 128.594 118.871 126.83 119.311C122.38 120.42 119.707 125.072 120.862 129.702C122.016 134.331 126.56 137.185 131.01 136.076C132.775 135.636 135.066 136.329 135.506 138.093L138.92 151.786C139.321 153.394 138.343 155.022 136.735 155.423L123.973 158.605C122.114 159.068 121.358 161.438 121.821 163.297C122.975 167.926 120.303 172.578 115.853 173.688C111.403 174.797 106.861 171.944 105.706 167.315C105.243 165.456 103.461 163.719 101.603 164.182L88.8398 167.364C87.2323 167.765 85.6041 166.787 85.2033 165.179L81.7894 151.486C81.3493 149.722 83.0477 148.034 84.8125 147.594C89.2628 146.485 91.9348 141.831 90.7808 137.202C89.6258 132.572 85.0825 129.719 80.6325 130.829C78.8679 131.269 76.5755 130.575 76.1355 128.81L72.7217 115.118C72.3208 113.51 73.2991 111.882 74.9068 111.481L122.802 99.5397C124.41 99.1388 126.038 100.117 126.439 101.725L129.853 115.417Z" fill="#F9D4AD"/>
<mask id="mask4_4669_695" style="mask-type:luminance" maskUnits="userSpaceOnUse" x="72" y="99" width="68" height="75">
<path d="M129.853 115.417C130.293 117.182 128.594 118.871 126.83 119.311C122.38 120.42 119.707 125.072 120.862 129.702C122.016 134.331 126.56 137.185 131.01 136.076C132.775 135.636 135.066 136.329 135.506 138.093L138.92 151.786C139.321 153.394 138.343 155.022 136.735 155.423L123.973 158.605C122.114 159.068 121.358 161.438 121.821 163.297C122.975 167.926 120.303 172.578 115.853 173.688C111.403 174.797 106.861 171.944 105.706 167.315C105.243 165.456 103.461 163.719 101.603 164.182L88.8398 167.364C87.2323 167.765 85.6041 166.787 85.2033 165.179L81.7894 151.486C81.3493 149.722 83.0477 148.034 84.8125 147.594C89.2628 146.485 91.9348 141.831 90.7808 137.202C89.6258 132.572 85.0825 129.719 80.6325 130.829C78.8679 131.269 76.5755 130.575 76.1355 128.81L72.7217 115.118C72.3208 113.51 73.2991 111.882 74.9068 111.481L122.802 99.5397C124.41 99.1388 126.038 100.117 126.439 101.725L129.853 115.417Z" fill="white"/>
</mask>
<g mask="url(#mask4_4669_695)">
<path d="M126.83 119.311L126.588 118.34C121.566 119.592 118.613 124.815 119.891 129.944L120.862 129.702L121.832 129.46C120.802 125.33 123.193 121.248 127.072 120.281L126.83 119.311ZM120.862 129.702L119.891 129.944C121.17 135.073 126.23 138.298 131.252 137.046L131.01 136.076L130.768 135.106C126.889 136.073 122.862 133.59 121.832 129.46L120.862 129.702ZM135.506 138.093L134.536 138.335L137.95 152.028L138.92 151.786L139.891 151.544L136.477 137.851L135.506 138.093ZM136.735 155.423L136.493 154.452L123.731 157.634L123.973 158.605L124.215 159.575L136.977 156.393L136.735 155.423ZM121.821 163.297L120.851 163.539C121.88 167.669 119.489 171.751 115.611 172.718L115.853 173.688L116.095 174.658C121.117 173.406 124.07 168.184 122.792 163.055L121.821 163.297ZM115.853 173.688L115.611 172.718C111.733 173.685 107.706 171.203 106.676 167.073L105.706 167.315L104.736 167.557C106.015 172.685 111.073 175.91 116.095 174.658L115.853 173.688ZM101.603 164.182L101.361 163.212L88.598 166.394L88.84 167.364L89.082 168.335L101.845 165.152L101.603 164.182ZM85.2035 165.179L86.1738 164.937L82.7599 151.245L81.7896 151.486L80.8193 151.728L84.2332 165.421L85.2035 165.179ZM84.8127 147.594L85.0546 148.564C90.076 147.312 93.03 142.089 91.751 136.96L90.781 137.202L89.81 137.444C90.84 141.574 88.4492 145.657 84.5708 146.624L84.8127 147.594ZM90.781 137.202L91.751 136.96C90.472 131.831 85.4124 128.607 80.3908 129.859L80.6327 130.829L80.8746 131.799C84.7531 130.832 88.781 133.314 89.81 137.444L90.781 137.202ZM76.1357 128.81L77.106 128.568L73.6922 114.876L72.7219 115.118L71.7516 115.36L75.1654 129.052L76.1357 128.81ZM74.907 111.481L75.1489 112.452L123.044 100.51L122.802 99.5397L122.56 98.5694L74.6651 110.511L74.907 111.481ZM126.439 101.725L125.468 101.967L128.882 115.659L129.853 115.417L130.823 115.175L127.409 101.483L126.439 101.725ZM122.802 99.5397L123.044 100.51C124.116 100.243 125.201 100.895 125.468 101.967L126.439 101.725L127.409 101.483C126.875 99.3394 124.704 98.0349 122.56 98.5694L122.802 99.5397ZM81.7896 151.486L82.7599 151.245C82.6396 150.762 82.7888 150.22 83.2377 149.689C83.69 149.155 84.3722 148.735 85.0546 148.564L84.8127 147.594L84.5708 146.624C83.4885 146.894 82.439 147.537 81.7109 148.398C80.9794 149.262 80.4995 150.446 80.8193 151.728L81.7896 151.486ZM72.7219 115.118L73.6922 114.876C73.4249 113.804 74.0771 112.719 75.1489 112.452L74.907 111.481L74.6651 110.511C72.5215 111.045 71.2171 113.216 71.7516 115.36L72.7219 115.118ZM123.973 158.605L123.731 157.634C122.412 157.963 121.55 158.958 121.102 160.047C120.656 161.13 120.568 162.406 120.851 163.539L121.821 163.297L122.792 163.055C122.611 162.33 122.67 161.491 122.951 160.808C123.229 160.132 123.675 159.71 124.215 159.575L123.973 158.605ZM131.01 136.076L131.252 137.046C131.934 136.876 132.734 136.927 133.384 137.186C134.029 137.444 134.416 137.853 134.536 138.335L135.506 138.093L136.477 137.851C136.157 136.569 135.177 135.749 134.126 135.329C133.079 134.911 131.85 134.836 130.768 135.106L131.01 136.076ZM105.706 167.315L106.676 167.073C106.394 165.94 105.718 164.854 104.815 164.107C103.908 163.356 102.68 162.883 101.361 163.212L101.603 164.182L101.845 165.152C102.384 165.018 102.977 165.182 103.54 165.648C104.109 166.119 104.555 166.832 104.736 167.557L105.706 167.315ZM80.6327 130.829L80.3908 129.859C79.7088 130.029 78.9091 129.978 78.2586 129.718C77.6129 129.46 77.2263 129.051 77.106 128.568L76.1357 128.81L75.1654 129.052C75.4851 130.334 76.4647 131.155 77.5164 131.575C78.5632 131.993 79.792 132.069 80.8746 131.799L80.6327 130.829ZM138.92 151.786L137.95 152.028C138.217 153.1 137.565 154.185 136.493 154.452L136.735 155.423L136.977 156.393C139.121 155.859 140.425 153.688 139.891 151.544L138.92 151.786ZM88.84 167.364L88.598 166.394C87.5265 166.661 86.441 166.009 86.1738 164.937L85.2035 165.179L84.2332 165.421C84.7677 167.565 86.9386 168.869 89.082 168.335L88.84 167.364ZM126.83 119.311L127.072 120.281C128.154 120.011 129.204 119.367 129.932 118.506C130.663 117.641 131.143 116.457 130.823 115.175L129.853 115.417L128.882 115.659C129.003 116.141 128.853 116.684 128.404 117.215C127.952 117.75 127.27 118.17 126.588 118.34L126.83 119.311Z" fill="black"/>
</g>
<path d="M186.513 101.134C186.974 102.981 189.352 103.722 191.199 103.261C195.828 102.107 200.517 104.924 201.671 109.553C202.825 114.183 200.008 118.872 195.379 120.026C193.532 120.487 191.779 122.256 192.24 124.103L195.617 137.649C196.018 139.257 195.04 140.885 193.432 141.286L179.886 144.663C178.039 145.124 177.299 147.502 177.76 149.349C178.914 153.979 176.096 158.667 171.467 159.821C166.838 160.975 162.149 158.158 160.995 153.529C160.534 151.682 158.765 149.93 156.917 150.39L143.371 153.768C141.763 154.168 140.135 153.19 139.734 151.583L136.357 138.035C135.896 136.188 133.519 135.45 131.672 135.91C127.043 137.064 122.353 134.247 121.199 129.617C120.045 124.988 122.863 120.299 127.492 119.145C129.339 118.685 131.091 116.915 130.63 115.068L127.253 101.521C126.852 99.9137 127.83 98.2855 129.438 97.8846L179.499 85.403C181.107 85.0022 182.735 85.9805 183.136 87.5881L186.513 101.134Z" fill="#F9D4AD"/>
<mask id="mask5_4669_695" style="mask-type:luminance" maskUnits="userSpaceOnUse" x="120" y="85" width="82" height="76">
<path d="M186.513 101.134C186.974 102.981 189.352 103.722 191.199 103.261C195.828 102.107 200.517 104.924 201.671 109.553C202.825 114.183 200.008 118.872 195.379 120.026C193.532 120.487 191.779 122.256 192.24 124.103L195.617 137.649C196.018 139.257 195.04 140.885 193.432 141.286L179.886 144.663C178.039 145.124 177.299 147.502 177.76 149.349C178.914 153.979 176.096 158.667 171.467 159.821C166.838 160.975 162.149 158.158 160.995 153.529C160.534 151.682 158.765 149.93 156.917 150.39L143.371 153.768C141.763 154.168 140.135 153.19 139.734 151.583L136.357 138.035C135.896 136.188 133.519 135.45 131.672 135.91C127.043 137.064 122.353 134.247 121.199 129.617C120.045 124.988 122.863 120.299 127.492 119.145C129.339 118.685 131.091 116.915 130.63 115.068L127.253 101.521C126.852 99.9137 127.83 98.2855 129.438 97.8846L179.499 85.403C181.107 85.0022 182.735 85.9805 183.136 87.5881L186.513 101.134Z" fill="white"/>
</mask>
<g mask="url(#mask5_4669_695)">
<path d="M191.199 103.261L191.441 104.231C195.534 103.211 199.68 105.702 200.701 109.795L201.671 109.553L202.641 109.311C201.353 104.146 196.122 101.003 190.957 102.291L191.199 103.261ZM201.671 109.553L200.701 109.795C201.721 113.889 199.23 118.035 195.137 119.056L195.379 120.026L195.621 120.996C200.786 119.708 203.929 114.477 202.641 109.311L201.671 109.553ZM192.24 124.103L191.27 124.345L194.647 137.891L195.617 137.649L196.588 137.407L193.21 123.861L192.24 124.103ZM193.432 141.286L193.19 140.316L179.644 143.693L179.886 144.663L180.128 145.634L193.674 142.256L193.432 141.286ZM177.76 149.349L176.79 149.591C177.81 153.684 175.319 157.83 171.225 158.851L171.467 159.821L171.709 160.792C176.874 159.504 180.018 154.273 178.73 149.107L177.76 149.349ZM171.467 159.821L171.225 158.851C167.132 159.872 162.986 157.381 161.965 153.287L160.995 153.529L160.025 153.771C161.313 158.936 166.544 162.079 171.709 160.792L171.467 159.821ZM156.917 150.39L156.675 149.42L143.129 152.797L143.371 153.768L143.613 154.738L157.159 151.36L156.917 150.39ZM139.734 151.583L140.705 151.341L137.327 137.794L136.357 138.035L135.386 138.277L138.764 151.824L139.734 151.583ZM131.672 135.91L131.43 134.94C127.337 135.96 123.19 133.469 122.169 129.375L121.199 129.617L120.229 129.859C121.517 135.025 126.749 138.168 131.914 136.88L131.672 135.91ZM121.199 129.617L122.169 129.375C121.149 125.282 123.64 121.136 127.734 120.115L127.492 119.145L127.25 118.175C122.085 119.463 118.941 124.694 120.229 129.859L121.199 129.617ZM130.63 115.068L131.601 114.826L128.223 101.279L127.253 101.521L126.282 101.763L129.66 115.31L130.63 115.068ZM129.438 97.8846L129.68 98.8549L179.741 86.3733L179.499 85.403L179.257 84.4327L129.196 96.9144L129.438 97.8846ZM183.136 87.5881L182.165 87.83L185.543 101.376L186.513 101.134L187.483 100.892L184.106 87.3462L183.136 87.5881ZM179.499 85.403L179.741 86.3733C180.813 86.1061 181.898 86.7583 182.165 87.83L183.136 87.5881L184.106 87.3462C183.572 85.2027 181.401 83.8983 179.257 84.4327L179.499 85.403ZM136.357 138.035L137.327 137.794C136.998 136.475 135.998 135.622 134.91 135.181C133.828 134.742 132.556 134.659 131.43 134.94L131.672 135.91L131.914 136.88C132.636 136.7 133.475 136.757 134.159 137.034C134.836 137.309 135.255 137.749 135.386 138.277L136.357 138.035ZM127.253 101.521L128.223 101.279C127.956 100.208 128.608 99.1222 129.68 98.8549L129.438 97.8846L129.196 96.9144C127.052 97.4488 125.748 99.6197 126.282 101.763L127.253 101.521ZM179.886 144.663L179.644 143.693C178.326 144.022 177.472 145.022 177.031 146.11C176.592 147.193 176.509 148.465 176.79 149.591L177.76 149.349L178.73 149.107C178.55 148.385 178.607 147.546 178.884 146.862C179.159 146.184 179.599 145.766 180.128 145.634L179.886 144.663ZM195.379 120.026L195.137 119.056C194.011 119.337 192.926 120.007 192.177 120.903C191.424 121.803 190.941 123.027 191.27 124.345L192.24 124.103L193.21 123.861C193.078 123.332 193.241 122.748 193.711 122.186C194.184 121.621 194.899 121.176 195.621 120.996L195.379 120.026ZM160.995 153.529L161.965 153.287C161.685 152.161 161.014 151.076 160.118 150.327C159.217 149.574 157.994 149.091 156.675 149.42L156.917 150.39L157.159 151.36C157.688 151.229 158.273 151.392 158.835 151.861C159.401 152.335 159.845 153.049 160.025 153.771L160.995 153.529ZM127.492 119.145L127.734 120.115C128.86 119.835 129.944 119.164 130.694 118.268C131.447 117.367 131.929 116.144 131.601 114.826L130.63 115.068L129.66 115.31C129.792 115.839 129.629 116.423 129.159 116.985C128.686 117.551 127.971 117.995 127.25 118.175L127.492 119.145ZM195.617 137.649L194.647 137.891C194.914 138.963 194.262 140.048 193.19 140.316L193.432 141.286L193.674 142.256C195.818 141.722 197.122 139.551 196.588 137.407L195.617 137.649ZM143.371 153.768L143.129 152.797C142.057 153.065 140.972 152.412 140.705 151.341L139.734 151.583L138.764 151.824C139.299 153.968 141.469 155.272 143.613 154.738L143.371 153.768ZM191.199 103.261L190.957 102.291C190.236 102.471 189.396 102.414 188.712 102.136C188.034 101.861 187.615 101.421 187.483 100.892L186.513 101.134L185.543 101.376C185.871 102.694 186.872 103.548 187.96 103.989C189.042 104.429 190.315 104.512 191.441 104.231L191.199 103.261Z" fill="black"/>
</g>
<path d="M200.573 157.653C201.033 159.501 203.411 160.241 205.258 159.78C209.888 158.626 214.576 161.444 215.731 166.073C216.885 170.702 214.068 175.391 209.438 176.545C207.591 177.006 205.839 178.775 206.299 180.622L209.677 194.168C210.078 195.776 209.099 197.404 207.492 197.805L157.431 210.286C155.824 210.687 154.196 209.709 153.795 208.101L150.417 194.554C149.957 192.707 147.58 191.968 145.732 192.429C141.103 193.583 136.414 190.766 135.26 186.137C134.105 181.507 136.923 176.818 141.552 175.664C143.4 175.203 145.151 173.434 144.691 171.587L141.313 158.041C140.912 156.433 141.891 154.805 143.498 154.404L156.723 151.107C157.731 150.856 158.713 151.58 158.965 152.588C160.434 158.483 166.187 162.124 171.814 160.721C177.441 159.318 180.811 153.402 179.341 147.508C179.09 146.5 179.617 145.399 180.625 145.148L193.559 141.923C195.166 141.522 196.794 142.5 197.195 144.108L200.573 157.653Z" fill="#F9D4AD"/>
<mask id="mask6_4669_695" style="mask-type:luminance" maskUnits="userSpaceOnUse" x="135" y="141" width="81" height="70">
<path d="M200.573 157.653C201.033 159.501 203.411 160.241 205.258 159.78C209.888 158.626 214.576 161.444 215.731 166.073C216.885 170.702 214.068 175.391 209.438 176.545C207.591 177.006 205.839 178.775 206.299 180.622L209.677 194.168C210.078 195.776 209.099 197.404 207.492 197.805L157.431 210.286C155.824 210.687 154.196 209.709 153.795 208.101L150.417 194.554C149.957 192.707 147.58 191.968 145.732 192.429C141.103 193.583 136.414 190.766 135.26 186.137C134.105 181.507 136.923 176.818 141.552 175.664C143.4 175.203 145.151 173.434 144.691 171.587L141.313 158.041C140.912 156.433 141.891 154.805 143.498 154.404L156.723 151.107C157.731 150.856 158.713 151.58 158.965 152.588C160.434 158.483 166.187 162.124 171.814 160.721C177.441 159.318 180.811 153.402 179.341 147.508C179.09 146.5 179.617 145.399 180.625 145.148L193.559 141.923C195.166 141.522 196.794 142.5 197.195 144.108L200.573 157.653Z" fill="white"/>
</mask>
<g mask="url(#mask6_4669_695)">
<path d="M205.258 159.78L205.5 160.75C209.594 159.73 213.74 162.221 214.76 166.315L215.731 166.073L216.701 165.831C215.413 160.666 210.182 157.522 205.017 158.81L205.258 159.78ZM215.731 166.073L214.76 166.315C215.781 170.408 213.29 174.554 209.196 175.575L209.438 176.545L209.68 177.515C214.845 176.227 217.989 170.996 216.701 165.831L215.731 166.073ZM206.299 180.622L205.329 180.864L208.706 194.41L209.677 194.168L210.647 193.926L207.27 180.38L206.299 180.622ZM207.492 197.805L207.25 196.834L157.189 209.316L157.431 210.286L157.673 211.256L207.733 198.775L207.492 197.805ZM153.795 208.101L154.765 207.859L151.387 194.312L150.417 194.554L149.447 194.796L152.824 208.343L153.795 208.101ZM145.732 192.429L145.491 191.458C141.397 192.479 137.251 189.988 136.23 185.895L135.26 186.137L134.289 186.379C135.577 191.544 140.809 194.687 145.974 193.399L145.732 192.429ZM135.26 186.137L136.23 185.895C135.209 181.801 137.701 177.655 141.794 176.634L141.552 175.664L141.311 174.693C136.145 175.981 133.001 181.213 134.289 186.379L135.26 186.137ZM144.691 171.587L145.661 171.345L142.284 157.799L141.313 158.041L140.343 158.283L143.72 171.829L144.691 171.587ZM143.498 154.404L143.74 155.374L156.965 152.077L156.723 151.107L156.481 150.137L143.256 153.434L143.498 154.404ZM158.965 152.588L157.994 152.83C159.587 159.218 165.851 163.238 172.056 161.691L171.814 160.721L171.572 159.751C166.523 161.01 161.282 157.748 159.935 152.346L158.965 152.588ZM171.814 160.721L172.056 161.691C178.261 160.144 181.904 153.653 180.311 147.266L179.341 147.508L178.371 147.75C179.717 153.151 176.621 158.492 171.572 159.751L171.814 160.721ZM180.625 145.148L180.867 146.118L193.801 142.893L193.559 141.923L193.317 140.952L180.383 144.177L180.625 145.148ZM197.195 144.108L196.225 144.35L199.602 157.895L200.573 157.653L201.543 157.411L198.166 143.866L197.195 144.108ZM156.723 151.107L156.965 152.077C157.333 151.986 157.849 152.247 157.994 152.83L158.965 152.588L159.935 152.346C159.578 150.913 158.13 149.726 156.481 150.137L156.723 151.107ZM141.313 158.041L142.284 157.799C142.016 156.727 142.669 155.642 143.74 155.374L143.498 154.404L143.256 153.434C141.113 153.968 139.809 156.139 140.343 158.283L141.313 158.041ZM193.559 141.923L193.801 142.893C194.872 142.626 195.958 143.278 196.225 144.35L197.195 144.108L198.166 143.866C197.631 141.722 195.46 140.418 193.317 140.952L193.559 141.923ZM150.417 194.554L151.387 194.312C151.059 192.994 150.058 192.141 148.971 191.699C147.889 191.26 146.616 191.178 145.491 191.458L145.732 192.429L145.974 193.399C146.696 193.219 147.535 193.276 148.219 193.553C148.897 193.828 149.315 194.267 149.447 194.796L150.417 194.554ZM179.341 147.508L180.311 147.266C180.166 146.683 180.499 146.209 180.867 146.118L180.625 145.148L180.383 144.177C178.734 144.588 178.013 146.317 178.371 147.75L179.341 147.508ZM157.431 210.286L157.189 209.316C156.118 209.583 155.032 208.931 154.765 207.859L153.795 208.101L152.824 208.343C153.359 210.487 155.53 211.791 157.673 211.256L157.431 210.286ZM209.438 176.545L209.197 175.575C208.071 175.855 206.986 176.526 206.236 177.422C205.483 178.322 205 179.546 205.329 180.864L206.299 180.622L207.27 180.38C207.138 179.851 207.301 179.266 207.77 178.705C208.244 178.139 208.959 177.695 209.68 177.515L209.438 176.545ZM209.677 194.168L208.706 194.41C208.974 195.482 208.321 196.567 207.25 196.834L207.492 197.805L207.733 198.775C209.877 198.241 211.181 196.07 210.647 193.926L209.677 194.168ZM141.552 175.664L141.794 176.634C142.92 176.353 144.005 175.683 144.754 174.787C145.507 173.887 145.99 172.663 145.661 171.345L144.691 171.587L143.72 171.829C143.852 172.358 143.689 172.943 143.22 173.504C142.747 174.069 142.032 174.514 141.311 174.693L141.552 175.664ZM205.258 159.78L205.017 158.81C204.295 158.99 203.455 158.933 202.771 158.656C202.093 158.38 201.675 157.94 201.543 157.411L200.573 157.653L199.602 157.895C199.931 159.214 200.932 160.067 202.019 160.509C203.102 160.948 204.374 161.031 205.5 160.75L205.258 159.78Z" fill="black"/>
</g>
<path d="M89.4021 187.062C89.7541 188.444 88.6081 189.775 87.2256 190.127C82.6024 191.306 79.8103 196.01 80.9888 200.633C82.1675 205.256 86.8706 208.049 91.4941 206.87C92.8761 206.518 94.5191 207.136 94.8721 208.519L98.3721 222.248C98.7811 223.854 97.8111 225.487 96.2061 225.896L46.212 238.641C44.6065 239.05 42.9732 238.081 42.5639 236.475L29.8193 186.481C29.41 184.876 30.3797 183.242 31.9853 182.833L46.2497 179.197C46.9371 179.022 47.6165 179.486 47.7917 180.173C49.2694 185.969 54.7817 189.569 60.1034 188.212C65.4251 186.856 68.5415 181.057 67.064 175.26C66.8888 174.573 67.263 173.84 67.9503 173.665L81.9791 170.088C83.5846 169.679 85.218 170.649 85.6272 172.254L89.4021 187.062Z" fill="#F9D4AD"/>
<mask id="mask7_4669_695" style="mask-type:luminance" maskUnits="userSpaceOnUse" x="29" y="169" width="70" height="70">
<path d="M89.4021 187.062C89.7541 188.444 88.6081 189.775 87.2256 190.127C82.6024 191.306 79.8103 196.01 80.9888 200.633C82.1675 205.256 86.8706 208.049 91.4941 206.87C92.8761 206.518 94.5191 207.136 94.8721 208.519L98.3721 222.248C98.7811 223.854 97.8111 225.487 96.2061 225.896L46.212 238.641C44.6065 239.05 42.9732 238.081 42.5639 236.475L29.8193 186.481C29.41 184.876 30.3797 183.242 31.9853 182.833L46.2497 179.197C46.9371 179.022 47.6165 179.486 47.7917 180.173C49.2694 185.969 54.7817 189.569 60.1034 188.212C65.4251 186.856 68.5415 181.057 67.064 175.26C66.8888 174.573 67.263 173.84 67.9503 173.665L81.9791 170.088C83.5846 169.679 85.218 170.649 85.6272 172.254L89.4021 187.062Z" fill="white"/>
</mask>
<g mask="url(#mask7_4669_695)">
<path d="M87.2258 190.127L86.9788 189.158C81.8203 190.474 78.7051 195.722 80.02 200.88L80.989 200.633L81.9581 200.386C80.9159 196.298 83.3849 192.139 87.4728 191.096L87.2258 190.127ZM80.989 200.633L80.02 200.88C81.3352 206.039 86.5826 209.154 91.7413 207.839L91.4943 206.87L91.2473 205.901C87.1589 206.943 83.0004 204.474 81.9581 200.386L80.989 200.633ZM94.8723 208.519L93.9033 208.766L97.4033 222.495L98.3723 222.248L99.3413 222.001L95.8413 208.272L94.8723 208.519ZM96.2063 225.896L95.9593 224.927L45.9652 237.672L46.2122 238.641L46.4593 239.61L96.4533 226.865L96.2063 225.896ZM42.5641 236.475L43.5332 236.228L30.7885 186.234L29.8195 186.481L28.8505 186.728L41.5951 236.722L42.5641 236.475ZM31.9855 182.833L32.2325 183.802L46.497 180.166L46.2499 179.197L46.0029 178.228L31.7384 181.864L31.9855 182.833ZM47.7919 180.173L46.8229 180.42C48.4167 186.672 54.4175 190.694 60.3506 189.181L60.1036 188.212L59.8566 187.243C55.1463 188.444 50.1224 185.267 48.7609 179.926L47.7919 180.173ZM60.1036 188.212L60.3506 189.181C66.2838 187.669 69.6269 181.265 68.0332 175.013L67.0642 175.26L66.0952 175.507C67.4566 180.848 64.5669 186.042 59.8566 187.243L60.1036 188.212ZM67.9505 173.665L68.1975 174.634L82.2264 171.058L81.9793 170.088L81.7323 169.119L67.7034 172.696L67.9505 173.665ZM85.6274 172.254L84.6584 172.501L88.4331 187.309L89.4023 187.062L90.3713 186.815L86.5964 172.007L85.6274 172.254ZM81.9793 170.088L82.2264 171.058C83.2967 170.785 84.3856 171.431 84.6584 172.501L85.6274 172.254L86.5964 172.007C86.0507 169.867 83.873 168.574 81.7323 169.119L81.9793 170.088ZM67.0642 175.26L68.0332 175.013C68.0085 174.916 68.0241 174.819 68.0633 174.747C68.1 174.679 68.1475 174.647 68.1975 174.634L67.9505 173.665L67.7034 172.696C66.41 173.026 65.8024 174.359 66.0952 175.507L67.0642 175.26ZM46.2499 179.197L46.497 180.166C46.547 180.153 46.6041 180.159 46.6688 180.201C46.7379 180.245 46.7981 180.323 46.8229 180.42L47.7919 180.173L48.7609 179.926C48.4681 178.778 47.2964 177.898 46.0029 178.228L46.2499 179.197ZM29.8195 186.481L30.7885 186.234C30.5157 185.164 31.1621 184.075 32.2325 183.802L31.9855 182.833L31.7384 181.864C29.5978 182.41 28.3048 184.588 28.8505 186.728L29.8195 186.481ZM46.2122 238.641L45.9652 237.672C44.8949 237.945 43.806 237.298 43.5332 236.228L42.5641 236.475L41.5951 236.722C42.1408 238.863 44.3186 240.156 46.4593 239.61L46.2122 238.641ZM91.4943 206.87L91.7413 207.839C92.2163 207.718 92.7403 207.767 93.1583 207.955C93.5663 208.14 93.8163 208.426 93.9033 208.766L94.8723 208.519L95.8413 208.272C95.5753 207.229 94.8273 206.515 93.9813 206.133C93.1433 205.754 92.1543 205.67 91.2473 205.901L91.4943 206.87ZM98.3723 222.248L97.4033 222.495C97.6763 223.566 97.0293 224.655 95.9593 224.927L96.2063 225.896L96.4533 226.865C98.5943 226.32 99.8873 224.142 99.3413 222.001L98.3723 222.248ZM87.2258 190.127L87.4728 191.096C88.3805 190.865 89.2083 190.317 89.7623 189.584C90.3223 188.842 90.6373 187.857 90.3713 186.815L89.4023 187.062L88.4331 187.309C88.5203 187.649 88.4373 188.02 88.1668 188.378C87.8904 188.744 87.4538 189.037 86.9788 189.158L87.2258 190.127Z" fill="black"/>
</g>
<mask id="mask8_4669_695" style="mask-type:alpha" maskUnits="userSpaceOnUse" x="15" y="71" width="235" height="168">
<path d="M74.9292 128.961C75.3898 130.808 77.7679 131.549 79.6153 131.088C84.2446 129.934 88.9328 132.751 90.0868 137.38C91.2418 142.01 88.4245 146.699 83.7953 147.853C81.9478 148.314 80.1955 150.083 80.6561 151.93L84.0336 165.476C84.4344 167.084 83.4561 168.712 81.8484 169.113L68.3024 172.49C66.4549 172.951 65.7157 175.329 66.1763 177.176C67.3303 181.806 64.5126 186.494 59.8832 187.648C55.2539 188.803 50.5657 185.985 49.4113 181.356C48.9506 179.509 47.1809 177.757 45.3335 178.217L31.7872 181.595C30.1796 181.996 28.5514 181.017 28.1506 179.41L15.6689 129.348C15.2681 127.741 16.2464 126.113 17.854 125.712L67.9152 113.23C69.5229 112.829 71.1511 113.808 71.5519 115.415L74.9292 128.961Z" fill="#F9D4AD"/>
<mask id="mask9_4669_695" style="mask-type:alpha" maskUnits="userSpaceOnUse" x="15" y="113" width="76" height="75">
<path d="M74.9292 128.961C75.3898 130.808 77.7679 131.549 79.6153 131.088C84.2446 129.934 88.9328 132.751 90.0868 137.38C91.2418 142.01 88.4245 146.699 83.7953 147.853C81.9478 148.314 80.1955 150.083 80.6561 151.93L84.0336 165.476C84.4344 167.084 83.4561 168.712 81.8484 169.113L68.3024 172.49C66.4549 172.951 65.7157 175.329 66.1763 177.176C67.3303 181.806 64.5126 186.494 59.8832 187.648C55.2539 188.803 50.5657 185.985 49.4113 181.356C48.9506 179.509 47.1809 177.757 45.3335 178.217L31.7872 181.595C30.1796 181.996 28.5514 181.017 28.1506 179.41L15.6689 129.348C15.2681 127.741 16.2464 126.113 17.854 125.712L67.9152 113.23C69.5229 112.829 71.1511 113.808 71.5519 115.415L74.9292 128.961Z" fill="white"/>
</mask>
<g mask="url(#mask9_4669_695)">
<path d="M79.6155 131.088L79.8574 132.059C83.9509 131.038 88.0965 133.529 89.117 137.622L90.087 137.38L91.058 137.138C89.77 131.973 84.5388 128.83 79.3736 130.118L79.6155 131.088ZM90.087 137.38L89.117 137.622C90.138 141.716 87.6468 145.862 83.5535 146.883L83.7955 147.853L84.0374 148.824C89.2029 147.536 92.346 142.304 91.058 137.138L90.087 137.38ZM80.6563 151.93L79.6861 152.172L83.0635 165.718L84.0338 165.476L85.004 165.234L81.6266 151.688L80.6563 151.93ZM81.8486 169.113L81.6067 168.143L68.0607 171.52L68.3026 172.49L68.5446 173.461L82.0906 170.083L81.8486 169.113ZM66.1765 177.176L65.2062 177.418C66.2267 181.512 63.7352 185.657 59.6416 186.678L59.8834 187.648L60.1253 188.619C65.2905 187.331 68.4344 182.1 67.1468 176.934L66.1765 177.176ZM59.8834 187.648L59.6416 186.678C55.5482 187.699 51.4026 185.208 50.3817 181.114L49.4115 181.356L48.4412 181.598C49.7292 186.763 54.9601 189.906 60.1253 188.619L59.8834 187.648ZM45.3337 178.217L45.0919 177.247L31.5456 180.624L31.7874 181.595L32.0294 182.565L45.5756 179.188L45.3337 178.217ZM28.1508 179.41L29.1212 179.168L16.6395 129.106L15.6691 129.348L14.6988 129.59L27.1805 179.652L28.1508 179.41ZM17.8542 125.712L18.0963 126.682L68.1575 114.2L67.9154 113.23L67.6735 112.26L17.6124 124.741L17.8542 125.712ZM71.5522 115.415L70.5819 115.657L73.9591 129.203L74.9294 128.961L75.8997 128.719L72.5224 115.173L71.5522 115.415ZM67.9154 113.23L68.1575 114.2C69.2292 113.933 70.3147 114.585 70.5819 115.657L71.5522 115.415L72.5224 115.173C71.988 113.03 69.8171 111.725 67.6735 112.26L67.9154 113.23ZM15.6691 129.348L16.6395 129.106C16.3723 128.035 17.0245 126.949 18.0963 126.682L17.8542 125.712L17.6124 124.741C15.4689 125.276 14.1644 127.447 14.6988 129.59L15.6691 129.348ZM68.3026 172.49L68.0607 171.52C66.7422 171.849 65.8887 172.85 65.4474 173.937C65.0084 175.02 64.9256 176.292 65.2062 177.418L66.1765 177.176L67.1468 176.934C66.9669 176.213 67.0234 175.373 67.3007 174.689C67.5757 174.011 68.0156 173.593 68.5446 173.461L68.3026 172.49ZM83.7955 147.853L83.5535 146.883C82.4277 147.164 81.3429 147.834 80.5934 148.73C79.8401 149.63 79.3573 150.854 79.6861 152.172L80.6563 151.93L81.6266 151.688C81.4949 151.159 81.6578 150.575 82.1273 150.013C82.6007 149.448 83.3157 149.004 84.0374 148.824L83.7955 147.853ZM49.4115 181.356L50.3817 181.114C50.101 179.988 49.4301 178.904 48.5342 178.154C47.6339 177.401 46.4102 176.918 45.0919 177.247L45.3337 178.217L45.5756 179.188C46.1047 179.056 46.6896 179.219 47.251 179.688C47.817 180.162 48.2613 180.877 48.4412 181.598L49.4115 181.356ZM84.0338 165.476L83.0635 165.718C83.3307 166.79 82.6785 167.876 81.6067 168.143L81.8486 169.113L82.0906 170.083C84.2341 169.549 85.5385 167.378 85.004 165.234L84.0338 165.476ZM31.7874 181.595L31.5456 180.624C30.4739 180.892 29.3884 180.239 29.1212 179.168L28.1508 179.41L27.1805 179.652C27.7149 181.795 29.8858 183.099 32.0294 182.565L31.7874 181.595ZM79.6155 131.088L79.3736 130.118C78.6522 130.298 77.8125 130.241 77.1287 129.963C76.4504 129.688 76.0316 129.248 75.8997 128.719L74.9294 128.961L73.9591 129.203C74.2878 130.521 75.2885 131.375 76.3762 131.816C77.4585 132.256 78.7314 132.339 79.8574 132.059L79.6155 131.088Z" fill="black"/>
</g>
<path d="M249.614 124.193C250.015 125.801 249.037 127.429 247.429 127.83L234.963 130.938C233.101 131.402 232.337 133.77 232.801 135.632C233.955 140.262 231.338 144.901 226.955 145.993C222.573 147.085 218.085 144.219 216.931 139.589C216.466 137.727 214.68 135.995 212.818 136.459L200.352 139.567C198.744 139.968 197.116 138.99 196.715 137.382L193.288 123.635C192.855 121.901 194.534 120.244 196.268 119.811C200.65 118.719 203.267 114.079 202.112 109.45C200.958 104.821 196.47 101.954 192.088 103.046C190.354 103.479 188.093 102.801 187.661 101.068L184.234 87.321C183.833 85.7134 184.811 84.0852 186.419 83.6844L233.496 71.9467C235.104 71.5459 236.732 72.5242 237.133 74.1318L249.614 124.193Z" fill="#F9D4AD"/>
<mask id="mask10_4669_695" style="mask-type:alpha" maskUnits="userSpaceOnUse" x="184" y="71" width="66" height="76">
<path d="M249.614 124.193C250.015 125.801 249.037 127.429 247.429 127.83L234.963 130.938C233.101 131.402 232.337 133.77 232.801 135.632C233.955 140.262 231.338 144.901 226.955 145.993C222.573 147.085 218.085 144.219 216.931 139.589C216.466 137.727 214.68 135.995 212.818 136.459L200.352 139.567C198.744 139.968 197.116 138.99 196.715 137.382L193.288 123.635C192.855 121.901 194.534 120.244 196.268 119.811C200.65 118.719 203.267 114.079 202.112 109.45C200.958 104.821 196.47 101.954 192.088 103.046C190.354 103.479 188.093 102.801 187.661 101.068L184.234 87.321C183.833 85.7134 184.811 84.0852 186.419 83.6844L233.496 71.9467C235.104 71.5459 236.732 72.5242 237.133 74.1318L249.614 124.193Z" fill="white"/>
</mask>
<g mask="url(#mask10_4669_695)">
<path d="M247.429 127.83L247.187 126.859L234.722 129.967L234.963 130.938L235.205 131.908L247.671 128.8L247.429 127.83ZM232.801 135.632L231.831 135.874C232.864 140.019 230.51 144.076 226.714 145.023L226.955 145.993L227.197 146.963C232.165 145.725 235.047 140.505 233.772 135.391L232.801 135.632ZM226.955 145.993L226.714 145.023C222.917 145.969 218.934 143.492 217.901 139.347L216.931 139.589L215.96 139.831C217.236 144.946 222.23 148.202 227.197 146.963L226.955 145.993ZM212.818 136.459L212.576 135.489L200.11 138.597L200.352 139.567L200.594 140.538L213.06 137.43L212.818 136.459ZM196.715 137.382L197.686 137.14L194.258 123.393L193.288 123.635L192.317 123.877L195.745 137.624L196.715 137.382ZM196.268 119.811L196.509 120.782C201.476 119.543 204.358 114.322 203.083 109.208L202.112 109.45L201.142 109.692C202.175 113.836 199.822 117.894 196.026 118.841L196.268 119.811ZM202.112 109.45L203.083 109.208C201.807 104.094 196.813 100.837 191.846 102.076L192.088 103.046L192.329 104.017C196.126 103.07 200.109 105.548 201.142 109.692L202.112 109.45ZM187.661 101.068L188.631 100.826L185.204 87.0791L184.234 87.321L183.263 87.563L186.691 101.31L187.661 101.068ZM186.419 83.6844L186.661 84.6547L233.738 72.917L233.496 71.9467L233.254 70.9764L186.177 82.7141L186.419 83.6844ZM237.133 74.1318L236.162 74.3737L248.644 124.435L249.614 124.193L250.585 123.951L238.103 73.8899L237.133 74.1318ZM233.496 71.9467L233.738 72.917C234.81 72.6498 235.895 73.302 236.162 74.3737L237.133 74.1318L238.103 73.8899C237.569 71.7464 235.398 70.442 233.254 70.9764L233.496 71.9467ZM193.288 123.635L194.258 123.393C194.142 122.928 194.286 122.402 194.727 121.883C195.172 121.36 195.842 120.948 196.509 120.782L196.268 119.811L196.026 118.841C194.96 119.107 193.923 119.74 193.203 120.588C192.48 121.439 192.001 122.608 192.317 123.877L193.288 123.635ZM200.352 139.567L200.11 138.597C199.038 138.864 197.953 138.212 197.686 137.14L196.715 137.382L195.745 137.624C196.279 139.768 198.45 141.072 200.594 140.538L200.352 139.567ZM184.234 87.321L185.204 87.0791C184.937 86.0074 185.589 84.9219 186.661 84.6547L186.419 83.6844L186.177 82.7141C184.033 83.2485 182.729 85.4194 183.263 87.563L184.234 87.321ZM234.963 130.938L234.722 129.967C233.403 130.296 232.538 131.288 232.086 132.378C231.637 133.462 231.548 134.738 231.831 135.874L232.801 135.632L233.772 135.391C233.591 134.664 233.651 133.826 233.934 133.143C234.214 132.468 234.662 132.043 235.205 131.908L234.963 130.938ZM216.931 139.589L217.901 139.347C217.618 138.21 216.94 137.126 216.035 136.38C215.124 135.63 213.895 135.16 212.576 135.489L212.818 136.459L213.06 137.43C213.603 137.294 214.198 137.458 214.762 137.923C215.332 138.393 215.779 139.105 215.96 139.831L216.931 139.589ZM192.088 103.046L191.846 102.076C191.178 102.242 190.394 102.193 189.755 101.94C189.122 101.688 188.747 101.291 188.631 100.826L187.661 101.068L186.691 101.31C187.007 102.578 187.979 103.386 189.017 103.799C190.051 104.209 191.263 104.282 192.329 104.017L192.088 103.046ZM247.429 127.83L247.671 128.8C249.815 128.265 251.119 126.095 250.585 123.951L249.614 124.193L248.644 124.435C248.911 125.507 248.259 126.592 247.187 126.859L247.429 127.83Z" fill="black"/>
</g>
<path d="M129.853 115.421C130.293 117.186 128.594 118.875 126.83 119.315C122.38 120.424 119.707 125.076 120.862 129.706C122.016 134.335 126.56 137.189 131.01 136.08C132.775 135.64 135.066 136.333 135.506 138.097L138.92 151.79C139.321 153.398 138.343 155.026 136.735 155.427L123.973 158.609C122.114 159.072 121.358 161.442 121.821 163.301C122.975 167.93 120.303 172.582 115.853 173.692C111.403 174.801 106.861 171.948 105.706 167.319C105.243 165.46 103.461 163.723 101.603 164.186L88.8398 167.368C87.2323 167.769 85.6041 166.791 85.2033 165.183L81.7894 151.49C81.3493 149.726 83.0477 148.038 84.8125 147.598C89.2628 146.488 91.9348 141.835 90.7808 137.206C89.6258 132.576 85.0825 129.723 80.6325 130.833C78.8679 131.273 76.5755 130.579 76.1355 128.814L72.7217 115.122C72.3208 113.514 73.2991 111.886 74.9068 111.485L122.802 99.5437C124.41 99.1429 126.038 100.121 126.439 101.729L129.853 115.421Z" fill="#F9D4AD"/>
<mask id="mask11_4669_695" style="mask-type:alpha" maskUnits="userSpaceOnUse" x="72" y="99" width="68" height="75">
<path d="M129.853 115.421C130.293 117.186 128.594 118.875 126.83 119.315C122.38 120.424 119.707 125.076 120.862 129.706C122.016 134.335 126.56 137.189 131.01 136.08C132.775 135.64 135.066 136.333 135.506 138.097L138.92 151.79C139.321 153.398 138.343 155.026 136.735 155.427L123.973 158.609C122.114 159.072 121.358 161.442 121.821 163.301C122.975 167.93 120.303 172.582 115.853 173.692C111.403 174.801 106.861 171.948 105.706 167.319C105.243 165.46 103.461 163.723 101.603 164.186L88.8398 167.368C87.2323 167.769 85.6041 166.791 85.2033 165.183L81.7894 151.49C81.3493 149.726 83.0477 148.038 84.8125 147.598C89.2628 146.488 91.9348 141.835 90.7808 137.206C89.6258 132.576 85.0825 129.723 80.6325 130.833C78.8679 131.273 76.5755 130.579 76.1355 128.814L72.7217 115.122C72.3208 113.514 73.2991 111.886 74.9068 111.485L122.802 99.5437C124.41 99.1429 126.038 100.121 126.439 101.729L129.853 115.421Z" fill="white"/>
</mask>
<g mask="url(#mask11_4669_695)">
<path d="M126.83 119.315L126.588 118.344C121.566 119.596 118.613 124.819 119.891 129.948L120.862 129.706L121.832 129.464C120.802 125.334 123.193 121.252 127.072 120.285L126.83 119.315ZM120.862 129.706L119.891 129.948C121.17 135.077 126.23 138.302 131.252 137.05L131.01 136.08L130.768 135.11C126.889 136.077 122.862 133.594 121.832 129.464L120.862 129.706ZM135.506 138.097L134.536 138.339L137.95 152.032L138.92 151.79L139.891 151.548L136.477 137.855L135.506 138.097ZM136.735 155.427L136.493 154.456L123.731 157.638L123.973 158.609L124.215 159.579L136.977 156.397L136.735 155.427ZM121.821 163.301L120.851 163.543C121.88 167.673 119.489 171.755 115.611 172.722L115.853 173.692L116.095 174.662C121.117 173.41 124.07 168.188 122.792 163.059L121.821 163.301ZM115.853 173.692L115.611 172.722C111.733 173.688 107.706 171.207 106.676 167.077L105.706 167.319L104.736 167.561C106.015 172.689 111.073 175.914 116.095 174.662L115.853 173.692ZM101.603 164.186L101.361 163.216L88.598 166.398L88.84 167.368L89.082 168.338L101.845 165.156L101.603 164.186ZM85.2035 165.183L86.1738 164.941L82.7599 151.248L81.7896 151.49L80.8193 151.732L84.2332 165.425L85.2035 165.183ZM84.8127 147.598L85.0546 148.568C90.076 147.316 93.03 142.093 91.751 136.964L90.781 137.206L89.81 137.448C90.84 141.578 88.4492 145.661 84.5708 146.628L84.8127 147.598ZM90.781 137.206L91.751 136.964C90.472 131.835 85.4124 128.611 80.3908 129.863L80.6327 130.833L80.8746 131.803C84.7531 130.836 88.781 133.318 89.81 137.448L90.781 137.206ZM76.1357 128.814L77.106 128.572L73.6922 114.88L72.7219 115.122L71.7516 115.364L75.1654 129.056L76.1357 128.814ZM74.907 111.485L75.1489 112.456L123.044 100.514L122.802 99.5437L122.56 98.5734L74.6651 110.515L74.907 111.485ZM126.439 101.729L125.468 101.971L128.882 115.663L129.853 115.421L130.823 115.179L127.409 101.487L126.439 101.729ZM122.802 99.5437L123.044 100.514C124.116 100.247 125.201 100.899 125.468 101.971L126.439 101.729L127.409 101.487C126.875 99.3434 124.704 98.0389 122.56 98.5734L122.802 99.5437ZM81.7896 151.49L82.7599 151.248C82.6396 150.766 82.7888 150.224 83.2377 149.693C83.69 149.159 84.3722 148.738 85.0546 148.568L84.8127 147.598L84.5708 146.628C83.4885 146.898 82.439 147.541 81.7109 148.401C80.9794 149.266 80.4995 150.45 80.8193 151.732L81.7896 151.49ZM72.7219 115.122L73.6922 114.88C73.4249 113.808 74.0771 112.723 75.1489 112.456L74.907 111.485L74.6651 110.515C72.5215 111.049 71.2171 113.22 71.7516 115.364L72.7219 115.122ZM123.973 158.609L123.731 157.638C122.412 157.967 121.55 158.961 121.102 160.051C120.656 161.134 120.568 162.41 120.851 163.543L121.821 163.301L122.792 163.059C122.611 162.333 122.67 161.495 122.951 160.812C123.229 160.136 123.675 159.713 124.215 159.579L123.973 158.609ZM131.01 136.08L131.252 137.05C131.934 136.88 132.734 136.931 133.384 137.19C134.029 137.448 134.416 137.857 134.536 138.339L135.506 138.097L136.477 137.855C136.157 136.573 135.177 135.753 134.126 135.333C133.079 134.915 131.85 134.84 130.768 135.11L131.01 136.08ZM105.706 167.319L106.676 167.077C106.394 165.944 105.718 164.858 104.815 164.111C103.908 163.36 102.68 162.887 101.361 163.216L101.603 164.186L101.845 165.156C102.384 165.022 102.977 165.186 103.54 165.652C104.109 166.123 104.555 166.835 104.736 167.561L105.706 167.319ZM80.6327 130.833L80.3908 129.863C79.7088 130.033 78.9091 129.982 78.2586 129.722C77.6129 129.464 77.2263 129.055 77.106 128.572L76.1357 128.814L75.1654 129.056C75.4851 130.338 76.4647 131.159 77.5164 131.579C78.5632 131.997 79.792 132.073 80.8746 131.803L80.6327 130.833ZM138.92 151.79L137.95 152.032C138.217 153.104 137.565 154.189 136.493 154.456L136.735 155.427L136.977 156.397C139.121 155.862 140.425 153.692 139.891 151.548L138.92 151.79ZM88.84 167.368L88.598 166.398C87.5265 166.665 86.441 166.013 86.1738 164.941L85.2035 165.183L84.2332 165.425C84.7677 167.568 86.9386 168.873 89.082 168.338L88.84 167.368ZM126.83 119.315L127.072 120.285C128.154 120.015 129.204 119.371 129.932 118.51C130.663 117.645 131.143 116.461 130.823 115.179L129.853 115.421L128.882 115.663C129.003 116.145 128.853 116.688 128.404 117.219C127.952 117.754 127.27 118.174 126.588 118.344L126.83 119.315Z" fill="black"/>
</g>
<path d="M186.513 101.138C186.974 102.985 189.352 103.726 191.199 103.265C195.828 102.111 200.517 104.928 201.671 109.557C202.825 114.187 200.008 118.876 195.379 120.03C193.532 120.491 191.779 122.26 192.24 124.107L195.617 137.653C196.018 139.261 195.04 140.889 193.432 141.29L179.886 144.667C178.039 145.128 177.299 147.506 177.76 149.353C178.914 153.982 176.096 158.671 171.467 159.825C166.838 160.979 162.149 158.162 160.995 153.533C160.534 151.686 158.765 149.933 156.917 150.394L143.371 153.772C141.763 154.172 140.135 153.194 139.734 151.586L136.357 138.039C135.896 136.192 133.519 135.453 131.672 135.914C127.043 137.068 122.353 134.251 121.199 129.621C120.045 124.992 122.863 120.303 127.492 119.149C129.339 118.689 131.091 116.919 130.63 115.072L127.253 101.525C126.852 99.9177 127.83 98.2895 129.438 97.8887L179.499 85.4069C181.107 85.0061 182.735 85.9845 183.136 87.5921L186.513 101.138Z" fill="#F9D4AD"/>
<mask id="mask12_4669_695" style="mask-type:alpha" maskUnits="userSpaceOnUse" x="120" y="85" width="82" height="76">
<path d="M186.513 101.138C186.974 102.985 189.352 103.726 191.199 103.265C195.828 102.111 200.517 104.928 201.671 109.557C202.825 114.187 200.008 118.876 195.379 120.03C193.532 120.491 191.779 122.26 192.24 124.107L195.617 137.653C196.018 139.261 195.04 140.889 193.432 141.29L179.886 144.667C178.039 145.128 177.299 147.506 177.76 149.353C178.914 153.982 176.096 158.671 171.467 159.825C166.838 160.979 162.149 158.162 160.995 153.533C160.534 151.686 158.765 149.933 156.917 150.394L143.371 153.772C141.763 154.172 140.135 153.194 139.734 151.586L136.357 138.039C135.896 136.192 133.519 135.453 131.672 135.914C127.043 137.068 122.353 134.251 121.199 129.621C120.045 124.992 122.863 120.303 127.492 119.149C129.339 118.689 131.091 116.919 130.63 115.072L127.253 101.525C126.852 99.9177 127.83 98.2895 129.438 97.8887L179.499 85.4069C181.107 85.0061 182.735 85.9845 183.136 87.5921L186.513 101.138Z" fill="white"/>
</mask>
<g mask="url(#mask12_4669_695)">
<path d="M191.199 103.265L191.441 104.235C195.534 103.215 199.68 105.706 200.701 109.799L201.671 109.557L202.641 109.315C201.353 104.15 196.122 101.007 190.957 102.295L191.199 103.265ZM201.671 109.557L200.701 109.799C201.721 113.893 199.23 118.039 195.137 119.06L195.379 120.03L195.621 121C200.786 119.712 203.929 114.48 202.641 109.315L201.671 109.557ZM192.24 124.107L191.27 124.349L194.647 137.895L195.617 137.653L196.588 137.411L193.21 123.865L192.24 124.107ZM193.432 141.29L193.19 140.32L179.644 143.697L179.886 144.667L180.128 145.638L193.674 142.26L193.432 141.29ZM177.76 149.353L176.79 149.595C177.81 153.688 175.319 157.834 171.225 158.855L171.467 159.825L171.709 160.796C176.874 159.508 180.018 154.276 178.73 149.111L177.76 149.353ZM171.467 159.825L171.225 158.855C167.132 159.875 162.986 157.384 161.965 153.291L160.995 153.533L160.025 153.775C161.313 158.94 166.544 162.083 171.709 160.796L171.467 159.825ZM156.917 150.394L156.675 149.424L143.129 152.801L143.371 153.772L143.613 154.742L157.159 151.364L156.917 150.394ZM139.734 151.586L140.705 151.344L137.327 137.797L136.357 138.039L135.386 138.281L138.764 151.828L139.734 151.586ZM131.672 135.914L131.43 134.944C127.337 135.964 123.19 133.473 122.169 129.379L121.199 129.621L120.229 129.863C121.517 135.028 126.749 138.172 131.914 136.884L131.672 135.914ZM121.199 129.621L122.169 129.379C121.149 125.286 123.64 121.14 127.734 120.119L127.492 119.149L127.25 118.179C122.085 119.466 118.941 124.698 120.229 129.863L121.199 129.621ZM130.63 115.072L131.601 114.83L128.223 101.283L127.253 101.525L126.282 101.767L129.66 115.314L130.63 115.072ZM129.438 97.8886L129.68 98.8588L179.741 86.3772L179.499 85.4069L179.257 84.4366L129.196 96.9183L129.438 97.8886ZM183.136 87.592L182.165 87.8339L185.543 101.379L186.513 101.138L187.483 100.896L184.106 87.3501L183.136 87.592ZM179.499 85.4069L179.741 86.3772C180.813 86.11 181.898 86.7622 182.165 87.8339L183.136 87.592L184.106 87.3501C183.572 85.2066 181.401 83.9022 179.257 84.4366L179.499 85.4069ZM136.357 138.039L137.327 137.797C136.998 136.479 135.998 135.626 134.91 135.185C133.828 134.746 132.556 134.663 131.43 134.944L131.672 135.914L131.914 136.884C132.636 136.704 133.475 136.761 134.159 137.038C134.836 137.313 135.255 137.752 135.386 138.281L136.357 138.039ZM127.253 101.525L128.223 101.283C127.956 100.211 128.608 99.1261 129.68 98.8588L129.438 97.8886L129.196 96.9183C127.052 97.4527 125.748 99.6236 126.282 101.767L127.253 101.525ZM179.886 144.667L179.644 143.697C178.326 144.026 177.472 145.026 177.031 146.114C176.592 147.196 176.509 148.469 176.79 149.595L177.76 149.353L178.73 149.111C178.55 148.389 178.607 147.55 178.884 146.866C179.159 146.188 179.599 145.769 180.128 145.638L179.886 144.667ZM195.379 120.03L195.137 119.06C194.011 119.34 192.926 120.011 192.177 120.907C191.424 121.807 190.941 123.031 191.27 124.349L192.24 124.107L193.21 123.865C193.078 123.336 193.241 122.751 193.711 122.19C194.184 121.624 194.899 121.18 195.621 121L195.379 120.03ZM160.995 153.533L161.965 153.291C161.685 152.165 161.014 151.08 160.118 150.331C159.217 149.578 157.994 149.095 156.675 149.424L156.917 150.394L157.159 151.364C157.688 151.232 158.273 151.395 158.835 151.865C159.401 152.338 159.845 153.053 160.025 153.775L160.995 153.533ZM127.492 119.149L127.734 120.119C128.86 119.839 129.944 119.168 130.694 118.272C131.447 117.371 131.929 116.148 131.601 114.83L130.63 115.072L129.66 115.314C129.792 115.842 129.629 116.427 129.159 116.989C128.686 117.555 127.971 117.999 127.25 118.179L127.492 119.149ZM195.617 137.653L194.647 137.895C194.914 138.967 194.262 140.052 193.19 140.32L193.432 141.29L193.674 142.26C195.818 141.726 197.122 139.555 196.588 137.411L195.617 137.653ZM143.371 153.772L143.129 152.801C142.057 153.068 140.972 152.416 140.705 151.344L139.734 151.586L138.764 151.828C139.299 153.972 141.469 155.276 143.613 154.742L143.371 153.772ZM191.199 103.265L190.957 102.295C190.236 102.475 189.396 102.418 188.712 102.14C188.034 101.865 187.615 101.425 187.483 100.896L186.513 101.138L185.543 101.379C185.871 102.698 186.872 103.552 187.96 103.993C189.042 104.433 190.315 104.516 191.441 104.235L191.199 103.265Z" fill="black"/>
</g>
<path d="M200.573 157.657C201.033 159.505 203.411 160.245 205.258 159.784C209.888 158.63 214.576 161.448 215.731 166.077C216.885 170.706 214.068 175.395 209.438 176.549C207.591 177.01 205.839 178.779 206.299 180.626L209.677 194.172C210.078 195.78 209.099 197.408 207.492 197.809L157.431 210.29C155.824 210.691 154.196 209.713 153.795 208.105L150.417 194.558C149.957 192.711 147.58 191.972 145.732 192.433C141.103 193.587 136.414 190.77 135.26 186.141C134.105 181.511 136.923 176.822 141.552 175.668C143.4 175.207 145.151 173.438 144.691 171.591L141.313 158.045C140.912 156.437 141.891 154.809 143.498 154.408L156.723 151.111C157.731 150.859 158.713 151.584 158.965 152.592C160.434 158.487 166.187 162.128 171.814 160.725C177.441 159.322 180.811 153.406 179.341 147.512C179.09 146.504 179.617 145.403 180.625 145.151L193.559 141.927C195.166 141.526 196.794 142.504 197.195 144.112L200.573 157.657Z" fill="#F9D4AD"/>
<mask id="mask13_4669_695" style="mask-type:alpha" maskUnits="userSpaceOnUse" x="135" y="141" width="81" height="70">
<path d="M200.573 157.657C201.033 159.505 203.411 160.245 205.258 159.784C209.888 158.63 214.576 161.448 215.731 166.077C216.885 170.706 214.068 175.395 209.438 176.549C207.591 177.01 205.839 178.779 206.299 180.626L209.677 194.172C210.078 195.78 209.099 197.408 207.492 197.809L157.431 210.29C155.824 210.691 154.196 209.713 153.795 208.105L150.417 194.558C149.957 192.711 147.58 191.972 145.732 192.433C141.103 193.587 136.414 190.77 135.26 186.141C134.105 181.511 136.923 176.822 141.552 175.668C143.4 175.207 145.151 173.438 144.691 171.591L141.313 158.045C140.912 156.437 141.891 154.809 143.498 154.408L156.723 151.111C157.731 150.859 158.713 151.584 158.965 152.592C160.434 158.487 166.187 162.128 171.814 160.725C177.441 159.322 180.811 153.406 179.341 147.512C179.09 146.504 179.617 145.403 180.625 145.151L193.559 141.927C195.166 141.526 196.794 142.504 197.195 144.112L200.573 157.657Z" fill="white"/>
</mask>
<g mask="url(#mask13_4669_695)">
<path d="M205.258 159.784L205.5 160.754C209.594 159.734 213.74 162.225 214.76 166.319L215.731 166.077L216.701 165.835C215.413 160.67 210.182 157.526 205.017 158.814L205.258 159.784ZM215.731 166.077L214.76 166.319C215.781 170.412 213.29 174.558 209.196 175.579L209.438 176.549L209.68 177.519C214.845 176.231 217.989 171 216.701 165.835L215.731 166.077ZM206.299 180.626L205.329 180.868L208.706 194.414L209.677 194.172L210.647 193.93L207.27 180.384L206.299 180.626ZM207.492 197.809L207.25 196.838L157.189 209.32L157.431 210.29L157.673 211.26L207.733 198.779L207.492 197.809ZM153.795 208.105L154.765 207.863L151.387 194.316L150.417 194.558L149.447 194.8L152.824 208.347L153.795 208.105ZM145.732 192.433L145.491 191.462C141.397 192.483 137.251 189.992 136.23 185.899L135.26 186.141L134.289 186.383C135.577 191.548 140.809 194.691 145.974 193.403L145.732 192.433ZM135.26 186.141L136.23 185.899C135.209 181.805 137.701 177.659 141.794 176.638L141.552 175.668L141.311 174.697C136.145 175.985 133.001 181.217 134.289 186.383L135.26 186.141ZM144.691 171.591L145.661 171.349L142.284 157.803L141.313 158.045L140.343 158.287L143.72 171.833L144.691 171.591ZM143.498 154.408L143.74 155.378L156.965 152.081L156.723 151.111L156.481 150.14L143.256 153.438L143.498 154.408ZM158.965 152.592L157.994 152.834C159.587 159.221 165.851 163.242 172.056 161.695L171.814 160.725L171.572 159.755C166.523 161.014 161.282 157.752 159.935 152.35L158.965 152.592ZM171.814 160.725L172.056 161.695C178.261 160.148 181.904 153.657 180.311 147.27L179.341 147.512L178.371 147.754C179.717 153.155 176.621 158.496 171.572 159.755L171.814 160.725ZM180.625 145.151L180.867 146.122L193.801 142.897L193.559 141.927L193.317 140.956L180.383 144.181L180.625 145.151ZM197.195 144.112L196.225 144.354L199.602 157.899L200.573 157.657L201.543 157.415L198.166 143.87L197.195 144.112ZM156.723 151.111L156.965 152.081C157.333 151.989 157.849 152.251 157.994 152.834L158.965 152.592L159.935 152.35C159.578 150.917 158.13 149.729 156.481 150.14L156.723 151.111ZM141.313 158.045L142.284 157.803C142.016 156.731 142.669 155.646 143.74 155.378L143.498 154.408L143.256 153.438C141.113 153.972 139.809 156.143 140.343 158.287L141.313 158.045ZM193.559 141.927L193.801 142.897C194.872 142.63 195.958 143.282 196.225 144.354L197.195 144.112L198.166 143.87C197.631 141.726 195.46 140.422 193.317 140.956L193.559 141.927ZM150.417 194.558L151.387 194.316C151.059 192.998 150.058 192.144 148.971 191.703C147.889 191.264 146.616 191.182 145.491 191.462L145.732 192.433L145.974 193.403C146.696 193.223 147.535 193.279 148.219 193.557C148.897 193.832 149.315 194.271 149.447 194.8L150.417 194.558ZM179.341 147.512L180.311 147.27C180.166 146.686 180.499 146.213 180.867 146.122L180.625 145.151L180.383 144.181C178.734 144.592 178.013 146.321 178.371 147.754L179.341 147.512ZM157.431 210.29L157.189 209.32C156.118 209.587 155.032 208.935 154.765 207.863L153.795 208.105L152.824 208.347C153.359 210.49 155.53 211.795 157.673 211.26L157.431 210.29ZM209.438 176.549L209.197 175.579C208.071 175.859 206.986 176.53 206.236 177.426C205.483 178.326 205 179.549 205.329 180.868L206.299 180.626L207.27 180.384C207.138 179.855 207.301 179.27 207.77 178.709C208.244 178.143 208.959 177.699 209.68 177.519L209.438 176.549ZM209.677 194.172L208.706 194.414C208.974 195.486 208.321 196.571 207.25 196.838L207.492 197.809L207.733 198.779C209.877 198.245 211.181 196.074 210.647 193.93L209.677 194.172ZM141.552 175.668L141.794 176.638C142.92 176.357 144.005 175.687 144.754 174.791C145.507 173.891 145.99 172.667 145.661 171.349L144.691 171.591L143.72 171.833C143.852 172.362 143.689 172.946 143.22 173.508C142.747 174.073 142.032 174.517 141.311 174.697L141.552 175.668ZM205.258 159.784L205.017 158.814C204.295 158.993 203.455 158.937 202.771 158.659C202.093 158.384 201.675 157.944 201.543 157.415L200.573 157.657L199.602 157.899C199.931 159.217 200.932 160.071 202.019 160.513C203.102 160.952 204.374 161.035 205.5 160.754L205.258 159.784Z" fill="black"/>
</g>
<path d="M89.4021 187.066C89.7541 188.448 88.6081 189.779 87.2256 190.131C82.6024 191.31 79.8103 196.014 80.9888 200.637C82.1675 205.26 86.8706 208.053 91.4941 206.874C92.8761 206.522 94.5191 207.14 94.8721 208.523L98.3721 222.252C98.7811 223.858 97.8111 225.491 96.2061 225.9L46.212 238.645C44.6065 239.054 42.9732 238.085 42.5639 236.479L29.8193 186.485C29.41 184.88 30.3797 183.246 31.9853 182.837L46.2497 179.201C46.9371 179.025 47.6165 179.49 47.7917 180.177C49.2694 185.973 54.7817 189.573 60.1034 188.216C65.4251 186.859 68.5415 181.06 67.064 175.264C66.8888 174.577 67.263 173.844 67.9503 173.669L81.9791 170.092C83.5846 169.683 85.218 170.653 85.6272 172.258L89.4021 187.066Z" fill="#F9D4AD"/>
<mask id="mask14_4669_695" style="mask-type:alpha" maskUnits="userSpaceOnUse" x="29" y="169" width="70" height="70">
<path d="M89.4021 187.066C89.7541 188.448 88.6081 189.779 87.2256 190.131C82.6024 191.31 79.8103 196.014 80.9888 200.637C82.1675 205.26 86.8706 208.053 91.4941 206.874C92.8761 206.522 94.5191 207.14 94.8721 208.523L98.3721 222.252C98.7811 223.858 97.8111 225.491 96.2061 225.9L46.212 238.645C44.6065 239.054 42.9732 238.085 42.5639 236.479L29.8193 186.485C29.41 184.88 30.3797 183.246 31.9853 182.837L46.2497 179.201C46.9371 179.025 47.6165 179.49 47.7917 180.177C49.2694 185.973 54.7817 189.573 60.1034 188.216C65.4251 186.859 68.5415 181.06 67.064 175.264C66.8888 174.577 67.263 173.844 67.9503 173.669L81.9791 170.092C83.5846 169.683 85.218 170.653 85.6272 172.258L89.4021 187.066Z" fill="white"/>
</mask>
<g mask="url(#mask14_4669_695)">
<path d="M87.2258 190.131L86.9788 189.162C81.8203 190.477 78.7051 195.726 80.02 200.884L80.989 200.637L81.9581 200.39C80.9159 196.302 83.3849 192.142 87.4728 191.1L87.2258 190.131ZM80.989 200.637L80.02 200.884C81.3352 206.042 86.5826 209.158 91.7413 207.843L91.4943 206.874L91.2473 205.905C87.1589 206.947 83.0004 204.478 81.9581 200.39L80.989 200.637ZM94.8723 208.523L93.9033 208.77L97.4033 222.499L98.3723 222.252L99.3413 222.005L95.8413 208.276L94.8723 208.523ZM96.2063 225.9L95.9593 224.931L45.9652 237.676L46.2122 238.645L46.4593 239.614L96.4533 226.869L96.2063 225.9ZM42.5641 236.479L43.5332 236.232L30.7885 186.238L29.8195 186.485L28.8505 186.732L41.5951 236.726L42.5641 236.479ZM31.9855 182.837L32.2325 183.806L46.497 180.17L46.2499 179.201L46.0029 178.232L31.7384 181.868L31.9855 182.837ZM47.7919 180.177L46.8229 180.424C48.4167 186.676 54.4175 190.697 60.3506 189.185L60.1036 188.216L59.8566 187.247C55.1463 188.448 50.1224 185.271 48.7609 179.93L47.7919 180.177ZM60.1036 188.216L60.3506 189.185C66.2838 187.673 69.6269 181.269 68.0332 175.017L67.0642 175.264L66.0952 175.511C67.4566 180.852 64.5669 186.046 59.8566 187.247L60.1036 188.216ZM67.9505 173.669L68.1975 174.638L82.2264 171.061L81.9793 170.092L81.7323 169.123L67.7034 172.7L67.9505 173.669ZM85.6274 172.258L84.6584 172.505L88.4331 187.313L89.4023 187.066L90.3713 186.818L86.5964 172.011L85.6274 172.258ZM81.9793 170.092L82.2264 171.061C83.2967 170.789 84.3856 171.435 84.6584 172.505L85.6274 172.258L86.5964 172.011C86.0507 169.871 83.873 168.578 81.7323 169.123L81.9793 170.092ZM67.0642 175.264L68.0332 175.017C68.0085 174.92 68.0241 174.823 68.0633 174.75C68.1 174.683 68.1475 174.65 68.1975 174.638L67.9505 173.669L67.7034 172.7C66.41 173.029 65.8024 174.363 66.0952 175.511L67.0642 175.264ZM46.2499 179.201L46.497 180.17C46.547 180.157 46.6041 180.163 46.6688 180.204C46.7379 180.249 46.7981 180.327 46.8229 180.424L47.7919 180.177L48.7609 179.93C48.4681 178.782 47.2964 177.902 46.0029 178.232L46.2499 179.201ZM29.8195 186.485L30.7885 186.238C30.5157 185.168 31.1621 184.079 32.2325 183.806L31.9855 182.837L31.7384 181.868C29.5978 182.414 28.3048 184.592 28.8505 186.732L29.8195 186.485ZM46.2122 238.645L45.9652 237.676C44.8949 237.949 43.806 237.302 43.5332 236.232L42.5641 236.479L41.5951 236.726C42.1408 238.867 44.3186 240.16 46.4593 239.614L46.2122 238.645ZM91.4943 206.874L91.7413 207.843C92.2163 207.722 92.7403 207.771 93.1583 207.959C93.5663 208.144 93.8163 208.43 93.9033 208.77L94.8723 208.523L95.8413 208.276C95.5753 207.233 94.8273 206.519 93.9813 206.137C93.1433 205.758 92.1543 205.674 91.2473 205.905L91.4943 206.874ZM98.3723 222.252L97.4033 222.499C97.6763 223.57 97.0293 224.658 95.9593 224.931L96.2063 225.9L96.4533 226.869C98.5943 226.324 99.8873 224.146 99.3413 222.005L98.3723 222.252ZM87.2258 190.131L87.4728 191.1C88.3805 190.869 89.2083 190.321 89.7623 189.588C90.3223 188.846 90.6373 187.861 90.3713 186.818L89.4023 187.066L88.4331 187.313C88.5203 187.653 88.4373 188.024 88.1668 188.382C87.8904 188.748 87.4538 189.041 86.9788 189.162L87.2258 190.131Z" fill="black"/>
</g>
</mask>
<g mask="url(#mask8_4669_695)">
<path d="M157.271 139.43C162.629 138.093 165.836 132.449 164.433 126.822C163.03 121.196 157.549 117.717 152.19 119.053C146.831 120.389 143.625 126.034 145.027 131.661C146.43 137.287 151.912 140.766 157.271 139.43Z" fill="white"/>
<path d="M145.193 166.645C166.163 165.088 180.644 157.53 180.644 157.53C180.644 157.53 184.523 155.589 184.872 153.349C185.119 151.764 184.975 150.716 184.273 149.278C182.879 146.42 180.845 145.023 177.812 143.944C176.29 143.402 171.067 141.926 165.602 141.719L165.468 141.716C162.543 141.655 160.855 141.707 157.998 142.353C154.685 143.102 152.861 143.885 149.929 145.59C146.033 147.856 143.975 149.522 141.12 153.092C139.15 155.557 137.922 157.685 138.05 160.803C138.115 162.402 138.472 163.394 139.432 164.678C140.739 166.426 142.982 166.809 145.193 166.645Z" fill="white"/>
</g>
<g filter="url(#filter1_d_4669_695)">
<path d="M305.689 197.79C306.241 200.004 304.133 202.101 301.887 202.502C301.627 202.548 301.367 202.603 301.107 202.668C294.646 204.279 290.767 211.033 292.443 217.754C294.118 224.475 300.715 228.618 307.175 227.007C307.435 226.942 307.691 226.869 307.942 226.788C310.113 226.086 312.959 226.948 313.511 229.162L318.988 251.131C319.389 252.739 318.411 254.367 316.803 254.768L244.638 272.761C243.031 273.162 241.403 272.183 241.002 270.576L235.524 248.607C234.972 246.393 232.127 245.531 229.955 246.232C229.704 246.313 229.449 246.386 229.189 246.451C222.728 248.062 216.132 243.92 214.456 237.199C212.78 230.477 216.66 223.723 223.12 222.112C223.38 222.048 223.64 221.992 223.9 221.946C226.147 221.546 228.254 219.448 227.702 217.234L222.225 195.266C221.824 193.658 222.802 192.03 224.41 191.629L242.614 187.09C243.419 186.89 244.216 187.427 244.417 188.231C246.492 196.554 254.602 201.698 262.532 199.721C270.462 197.744 275.209 189.394 273.134 181.071C272.934 180.267 273.385 179.418 274.189 179.218L296.575 173.637C298.182 173.236 299.811 174.214 300.212 175.822L305.689 197.79Z" fill="#F9D4AD"/>
<mask id="mask15_4669_695" style="mask-type:luminance" maskUnits="userSpaceOnUse" x="214" y="173" width="106" height="100">
<path d="M305.689 197.79C306.241 200.004 304.133 202.101 301.887 202.502C301.627 202.548 301.367 202.603 301.107 202.668C294.646 204.279 290.767 211.033 292.443 217.754C294.118 224.475 300.715 228.618 307.175 227.007C307.435 226.942 307.691 226.869 307.942 226.788C310.113 226.086 312.959 226.948 313.511 229.162L318.988 251.131C319.389 252.739 318.411 254.367 316.803 254.768L244.638 272.761C243.031 273.162 241.403 272.183 241.002 270.576L235.524 248.607C234.972 246.393 232.127 245.531 229.955 246.232C229.704 246.313 229.449 246.386 229.189 246.451C222.728 248.062 216.132 243.92 214.456 237.199C212.78 230.477 216.66 223.723 223.12 222.112C223.38 222.048 223.64 221.992 223.9 221.946C226.147 221.546 228.254 219.448 227.702 217.234L222.225 195.266C221.824 193.658 222.802 192.03 224.41 191.629L242.614 187.09C243.419 186.89 244.216 187.427 244.417 188.231C246.492 196.554 254.602 201.698 262.532 199.721C270.462 197.744 275.209 189.394 273.134 181.071C272.934 180.267 273.385 179.418 274.189 179.218L296.575 173.637C298.182 173.236 299.811 174.214 300.212 175.822L305.689 197.79Z" fill="white"/>
</mask>
<g mask="url(#mask15_4669_695)">
<path d="M301.888 202.502L301.712 201.517C301.43 201.567 301.148 201.628 300.866 201.698L301.108 202.668L301.35 203.638C301.588 203.579 301.826 203.528 302.063 203.486L301.888 202.502ZM301.108 202.668L300.866 201.698C293.834 203.451 289.673 210.776 291.473 217.996L292.444 217.754L293.414 217.512C291.863 211.291 295.461 205.107 301.35 203.638L301.108 202.668ZM292.444 217.754L291.473 217.996C293.274 225.217 300.386 229.731 307.418 227.977L307.176 227.007L306.934 226.037C301.045 227.505 294.965 223.734 293.414 217.512L292.444 217.754ZM307.176 227.007L307.418 227.977C307.7 227.907 307.978 227.828 308.25 227.739L307.943 226.788L307.636 225.836C307.406 225.911 307.172 225.977 306.934 226.037L307.176 227.007ZM313.512 229.162L312.542 229.404L318.019 251.373L318.989 251.131L319.96 250.889L314.482 228.921L313.512 229.162ZM316.804 254.768L316.562 253.798L244.397 271.79L244.639 272.761L244.881 273.731L317.046 255.738L316.804 254.768ZM241.003 270.576L241.973 270.334L236.496 248.365L235.525 248.607L234.555 248.849L240.032 270.818L241.003 270.576ZM229.956 246.232L229.649 245.281C229.419 245.355 229.186 245.422 228.948 245.481L229.19 246.451L229.432 247.422C229.714 247.351 229.991 247.272 230.264 247.184L229.956 246.232ZM229.19 246.451L228.948 245.481C223.059 246.949 216.979 243.178 215.427 236.957L214.457 237.199L213.487 237.44C215.287 244.661 222.399 249.175 229.432 247.422L229.19 246.451ZM214.457 237.199L215.427 236.957C213.876 230.735 217.474 224.551 223.363 223.083L223.121 222.112L222.879 221.142C215.847 222.895 211.686 230.22 213.487 237.44L214.457 237.199ZM223.121 222.112L223.363 223.083C223.601 223.023 223.839 222.973 224.077 222.93L223.901 221.946L223.726 220.961C223.443 221.012 223.161 221.072 222.879 221.142L223.121 222.112ZM227.703 217.234L228.674 216.992L223.196 195.024L222.226 195.266L221.256 195.508L226.733 217.476L227.703 217.234ZM224.411 191.629L224.653 192.6L242.857 188.061L242.615 187.09L242.373 186.12L224.169 190.659L224.411 191.629ZM244.418 188.231L243.447 188.473C245.645 197.287 254.266 202.813 262.775 200.692L262.533 199.721L262.291 198.751C254.941 200.583 247.341 195.821 245.388 187.989L244.418 188.231ZM262.533 199.721L262.775 200.692C271.285 198.57 276.303 189.643 274.105 180.829L273.135 181.071L272.165 181.313C274.117 189.145 269.642 196.918 262.291 198.751L262.533 199.721ZM274.19 179.218L274.432 180.188L296.818 174.607L296.576 173.637L296.334 172.666L273.948 178.248L274.19 179.218ZM300.213 175.822L299.242 176.064L304.72 198.032L305.69 197.79L306.66 197.548L301.183 175.58L300.213 175.822ZM242.615 187.09L242.857 188.061C243.068 188.008 243.366 188.145 243.447 188.473L244.418 188.231L245.388 187.989C245.069 186.709 243.771 185.772 242.373 186.12L242.615 187.09ZM222.226 195.266L223.196 195.024C222.929 193.952 223.581 192.867 224.653 192.6L224.411 191.629L224.169 190.659C222.026 191.193 220.721 193.364 221.256 195.508L222.226 195.266ZM296.576 173.637L296.818 174.607C297.89 174.34 298.975 174.992 299.242 176.064L300.213 175.822L301.183 175.58C300.648 173.436 298.477 172.132 296.334 172.666L296.576 173.637ZM235.525 248.607L236.496 248.365C236.121 246.862 234.978 245.882 233.707 245.393C232.444 244.907 230.954 244.859 229.649 245.281L229.956 246.232L230.264 247.184C231.13 246.904 232.149 246.936 232.989 247.259C233.822 247.58 234.378 248.137 234.555 248.849L235.525 248.607ZM273.135 181.071L274.105 180.829C274.024 180.5 274.222 180.241 274.432 180.188L274.19 179.218L273.948 178.248C272.55 178.596 271.846 180.033 272.165 181.313L273.135 181.071ZM244.639 272.761L244.397 271.79C243.326 272.058 242.24 271.405 241.973 270.334L241.003 270.576L240.032 270.818C240.567 272.961 242.738 274.265 244.881 273.731L244.639 272.761ZM307.943 226.788L308.25 227.739C309.116 227.46 310.136 227.492 310.976 227.815C311.808 228.135 312.364 228.693 312.542 229.404L313.512 229.162L314.482 228.921C314.107 227.418 312.965 226.437 311.694 225.948C310.43 225.463 308.941 225.415 307.636 225.836L307.943 226.788ZM318.989 251.131L318.019 251.373C318.286 252.445 317.634 253.531 316.562 253.798L316.804 254.768L317.046 255.738C319.19 255.204 320.494 253.033 319.96 250.889L318.989 251.131ZM223.901 221.946L224.077 222.93C225.427 222.69 226.72 221.948 227.607 220.926C228.499 219.897 229.048 218.495 228.674 216.992L227.703 217.234L226.733 217.476C226.91 218.187 226.681 218.941 226.096 219.615C225.506 220.295 224.622 220.802 223.726 220.961L223.901 221.946ZM301.888 202.502L302.063 203.486C303.414 203.245 304.706 202.504 305.593 201.481C306.486 200.453 307.035 199.051 306.66 197.548L305.69 197.79L304.72 198.032C304.897 198.743 304.668 199.497 304.083 200.17C303.493 200.85 302.608 201.357 301.712 201.517L301.888 202.502Z" fill="black"/>
</g>
</g>
</g>
</g>
<defs>
<filter id="filter0_d_4669_695" x="-11.5" y="55.838" width="305.363" height="255.128" filterUnits="userSpaceOnUse" color-interpolation-filters="sRGB">
<feFlood flood-opacity="0" result="BackgroundImageFix"/>
<feColorMatrix in="SourceAlpha" type="matrix" values="0 0 0 0 0 0 0 0 0 0 0 0 0 0 0 0 0 0 127 0" result="hardAlpha"/>
<feOffset dx="-3" dy="12"/>
<feGaussianBlur stdDeviation="2"/>
<feComposite in2="hardAlpha" operator="out"/>
<feColorMatrix type="matrix" values="0 0 0 0 0 0 0 0 0 0 0 0 0 0 0 0 0 0 0.25 0"/>
<feBlend mode="normal" in2="BackgroundImageFix" result="effect1_dropShadow_4669_695"/>
<feBlend mode="normal" in="SourceGraphic" in2="effect1_dropShadow_4669_695" result="shape"/>
</filter>
<filter id="filter1_d_4669_695" x="210.066" y="173.547" width="113.012" height="107.304" filterUnits="userSpaceOnUse" color-interpolation-filters="sRGB">
<feFlood flood-opacity="0" result="BackgroundImageFix"/>
<feColorMatrix in="SourceAlpha" type="matrix" values="0 0 0 0 0 0 0 0 0 0 0 0 0 0 0 0 0 0 127 0" result="hardAlpha"/>
<feOffset dy="4"/>
<feGaussianBlur stdDeviation="2"/>
<feComposite in2="hardAlpha" operator="out"/>
<feColorMatrix type="matrix" values="0 0 0 0 0 0 0 0 0 0 0 0 0 0 0 0 0 0 0.25 0"/>
<feBlend mode="normal" in2="BackgroundImageFix" result="effect1_dropShadow_4669_695"/>
<feBlend mode="normal" in="SourceGraphic" in2="effect1_dropShadow_4669_695" result="shape"/>
</filter>
</defs>
</svg>
