<svg width="342" height="350" viewBox="0 0 342 350" fill="none" xmlns="http://www.w3.org/2000/svg">
<path d="M320 0H20C8.9543 0 0 8.9543 0 20V330C0 341.046 8.9543 350 20 350H320C331.046 350 340 341.046 340 330V20C340 8.9543 331.046 0 320 0Z" fill="#F9FAFB" fill-opacity="0.98"/>
<g filter="url(#filter0_d_3811_2197)">
<path d="M259.328 41.9545L11.8839 102.906C9.73888 103.434 8.42833 105.602 8.9567 107.747L50.8749 277.921C51.4033 280.066 53.5705 281.377 55.7155 280.848L303.159 219.897C305.304 219.368 306.615 217.201 306.086 215.056L264.168 44.8817C263.64 42.7367 261.473 41.4262 259.328 41.9545Z" fill="#324C73"/>
<path d="M259.447 42.4403L12.0039 103.392C10.127 103.854 8.98026 105.751 9.44258 107.627L51.3608 277.802C51.8231 279.679 53.7194 280.825 55.5963 280.363L303.04 219.411C304.917 218.949 306.064 217.053 305.601 215.176L263.683 45.0016C263.221 43.1247 261.324 41.978 259.447 42.4403Z" stroke="black"/>
</g>
<path d="M246.766 56.4638L30.7161 110.331C28.5726 110.866 27.2682 113.036 27.8026 115.18L62.5134 254.397C63.0478 256.541 65.2187 257.845 67.3622 257.311L283.412 203.443C285.556 202.909 286.86 200.738 286.326 198.594L251.615 59.3773C251.081 57.2338 248.91 55.9294 246.766 56.4638Z" stroke="white" stroke-width="2"/>
<path d="M88.269 114.957C88.7296 116.804 91.1078 117.545 92.9551 117.084C97.5845 115.93 102.273 118.747 103.427 123.377C104.582 128.006 101.765 132.695 97.1351 133.849C95.2876 134.31 93.5354 136.079 93.996 137.926L97.3734 151.472C97.7742 153.08 96.7959 154.708 95.1883 155.109L81.6422 158.487C79.7947 158.947 79.0555 161.325 79.5162 163.172C80.6702 167.802 77.8524 172.49 73.223 173.644C68.5937 174.799 63.9055 171.982 62.7511 167.352C62.2905 165.505 60.5208 163.753 58.6733 164.213L45.1271 167.591C43.5194 167.992 41.8913 167.013 41.4904 165.406L29.0088 115.344C28.6079 113.737 29.5863 112.109 31.1939 111.708L81.2551 99.2261C82.8627 98.8252 84.4909 99.8036 84.8917 101.411L88.269 114.957Z" fill="#F9D4AD"/>
<mask id="mask0_3811_2197" style="mask-type:luminance" maskUnits="userSpaceOnUse" x="28" y="99" width="76" height="75">
<path d="M88.269 114.957C88.7296 116.804 91.1078 117.545 92.9551 117.084C97.5845 115.93 102.273 118.747 103.427 123.377C104.582 128.006 101.765 132.695 97.1351 133.849C95.2876 134.31 93.5354 136.079 93.996 137.926L97.3734 151.472C97.7742 153.08 96.7959 154.708 95.1883 155.109L81.6422 158.487C79.7947 158.947 79.0555 161.325 79.5162 163.172C80.6702 167.802 77.8524 172.49 73.223 173.644C68.5937 174.799 63.9055 171.982 62.7511 167.352C62.2905 165.505 60.5208 163.753 58.6733 164.213L45.1271 167.591C43.5194 167.992 41.8913 167.013 41.4904 165.406L29.0088 115.344C28.6079 113.737 29.5863 112.109 31.1939 111.708L81.2551 99.2261C82.8627 98.8252 84.4909 99.8036 84.8917 101.411L88.269 114.957Z" fill="white"/>
</mask>
<g mask="url(#mask0_3811_2197)">
<path d="M92.9553 117.084L93.1972 118.055C97.2907 117.034 101.436 119.525 102.457 123.618L103.427 123.377L104.398 123.135C103.11 117.969 97.8786 114.826 92.7135 116.114L92.9553 117.084ZM103.427 123.377L102.457 123.618C103.478 127.712 100.987 131.858 96.8934 132.879L97.1353 133.849L97.3773 134.82C102.542 133.532 105.685 128.3 104.398 123.135L103.427 123.377ZM93.9962 137.926L93.0259 138.168L96.4033 151.714L97.3736 151.472L98.3439 151.231L94.9665 137.685L93.9962 137.926ZM95.1885 155.109L94.9466 154.139L81.4005 157.516L81.6424 158.487L81.8844 159.457L95.4304 156.079L95.1885 155.109ZM79.5164 163.172L78.5461 163.414C79.5665 167.508 77.0749 171.654 72.9813 172.674L73.2232 173.644L73.4652 174.615C78.6303 173.327 81.7743 168.096 80.4867 162.93L79.5164 163.172ZM73.2232 173.644L72.9813 172.674C68.8879 173.695 64.7424 171.204 63.7216 167.11L62.7513 167.352L61.781 167.594C63.0691 172.759 68.2999 175.903 73.4652 174.615L73.2232 173.644ZM58.6735 164.213L58.4316 163.243L44.8854 166.621L45.1273 167.591L45.3692 168.561L58.9155 165.184L58.6735 164.213ZM41.4906 165.406L42.4609 165.164L29.9793 115.103L29.009 115.344L28.0387 115.586L40.5203 165.648L41.4906 165.406ZM31.1941 111.708L31.436 112.678L81.4972 100.196L81.2553 99.2263L81.0134 98.256L30.9522 110.738L31.1941 111.708ZM84.8919 101.411L83.9216 101.653L87.2989 115.199L88.2692 114.957L89.2395 114.715L85.8622 101.169L84.8919 101.411ZM81.2553 99.2263L81.4972 100.196C82.569 99.9293 83.6544 100.581 83.9216 101.653L84.8919 101.411L85.8622 101.169C85.3278 99.026 83.1569 97.7215 81.0134 98.256L81.2553 99.2263ZM29.009 115.344L29.9793 115.103C29.712 114.031 30.3643 112.945 31.436 112.678L31.1941 111.708L30.9522 110.738C28.8087 111.272 27.5042 113.443 28.0387 115.586L29.009 115.344ZM81.6424 158.487L81.4005 157.516C80.0821 157.845 79.2285 158.846 78.7872 159.933C78.3482 161.016 78.2654 162.288 78.5461 163.414L79.5164 163.172L80.4867 162.93C80.3067 162.209 80.3632 161.369 80.6405 160.685C80.9156 160.007 81.3553 159.589 81.8844 159.457L81.6424 158.487ZM97.1353 133.849L96.8934 132.879C95.7677 133.16 94.6827 133.83 93.9333 134.726C93.18 135.626 92.6972 136.85 93.0259 138.168L93.9962 137.926L94.9665 137.685C94.8346 137.155 94.9976 136.571 95.4671 136.01C95.9405 135.444 96.6555 135 97.3773 134.82L97.1353 133.849ZM62.7513 167.352L63.7216 167.11C63.4409 165.985 62.77 164.9 61.8741 164.15C60.9736 163.397 59.75 162.914 58.4316 163.243L58.6735 164.213L58.9155 165.184C59.4445 165.052 60.0295 165.215 60.5909 165.684C61.1569 166.158 61.6011 166.873 61.781 167.594L62.7513 167.352ZM97.3736 151.472L96.4033 151.714C96.6705 152.786 96.0183 153.872 94.9466 154.139L95.1885 155.109L95.4304 156.079C97.5739 155.545 98.8783 153.374 98.3439 151.231L97.3736 151.472ZM45.1273 167.591L44.8854 166.621C43.8136 166.888 42.7281 166.236 42.4609 165.164L41.4906 165.406L40.5203 165.648C41.0548 167.791 43.2257 169.096 45.3692 168.561L45.1273 167.591ZM92.9553 117.084L92.7135 116.114C91.9921 116.294 91.1522 116.237 90.4684 115.96C89.7901 115.684 89.3714 115.244 89.2395 114.715L88.2692 114.957L87.2989 115.199C87.6276 116.517 88.6283 117.371 89.7161 117.813C90.7983 118.252 92.0712 118.335 93.1972 118.055L92.9553 117.084Z" fill="black"/>
</g>
<path d="M262.954 110.189C263.355 111.797 262.377 113.425 260.769 113.826L248.303 116.934C246.441 117.398 245.677 119.766 246.141 121.629C247.295 126.258 244.677 130.897 240.295 131.989C235.913 133.082 231.425 130.215 230.271 125.586C229.806 123.723 228.02 121.991 226.157 122.455L213.692 125.563C212.084 125.964 210.456 124.986 210.055 123.378L206.628 109.631C206.195 107.897 207.874 106.24 209.607 105.807C213.99 104.715 216.606 100.076 215.452 95.4461C214.298 90.8167 209.81 87.9498 205.427 89.0424C203.694 89.4747 201.433 88.7976 201.001 87.0639L197.573 73.3171C197.173 71.7095 198.151 70.0813 199.759 69.6805L246.836 57.9428C248.444 57.542 250.072 58.5203 250.473 60.1279L262.954 110.189Z" fill="#F9D4AD"/>
<mask id="mask1_3811_2197" style="mask-type:luminance" maskUnits="userSpaceOnUse" x="197" y="57" width="67" height="76">
<path d="M262.954 110.189C263.355 111.797 262.377 113.425 260.769 113.826L248.303 116.934C246.441 117.398 245.677 119.766 246.141 121.629C247.295 126.258 244.677 130.897 240.295 131.989C235.913 133.082 231.425 130.215 230.271 125.586C229.806 123.723 228.02 121.991 226.157 122.455L213.692 125.563C212.084 125.964 210.456 124.986 210.055 123.378L206.628 109.631C206.195 107.897 207.874 106.24 209.607 105.807C213.99 104.715 216.606 100.076 215.452 95.4461C214.298 90.8167 209.81 87.9498 205.427 89.0424C203.694 89.4747 201.433 88.7976 201.001 87.0639L197.573 73.3171C197.173 71.7095 198.151 70.0813 199.759 69.6805L246.836 57.9428C248.444 57.542 250.072 58.5203 250.473 60.1279L262.954 110.189Z" fill="white"/>
</mask>
<g mask="url(#mask1_3811_2197)">
<path d="M205.427 89.0422L205.186 88.0719H205.185L205.427 89.0422ZM260.769 113.826L260.527 112.855L248.061 115.964L248.303 116.934L248.545 117.904L261.011 114.796L260.769 113.826ZM246.141 121.629L245.171 121.87C246.204 126.015 243.85 130.072 240.053 131.019L240.295 131.989L240.537 132.96C245.505 131.721 248.386 126.501 247.111 121.387L246.141 121.629ZM240.295 131.989L240.053 131.019C236.257 131.965 232.274 129.488 231.241 125.344L230.271 125.586L229.3 125.827C230.576 130.941 235.57 134.198 240.537 132.96L240.295 131.989ZM226.157 122.455L225.916 121.485L213.45 124.593L213.692 125.563L213.934 126.534L226.399 123.426L226.157 122.455ZM210.055 123.378L211.025 123.136L207.598 109.389L206.628 109.631L205.657 109.873L209.085 123.62L210.055 123.378ZM209.607 105.807L209.849 106.778C214.817 105.539 217.698 100.319 216.422 95.204L215.452 95.4459L214.482 95.6878C215.515 99.8323 213.162 103.89 209.365 104.837L209.607 105.807ZM215.452 95.4459L216.422 95.204C215.147 90.0895 210.153 86.8334 205.186 88.0719L205.427 89.0422L205.669 90.0125C209.466 89.0659 213.448 91.5435 214.482 95.6878L215.452 95.4459ZM201.001 87.0637L201.971 86.8217L198.544 73.075L197.573 73.3169L196.603 73.5589L200.031 87.3056L201.001 87.0637ZM199.759 69.6803L200 70.6506L247.078 58.9129L246.836 57.9426L246.594 56.9723L199.517 68.71L199.759 69.6803ZM250.473 60.1277L249.502 60.3696L261.984 110.431L262.954 110.189L263.924 109.947L251.443 59.8858L250.473 60.1277ZM246.836 57.9426L247.078 58.9129C248.15 58.6457 249.235 59.2979 249.502 60.3696L250.473 60.1277L251.443 59.8858C250.908 57.7423 248.737 56.4378 246.594 56.9723L246.836 57.9426ZM206.628 109.631L207.598 109.389C207.482 108.924 207.626 108.398 208.067 107.879C208.512 107.356 209.182 106.944 209.849 106.778L209.607 105.807L209.365 104.837C208.299 105.103 207.263 105.736 206.543 106.584C205.82 107.435 205.341 108.604 205.657 109.873L206.628 109.631ZM213.692 125.563L213.45 124.593C212.378 124.86 211.293 124.208 211.025 123.136L210.055 123.378L209.085 123.62C209.619 125.764 211.79 127.068 213.934 126.534L213.692 125.563ZM197.573 73.3169L198.544 73.075C198.276 72.0033 198.929 70.9178 200 70.6506L199.759 69.6803L199.517 68.71C197.373 69.2444 196.069 71.4153 196.603 73.5589L197.573 73.3169ZM248.303 116.934L248.061 115.964C246.742 116.292 245.877 117.284 245.426 118.374C244.977 119.458 244.888 120.734 245.171 121.87L246.141 121.629L247.111 121.387C246.93 120.66 246.991 119.822 247.274 119.14C247.553 118.464 248.002 118.04 248.545 117.904L248.303 116.934ZM230.271 125.586L231.241 125.344C230.958 124.208 230.279 123.122 229.374 122.376C228.464 121.626 227.235 121.156 225.916 121.485L226.157 122.455L226.399 123.426C226.943 123.29 227.538 123.454 228.102 123.92C228.672 124.389 229.119 125.101 229.3 125.827L230.271 125.586ZM205.427 89.0422L205.185 88.0719C204.518 88.2383 203.733 88.1892 203.095 87.9358C202.462 87.6842 202.087 87.2867 201.971 86.8217L201.001 87.0637L200.031 87.3056C200.347 88.5743 201.319 89.3823 202.357 89.7946C203.391 90.205 204.603 90.2784 205.669 90.0125L205.427 89.0422ZM260.769 113.826L261.011 114.796C263.155 114.262 264.459 112.091 263.924 109.947L262.954 110.189L261.984 110.431C262.251 111.503 261.599 112.588 260.527 112.855L260.769 113.826Z" fill="black"/>
</g>
<path d="M143.192 101.417C143.632 103.182 141.934 104.871 140.17 105.311C135.72 106.42 133.047 111.072 134.201 115.702C135.356 120.331 139.9 123.185 144.35 122.076C146.114 121.636 148.406 122.329 148.846 124.093L152.26 137.786C152.661 139.394 151.683 141.022 150.075 141.423L137.313 144.605C135.454 145.068 134.698 147.438 135.161 149.297C136.315 153.926 133.643 158.578 129.193 159.688C124.743 160.797 120.2 157.944 119.046 153.315C118.583 151.456 116.801 149.719 114.943 150.182L102.18 153.364C100.572 153.765 98.944 152.787 98.5432 151.179L95.1292 137.486C94.6892 135.722 96.3876 134.034 98.1523 133.594C102.603 132.485 105.275 127.831 104.12 123.202C102.966 118.573 98.4224 115.719 93.9723 116.829C92.2077 117.269 89.9153 116.575 89.4754 114.81L86.0615 101.118C85.6607 99.5101 86.639 97.8819 88.2466 97.4811L136.142 85.5396C137.75 85.1387 139.378 86.117 139.779 87.7246L143.192 101.417Z" fill="#F9D4AD"/>
<mask id="mask2_3811_2197" style="mask-type:luminance" maskUnits="userSpaceOnUse" x="85" y="85" width="68" height="75">
<path d="M143.192 101.417C143.632 103.182 141.934 104.871 140.17 105.311C135.72 106.42 133.047 111.072 134.201 115.702C135.356 120.331 139.9 123.185 144.35 122.076C146.114 121.636 148.406 122.329 148.846 124.093L152.26 137.786C152.661 139.394 151.683 141.022 150.075 141.423L137.313 144.605C135.454 145.068 134.698 147.438 135.161 149.297C136.315 153.926 133.643 158.578 129.193 159.688C124.743 160.797 120.2 157.944 119.046 153.315C118.583 151.456 116.801 149.719 114.943 150.182L102.18 153.364C100.572 153.765 98.944 152.787 98.5432 151.179L95.1292 137.486C94.6892 135.722 96.3876 134.034 98.1523 133.594C102.603 132.485 105.275 127.831 104.12 123.202C102.966 118.573 98.4224 115.719 93.9723 116.829C92.2077 117.269 89.9153 116.575 89.4754 114.81L86.0615 101.118C85.6607 99.5101 86.639 97.8819 88.2466 97.4811L136.142 85.5396C137.75 85.1387 139.378 86.117 139.779 87.7246L143.192 101.417Z" fill="white"/>
</mask>
<g mask="url(#mask2_3811_2197)">
<path d="M140.17 105.311L139.928 104.34C134.906 105.593 131.952 110.815 133.231 115.944L134.201 115.702L135.172 115.46C134.142 111.33 136.533 107.248 140.412 106.281L140.17 105.311ZM134.201 115.702L133.231 115.944C134.51 121.073 139.57 124.298 144.592 123.046L144.35 122.076L144.108 121.106C140.229 122.073 136.202 119.59 135.172 115.46L134.201 115.702ZM148.846 124.093L147.876 124.335L151.29 138.028L152.26 137.786L153.231 137.544L149.817 123.851L148.846 124.093ZM150.075 141.423L149.833 140.452L137.071 143.634L137.313 144.605L137.554 145.575L150.317 142.393L150.075 141.423ZM135.161 149.297L134.191 149.539C135.22 153.669 132.829 157.751 128.951 158.718L129.193 159.688L129.435 160.658C134.456 159.406 137.41 154.184 136.131 149.055L135.161 149.297ZM129.193 159.688L128.951 158.718C125.073 159.685 121.046 157.203 120.016 153.073L119.046 153.315L118.076 153.557C119.355 158.685 124.413 161.91 129.435 160.658L129.193 159.688ZM114.943 150.182L114.701 149.212L101.938 152.394L102.18 153.364L102.422 154.335L115.185 151.152L114.943 150.182ZM98.5434 151.179L99.5137 150.937L96.0997 137.245L95.1294 137.486L94.1591 137.728L97.5731 151.421L98.5434 151.179ZM98.1525 133.594L98.3944 134.564C103.416 133.312 106.37 128.089 105.091 122.96L104.12 123.202L103.15 123.444C104.18 127.574 101.789 131.657 97.9106 132.624L98.1525 133.594ZM104.12 123.202L105.091 122.96C103.812 117.831 98.7522 114.607 93.7306 115.859L93.9725 116.829L94.2145 117.799C98.0929 116.832 102.12 119.314 103.15 123.444L104.12 123.202ZM89.4756 114.81L90.4458 114.568L87.032 100.876L86.0617 101.118L85.0914 101.36L88.5053 115.052L89.4756 114.81ZM88.2468 97.4809L88.4887 98.4512L136.384 86.5096L136.142 85.5393L135.9 84.569L88.0049 96.5106L88.2468 97.4809ZM139.779 87.7244L138.808 87.9663L142.222 101.659L143.192 101.417L144.163 101.175L140.749 87.4825L139.779 87.7244ZM136.142 85.5393L136.384 86.5096C137.456 86.2424 138.541 86.8946 138.808 87.9663L139.779 87.7244L140.749 87.4825C140.214 85.339 138.044 84.0345 135.9 84.569L136.142 85.5393ZM95.1294 137.486L96.0997 137.245C95.9794 136.762 96.1287 136.22 96.5776 135.689C97.0299 135.155 97.712 134.735 98.3944 134.564L98.1525 133.594L97.9106 132.624C96.8282 132.894 95.7788 133.537 95.0508 134.398C94.3193 135.262 93.8394 136.446 94.1591 137.728L95.1294 137.486ZM86.0617 101.118L87.032 100.876C86.7648 99.8038 87.417 98.7184 88.4887 98.4512L88.2468 97.4809L88.0049 96.5106C85.8614 97.045 84.557 99.2159 85.0914 101.36L86.0617 101.118ZM137.313 144.605L137.071 143.634C135.752 143.963 134.89 144.958 134.441 146.047C133.995 147.13 133.908 148.406 134.191 149.539L135.161 149.297L136.131 149.055C135.95 148.33 136.01 147.491 136.291 146.808C136.569 146.132 137.015 145.71 137.554 145.575L137.313 144.605ZM144.35 122.076L144.592 123.046C145.274 122.876 146.074 122.927 146.724 123.187C147.369 123.444 147.756 123.853 147.876 124.335L148.846 124.093L149.817 123.851C149.497 122.569 148.517 121.749 147.466 121.329C146.419 120.911 145.19 120.836 144.108 121.106L144.35 122.076ZM119.046 153.315L120.016 153.073C119.734 151.94 119.058 150.854 118.155 150.107C117.247 149.356 116.02 148.883 114.701 149.212L114.943 150.182L115.185 151.152C115.724 151.018 116.316 151.182 116.88 151.648C117.449 152.119 117.895 152.832 118.076 153.557L119.046 153.315ZM93.9725 116.829L93.7306 115.859C93.0485 116.029 92.2489 115.978 91.5984 115.718C90.9527 115.46 90.5661 115.051 90.4458 114.568L89.4756 114.81L88.5053 115.052C88.8249 116.334 89.8046 117.155 90.8562 117.575C91.903 117.993 93.1319 118.069 94.2145 117.799L93.9725 116.829ZM152.26 137.786L151.29 138.028C151.557 139.1 150.905 140.185 149.833 140.452L150.075 141.423L150.317 142.393C152.461 141.859 153.765 139.688 153.231 137.544L152.26 137.786ZM102.18 153.364L101.938 152.394C100.866 152.661 99.7809 152.009 99.5137 150.937L98.5434 151.179L97.5731 151.421C98.1075 153.565 100.278 154.869 102.422 154.335L102.18 153.364ZM140.17 105.311L140.412 106.281C141.494 106.011 142.543 105.367 143.271 104.506C144.003 103.642 144.482 102.457 144.163 101.175L143.192 101.417L142.222 101.659C142.342 102.141 142.193 102.684 141.744 103.215C141.292 103.75 140.61 104.17 139.928 104.34L140.17 105.311Z" fill="black"/>
</g>
<path d="M199.853 87.1335C200.313 88.9808 202.692 89.7216 204.539 89.261C209.168 88.107 213.857 90.9238 215.011 95.5531C216.165 100.183 213.348 104.872 208.719 106.026C206.871 106.487 205.119 108.256 205.58 110.103L208.957 123.649C209.358 125.257 208.38 126.885 206.772 127.286L193.226 130.663C191.379 131.124 190.639 133.502 191.1 135.349C192.254 139.979 189.436 144.667 184.807 145.821C180.177 146.975 175.489 144.158 174.335 139.529C173.874 137.682 172.105 135.93 170.257 136.39L156.711 139.768C155.103 140.168 153.475 139.19 153.074 137.583L149.697 124.036C149.236 122.188 146.859 121.45 145.012 121.91C140.382 123.064 135.693 120.247 134.539 115.617C133.385 110.988 136.203 106.299 140.832 105.145C142.679 104.685 144.431 102.915 143.97 101.068L140.593 87.5211C140.192 85.9135 141.17 84.2853 142.778 83.8844L192.839 71.4028C194.447 71.002 196.075 71.9803 196.476 73.5879L199.853 87.1335Z" fill="#F9D4AD"/>
<mask id="mask3_3811_2197" style="mask-type:luminance" maskUnits="userSpaceOnUse" x="134" y="71" width="82" height="76">
<path d="M199.853 87.1335C200.313 88.9808 202.692 89.7216 204.539 89.261C209.168 88.107 213.857 90.9238 215.011 95.5531C216.165 100.183 213.348 104.872 208.719 106.026C206.871 106.487 205.119 108.256 205.58 110.103L208.957 123.649C209.358 125.257 208.38 126.885 206.772 127.286L193.226 130.663C191.379 131.124 190.639 133.502 191.1 135.349C192.254 139.979 189.436 144.667 184.807 145.821C180.177 146.975 175.489 144.158 174.335 139.529C173.874 137.682 172.105 135.93 170.257 136.39L156.711 139.768C155.103 140.168 153.475 139.19 153.074 137.583L149.697 124.036C149.236 122.188 146.859 121.45 145.012 121.91C140.382 123.064 135.693 120.247 134.539 115.617C133.385 110.988 136.203 106.299 140.832 105.145C142.679 104.685 144.431 102.915 143.97 101.068L140.593 87.5211C140.192 85.9135 141.17 84.2853 142.778 83.8844L192.839 71.4028C194.447 71.002 196.075 71.9803 196.476 73.5879L199.853 87.1335Z" fill="white"/>
</mask>
<g mask="url(#mask3_3811_2197)">
<path d="M204.539 89.2612L204.781 90.2315C208.874 89.2111 213.02 91.7019 214.041 95.7953L215.011 95.5533L215.981 95.3114C214.693 90.1462 209.462 87.0033 204.297 88.2909L204.539 89.2612ZM215.011 95.5533L214.041 95.7953C215.061 99.8888 212.57 104.035 208.477 105.056L208.719 106.026L208.961 106.997C214.126 105.708 217.269 100.477 215.981 95.3114L215.011 95.5533ZM205.58 110.103L204.609 110.345L207.987 123.891L208.957 123.649L209.927 123.407L206.55 109.861L205.58 110.103ZM206.772 127.286L206.53 126.316L192.984 129.693L193.226 130.663L193.468 131.634L207.014 128.256L206.772 127.286ZM191.1 135.349L190.13 135.591C191.15 139.684 188.658 143.83 184.565 144.851L184.807 145.821L185.049 146.792C190.214 145.504 193.358 140.273 192.07 135.107L191.1 135.349ZM184.807 145.821L184.565 144.851C180.471 145.872 176.326 143.381 175.305 139.287L174.335 139.529L173.365 139.771C174.653 144.936 179.883 148.079 185.049 146.792L184.807 145.821ZM170.257 136.39L170.015 135.42L156.469 138.797L156.711 139.768L156.953 140.738L170.499 137.36L170.257 136.39ZM153.074 137.583L154.045 137.341L150.667 123.794L149.697 124.036L148.726 124.277L152.104 137.824L153.074 137.583ZM145.012 121.91L144.77 120.94C140.676 121.961 136.53 119.469 135.509 115.375L134.539 115.617L133.569 115.859C134.856 121.025 140.089 124.168 145.254 122.88L145.012 121.91ZM134.539 115.617L135.509 115.375C134.489 111.282 136.98 107.136 141.074 106.115L140.832 105.145L140.59 104.175C135.425 105.463 132.281 110.694 133.569 115.859L134.539 115.617ZM143.97 101.068L144.94 100.826L141.563 87.2794L140.593 87.5213L139.622 87.7632L143 101.31L143.97 101.068ZM142.778 83.8846L143.02 84.8549L193.081 72.3733L192.839 71.403L192.597 70.4327L142.536 82.9144L142.778 83.8846ZM196.476 73.5881L195.505 73.83L198.883 87.3756L199.853 87.1337L200.823 86.8917L197.446 73.3462L196.476 73.5881ZM192.839 71.403L193.081 72.3733C194.153 72.1061 195.238 72.7583 195.505 73.83L196.476 73.5881L197.446 73.3462C196.911 71.2027 194.74 69.8983 192.597 70.4327L192.839 71.403ZM149.697 124.036L150.667 123.794C150.338 122.475 149.338 121.622 148.25 121.181C147.168 120.742 145.896 120.659 144.77 120.94L145.012 121.91L145.254 122.88C145.976 122.701 146.815 122.757 147.498 123.034C148.176 123.309 148.594 123.749 148.726 124.277L149.697 124.036ZM140.593 87.5213L141.563 87.2794C141.296 86.2076 141.948 85.1222 143.02 84.8549L142.778 83.8846L142.536 82.9144C140.392 83.4488 139.088 85.6197 139.622 87.7632L140.593 87.5213ZM193.226 130.663L192.984 129.693C191.666 130.022 190.812 131.022 190.371 132.11C189.932 133.193 189.849 134.465 190.13 135.591L191.1 135.349L192.07 135.107C191.89 134.385 191.947 133.546 192.224 132.862C192.499 132.184 192.939 131.766 193.468 131.634L193.226 130.663ZM208.719 106.026L208.477 105.056C207.351 105.337 206.266 106.007 205.517 106.903C204.764 107.803 204.281 109.027 204.609 110.345L205.58 110.103L206.55 109.861C206.418 109.332 206.581 108.748 207.051 108.186C207.524 107.621 208.239 107.176 208.961 106.997L208.719 106.026ZM174.335 139.529L175.305 139.287C175.024 138.161 174.354 137.076 173.458 136.327C172.557 135.574 171.334 135.091 170.015 135.42L170.257 136.39L170.499 137.36C171.028 137.229 171.613 137.392 172.174 137.861C172.74 138.335 173.185 139.049 173.365 139.771L174.335 139.529ZM140.832 105.145L141.074 106.115C142.2 105.835 143.284 105.164 144.033 104.268C144.786 103.367 145.269 102.144 144.94 100.826L143.97 101.068L143 101.31C143.132 101.839 142.969 102.423 142.499 102.985C142.026 103.551 141.311 103.995 140.59 104.175L140.832 105.145ZM208.957 123.649L207.987 123.891C208.254 124.963 207.602 126.048 206.53 126.316L206.772 127.286L207.014 128.256C209.158 127.722 210.462 125.551 209.927 123.407L208.957 123.649ZM156.711 139.768L156.469 138.797C155.397 139.065 154.312 138.412 154.045 137.341L153.074 137.583L152.104 137.824C152.638 139.968 154.809 141.272 156.953 140.738L156.711 139.768ZM204.539 89.2612L204.297 88.2909C203.576 88.4707 202.736 88.414 202.052 88.1364C201.374 87.861 200.955 87.4208 200.823 86.8917L199.853 87.1337L198.883 87.3756C199.211 88.6939 200.212 89.5478 201.3 89.9894C202.382 90.4289 203.655 90.5122 204.781 90.2315L204.539 89.2612Z" fill="black"/>
</g>
<path d="M213.912 143.653C214.373 145.501 216.751 146.241 218.598 145.78C223.228 144.626 227.916 147.444 229.07 152.073C230.225 156.702 227.408 161.391 222.778 162.545C220.931 163.006 219.179 164.775 219.639 166.622L223.017 180.168C223.417 181.776 222.439 183.404 220.831 183.805L170.771 196.286C169.164 196.687 167.535 195.709 167.135 194.101L163.757 180.554C163.296 178.707 160.919 177.968 159.072 178.429C154.443 179.583 149.754 176.766 148.599 172.137C147.445 167.507 150.263 162.818 154.892 161.664C156.739 161.203 158.491 159.434 158.031 157.587L154.653 144.041C154.252 142.433 155.231 140.805 156.838 140.404L170.063 137.107C171.071 136.856 172.053 137.58 172.305 138.588C173.774 144.483 179.527 148.124 185.154 146.721C190.781 145.318 194.15 139.402 192.681 133.508C192.429 132.5 192.956 131.399 193.965 131.148L206.898 127.923C208.506 127.522 210.134 128.5 210.535 130.108L213.912 143.653Z" fill="#F9D4AD"/>
<mask id="mask4_3811_2197" style="mask-type:luminance" maskUnits="userSpaceOnUse" x="148" y="127" width="82" height="70">
<path d="M213.912 143.653C214.373 145.501 216.751 146.241 218.598 145.78C223.228 144.626 227.916 147.444 229.07 152.073C230.225 156.702 227.408 161.391 222.778 162.545C220.931 163.006 219.179 164.775 219.639 166.622L223.017 180.168C223.417 181.776 222.439 183.404 220.831 183.805L170.771 196.286C169.164 196.687 167.535 195.709 167.135 194.101L163.757 180.554C163.296 178.707 160.919 177.968 159.072 178.429C154.443 179.583 149.754 176.766 148.599 172.137C147.445 167.507 150.263 162.818 154.892 161.664C156.739 161.203 158.491 159.434 158.031 157.587L154.653 144.041C154.252 142.433 155.231 140.805 156.838 140.404L170.063 137.107C171.071 136.856 172.053 137.58 172.305 138.588C173.774 144.483 179.527 148.124 185.154 146.721C190.781 145.318 194.15 139.402 192.681 133.508C192.429 132.5 192.956 131.399 193.965 131.148L206.898 127.923C208.506 127.522 210.134 128.5 210.535 130.108L213.912 143.653Z" fill="white"/>
</mask>
<g mask="url(#mask4_3811_2197)">
<path d="M218.598 145.78L218.84 146.75C222.934 145.73 227.08 148.221 228.1 152.315L229.07 152.073L230.041 151.831C228.753 146.666 223.522 143.522 218.356 144.81L218.598 145.78ZM229.07 152.073L228.1 152.315C229.121 156.408 226.63 160.554 222.536 161.575L222.778 162.545L223.02 163.515C228.185 162.227 231.328 156.996 230.041 151.831L229.07 152.073ZM219.639 166.622L218.669 166.864L222.046 180.41L223.017 180.168L223.987 179.926L220.609 166.38L219.639 166.622ZM220.831 183.805L220.589 182.834L170.529 195.316L170.771 196.286L171.013 197.256L221.073 184.775L220.831 183.805ZM167.135 194.101L168.105 193.859L164.727 180.312L163.757 180.554L162.787 180.796L166.164 194.343L167.135 194.101ZM159.072 178.429L158.83 177.458C154.737 178.479 150.59 175.988 149.57 171.895L148.599 172.137L147.629 172.379C148.917 177.544 154.149 180.687 159.314 179.399L159.072 178.429ZM148.599 172.137L149.57 171.895C148.549 167.801 151.041 163.655 155.134 162.634L154.892 161.664L154.65 160.693C149.485 161.981 146.341 167.213 147.629 172.379L148.599 172.137ZM158.031 157.587L159.001 157.345L155.623 143.799L154.653 144.041L153.683 144.283L157.06 157.829L158.031 157.587ZM156.838 140.404L157.08 141.374L170.305 138.077L170.063 137.107L169.821 136.137L156.596 139.434L156.838 140.404ZM172.305 138.588L171.334 138.83C172.927 145.218 179.191 149.238 185.396 147.691L185.154 146.721L184.912 145.751C179.863 147.01 174.622 143.748 173.275 138.346L172.305 138.588ZM185.154 146.721L185.396 147.691C191.6 146.144 195.244 139.653 193.651 133.266L192.681 133.508L191.71 133.75C193.057 139.151 189.961 144.492 184.912 145.751L185.154 146.721ZM193.965 131.148L194.206 132.118L207.14 128.893L206.898 127.923L206.657 126.952L193.723 130.177L193.965 131.148ZM210.535 130.108L209.565 130.35L212.942 143.895L213.912 143.653L214.883 143.411L211.505 129.866L210.535 130.108ZM170.063 137.107L170.305 138.077C170.672 137.986 171.189 138.247 171.334 138.83L172.305 138.588L173.275 138.346C172.918 136.913 171.47 135.726 169.821 136.137L170.063 137.107ZM154.653 144.041L155.623 143.799C155.356 142.727 156.008 141.642 157.08 141.374L156.838 140.404L156.596 139.434C154.453 139.968 153.148 142.139 153.683 144.283L154.653 144.041ZM206.898 127.923L207.14 128.893C208.212 128.626 209.298 129.278 209.565 130.35L210.535 130.108L211.505 129.866C210.971 127.722 208.8 126.418 206.657 126.952L206.898 127.923ZM163.757 180.554L164.727 180.312C164.399 178.994 163.398 178.141 162.31 177.699C161.228 177.26 159.956 177.178 158.83 177.458L159.072 178.429L159.314 179.399C160.036 179.219 160.875 179.276 161.559 179.553C162.236 179.828 162.655 180.267 162.787 180.796L163.757 180.554ZM192.681 133.508L193.651 133.266C193.506 132.683 193.839 132.209 194.206 132.118L193.965 131.148L193.723 130.177C192.074 130.588 191.353 132.317 191.71 133.75L192.681 133.508ZM170.771 196.286L170.529 195.316C169.457 195.583 168.372 194.931 168.105 193.859L167.135 194.101L166.164 194.343C166.699 196.487 168.87 197.791 171.013 197.256L170.771 196.286ZM222.778 162.545L222.536 161.575C221.411 161.855 220.326 162.526 219.576 163.422C218.823 164.322 218.34 165.546 218.669 166.864L219.639 166.622L220.609 166.38C220.478 165.851 220.641 165.266 221.11 164.705C221.584 164.139 222.298 163.695 223.02 163.515L222.778 162.545ZM223.017 180.168L222.046 180.41C222.313 181.482 221.661 182.567 220.589 182.834L220.831 183.805L221.073 184.775C223.217 184.241 224.521 182.07 223.987 179.926L223.017 180.168ZM154.892 161.664L155.134 162.634C156.26 162.353 157.345 161.683 158.094 160.787C158.847 159.887 159.33 158.663 159.001 157.345L158.031 157.587L157.06 157.829C157.192 158.358 157.029 158.943 156.56 159.504C156.087 160.069 155.372 160.514 154.65 160.693L154.892 161.664ZM218.598 145.78L218.356 144.81C217.635 144.99 216.795 144.933 216.111 144.656C215.433 144.38 215.015 143.94 214.883 143.411L213.912 143.653L212.942 143.895C213.271 145.214 214.271 146.067 215.359 146.509C216.441 146.948 217.714 147.031 218.84 146.75L218.598 145.78Z" fill="black"/>
</g>
<path d="M102.742 173.062C103.094 174.444 101.948 175.775 100.565 176.127C95.9422 177.306 93.1501 182.01 94.3287 186.633C95.5074 191.256 100.21 194.049 104.834 192.87C106.216 192.518 107.859 193.136 108.212 194.519L111.712 208.248C112.121 209.854 111.151 211.487 109.546 211.896L59.5519 224.641C57.9464 225.05 56.3131 224.081 55.9038 222.475L43.1591 172.481C42.7499 170.876 43.7196 169.242 45.3251 168.833L59.5896 165.197C60.2769 165.022 60.9563 165.486 61.1315 166.173C62.6092 171.969 68.1215 175.569 73.4432 174.212C78.765 172.856 81.8814 167.057 80.4038 161.26C80.2286 160.573 80.6028 159.84 81.2901 159.665L95.319 156.088C96.9245 155.679 98.5578 156.649 98.9671 158.254L102.742 173.062Z" fill="#F9D4AD"/>
<mask id="mask5_3811_2197" style="mask-type:luminance" maskUnits="userSpaceOnUse" x="43" y="155" width="69" height="70">
<path d="M102.742 173.062C103.094 174.444 101.948 175.775 100.565 176.127C95.9422 177.306 93.1501 182.01 94.3287 186.633C95.5074 191.256 100.21 194.049 104.834 192.87C106.216 192.518 107.859 193.136 108.212 194.519L111.712 208.248C112.121 209.854 111.151 211.487 109.546 211.896L59.5519 224.641C57.9464 225.05 56.3131 224.081 55.9038 222.475L43.1591 172.481C42.7499 170.876 43.7196 169.242 45.3251 168.833L59.5896 165.197C60.2769 165.022 60.9563 165.486 61.1315 166.173C62.6092 171.969 68.1215 175.569 73.4432 174.212C78.765 172.856 81.8814 167.057 80.4038 161.26C80.2286 160.573 80.6028 159.84 81.2901 159.665L95.319 156.088C96.9245 155.679 98.5578 156.649 98.9671 158.254L102.742 173.062Z" fill="white"/>
</mask>
<g mask="url(#mask5_3811_2197)">
<path d="M100.565 176.127L100.318 175.158C95.1601 176.474 92.0449 181.722 93.3599 186.88L94.3289 186.633L95.2979 186.386C94.2557 182.298 96.7247 178.139 100.812 177.096L100.565 176.127ZM94.3289 186.633L93.3599 186.88C94.675 192.039 99.9225 195.154 105.081 193.839L104.834 192.87L104.586 191.901C100.498 192.943 96.3401 190.474 95.2979 186.386L94.3289 186.633ZM108.212 194.519L107.243 194.766L110.743 208.495L111.712 208.248L112.681 208.001L109.181 194.272L108.212 194.519ZM109.546 211.896L109.299 210.927L59.3051 223.672L59.5521 224.641L59.7991 225.61L109.793 212.865L109.546 211.896ZM55.904 222.475L56.873 222.228L44.1284 172.234L43.1593 172.481L42.1903 172.728L54.935 222.722L55.904 222.475ZM45.3253 168.833L45.5723 169.802L59.8368 166.166L59.5898 165.197L59.3428 164.228L45.0783 167.864L45.3253 168.833ZM61.1317 166.173L60.1627 166.42C61.7565 172.672 67.7573 176.694 73.6904 175.181L73.4434 174.212L73.1964 173.243C68.4861 174.444 63.4623 171.267 62.1007 165.926L61.1317 166.173ZM73.4434 174.212L73.6904 175.181C79.6236 173.669 82.9668 167.265 81.3731 161.013L80.404 161.26L79.435 161.507C80.7964 166.848 77.9067 172.042 73.1964 173.243L73.4434 174.212ZM81.2903 159.665L81.5373 160.634L95.5662 157.058L95.3192 156.088L95.0722 155.119L81.0433 158.696L81.2903 159.665ZM98.9674 158.254L97.9983 158.501L101.773 173.309L102.742 173.062L103.711 172.815L99.9363 158.007L98.9674 158.254ZM95.3192 156.088L95.5662 157.058C96.6366 156.785 97.7254 157.431 97.9983 158.501L98.9674 158.254L99.9363 158.007C99.3906 155.867 97.2128 154.574 95.0722 155.119L95.3192 156.088ZM80.404 161.26L81.3731 161.013C81.3484 160.916 81.3639 160.819 81.4032 160.747C81.4398 160.679 81.4874 160.647 81.5373 160.634L81.2903 159.665L81.0433 158.696C79.7498 159.026 79.1422 160.359 79.435 161.507L80.404 161.26ZM59.5898 165.197L59.8368 166.166C59.8868 166.153 59.944 166.159 60.0086 166.201C60.0777 166.245 60.138 166.323 60.1627 166.42L61.1317 166.173L62.1007 165.926C61.8079 164.778 60.6362 163.898 59.3428 164.228L59.5898 165.197ZM43.1593 172.481L44.1284 172.234C43.8555 171.164 44.502 170.075 45.5723 169.802L45.3253 168.833L45.0783 167.864C42.9376 168.41 41.6446 170.588 42.1903 172.728L43.1593 172.481ZM59.5521 224.641L59.3051 223.672C58.2347 223.945 57.1459 223.298 56.873 222.228L55.904 222.475L54.935 222.722C55.4807 224.863 57.6584 226.156 59.7991 225.61L59.5521 224.641ZM104.834 192.87L105.081 193.839C105.556 193.718 106.08 193.767 106.497 193.955C106.906 194.14 107.156 194.426 107.243 194.766L108.212 194.519L109.181 194.272C108.915 193.229 108.167 192.515 107.321 192.133C106.483 191.754 105.494 191.67 104.586 191.901L104.834 192.87ZM111.712 208.248L110.743 208.495C111.015 209.566 110.369 210.655 109.299 210.927L109.546 211.896L109.793 212.865C111.933 212.32 113.226 210.142 112.681 208.001L111.712 208.248ZM100.565 176.127L100.812 177.096C101.72 176.865 102.548 176.317 103.102 175.584C103.662 174.842 103.976 173.857 103.711 172.815L102.742 173.062L101.773 173.309C101.859 173.649 101.777 174.02 101.506 174.378C101.23 174.744 100.793 175.037 100.318 175.158L100.565 176.127Z" fill="black"/>
</g>
<mask id="mask6_3811_2197" style="mask-type:alpha" maskUnits="userSpaceOnUse" x="28" y="57" width="236" height="168">
<path d="M88.269 114.961C88.7296 116.808 91.1078 117.549 92.9551 117.088C97.5845 115.934 102.273 118.751 103.427 123.38C104.582 128.01 101.765 132.699 97.1351 133.853C95.2876 134.314 93.5354 136.083 93.996 137.93L97.3734 151.476C97.7742 153.084 96.7959 154.712 95.1883 155.113L81.6422 158.49C79.7947 158.951 79.0555 161.329 79.5162 163.176C80.6702 167.806 77.8524 172.494 73.223 173.648C68.5937 174.803 63.9055 171.985 62.7511 167.356C62.2905 165.509 60.5208 163.757 58.6733 164.217L45.1271 167.595C43.5194 167.996 41.8913 167.017 41.4904 165.41L29.0088 115.348C28.6079 113.741 29.5863 112.113 31.1939 111.712L81.2551 99.23C82.8627 98.8291 84.4909 99.8075 84.8917 101.415L88.269 114.961Z" fill="#F9D4AD"/>
<mask id="mask7_3811_2197" style="mask-type:alpha" maskUnits="userSpaceOnUse" x="28" y="99" width="76" height="75">
<path d="M88.269 114.961C88.7296 116.808 91.1078 117.549 92.9551 117.088C97.5845 115.934 102.273 118.751 103.427 123.38C104.582 128.01 101.765 132.699 97.1351 133.853C95.2876 134.314 93.5354 136.083 93.996 137.93L97.3734 151.476C97.7742 153.084 96.7959 154.712 95.1883 155.113L81.6422 158.49C79.7947 158.951 79.0555 161.329 79.5162 163.176C80.6702 167.806 77.8524 172.494 73.223 173.648C68.5937 174.803 63.9055 171.985 62.7511 167.356C62.2905 165.509 60.5208 163.757 58.6733 164.217L45.1271 167.595C43.5194 167.996 41.8913 167.017 41.4904 165.41L29.0088 115.348C28.6079 113.741 29.5863 112.113 31.1939 111.712L81.2551 99.23C82.8627 98.8291 84.4909 99.8075 84.8917 101.415L88.269 114.961Z" fill="white"/>
</mask>
<g mask="url(#mask7_3811_2197)">
<path d="M92.9553 117.088L93.1972 118.059C97.2907 117.038 101.436 119.529 102.457 123.622L103.427 123.38L104.398 123.139C103.11 117.974 97.8786 114.83 92.7135 116.118L92.9553 117.088ZM103.427 123.38L102.457 123.622C103.478 127.716 100.987 131.862 96.8934 132.883L97.1353 133.853L97.3773 134.824C102.542 133.536 105.685 128.304 104.398 123.139L103.427 123.38ZM93.9962 137.93L93.0259 138.172L96.4033 151.718L97.3736 151.476L98.3439 151.234L94.9665 137.688L93.9962 137.93ZM95.1885 155.113L94.9466 154.143L81.4005 157.52L81.6424 158.49L81.8844 159.461L95.4304 156.083L95.1885 155.113ZM79.5164 163.176L78.5461 163.418C79.5665 167.512 77.0749 171.657 72.9813 172.678L73.2232 173.648L73.4652 174.619C78.6303 173.331 81.7743 168.1 80.4867 162.934L79.5164 163.176ZM73.2232 173.648L72.9813 172.678C68.8879 173.699 64.7424 171.208 63.7216 167.114L62.7513 167.356L61.781 167.598C63.0691 172.763 68.2999 175.906 73.4652 174.619L73.2232 173.648ZM58.6735 164.217L58.4316 163.247L44.8854 166.624L45.1273 167.595L45.3692 168.565L58.9155 165.188L58.6735 164.217ZM41.4906 165.41L42.4609 165.168L29.9793 115.106L29.009 115.348L28.0387 115.59L40.5203 165.652L41.4906 165.41ZM31.1941 111.712L31.436 112.682L81.4972 100.2L81.2553 99.2302L81.0134 98.2599L30.9522 110.741L31.1941 111.712ZM84.8919 101.415L83.9216 101.657L87.2989 115.203L88.2692 114.961L89.2395 114.719L85.8622 101.173L84.8919 101.415ZM81.2553 99.2302L81.4972 100.2C82.569 99.9333 83.6544 100.585 83.9216 101.657L84.8919 101.415L85.8622 101.173C85.3278 99.0299 83.1569 97.7254 81.0134 98.2599L81.2553 99.2302ZM29.009 115.348L29.9793 115.106C29.712 114.035 30.3643 112.949 31.436 112.682L31.1941 111.712L30.9522 110.741C28.8087 111.276 27.5042 113.447 28.0387 115.59L29.009 115.348ZM81.6424 158.49L81.4005 157.52C80.0821 157.849 79.2285 158.85 78.7872 159.937C78.3482 161.02 78.2654 162.292 78.5461 163.418L79.5164 163.176L80.4867 162.934C80.3067 162.213 80.3632 161.373 80.6405 160.689C80.9156 160.011 81.3553 159.593 81.8844 159.461L81.6424 158.49ZM97.1353 133.853L96.8934 132.883C95.7677 133.164 94.6827 133.834 93.9333 134.73C93.18 135.63 92.6972 136.854 93.0259 138.172L93.9962 137.93L94.9665 137.688C94.8346 137.159 94.9976 136.575 95.4671 136.013C95.9405 135.448 96.6555 135.004 97.3773 134.824L97.1353 133.853ZM62.7513 167.356L63.7216 167.114C63.4409 165.988 62.77 164.904 61.8741 164.154C60.9736 163.401 59.75 162.918 58.4316 163.247L58.6735 164.217L58.9155 165.188C59.4445 165.056 60.0295 165.219 60.5909 165.688C61.1569 166.162 61.6011 166.877 61.781 167.598L62.7513 167.356ZM97.3736 151.476L96.4033 151.718C96.6705 152.79 96.0183 153.876 94.9466 154.143L95.1885 155.113L95.4304 156.083C97.5739 155.549 98.8783 153.378 98.3439 151.234L97.3736 151.476ZM45.1273 167.595L44.8854 166.624C43.8136 166.892 42.7281 166.239 42.4609 165.168L41.4906 165.41L40.5203 165.652C41.0548 167.795 43.2257 169.099 45.3692 168.565L45.1273 167.595ZM92.9553 117.088L92.7135 116.118C91.9921 116.298 91.1522 116.241 90.4684 115.963C89.7901 115.688 89.3714 115.248 89.2395 114.719L88.2692 114.961L87.2989 115.203C87.6276 116.521 88.6283 117.375 89.7161 117.817C90.7983 118.256 92.0712 118.339 93.1972 118.059L92.9553 117.088Z" fill="black"/>
</g>
<path d="M262.954 110.193C263.355 111.801 262.377 113.429 260.769 113.83L248.303 116.938C246.441 117.402 245.677 119.77 246.141 121.632C247.295 126.262 244.677 130.901 240.295 131.993C235.913 133.085 231.425 130.219 230.271 125.589C229.806 123.727 228.02 121.995 226.157 122.459L213.692 125.567C212.084 125.968 210.456 124.99 210.055 123.382L206.628 109.635C206.195 107.901 207.874 106.244 209.607 105.811C213.99 104.719 216.606 100.079 215.452 95.45C214.298 90.8206 209.81 87.9538 205.427 89.0463C203.694 89.4786 201.433 88.8015 201.001 87.0678L197.573 73.321C197.173 71.7134 198.151 70.0852 199.759 69.6844L246.836 57.9467C248.444 57.5459 250.072 58.5242 250.473 60.1318L262.954 110.193Z" fill="#F9D4AD"/>
<mask id="mask8_3811_2197" style="mask-type:alpha" maskUnits="userSpaceOnUse" x="197" y="57" width="67" height="76">
<path d="M262.954 110.193C263.355 111.801 262.377 113.429 260.769 113.83L248.303 116.938C246.441 117.402 245.677 119.77 246.141 121.632C247.295 126.262 244.677 130.901 240.295 131.993C235.913 133.085 231.425 130.219 230.271 125.589C229.806 123.727 228.02 121.995 226.157 122.459L213.692 125.567C212.084 125.968 210.456 124.99 210.055 123.382L206.628 109.635C206.195 107.901 207.874 106.244 209.607 105.811C213.99 104.719 216.606 100.079 215.452 95.45C214.298 90.8206 209.81 87.9538 205.427 89.0463C203.694 89.4786 201.433 88.8015 201.001 87.0678L197.573 73.321C197.173 71.7134 198.151 70.0852 199.759 69.6844L246.836 57.9467C248.444 57.5459 250.072 58.5242 250.473 60.1318L262.954 110.193Z" fill="white"/>
</mask>
<g mask="url(#mask8_3811_2197)">
<path d="M205.427 89.0466L205.186 88.0763H205.185L205.427 89.0466ZM260.769 113.83L260.527 112.859L248.061 115.967L248.303 116.938L248.545 117.908L261.011 114.8L260.769 113.83ZM246.141 121.632L245.171 121.874C246.204 126.019 243.85 130.076 240.053 131.023L240.295 131.993L240.537 132.963C245.505 131.725 248.386 126.505 247.111 121.391L246.141 121.632ZM240.295 131.993L240.053 131.023C236.257 131.969 232.274 129.492 231.241 125.347L230.271 125.589L229.3 125.831C230.576 130.946 235.57 134.202 240.537 132.963L240.295 131.993ZM226.157 122.459L225.916 121.489L213.45 124.597L213.692 125.567L213.934 126.538L226.399 123.43L226.157 122.459ZM210.055 123.382L211.025 123.14L207.598 109.393L206.628 109.635L205.657 109.877L209.085 123.624L210.055 123.382ZM209.607 105.811L209.849 106.782C214.817 105.543 217.698 100.322 216.422 95.2084L215.452 95.4503L214.482 95.6922C215.515 99.8367 213.162 103.894 209.365 104.841L209.607 105.811ZM215.452 95.4503L216.422 95.2084C215.147 90.0939 210.153 86.8378 205.186 88.0763L205.427 89.0466L205.669 90.0169C209.466 89.0703 213.448 91.5479 214.482 95.6922L215.452 95.4503ZM201.001 87.0681L201.971 86.8261L198.544 73.0794L197.573 73.3213L196.603 73.5633L200.031 87.31L201.001 87.0681ZM199.759 69.6847L200 70.655L247.078 58.9173L246.836 57.947L246.594 56.9767L199.517 68.7144L199.759 69.6847ZM250.473 60.1321L249.502 60.374L261.984 110.435L262.954 110.193L263.924 109.951L251.443 59.8902L250.473 60.1321ZM246.836 57.947L247.078 58.9173C248.15 58.6501 249.235 59.3023 249.502 60.374L250.473 60.1321L251.443 59.8902C250.908 57.7467 248.737 56.4423 246.594 56.9767L246.836 57.947ZM206.628 109.635L207.598 109.393C207.482 108.928 207.626 108.402 208.067 107.883C208.512 107.36 209.182 106.948 209.849 106.782L209.607 105.811L209.365 104.841C208.299 105.107 207.263 105.74 206.543 106.588C205.82 107.439 205.341 108.608 205.657 109.877L206.628 109.635ZM213.692 125.567L213.45 124.597C212.378 124.864 211.293 124.212 211.025 123.14L210.055 123.382L209.085 123.624C209.619 125.768 211.79 127.072 213.934 126.538L213.692 125.567ZM197.573 73.3213L198.544 73.0794C198.276 72.0077 198.929 70.9222 200 70.655L199.759 69.6847L199.517 68.7144C197.373 69.2488 196.069 71.4197 196.603 73.5633L197.573 73.3213ZM248.303 116.938L248.061 115.967C246.742 116.296 245.877 117.288 245.426 118.378C244.977 119.462 244.888 120.738 245.171 121.874L246.141 121.632L247.111 121.391C246.93 120.664 246.991 119.826 247.274 119.144C247.553 118.468 248.002 118.044 248.545 117.908L248.303 116.938ZM230.271 125.589L231.241 125.347C230.958 124.21 230.279 123.126 229.374 122.38C228.464 121.63 227.235 121.16 225.916 121.489L226.157 122.459L226.399 123.43C226.943 123.294 227.538 123.458 228.102 123.923C228.672 124.393 229.119 125.105 229.3 125.831L230.271 125.589ZM205.427 89.0466L205.185 88.0763C204.518 88.2427 203.733 88.1936 203.095 87.9402C202.462 87.6886 202.087 87.2911 201.971 86.8261L201.001 87.0681L200.031 87.31C200.347 88.5788 201.319 89.3867 202.357 89.799C203.391 90.2094 204.603 90.2828 205.669 90.0169L205.427 89.0466ZM260.769 113.83L261.011 114.8C263.155 114.266 264.459 112.095 263.924 109.951L262.954 110.193L261.984 110.435C262.251 111.507 261.599 112.592 260.527 112.859L260.769 113.83Z" fill="black"/>
</g>
<path d="M143.192 101.421C143.632 103.186 141.934 104.875 140.17 105.315C135.72 106.424 133.047 111.076 134.201 115.706C135.356 120.335 139.9 123.189 144.35 122.08C146.114 121.64 148.406 122.332 148.846 124.097L152.26 137.79C152.661 139.398 151.683 141.026 150.075 141.427L137.313 144.609C135.454 145.072 134.698 147.442 135.161 149.301C136.315 153.93 133.643 158.582 129.193 159.692C124.743 160.801 120.2 157.948 119.046 153.319C118.583 151.46 116.801 149.723 114.943 150.186L102.18 153.368C100.572 153.769 98.944 152.791 98.5432 151.183L95.1292 137.49C94.6892 135.726 96.3876 134.038 98.1523 133.598C102.603 132.488 105.275 127.835 104.12 123.206C102.966 118.576 98.4224 115.723 93.9723 116.833C92.2077 117.273 89.9153 116.579 89.4754 114.814L86.0615 101.122C85.6607 99.514 86.639 97.8858 88.2466 97.485L136.142 85.5434C137.75 85.1426 139.378 86.1209 139.779 87.7285L143.192 101.421Z" fill="#F9D4AD"/>
<mask id="mask9_3811_2197" style="mask-type:alpha" maskUnits="userSpaceOnUse" x="85" y="85" width="68" height="75">
<path d="M143.192 101.421C143.632 103.186 141.934 104.875 140.17 105.315C135.72 106.424 133.047 111.076 134.201 115.706C135.356 120.335 139.9 123.189 144.35 122.08C146.114 121.64 148.406 122.332 148.846 124.097L152.26 137.79C152.661 139.398 151.683 141.026 150.075 141.427L137.313 144.609C135.454 145.072 134.698 147.442 135.161 149.301C136.315 153.93 133.643 158.582 129.193 159.692C124.743 160.801 120.2 157.948 119.046 153.319C118.583 151.46 116.801 149.723 114.943 150.186L102.18 153.368C100.572 153.769 98.944 152.791 98.5432 151.183L95.1292 137.49C94.6892 135.726 96.3876 134.038 98.1523 133.598C102.603 132.488 105.275 127.835 104.12 123.206C102.966 118.576 98.4224 115.723 93.9723 116.833C92.2077 117.273 89.9153 116.579 89.4754 114.814L86.0615 101.122C85.6607 99.514 86.639 97.8858 88.2466 97.485L136.142 85.5434C137.75 85.1426 139.378 86.1209 139.779 87.7285L143.192 101.421Z" fill="white"/>
</mask>
<g mask="url(#mask9_3811_2197)">
<path d="M140.17 105.315L139.928 104.344C134.906 105.596 131.952 110.819 133.231 115.948L134.201 115.706L135.172 115.464C134.142 111.334 136.533 107.252 140.412 106.285L140.17 105.315ZM134.201 115.706L133.231 115.948C134.51 121.077 139.57 124.302 144.592 123.05L144.35 122.08L144.108 121.109C140.229 122.076 136.202 119.594 135.172 115.464L134.201 115.706ZM148.846 124.097L147.876 124.339L151.29 138.032L152.26 137.79L153.231 137.548L149.817 123.855L148.846 124.097ZM150.075 141.427L149.833 140.456L137.071 143.638L137.313 144.609L137.554 145.579L150.317 142.397L150.075 141.427ZM135.161 149.301L134.191 149.543C135.22 153.673 132.829 157.755 128.951 158.722L129.193 159.692L129.435 160.662C134.456 159.41 137.41 154.188 136.131 149.059L135.161 149.301ZM129.193 159.692L128.951 158.722C125.073 159.688 121.046 157.207 120.016 153.077L119.046 153.319L118.076 153.561C119.355 158.689 124.413 161.914 129.435 160.662L129.193 159.692ZM114.943 150.186L114.701 149.216L101.938 152.398L102.18 153.368L102.422 154.338L115.185 151.156L114.943 150.186ZM98.5434 151.183L99.5137 150.941L96.0997 137.248L95.1294 137.49L94.1591 137.732L97.5731 151.425L98.5434 151.183ZM98.1525 133.598L98.3944 134.568C103.416 133.316 106.37 128.093 105.091 122.964L104.12 123.206L103.15 123.448C104.18 127.578 101.789 131.661 97.9106 132.628L98.1525 133.598ZM104.12 123.206L105.091 122.964C103.812 117.835 98.7522 114.611 93.7306 115.863L93.9725 116.833L94.2145 117.803C98.0929 116.836 102.12 119.318 103.15 123.448L104.12 123.206ZM89.4756 114.814L90.4458 114.572L87.032 100.88L86.0617 101.122L85.0914 101.364L88.5053 115.056L89.4756 114.814ZM88.2468 97.4848L88.4887 98.4551L136.384 86.5135L136.142 85.5432L135.9 84.5729L88.0049 96.5145L88.2468 97.4848ZM139.779 87.7283L138.808 87.9702L142.222 101.663L143.192 101.421L144.163 101.179L140.749 87.4864L139.779 87.7283ZM136.142 85.5432L136.384 86.5135C137.456 86.2463 138.541 86.8985 138.808 87.9702L139.779 87.7283L140.749 87.4864C140.214 85.3429 138.044 84.0384 135.9 84.5729L136.142 85.5432ZM95.1294 137.49L96.0997 137.248C95.9794 136.766 96.1287 136.224 96.5776 135.693C97.0299 135.159 97.712 134.738 98.3944 134.568L98.1525 133.598L97.9106 132.628C96.8282 132.898 95.7788 133.541 95.0508 134.401C94.3193 135.266 93.8394 136.45 94.1591 137.732L95.1294 137.49ZM86.0617 101.122L87.032 100.88C86.7648 99.8077 87.417 98.7223 88.4887 98.4551L88.2468 97.4848L88.0049 96.5145C85.8614 97.0489 84.557 99.2198 85.0914 101.364L86.0617 101.122ZM137.313 144.609L137.071 143.638C135.752 143.967 134.89 144.961 134.441 146.051C133.995 147.134 133.908 148.41 134.191 149.543L135.161 149.301L136.131 149.059C135.95 148.333 136.01 147.495 136.291 146.812C136.569 146.136 137.015 145.713 137.554 145.579L137.313 144.609ZM144.35 122.08L144.592 123.05C145.274 122.88 146.074 122.931 146.724 123.19C147.369 123.448 147.756 123.857 147.876 124.339L148.846 124.097L149.817 123.855C149.497 122.573 148.517 121.753 147.466 121.333C146.419 120.915 145.19 120.84 144.108 121.109L144.35 122.08ZM119.046 153.319L120.016 153.077C119.734 151.944 119.058 150.858 118.155 150.111C117.247 149.36 116.02 148.887 114.701 149.216L114.943 150.186L115.185 151.156C115.724 151.022 116.316 151.186 116.88 151.652C117.449 152.123 117.895 152.835 118.076 153.561L119.046 153.319ZM93.9725 116.833L93.7306 115.863C93.0485 116.033 92.2489 115.982 91.5984 115.722C90.9527 115.464 90.5661 115.055 90.4458 114.572L89.4756 114.814L88.5053 115.056C88.8249 116.338 89.8046 117.159 90.8562 117.579C91.903 117.997 93.1319 118.073 94.2145 117.803L93.9725 116.833ZM152.26 137.79L151.29 138.032C151.557 139.104 150.905 140.189 149.833 140.456L150.075 141.427L150.317 142.397C152.461 141.862 153.765 139.692 153.231 137.548L152.26 137.79ZM102.18 153.368L101.938 152.398C100.866 152.665 99.7809 152.013 99.5137 150.941L98.5434 151.183L97.5731 151.425C98.1075 153.568 100.278 154.873 102.422 154.338L102.18 153.368ZM140.17 105.315L140.412 106.285C141.494 106.015 142.543 105.371 143.271 104.51C144.003 103.645 144.482 102.461 144.163 101.179L143.192 101.421L142.222 101.663C142.342 102.145 142.193 102.688 141.744 103.219C141.292 103.754 140.61 104.174 139.928 104.344L140.17 105.315Z" fill="black"/>
</g>
<path d="M199.853 87.1374C200.313 88.9848 202.692 89.7255 204.539 89.2649C209.168 88.1109 213.857 90.9277 215.011 95.557C216.165 100.187 213.348 104.876 208.719 106.03C206.871 106.491 205.119 108.26 205.58 110.107L208.957 123.653C209.358 125.261 208.38 126.889 206.772 127.29L193.226 130.667C191.379 131.128 190.639 133.506 191.1 135.353C192.254 139.982 189.436 144.671 184.807 145.825C180.177 146.979 175.489 144.162 174.335 139.533C173.874 137.686 172.105 135.933 170.257 136.394L156.711 139.772C155.103 140.172 153.475 139.194 153.074 137.586L149.697 124.039C149.236 122.192 146.859 121.453 145.012 121.914C140.382 123.068 135.693 120.251 134.539 115.621C133.385 110.992 136.203 106.303 140.832 105.149C142.679 104.689 144.431 102.919 143.97 101.072L140.593 87.525C140.192 85.9174 141.17 84.2892 142.778 83.8884L192.839 71.4067C194.447 71.0059 196.075 71.9842 196.476 73.5918L199.853 87.1374Z" fill="#F9D4AD"/>
<mask id="mask10_3811_2197" style="mask-type:alpha" maskUnits="userSpaceOnUse" x="134" y="71" width="82" height="76">
<path d="M199.853 87.1374C200.313 88.9848 202.692 89.7255 204.539 89.2649C209.168 88.1109 213.857 90.9277 215.011 95.557C216.165 100.187 213.348 104.876 208.719 106.03C206.871 106.491 205.119 108.26 205.58 110.107L208.957 123.653C209.358 125.261 208.38 126.889 206.772 127.29L193.226 130.667C191.379 131.128 190.639 133.506 191.1 135.353C192.254 139.982 189.436 144.671 184.807 145.825C180.177 146.979 175.489 144.162 174.335 139.533C173.874 137.686 172.105 135.933 170.257 136.394L156.711 139.772C155.103 140.172 153.475 139.194 153.074 137.586L149.697 124.039C149.236 122.192 146.859 121.453 145.012 121.914C140.382 123.068 135.693 120.251 134.539 115.621C133.385 110.992 136.203 106.303 140.832 105.149C142.679 104.689 144.431 102.919 143.97 101.072L140.593 87.525C140.192 85.9174 141.17 84.2892 142.778 83.8884L192.839 71.4067C194.447 71.0059 196.075 71.9842 196.476 73.5918L199.853 87.1374Z" fill="white"/>
</mask>
<g mask="url(#mask10_3811_2197)">
<path d="M204.539 89.2651L204.781 90.2354C208.874 89.215 213.02 91.7058 214.041 95.7992L215.011 95.5572L215.981 95.3153C214.693 90.1501 209.462 87.0072 204.297 88.2948L204.539 89.2651ZM215.011 95.5572L214.041 95.7992C215.061 99.8928 212.57 104.039 208.477 105.06L208.719 106.03L208.961 107C214.126 105.712 217.269 100.48 215.981 95.3153L215.011 95.5572ZM205.58 110.107L204.609 110.349L207.987 123.895L208.957 123.653L209.927 123.411L206.55 109.865L205.58 110.107ZM206.772 127.29L206.53 126.32L192.984 129.697L193.226 130.667L193.468 131.638L207.014 128.26L206.772 127.29ZM191.1 135.353L190.13 135.595C191.15 139.688 188.658 143.834 184.565 144.855L184.807 145.825L185.049 146.796C190.214 145.508 193.358 140.276 192.07 135.111L191.1 135.353ZM184.807 145.825L184.565 144.855C180.471 145.875 176.326 143.384 175.305 139.291L174.335 139.533L173.365 139.775C174.653 144.94 179.883 148.083 185.049 146.796L184.807 145.825ZM170.257 136.394L170.015 135.424L156.469 138.801L156.711 139.772L156.953 140.742L170.499 137.364L170.257 136.394ZM153.074 137.586L154.045 137.344L150.667 123.798L149.697 124.039L148.726 124.281L152.104 137.828L153.074 137.586ZM145.012 121.914L144.77 120.944C140.676 121.964 136.53 119.473 135.509 115.379L134.539 115.621L133.569 115.863C134.856 121.028 140.089 124.172 145.254 122.884L145.012 121.914ZM134.539 115.621L135.509 115.379C134.489 111.286 136.98 107.14 141.074 106.119L140.832 105.149L140.59 104.179C135.425 105.467 132.281 110.698 133.569 115.863L134.539 115.621ZM143.97 101.072L144.94 100.83L141.563 87.2833L140.593 87.5252L139.622 87.7671L143 101.314L143.97 101.072ZM142.778 83.8886L143.02 84.8588L193.081 72.3772L192.839 71.4069L192.597 70.4366L142.536 82.9183L142.778 83.8886ZM196.476 73.592L195.505 73.8339L198.883 87.3795L199.853 87.1376L200.823 86.8957L197.446 73.3501L196.476 73.592ZM192.839 71.4069L193.081 72.3772C194.153 72.11 195.238 72.7622 195.505 73.8339L196.476 73.592L197.446 73.3501C196.911 71.2066 194.74 69.9022 192.597 70.4366L192.839 71.4069ZM149.697 124.039L150.667 123.798C150.338 122.479 149.338 121.626 148.25 121.185C147.168 120.746 145.896 120.663 144.77 120.944L145.012 121.914L145.254 122.884C145.976 122.704 146.815 122.761 147.498 123.038C148.176 123.313 148.594 123.753 148.726 124.281L149.697 124.039ZM140.593 87.5252L141.563 87.2833C141.296 86.2115 141.948 85.1261 143.02 84.8588L142.778 83.8886L142.536 82.9183C140.392 83.4527 139.088 85.6236 139.622 87.7671L140.593 87.5252ZM193.226 130.667L192.984 129.697C191.666 130.026 190.812 131.026 190.371 132.114C189.932 133.196 189.849 134.469 190.13 135.595L191.1 135.353L192.07 135.111C191.89 134.389 191.947 133.55 192.224 132.866C192.499 132.188 192.939 131.769 193.468 131.638L193.226 130.667ZM208.719 106.03L208.477 105.06C207.351 105.341 206.266 106.011 205.517 106.907C204.764 107.807 204.281 109.031 204.609 110.349L205.58 110.107L206.55 109.865C206.418 109.336 206.581 108.751 207.051 108.19C207.524 107.625 208.239 107.18 208.961 107L208.719 106.03ZM174.335 139.533L175.305 139.291C175.024 138.165 174.354 137.08 173.458 136.331C172.557 135.578 171.334 135.095 170.015 135.424L170.257 136.394L170.499 137.364C171.028 137.232 171.613 137.395 172.174 137.865C172.74 138.338 173.185 139.053 173.365 139.775L174.335 139.533ZM140.832 105.149L141.074 106.119C142.2 105.839 143.284 105.168 144.033 104.272C144.786 103.371 145.269 102.148 144.94 100.83L143.97 101.072L143 101.314C143.132 101.842 142.969 102.427 142.499 102.989C142.026 103.555 141.311 103.999 140.59 104.179L140.832 105.149ZM208.957 123.653L207.987 123.895C208.254 124.967 207.602 126.052 206.53 126.32L206.772 127.29L207.014 128.26C209.158 127.726 210.462 125.555 209.927 123.411L208.957 123.653ZM156.711 139.772L156.469 138.801C155.397 139.068 154.312 138.416 154.045 137.344L153.074 137.586L152.104 137.828C152.638 139.972 154.809 141.276 156.953 140.742L156.711 139.772ZM204.539 89.2651L204.297 88.2948C203.576 88.4746 202.736 88.4179 202.052 88.1403C201.374 87.8649 200.955 87.4247 200.823 86.8957L199.853 87.1376L198.883 87.3795C199.211 88.6978 200.212 89.5517 201.3 89.9934C202.382 90.4328 203.655 90.5161 204.781 90.2354L204.539 89.2651Z" fill="black"/>
</g>
<path d="M213.911 143.657C214.372 145.505 216.75 146.245 218.597 145.784C223.227 144.63 227.915 147.448 229.069 152.077C230.224 156.706 227.407 161.395 222.777 162.549C220.93 163.01 219.178 164.779 219.638 166.626L223.016 180.172C223.416 181.78 222.438 183.408 220.83 183.809L170.77 196.29C169.163 196.691 167.534 195.713 167.134 194.105L163.756 180.558C163.295 178.711 160.918 177.972 159.071 178.433C154.442 179.587 149.753 176.77 148.598 172.141C147.444 167.511 150.262 162.822 154.891 161.668C156.738 161.207 158.49 159.438 158.03 157.591L154.652 144.045C154.251 142.437 155.23 140.809 156.837 140.408L170.062 137.111C171.07 136.859 172.052 137.584 172.304 138.592C173.773 144.487 179.526 148.128 185.153 146.725C190.78 145.322 194.149 139.406 192.68 133.512C192.428 132.504 192.955 131.403 193.964 131.151L206.897 127.927C208.505 127.526 210.133 128.504 210.534 130.112L213.911 143.657Z" fill="#F9D4AD"/>
<mask id="mask11_3811_2197" style="mask-type:alpha" maskUnits="userSpaceOnUse" x="148" y="127" width="82" height="70">
<path d="M213.911 143.657C214.372 145.505 216.75 146.245 218.597 145.784C223.227 144.63 227.915 147.448 229.069 152.077C230.224 156.706 227.407 161.395 222.777 162.549C220.93 163.01 219.178 164.779 219.638 166.626L223.016 180.172C223.416 181.78 222.438 183.408 220.83 183.809L170.77 196.29C169.163 196.691 167.534 195.713 167.134 194.105L163.756 180.558C163.295 178.711 160.918 177.972 159.071 178.433C154.442 179.587 149.753 176.77 148.598 172.141C147.444 167.511 150.262 162.822 154.891 161.668C156.738 161.207 158.49 159.438 158.03 157.591L154.652 144.045C154.251 142.437 155.23 140.809 156.837 140.408L170.062 137.111C171.07 136.859 172.052 137.584 172.304 138.592C173.773 144.487 179.526 148.128 185.153 146.725C190.78 145.322 194.149 139.406 192.68 133.512C192.428 132.504 192.955 131.403 193.964 131.151L206.897 127.927C208.505 127.526 210.133 128.504 210.534 130.112L213.911 143.657Z" fill="white"/>
</mask>
<g mask="url(#mask11_3811_2197)">
<path d="M218.597 145.784L218.839 146.754C222.933 145.734 227.079 148.225 228.099 152.319L229.069 152.077L230.04 151.835C228.752 146.67 223.521 143.526 218.355 144.814L218.597 145.784ZM229.069 152.077L228.099 152.319C229.12 156.412 226.629 160.558 222.535 161.579L222.777 162.549L223.019 163.519C228.184 162.231 231.327 157 230.04 151.835L229.069 152.077ZM219.638 166.626L218.668 166.868L222.045 180.414L223.016 180.172L223.986 179.93L220.608 166.384L219.638 166.626ZM220.83 183.809L220.588 182.838L170.528 195.32L170.77 196.29L171.012 197.26L221.072 184.779L220.83 183.809ZM167.134 194.105L168.104 193.863L164.726 180.316L163.756 180.558L162.786 180.8L166.163 194.347L167.134 194.105ZM159.071 178.433L158.829 177.462C154.736 178.483 150.589 175.992 149.569 171.899L148.598 172.141L147.628 172.383C148.916 177.548 154.148 180.691 159.313 179.403L159.071 178.433ZM148.598 172.141L149.569 171.899C148.548 167.805 151.04 163.659 155.133 162.638L154.891 161.668L154.649 160.697C149.484 161.985 146.34 167.217 147.628 172.383L148.598 172.141ZM158.03 157.591L159 157.349L155.622 143.803L154.652 144.045L153.682 144.287L157.059 157.833L158.03 157.591ZM156.837 140.408L157.079 141.378L170.304 138.081L170.062 137.111L169.82 136.14L156.595 139.438L156.837 140.408ZM172.304 138.592L171.333 138.834C172.926 145.221 179.19 149.242 185.395 147.695L185.153 146.725L184.911 145.755C179.862 147.014 174.621 143.752 173.274 138.35L172.304 138.592ZM185.153 146.725L185.395 147.695C191.599 146.148 195.243 139.657 193.65 133.27L192.68 133.512L191.709 133.754C193.056 139.155 189.96 144.496 184.911 145.755L185.153 146.725ZM193.964 131.151L194.205 132.122L207.139 128.897L206.897 127.927L206.656 126.956L193.722 130.181L193.964 131.151ZM210.534 130.112L209.564 130.354L212.941 143.899L213.911 143.657L214.882 143.415L211.504 129.87L210.534 130.112ZM170.062 137.111L170.304 138.081C170.671 137.989 171.188 138.251 171.333 138.834L172.304 138.592L173.274 138.35C172.917 136.917 171.469 135.729 169.82 136.14L170.062 137.111ZM154.652 144.045L155.622 143.803C155.355 142.731 156.007 141.646 157.079 141.378L156.837 140.408L156.595 139.438C154.452 139.972 153.147 142.143 153.682 144.287L154.652 144.045ZM206.897 127.927L207.139 128.897C208.211 128.63 209.297 129.282 209.564 130.354L210.534 130.112L211.504 129.87C210.97 127.726 208.799 126.422 206.656 126.956L206.897 127.927ZM163.756 180.558L164.726 180.316C164.398 178.998 163.397 178.144 162.309 177.703C161.227 177.264 159.955 177.182 158.829 177.462L159.071 178.433L159.313 179.403C160.035 179.223 160.874 179.279 161.558 179.557C162.235 179.832 162.654 180.271 162.786 180.8L163.756 180.558ZM192.68 133.512L193.65 133.27C193.505 132.686 193.838 132.213 194.205 132.122L193.964 131.151L193.722 130.181C192.073 130.592 191.352 132.321 191.709 133.754L192.68 133.512ZM170.77 196.29L170.528 195.32C169.456 195.587 168.371 194.935 168.104 193.863L167.134 194.105L166.163 194.347C166.698 196.49 168.869 197.795 171.012 197.26L170.77 196.29ZM222.777 162.549L222.535 161.579C221.41 161.859 220.325 162.53 219.575 163.426C218.822 164.326 218.339 165.549 218.668 166.868L219.638 166.626L220.608 166.384C220.477 165.855 220.64 165.27 221.109 164.709C221.583 164.143 222.297 163.699 223.019 163.519L222.777 162.549ZM223.016 180.172L222.045 180.414C222.312 181.486 221.66 182.571 220.588 182.838L220.83 183.809L221.072 184.779C223.216 184.245 224.52 182.074 223.986 179.93L223.016 180.172ZM154.891 161.668L155.133 162.638C156.259 162.357 157.344 161.687 158.093 160.791C158.846 159.891 159.329 158.667 159 157.349L158.03 157.591L157.059 157.833C157.191 158.362 157.028 158.946 156.559 159.508C156.086 160.073 155.371 160.517 154.649 160.697L154.891 161.668ZM218.597 145.784L218.355 144.814C217.634 144.993 216.794 144.937 216.11 144.659C215.432 144.384 215.014 143.944 214.882 143.415L213.911 143.657L212.941 143.899C213.27 145.217 214.27 146.071 215.358 146.513C216.44 146.952 217.713 147.035 218.839 146.754L218.597 145.784Z" fill="black"/>
</g>
<path d="M102.742 173.066C103.094 174.448 101.948 175.779 100.565 176.131C95.9422 177.31 93.1501 182.014 94.3287 186.637C95.5074 191.26 100.21 194.053 104.834 192.874C106.216 192.522 107.859 193.14 108.212 194.523L111.712 208.252C112.121 209.858 111.151 211.491 109.546 211.9L59.5519 224.645C57.9464 225.054 56.3131 224.085 55.9038 222.479L43.1591 172.485C42.7499 170.88 43.7196 169.246 45.3251 168.837L59.5896 165.201C60.2769 165.025 60.9563 165.49 61.1315 166.177C62.6092 171.973 68.1215 175.573 73.4432 174.216C78.765 172.859 81.8814 167.06 80.4038 161.264C80.2286 160.577 80.6028 159.844 81.2901 159.669L95.319 156.092C96.9245 155.683 98.5578 156.653 98.9671 158.258L102.742 173.066Z" fill="#F9D4AD"/>
<mask id="mask12_3811_2197" style="mask-type:alpha" maskUnits="userSpaceOnUse" x="43" y="155" width="69" height="70">
<path d="M102.742 173.066C103.094 174.448 101.948 175.779 100.565 176.131C95.9422 177.31 93.1501 182.014 94.3287 186.637C95.5074 191.26 100.21 194.053 104.834 192.874C106.216 192.522 107.859 193.14 108.212 194.523L111.712 208.252C112.121 209.858 111.151 211.491 109.546 211.9L59.5519 224.645C57.9464 225.054 56.3131 224.085 55.9038 222.479L43.1591 172.485C42.7499 170.88 43.7196 169.246 45.3251 168.837L59.5896 165.201C60.2769 165.025 60.9563 165.49 61.1315 166.177C62.6092 171.973 68.1215 175.573 73.4432 174.216C78.765 172.859 81.8814 167.06 80.4038 161.264C80.2286 160.577 80.6028 159.844 81.2901 159.669L95.319 156.092C96.9245 155.683 98.5578 156.653 98.9671 158.258L102.742 173.066Z" fill="white"/>
</mask>
<g mask="url(#mask12_3811_2197)">
<path d="M100.565 176.131L100.318 175.162C95.1601 176.477 92.0449 181.726 93.3599 186.884L94.3289 186.637L95.2979 186.39C94.2557 182.302 96.7247 178.142 100.812 177.1L100.565 176.131ZM94.3289 186.637L93.3599 186.884C94.675 192.042 99.9225 195.158 105.081 193.843L104.834 192.874L104.586 191.905C100.498 192.947 96.3401 190.478 95.2979 186.39L94.3289 186.637ZM108.212 194.523L107.243 194.77L110.743 208.499L111.712 208.252L112.681 208.005L109.181 194.276L108.212 194.523ZM109.546 211.9L109.299 210.931L59.3051 223.676L59.5521 224.645L59.7991 225.614L109.793 212.869L109.546 211.9ZM55.904 222.479L56.873 222.232L44.1284 172.238L43.1593 172.485L42.1903 172.732L54.935 222.726L55.904 222.479ZM45.3253 168.837L45.5723 169.806L59.8368 166.17L59.5898 165.201L59.3428 164.232L45.0783 167.868L45.3253 168.837ZM61.1317 166.177L60.1627 166.424C61.7565 172.676 67.7573 176.697 73.6904 175.185L73.4434 174.216L73.1964 173.247C68.4861 174.448 63.4623 171.271 62.1007 165.93L61.1317 166.177ZM73.4434 174.216L73.6904 175.185C79.6236 173.673 82.9668 167.269 81.3731 161.017L80.404 161.264L79.435 161.511C80.7964 166.852 77.9067 172.046 73.1964 173.247L73.4434 174.216ZM81.2903 159.669L81.5373 160.638L95.5662 157.061L95.3192 156.092L95.0722 155.123L81.0433 158.7L81.2903 159.669ZM98.9674 158.258L97.9983 158.505L101.773 173.313L102.742 173.066L103.711 172.818L99.9363 158.011L98.9674 158.258ZM95.3192 156.092L95.5662 157.061C96.6366 156.789 97.7254 157.435 97.9983 158.505L98.9674 158.258L99.9363 158.011C99.3906 155.871 97.2128 154.578 95.0722 155.123L95.3192 156.092ZM80.404 161.264L81.3731 161.017C81.3484 160.92 81.3639 160.823 81.4032 160.75C81.4398 160.683 81.4874 160.65 81.5373 160.638L81.2903 159.669L81.0433 158.7C79.7498 159.029 79.1422 160.363 79.435 161.511L80.404 161.264ZM59.5898 165.201L59.8368 166.17C59.8868 166.157 59.944 166.163 60.0086 166.204C60.0777 166.249 60.138 166.327 60.1627 166.424L61.1317 166.177L62.1007 165.93C61.8079 164.782 60.6362 163.902 59.3428 164.232L59.5898 165.201ZM43.1593 172.485L44.1284 172.238C43.8555 171.168 44.502 170.079 45.5723 169.806L45.3253 168.837L45.0783 167.868C42.9376 168.414 41.6446 170.592 42.1903 172.732L43.1593 172.485ZM59.5521 224.645L59.3051 223.676C58.2347 223.949 57.1459 223.302 56.873 222.232L55.904 222.479L54.935 222.726C55.4807 224.867 57.6584 226.16 59.7991 225.614L59.5521 224.645ZM104.834 192.874L105.081 193.843C105.556 193.722 106.08 193.771 106.497 193.959C106.906 194.144 107.156 194.43 107.243 194.77L108.212 194.523L109.181 194.276C108.915 193.233 108.167 192.519 107.321 192.137C106.483 191.758 105.494 191.674 104.586 191.905L104.834 192.874ZM111.712 208.252L110.743 208.499C111.015 209.57 110.369 210.658 109.299 210.931L109.546 211.9L109.793 212.869C111.933 212.324 113.226 210.146 112.681 208.005L111.712 208.252ZM100.565 176.131L100.812 177.1C101.72 176.869 102.548 176.321 103.102 175.588C103.662 174.846 103.976 173.861 103.711 172.818L102.742 173.066L101.773 173.313C101.859 173.653 101.777 174.024 101.506 174.382C101.23 174.748 100.793 175.041 100.318 175.162L100.565 176.131Z" fill="black"/>
</g>
</mask>
<g mask="url(#mask6_3811_2197)">
<path d="M170.611 125.43C175.97 124.094 179.177 118.45 177.774 112.823C176.371 107.196 170.89 103.718 165.531 105.054C160.172 106.39 156.965 112.035 158.368 117.661C159.771 123.288 165.253 126.766 170.611 125.43Z" fill="white"/>
<path d="M158.533 152.645C179.503 151.088 193.984 143.53 193.984 143.53C193.984 143.53 197.863 141.589 198.212 139.349C198.459 137.764 198.315 136.716 197.613 135.278C196.219 132.42 194.185 131.023 191.152 129.944C189.63 129.402 184.407 127.926 178.941 127.719L178.807 127.716C175.883 127.655 174.195 127.707 171.338 128.353C168.025 129.102 166.201 129.885 163.269 131.59C159.373 133.856 157.314 135.522 154.46 139.092C152.489 141.557 151.262 143.685 151.39 146.803C151.455 148.402 151.812 149.394 152.772 150.678C154.079 152.426 156.322 152.809 158.533 152.645Z" fill="white"/>
</g>
<g filter="url(#filter1_d_3811_2197)">
<path d="M319.029 183.79C319.581 186.004 317.473 188.101 315.227 188.502C314.967 188.548 314.707 188.603 314.447 188.668C307.986 190.279 304.107 197.033 305.782 203.754C307.458 210.475 314.054 214.618 320.515 213.007C320.775 212.942 321.031 212.869 321.282 212.788C323.453 212.086 326.299 212.948 326.851 215.162L332.328 237.131C332.729 238.739 331.751 240.367 330.143 240.768L257.978 258.761C256.371 259.162 254.742 258.183 254.342 256.576L248.864 234.607C248.312 232.393 245.467 231.531 243.295 232.232C243.044 232.313 242.788 232.386 242.529 232.451C236.068 234.062 229.472 229.92 227.796 223.199C226.12 216.477 230 209.723 236.46 208.112C236.72 208.048 236.98 207.992 237.24 207.946C239.486 207.546 241.594 205.448 241.042 203.234L235.565 181.266C235.164 179.658 236.142 178.03 237.75 177.629L255.954 173.09C256.758 172.89 257.556 173.427 257.757 174.231C259.832 182.554 267.942 187.698 275.872 185.721C283.802 183.744 288.549 175.394 286.474 167.071C286.273 166.267 286.725 165.418 287.529 165.218L309.915 159.637C311.522 159.236 313.151 160.214 313.551 161.822L319.029 183.79Z" fill="#F9D4AD"/>
<mask id="mask13_3811_2197" style="mask-type:luminance" maskUnits="userSpaceOnUse" x="227" y="159" width="106" height="100">
<path d="M319.029 183.79C319.581 186.004 317.473 188.101 315.227 188.502C314.967 188.548 314.707 188.603 314.447 188.668C307.986 190.279 304.107 197.033 305.782 203.754C307.458 210.475 314.054 214.618 320.515 213.007C320.775 212.942 321.031 212.869 321.282 212.788C323.453 212.086 326.299 212.948 326.851 215.162L332.328 237.131C332.729 238.739 331.751 240.367 330.143 240.768L257.978 258.761C256.371 259.162 254.742 258.183 254.342 256.576L248.864 234.607C248.312 232.393 245.467 231.531 243.295 232.232C243.044 232.313 242.788 232.386 242.529 232.451C236.068 234.062 229.472 229.92 227.796 223.199C226.12 216.477 230 209.723 236.46 208.112C236.72 208.048 236.98 207.992 237.24 207.946C239.486 207.546 241.594 205.448 241.042 203.234L235.565 181.266C235.164 179.658 236.142 178.03 237.75 177.629L255.954 173.09C256.758 172.89 257.556 173.427 257.757 174.231C259.832 182.554 267.942 187.698 275.872 185.721C283.802 183.744 288.549 175.394 286.474 167.071C286.273 166.267 286.725 165.418 287.529 165.218L309.915 159.637C311.522 159.236 313.151 160.214 313.551 161.822L319.029 183.79Z" fill="white"/>
</mask>
<g mask="url(#mask13_3811_2197)">
<path d="M315.228 188.502L315.052 187.517C314.77 187.567 314.488 187.628 314.206 187.698L314.448 188.668L314.69 189.638C314.927 189.579 315.165 189.528 315.403 189.486L315.228 188.502ZM314.448 188.668L314.206 187.698C307.174 189.451 303.013 196.776 304.813 203.996L305.783 203.754L306.754 203.512C305.202 197.291 308.801 191.107 314.69 189.638L314.448 188.668ZM305.783 203.754L304.813 203.996C306.613 211.217 313.726 215.731 320.758 213.977L320.516 213.007L320.274 212.037C314.385 213.505 308.305 209.734 306.754 203.512L305.783 203.754ZM320.516 213.007L320.758 213.977C321.04 213.907 321.317 213.828 321.59 213.739L321.283 212.788L320.975 211.836C320.746 211.911 320.512 211.977 320.274 212.037L320.516 213.007ZM326.852 215.162L325.881 215.404L331.359 237.373L332.329 237.131L333.299 236.889L327.822 214.921L326.852 215.162ZM330.144 240.768L329.902 239.798L257.737 257.79L257.979 258.761L258.221 259.731L330.386 241.738L330.144 240.768ZM254.343 256.576L255.313 256.334L249.835 234.365L248.865 234.607L247.895 234.849L253.372 256.818L254.343 256.576ZM243.296 232.232L242.989 231.281C242.759 231.355 242.525 231.422 242.288 231.481L242.53 232.451L242.771 233.422C243.053 233.351 243.331 233.272 243.604 233.184L243.296 232.232ZM242.53 232.451L242.288 231.481C236.399 232.949 230.318 229.178 228.767 222.957L227.797 223.199L226.827 223.44C228.627 230.661 235.739 235.175 242.771 233.422L242.53 232.451ZM227.797 223.199L228.767 222.957C227.216 216.735 230.814 210.551 236.703 209.083L236.461 208.112L236.219 207.142C229.187 208.895 225.026 216.22 226.827 223.44L227.797 223.199ZM236.461 208.112L236.703 209.083C236.941 209.023 237.179 208.973 237.416 208.93L237.241 207.946L237.066 206.961C236.783 207.012 236.501 207.072 236.219 207.142L236.461 208.112ZM241.043 203.234L242.013 202.992L236.536 181.024L235.566 181.266L234.595 181.508L240.073 203.476L241.043 203.234ZM237.751 177.629L237.993 178.6L256.197 174.061L255.955 173.09L255.713 172.12L237.509 176.659L237.751 177.629ZM257.758 174.231L256.787 174.473C258.985 183.287 267.606 188.813 276.115 186.692L275.873 185.721L275.631 184.751C268.281 186.583 260.68 181.821 258.728 173.989L257.758 174.231ZM275.873 185.721L276.115 186.692C284.625 184.57 289.643 175.643 287.445 166.829L286.475 167.071L285.505 167.313C287.457 175.145 282.982 182.918 275.631 184.751L275.873 185.721ZM287.53 165.218L287.772 166.188L310.158 160.607L309.916 159.637L309.674 158.666L287.288 164.248L287.53 165.218ZM313.552 161.822L312.582 162.064L318.059 184.032L319.03 183.79L320 183.548L314.523 161.58L313.552 161.822ZM255.955 173.09L256.197 174.061C256.408 174.008 256.705 174.145 256.787 174.473L257.758 174.231L258.728 173.989C258.408 172.709 257.111 171.772 255.713 172.12L255.955 173.09ZM235.566 181.266L236.536 181.024C236.269 179.952 236.921 178.867 237.993 178.6L237.751 177.629L237.509 176.659C235.365 177.193 234.061 179.364 234.595 181.508L235.566 181.266ZM309.916 159.637L310.158 160.607C311.229 160.34 312.315 160.992 312.582 162.064L313.552 161.822L314.523 161.58C313.988 159.436 311.817 158.132 309.674 158.666L309.916 159.637ZM248.865 234.607L249.835 234.365C249.461 232.862 248.318 231.882 247.047 231.393C245.784 230.907 244.294 230.859 242.989 231.281L243.296 232.232L243.604 233.184C244.47 232.904 245.489 232.936 246.329 233.259C247.162 233.58 247.717 234.137 247.895 234.849L248.865 234.607ZM286.475 167.071L287.445 166.829C287.363 166.5 287.562 166.241 287.772 166.188L287.53 165.218L287.288 164.248C285.89 164.596 285.186 166.033 285.505 167.313L286.475 167.071ZM257.979 258.761L257.737 257.79C256.666 258.058 255.58 257.405 255.313 256.334L254.343 256.576L253.372 256.818C253.907 258.961 256.078 260.265 258.221 259.731L257.979 258.761ZM321.283 212.788L321.59 213.739C322.456 213.46 323.475 213.492 324.316 213.815C325.148 214.135 325.704 214.693 325.881 215.404L326.852 215.162L327.822 214.921C327.447 213.418 326.304 212.437 325.034 211.948C323.77 211.463 322.281 211.415 320.975 211.836L321.283 212.788ZM332.329 237.131L331.359 237.373C331.626 238.445 330.974 239.531 329.902 239.798L330.144 240.768L330.386 241.738C332.53 241.204 333.834 239.033 333.299 236.889L332.329 237.131ZM237.241 207.946L237.416 208.93C238.767 208.69 240.059 207.948 240.947 206.926C241.839 205.897 242.388 204.495 242.013 202.992L241.043 203.234L240.073 203.476C240.25 204.187 240.021 204.941 239.436 205.615C238.846 206.295 237.961 206.802 237.066 206.961L237.241 207.946ZM315.228 188.502L315.403 189.486C316.754 189.245 318.046 188.504 318.933 187.481C319.826 186.453 320.375 185.051 320 183.548L319.03 183.79L318.059 184.032C318.237 184.743 318.008 185.497 317.423 186.17C316.833 186.85 315.948 187.357 315.052 187.517L315.228 188.502Z" fill="black"/>
</g>
</g>
<defs>
<filter id="filter0_d_3811_2197" x="1.83984" y="41.8374" width="305.364" height="255.128" filterUnits="userSpaceOnUse" color-interpolation-filters="sRGB">
<feFlood flood-opacity="0" result="BackgroundImageFix"/>
<feColorMatrix in="SourceAlpha" type="matrix" values="0 0 0 0 0 0 0 0 0 0 0 0 0 0 0 0 0 0 127 0" result="hardAlpha"/>
<feOffset dx="-3" dy="12"/>
<feGaussianBlur stdDeviation="2"/>
<feComposite in2="hardAlpha" operator="out"/>
<feColorMatrix type="matrix" values="0 0 0 0 0 0 0 0 0 0 0 0 0 0 0 0 0 0 0.25 0"/>
<feBlend mode="normal" in2="BackgroundImageFix" result="effect1_dropShadow_3811_2197"/>
<feBlend mode="normal" in="SourceGraphic" in2="effect1_dropShadow_3811_2197" result="shape"/>
</filter>
<filter id="filter1_d_3811_2197" x="223.406" y="159.547" width="113.012" height="107.304" filterUnits="userSpaceOnUse" color-interpolation-filters="sRGB">
<feFlood flood-opacity="0" result="BackgroundImageFix"/>
<feColorMatrix in="SourceAlpha" type="matrix" values="0 0 0 0 0 0 0 0 0 0 0 0 0 0 0 0 0 0 127 0" result="hardAlpha"/>
<feOffset dy="4"/>
<feGaussianBlur stdDeviation="2"/>
<feComposite in2="hardAlpha" operator="out"/>
<feColorMatrix type="matrix" values="0 0 0 0 0 0 0 0 0 0 0 0 0 0 0 0 0 0 0.25 0"/>
<feBlend mode="normal" in2="BackgroundImageFix" result="effect1_dropShadow_3811_2197"/>
<feBlend mode="normal" in="SourceGraphic" in2="effect1_dropShadow_3811_2197" result="shape"/>
</filter>
</defs>
</svg>
