<svg width="508" height="216" viewBox="0 0 508 216" fill="none" xmlns="http://www.w3.org/2000/svg">
<path d="M495.676 153.413C495.676 153.413 413.099 126.09 380.24 155.426C362.254 171.484 357.192 186.64 353.014 210.008C348.596 234.718 370.949 250.82 361.11 273.975C351.331 296.988 339.288 314.34 309.446 313.554C309.446 313.554 269.534 326.912 251.05 313.554C242.331 307.253 241.481 299.658 234.05 291.879C222.019 279.283 209.313 278.573 198.55 264.878C182.591 244.569 193.267 223.57 180.05 201.379C165.845 177.527 142.267 176.513 128.551 152.377C115.822 129.979 110.15 114.028 112.551 88.3777C114.769 64.6881 116.039 44.4339 136.551 32.3778C146.595 26.4744 154.166 22.9053 165.551 25.3778C177.352 27.9407 183.835 34.24 189.551 44.8778C196.575 57.95 192.053 68.2503 189.551 82.8778C187 97.7924 186.316 107.819 176.551 119.378C165.336 132.653 153.871 137.459 136.551 138.878C115.662 140.589 86.5511 119.378 86.5511 119.378L24.5514 88.3777L-3.4485 74.8777" stroke="#F9D4AD" stroke-width="6" stroke-linecap="round" stroke-dasharray="20 20"/>
</svg>
