<svg width="626" height="396" viewBox="0 0 626 396" fill="none" xmlns="http://www.w3.org/2000/svg">
<g clip-path="url(#clip0_5399_4224)">
<path d="M614.858 157.285C614.858 242.079 628.539 323.001 387.484 368.548C260.212 412.92 47.016 397.639 16.2243 234.551C-5.47612 110.252 55.6158 -61.9571 218.378 22.4058C401.406 62.1629 620.005 8.59891 614.858 157.285Z" fill="#D8E0F4"/>
<path d="M208 390C212.418 390 216 386.418 216 382C216 377.582 212.418 374 208 374C203.582 374 200 377.582 200 382C200 386.418 203.582 390 208 390Z" fill="white"/>
<path d="M17.5 160C20.5376 160 23 157.538 23 154.5C23 151.462 20.5376 149 17.5 149C14.4624 149 12 151.462 12 154.5C12 157.538 14.4624 160 17.5 160Z" fill="white"/>
<path d="M467.5 55C470.538 55 473 52.3137 473 49C473 45.6863 470.538 43 467.5 43C464.462 43 462 45.6863 462 49C462 52.3137 464.462 55 467.5 55Z" fill="white"/>
<path d="M242 394C250.837 394 258 386.837 258 378C258 369.163 250.837 362 242 362C233.163 362 226 369.163 226 378C226 386.837 233.163 394 242 394Z" stroke="white" stroke-width="4"/>
<path d="M502.5 350C511.06 350 518 343.06 518 334.5C518 325.94 511.06 319 502.5 319C493.94 319 487 325.94 487 334.5C487 343.06 493.94 350 502.5 350Z" stroke="white" stroke-width="4"/>
<path d="M608 110C616.89 110 624 116.992 624 125.5C624 134.008 616.89 141 608 141C599.11 141 592 134.008 592 125.5C592 116.992 599.11 110 608 110Z" stroke="white" stroke-width="4"/>
<path d="M18 166C26.89 166 34 172.992 34 181.5C34 190.008 26.89 197 18 197C9.10996 197 2 190.008 2 181.5C2 172.992 9.10996 166 18 166Z" stroke="white" stroke-width="4"/>
<path d="M224 41C232.837 41 240 33.8366 240 25C240 16.1634 232.837 9 224 9C215.163 9 208 16.1634 208 25C208 33.8366 215.163 41 224 41Z" stroke="white" stroke-width="4"/>
<path d="M89.1955 79.663C89.1004 79.4457 89.25 79.1998 89.4868 79.1844L109.244 77.8941C109.353 77.887 109.459 77.9311 109.531 78.0133C109.723 78.2325 109.58 78.5765 109.289 78.5953L89.5311 79.8674C89.3874 79.8767 89.2532 79.795 89.1955 79.663Z" fill="#D9D9D9"/>
<path d="M459.402 79.3828H127C116.783 79.3828 108.5 87.6655 108.5 97.8828V286.336C108.5 296.553 116.783 304.836 127 304.836H459.402C469.619 304.836 477.902 296.553 477.902 286.336V97.8828C477.902 87.6655 469.619 79.3828 459.402 79.3828Z" fill="#6B7C99" stroke="black" stroke-width="3"/>
<path d="M433.176 91.6211H139.238C129.021 91.6211 120.738 99.9038 120.738 110.121V274.097C120.738 284.314 129.021 292.597 139.238 292.597H433.176C443.393 292.597 451.676 284.314 451.676 274.097V110.121C451.676 99.9038 443.393 91.6211 433.176 91.6211Z" fill="#F6B69E" stroke="black" stroke-width="3"/>
<g filter="url(#filter0_i_5399_4224)">
<path d="M465.414 206.68C469.598 206.68 472.99 203.288 472.99 199.104C472.99 194.92 469.598 191.528 465.414 191.528C461.23 191.528 457.838 194.92 457.838 199.104C457.838 203.288 461.23 206.68 465.414 206.68Z" fill="white"/>
</g>
<path d="M465.414 206.18C469.322 206.18 472.49 203.012 472.49 199.104C472.49 195.196 469.322 192.028 465.414 192.028C461.506 192.028 458.338 195.196 458.338 199.104C458.338 203.012 461.506 206.18 465.414 206.18Z" stroke="white"/>
<path d="M89.2745 306.996C89.1706 306.746 89.4154 306.493 89.6684 306.588C89.7486 306.619 89.8126 306.681 89.845 306.76L97.9619 326.642C97.9863 326.702 97.9854 326.769 97.9594 326.828C97.875 327.02 97.6026 327.017 97.5223 326.824L89.2745 306.996Z" fill="#D9D9D9"/>
<path d="M125.208 129.787C125.108 129.568 125.258 129.317 125.498 129.302L146.221 128.01C146.327 128.004 146.431 128.045 146.502 128.124C146.702 128.342 146.56 128.694 146.265 128.712L125.54 129.986C125.399 129.994 125.267 129.915 125.208 129.787Z" fill="#D9D9D9"/>
<path d="M141 112C143.209 112 145 110.209 145 108C145 105.791 143.209 104 141 104C138.791 104 137 105.791 137 108C137 110.209 138.791 112 141 112Z" fill="#FF8083"/>
<path d="M153.062 114L150.381 106.25H151.907L153.824 112.399H153.916L155.838 106.25H157.364L154.678 114H153.062ZM158.584 114V108.129H159.916V114H158.584ZM159.256 107.146C159.037 107.146 158.849 107.069 158.692 106.916C158.534 106.762 158.455 106.577 158.455 106.362C158.455 106.14 158.534 105.954 158.692 105.804C158.849 105.65 159.037 105.573 159.256 105.573C159.474 105.573 159.66 105.65 159.814 105.804C159.972 105.954 160.051 106.14 160.051 106.362C160.051 106.577 159.972 106.762 159.814 106.916C159.66 107.069 159.474 107.146 159.256 107.146ZM163.151 114L161.062 108.129H162.49L163.844 112.695H163.94L165.289 108.129H166.696L164.612 114H163.151ZM170.108 114.118C169.524 114.118 169.023 113.995 168.604 113.748C168.188 113.5 167.868 113.15 167.642 112.695C167.417 112.24 167.304 111.701 167.304 111.078V111.073C167.304 110.457 167.415 109.92 167.637 109.461C167.863 109.003 168.181 108.649 168.593 108.398C169.005 108.144 169.488 108.017 170.043 108.017C170.602 108.017 171.082 108.14 171.483 108.387C171.887 108.631 172.199 108.973 172.417 109.413C172.636 109.854 172.745 110.369 172.745 110.96V111.4H167.975V110.503H172.09L171.456 111.341V110.81C171.456 110.419 171.397 110.095 171.279 109.837C171.16 109.58 170.996 109.386 170.784 109.257C170.577 109.128 170.335 109.064 170.059 109.064C169.784 109.064 169.538 109.132 169.324 109.268C169.112 109.401 168.944 109.597 168.819 109.859C168.697 110.117 168.636 110.434 168.636 110.81V111.347C168.636 111.708 168.697 112.018 168.819 112.276C168.94 112.53 169.112 112.727 169.334 112.867C169.56 113.003 169.827 113.071 170.135 113.071C170.374 113.071 170.58 113.037 170.752 112.969C170.928 112.897 171.069 112.813 171.177 112.716C171.284 112.616 171.359 112.521 171.402 112.432L171.418 112.394H172.686L172.675 112.442C172.629 112.632 172.543 112.826 172.417 113.022C172.296 113.216 172.129 113.397 171.918 113.565C171.71 113.73 171.456 113.864 171.155 113.968C170.854 114.068 170.505 114.118 170.108 114.118ZM174.089 114V108.129H175.426V109.032H175.518C175.618 108.717 175.797 108.471 176.055 108.296C176.316 108.12 176.64 108.033 177.027 108.033C177.127 108.033 177.226 108.04 177.322 108.054C177.423 108.065 177.505 108.079 177.569 108.097V109.295C177.462 109.27 177.353 109.252 177.242 109.241C177.134 109.227 177.022 109.22 176.903 109.22C176.606 109.22 176.347 109.275 176.125 109.386C175.903 109.497 175.731 109.657 175.609 109.864C175.487 110.068 175.426 110.31 175.426 110.589V114H174.089ZM181.035 114.118C180.451 114.118 179.95 113.995 179.531 113.748C179.116 113.5 178.795 113.15 178.57 112.695C178.344 112.24 178.231 111.701 178.231 111.078V111.073C178.231 110.457 178.342 109.92 178.564 109.461C178.79 109.003 179.109 108.649 179.52 108.398C179.932 108.144 180.415 108.017 180.971 108.017C181.529 108.017 182.009 108.14 182.41 108.387C182.815 108.631 183.126 108.973 183.345 109.413C183.563 109.854 183.672 110.369 183.672 110.96V111.4H178.903V110.503H183.017L182.383 111.341V110.81C182.383 110.419 182.324 110.095 182.206 109.837C182.088 109.58 181.923 109.386 181.712 109.257C181.504 109.128 181.262 109.064 180.987 109.064C180.711 109.064 180.466 109.132 180.251 109.268C180.04 109.401 179.871 109.597 179.746 109.859C179.624 110.117 179.563 110.434 179.563 110.81V111.347C179.563 111.708 179.624 112.018 179.746 112.276C179.868 112.53 180.04 112.727 180.262 112.867C180.487 113.003 180.754 113.071 181.062 113.071C181.302 113.071 181.508 113.037 181.679 112.969C181.855 112.897 181.996 112.813 182.104 112.716C182.211 112.616 182.286 112.521 182.329 112.432L182.346 112.394H183.613L183.602 112.442C183.556 112.632 183.47 112.826 183.345 113.022C183.223 113.216 183.056 113.397 182.845 113.565C182.637 113.73 182.383 113.864 182.082 113.968C181.782 114.068 181.432 114.118 181.035 114.118ZM187.955 114V108.129H189.293V109.042H189.384C189.509 108.717 189.712 108.464 189.991 108.285C190.274 108.106 190.609 108.017 190.995 108.017C191.26 108.017 191.499 108.06 191.71 108.146C191.925 108.231 192.109 108.353 192.263 108.511C192.417 108.668 192.535 108.856 192.617 109.075H192.714C192.811 108.863 192.945 108.679 193.117 108.521C193.292 108.36 193.497 108.237 193.729 108.151C193.966 108.061 194.22 108.017 194.492 108.017C194.886 108.017 195.222 108.095 195.502 108.253C195.785 108.407 196.001 108.629 196.152 108.919C196.306 109.209 196.383 109.556 196.383 109.961V114H195.045V110.289C195.045 110.031 195.006 109.818 194.927 109.649C194.852 109.481 194.735 109.354 194.578 109.268C194.42 109.182 194.222 109.139 193.982 109.139C193.749 109.139 193.547 109.193 193.375 109.3C193.203 109.404 193.069 109.546 192.972 109.725C192.879 109.904 192.832 110.106 192.832 110.332V114H191.495V110.192C191.495 109.973 191.452 109.785 191.366 109.628C191.284 109.47 191.162 109.35 191.001 109.268C190.843 109.182 190.655 109.139 190.437 109.139C190.218 109.139 190.021 109.196 189.846 109.311C189.674 109.422 189.538 109.576 189.438 109.773C189.341 109.966 189.293 110.185 189.293 110.428V114H187.955ZM200.477 114.118C199.893 114.118 199.392 113.995 198.973 113.748C198.557 113.5 198.237 113.15 198.011 112.695C197.786 112.24 197.673 111.701 197.673 111.078V111.073C197.673 110.457 197.784 109.92 198.006 109.461C198.232 109.003 198.55 108.649 198.962 108.398C199.374 108.144 199.857 108.017 200.412 108.017C200.971 108.017 201.451 108.14 201.852 108.387C202.256 108.631 202.568 108.973 202.786 109.413C203.005 109.854 203.114 110.369 203.114 110.96V111.4H198.344V110.503H202.459L201.825 111.341V110.81C201.825 110.419 201.766 110.095 201.648 109.837C201.529 109.58 201.365 109.386 201.153 109.257C200.946 109.128 200.704 109.064 200.428 109.064C200.153 109.064 199.907 109.132 199.692 109.268C199.481 109.401 199.313 109.597 199.188 109.859C199.066 110.117 199.005 110.434 199.005 110.81V111.347C199.005 111.708 199.066 112.018 199.188 112.276C199.309 112.53 199.481 112.727 199.703 112.867C199.929 113.003 200.196 113.071 200.503 113.071C200.743 113.071 200.949 113.037 201.121 112.969C201.297 112.897 201.438 112.813 201.545 112.716C201.653 112.616 201.728 112.521 201.771 112.432L201.787 112.394H203.055L203.044 112.442C202.997 112.632 202.912 112.826 202.786 113.022C202.664 113.216 202.498 113.397 202.287 113.565C202.079 113.73 201.825 113.864 201.524 113.968C201.223 114.068 200.874 114.118 200.477 114.118ZM204.458 114V108.129H205.795V109.032H205.887C206.026 108.713 206.237 108.464 206.52 108.285C206.803 108.106 207.156 108.017 207.578 108.017C208.234 108.017 208.735 108.206 209.082 108.586C209.43 108.965 209.603 109.504 209.603 110.203V114H208.266V110.514C208.266 110.056 208.169 109.712 207.976 109.483C207.786 109.254 207.489 109.139 207.084 109.139C206.819 109.139 206.59 109.198 206.397 109.316C206.203 109.435 206.055 109.601 205.951 109.816C205.847 110.031 205.795 110.285 205.795 110.579V114H204.458ZM213.305 114.097C212.818 114.097 212.394 113.975 212.032 113.731C211.671 113.484 211.391 113.133 211.194 112.679C210.997 112.224 210.899 111.689 210.899 111.073V111.062C210.899 110.439 210.996 109.902 211.189 109.451C211.386 108.996 211.663 108.647 212.022 108.403C212.383 108.156 212.811 108.033 213.305 108.033C213.574 108.033 213.824 108.076 214.057 108.162C214.29 108.244 214.494 108.362 214.67 108.516C214.849 108.67 214.988 108.853 215.088 109.064H215.185V105.857H216.517V114H215.185V113.082H215.088C214.981 113.293 214.84 113.475 214.664 113.629C214.492 113.78 214.292 113.896 214.063 113.979C213.833 114.057 213.581 114.097 213.305 114.097ZM213.724 112.969C214.029 112.969 214.29 112.894 214.508 112.743C214.73 112.589 214.9 112.371 215.019 112.088C215.14 111.801 215.201 111.463 215.201 111.073V111.062C215.201 110.668 215.14 110.33 215.019 110.047C214.9 109.764 214.73 109.546 214.508 109.392C214.29 109.238 214.029 109.161 213.724 109.161C213.423 109.161 213.162 109.238 212.94 109.392C212.722 109.542 212.553 109.76 212.435 110.047C212.317 110.33 212.258 110.668 212.258 111.062V111.073C212.258 111.467 212.317 111.805 212.435 112.088C212.553 112.371 212.722 112.589 212.94 112.743C213.158 112.894 213.42 112.969 213.724 112.969ZM220.724 114.118C220.14 114.118 219.639 113.995 219.22 113.748C218.805 113.5 218.484 113.15 218.259 112.695C218.033 112.24 217.92 111.701 217.92 111.078V111.073C217.92 110.457 218.031 109.92 218.253 109.461C218.479 109.003 218.798 108.649 219.209 108.398C219.621 108.144 220.105 108.017 220.66 108.017C221.218 108.017 221.698 108.14 222.099 108.387C222.504 108.631 222.815 108.973 223.034 109.413C223.252 109.854 223.361 110.369 223.361 110.96V111.4H218.592V110.503H222.706L222.072 111.341V110.81C222.072 110.419 222.013 110.095 221.895 109.837C221.777 109.58 221.612 109.386 221.401 109.257C221.193 109.128 220.951 109.064 220.676 109.064C220.4 109.064 220.155 109.132 219.94 109.268C219.729 109.401 219.56 109.597 219.435 109.859C219.313 110.117 219.252 110.434 219.252 110.81V111.347C219.252 111.708 219.313 112.018 219.435 112.276C219.557 112.53 219.729 112.727 219.951 112.867C220.176 113.003 220.443 113.071 220.751 113.071C220.991 113.071 221.197 113.037 221.368 112.969C221.544 112.897 221.685 112.813 221.793 112.716C221.9 112.616 221.975 112.521 222.018 112.432L222.035 112.394H223.302L223.291 112.442C223.245 112.632 223.159 112.826 223.034 113.022C222.912 113.216 222.745 113.397 222.534 113.565C222.326 113.73 222.072 113.864 221.771 113.968C221.471 114.068 221.121 114.118 220.724 114.118ZM224.705 114V108.129H226.043V109.032H226.134C226.274 108.713 226.485 108.464 226.768 108.285C227.051 108.106 227.403 108.017 227.826 108.017C228.481 108.017 228.982 108.206 229.33 108.586C229.677 108.965 229.851 109.504 229.851 110.203V114H228.513V110.514C228.513 110.056 228.417 109.712 228.223 109.483C228.033 109.254 227.736 109.139 227.332 109.139C227.067 109.139 226.838 109.198 226.644 109.316C226.451 109.435 226.302 109.601 226.198 109.816C226.095 110.031 226.043 110.285 226.043 110.579V114H224.705ZM233.961 116.062C233.445 116.062 232.999 115.994 232.623 115.858C232.251 115.722 231.957 115.529 231.743 115.278C231.528 115.031 231.397 114.743 231.35 114.414L231.356 114.397H232.688L232.699 114.414C232.742 114.6 232.872 114.752 233.091 114.87C233.313 114.992 233.61 115.053 233.982 115.053C234.441 115.053 234.795 114.951 235.046 114.747C235.3 114.542 235.427 114.252 235.427 113.876V112.749H235.336C235.225 112.96 235.08 113.139 234.901 113.286C234.725 113.432 234.523 113.543 234.294 113.619C234.068 113.69 233.819 113.726 233.547 113.726C233.053 113.726 232.625 113.608 232.264 113.372C231.902 113.132 231.623 112.8 231.426 112.378C231.232 111.955 231.136 111.467 231.136 110.912V110.901C231.136 110.335 231.234 109.837 231.431 109.408C231.628 108.978 231.907 108.641 232.269 108.398C232.634 108.154 233.069 108.033 233.574 108.033C233.846 108.033 234.095 108.076 234.321 108.162C234.55 108.248 234.75 108.369 234.922 108.527C235.098 108.684 235.241 108.874 235.352 109.096H235.422V108.129H236.759V113.855C236.759 114.306 236.645 114.696 236.415 115.026C236.19 115.359 235.868 115.615 235.449 115.794C235.03 115.973 234.534 116.062 233.961 116.062ZM233.961 112.663C234.269 112.663 234.534 112.589 234.756 112.442C234.978 112.292 235.148 112.086 235.266 111.825C235.388 111.563 235.449 111.259 235.449 110.912V110.901C235.449 110.554 235.388 110.249 235.266 109.988C235.148 109.723 234.978 109.517 234.756 109.37C234.534 109.22 234.269 109.145 233.961 109.145C233.649 109.145 233.384 109.22 233.166 109.37C232.951 109.517 232.786 109.723 232.672 109.988C232.561 110.249 232.505 110.554 232.505 110.901V110.912C232.505 111.255 232.561 111.56 232.672 111.825C232.786 112.086 232.951 112.292 233.166 112.442C233.384 112.589 233.649 112.663 233.961 112.663ZM240.005 114.097C239.636 114.097 239.304 114.025 239.011 113.882C238.721 113.739 238.492 113.536 238.323 113.275C238.159 113.01 238.076 112.698 238.076 112.34V112.33C238.076 111.982 238.162 111.683 238.334 111.433C238.506 111.178 238.758 110.98 239.091 110.836C239.424 110.693 239.829 110.609 240.305 110.584L242.475 110.45V111.331L240.493 111.459C240.117 111.481 239.84 111.56 239.661 111.696C239.482 111.832 239.392 112.022 239.392 112.265V112.276C239.392 112.527 239.487 112.722 239.677 112.861C239.87 113.001 240.116 113.071 240.413 113.071C240.681 113.071 240.921 113.017 241.132 112.91C241.344 112.802 241.51 112.657 241.632 112.475C241.754 112.288 241.815 112.079 241.815 111.846V109.988C241.815 109.694 241.721 109.47 241.535 109.316C241.349 109.159 241.073 109.08 240.708 109.08C240.404 109.08 240.155 109.134 239.962 109.241C239.768 109.345 239.637 109.494 239.569 109.687L239.564 109.708H238.302L238.307 109.66C238.35 109.331 238.479 109.042 238.694 108.795C238.909 108.548 239.193 108.357 239.548 108.221C239.902 108.085 240.311 108.017 240.773 108.017C241.281 108.017 241.711 108.095 242.062 108.253C242.413 108.407 242.679 108.632 242.862 108.93C243.045 109.223 243.136 109.576 243.136 109.988V114H241.815V113.194H241.723C241.616 113.381 241.476 113.542 241.304 113.678C241.136 113.814 240.943 113.918 240.724 113.989C240.506 114.061 240.266 114.097 240.005 114.097ZM244.748 114V108.129H246.086V109.032H246.177C246.277 108.717 246.456 108.471 246.714 108.296C246.976 108.12 247.3 108.033 247.686 108.033C247.787 108.033 247.885 108.04 247.982 108.054C248.082 108.065 248.164 108.079 248.229 108.097V109.295C248.121 109.27 248.012 109.252 247.901 109.241C247.794 109.227 247.681 109.22 247.563 109.22C247.266 109.22 247.006 109.275 246.784 109.386C246.562 109.497 246.39 109.657 246.268 109.864C246.147 110.068 246.086 110.31 246.086 110.589V114H244.748ZM249.374 114V105.857H250.712V114H249.374ZM253.064 114L251.088 111.336L252.081 110.52L254.67 114H253.064ZM250.599 112.056L250.55 110.541H250.803L252.967 108.129H254.514L251.963 110.81L251.351 111.288L250.599 112.056ZM257.115 114.097C256.746 114.097 256.415 114.025 256.121 113.882C255.831 113.739 255.602 113.536 255.434 113.275C255.269 113.01 255.187 112.698 255.187 112.34V112.33C255.187 111.982 255.273 111.683 255.445 111.433C255.617 111.178 255.869 110.98 256.202 110.836C256.535 110.693 256.94 110.609 257.416 110.584L259.586 110.45V111.331L257.604 111.459C257.228 111.481 256.95 111.56 256.771 111.696C256.592 111.832 256.503 112.022 256.503 112.265V112.276C256.503 112.527 256.598 112.722 256.787 112.861C256.981 113.001 257.226 113.071 257.523 113.071C257.792 113.071 258.032 113.017 258.243 112.91C258.454 112.802 258.621 112.657 258.743 112.475C258.864 112.288 258.925 112.079 258.925 111.846V109.988C258.925 109.694 258.832 109.47 258.646 109.316C258.46 109.159 258.184 109.08 257.819 109.08C257.514 109.08 257.266 109.134 257.072 109.241C256.879 109.345 256.748 109.494 256.68 109.687L256.675 109.708H255.412L255.418 109.66C255.461 109.331 255.59 109.042 255.805 108.795C256.019 108.548 256.304 108.357 256.659 108.221C257.013 108.085 257.421 108.017 257.883 108.017C258.392 108.017 258.821 108.095 259.172 108.253C259.523 108.407 259.79 108.632 259.973 108.93C260.155 109.223 260.246 109.576 260.246 109.988V114H258.925V113.194H258.834C258.726 113.381 258.587 113.542 258.415 113.678C258.247 113.814 258.053 113.918 257.835 113.989C257.616 114.061 257.377 114.097 257.115 114.097ZM261.859 114V108.129H263.196V109.032H263.288C263.427 108.713 263.639 108.464 263.922 108.285C264.204 108.106 264.557 108.017 264.98 108.017C265.635 108.017 266.136 108.206 266.484 108.586C266.831 108.965 267.005 109.504 267.005 110.203V114H265.667V110.514C265.667 110.056 265.57 109.712 265.377 109.483C265.187 109.254 264.89 109.139 264.485 109.139C264.221 109.139 263.991 109.198 263.798 109.316C263.605 109.435 263.456 109.601 263.352 109.816C263.248 110.031 263.196 110.285 263.196 110.579V114H261.859Z" fill="black"/>
<path d="M333 123.5H147C141.753 123.5 137.5 127.753 137.5 133V270C137.5 275.247 141.753 279.5 147 279.5H333C338.247 279.5 342.5 275.247 342.5 270V133C342.5 127.753 338.247 123.5 333 123.5Z" fill="#FFF8EC"/>
<path d="M333 123.5H147C141.753 123.5 137.5 127.753 137.5 133V270C137.5 275.247 141.753 279.5 147 279.5H333C338.247 279.5 342.5 275.247 342.5 270V133C342.5 127.753 338.247 123.5 333 123.5Z" stroke="#6B7C99"/>
<path d="M181.5 196.5C191.165 196.5 199 188.665 199 179C199 169.335 191.165 161.5 181.5 161.5C171.835 161.5 164 169.335 164 179C164 188.665 171.835 196.5 181.5 196.5Z" fill="#4A6FA5"/>
<path d="M154 223.5C154 212.454 162.954 203.5 174 203.5H189C200.046 203.5 209 212.454 209 223.5V241.5H154V223.5Z" fill="#4A6FA5"/>
<path d="M240.5 196.5C250.165 196.5 258 188.665 258 179C258 169.335 250.165 161.5 240.5 161.5C230.835 161.5 223 169.335 223 179C223 188.665 230.835 196.5 240.5 196.5Z" fill="#4A6FA5"/>
<path d="M213 223.5C213 212.454 221.954 203.5 233 203.5H248C259.046 203.5 268 212.454 268 223.5V241.5H213V223.5Z" fill="#4A6FA5"/>
<path d="M299.5 196.5C309.165 196.5 317 188.665 317 179C317 169.335 309.165 161.5 299.5 161.5C289.835 161.5 282 169.335 282 179C282 188.665 289.835 196.5 299.5 196.5Z" fill="#4A6FA5"/>
<path d="M272 223.5C272 212.454 280.954 203.5 292 203.5H307C318.046 203.5 327 212.454 327 223.5V241.5H272V223.5Z" fill="#4A6FA5"/>
<g filter="url(#filter1_diii_5399_4224)">
<path d="M430 192C430 172.67 414.33 157 395 157C375.67 157 360 172.67 360 192C360 211.33 375.67 227 395 227C414.33 227 430 211.33 430 192Z" fill="#D8E0F4"/>
<path d="M429.5 192C429.5 172.946 414.054 157.5 395 157.5C375.946 157.5 360.5 172.946 360.5 192C360.5 211.054 375.946 226.5 395 226.5C414.054 226.5 429.5 211.054 429.5 192Z" stroke="#E3A84D"/>
<path d="M392.547 199.963H390.441L385.793 204.064C385.283 204.52 384.84 204.848 384.467 205.049C384.093 205.249 383.697 205.35 383.277 205.35C382.685 205.35 382.215 205.154 381.869 204.762C381.532 204.379 381.363 203.859 381.363 203.203V199.963H380.871C379.577 199.963 378.451 199.703 377.494 199.184C376.537 198.664 375.794 197.917 375.266 196.941C374.746 195.957 374.486 194.786 374.486 193.428V182.709C374.486 181.351 374.742 180.184 375.252 179.209C375.771 178.225 376.519 177.473 377.494 176.953C378.469 176.434 379.645 176.174 381.021 176.174H398.33C399.715 176.174 400.896 176.434 401.871 176.953C402.846 177.473 403.589 178.225 404.1 179.209C404.619 180.184 404.879 181.351 404.879 182.709V184.965H401.844V182.846C401.844 181.652 401.543 180.749 400.941 180.139C400.34 179.519 399.428 179.209 398.207 179.209H381.158C379.928 179.209 379.012 179.519 378.41 180.139C377.818 180.749 377.521 181.652 377.521 182.846V193.291C377.521 194.485 377.818 195.387 378.41 195.998C379.012 196.609 379.928 196.914 381.158 196.914H382.854C383.245 196.914 383.537 197.005 383.729 197.188C383.929 197.37 384.029 197.675 384.029 198.104V201.945L388.336 197.707C388.646 197.388 388.933 197.178 389.197 197.078C389.462 196.969 389.812 196.914 390.25 196.914H391.385L392.547 199.963ZM395.951 202.943C394.648 202.943 393.536 202.711 392.615 202.246C391.704 201.781 391.007 201.111 390.523 200.236C390.04 199.352 389.799 198.286 389.799 197.037V189.025C389.799 187.74 390.04 186.646 390.523 185.744C391.007 184.833 391.704 184.14 392.615 183.666C393.536 183.183 394.648 182.941 395.951 182.941H408.994C410.307 182.941 411.419 183.183 412.33 183.666C413.251 184.14 413.952 184.833 414.436 185.744C414.919 186.646 415.16 187.74 415.16 189.025V197.037C415.16 198.286 414.923 199.352 414.449 200.236C413.984 201.111 413.305 201.781 412.412 202.246C411.519 202.711 410.434 202.943 409.158 202.943H408.912V205.979C408.912 206.626 408.743 207.145 408.406 207.537C408.069 207.929 407.604 208.125 407.012 208.125C406.629 208.125 406.237 208.011 405.836 207.783C405.435 207.564 404.997 207.25 404.523 206.84L399.971 202.943H395.951ZM396.293 200.004H399.943C400.29 200.004 400.622 200.072 400.941 200.209C401.26 200.346 401.566 200.555 401.857 200.838L406.26 204.83V201.303C406.26 200.874 406.378 200.551 406.615 200.332C406.852 200.113 407.148 200.004 407.504 200.004H408.666C409.851 200.004 410.73 199.708 411.305 199.115C411.879 198.523 412.166 197.661 412.166 196.531V189.367C412.166 188.228 411.879 187.362 411.305 186.77C410.73 186.177 409.851 185.881 408.666 185.881H396.293C395.108 185.881 394.229 186.177 393.654 186.77C393.08 187.362 392.793 188.228 392.793 189.367V196.531C392.793 197.661 393.08 198.523 393.654 199.115C394.229 199.708 395.108 200.004 396.293 200.004Z" fill="black"/>
</g>
</g>
<defs>
<filter id="filter0_i_5399_4224" x="457.838" y="191.528" width="15.1523" height="17.1526" filterUnits="userSpaceOnUse" color-interpolation-filters="sRGB">
<feFlood flood-opacity="0" result="BackgroundImageFix"/>
<feBlend mode="normal" in="SourceGraphic" in2="BackgroundImageFix" result="shape"/>
<feColorMatrix in="SourceAlpha" type="matrix" values="0 0 0 0 0 0 0 0 0 0 0 0 0 0 0 0 0 0 127 0" result="hardAlpha"/>
<feOffset dy="2"/>
<feGaussianBlur stdDeviation="2"/>
<feComposite in2="hardAlpha" operator="arithmetic" k2="-1" k3="1"/>
<feColorMatrix type="matrix" values="0 0 0 0 0 0 0 0 0 0 0 0 0 0 0 0 0 0 1 0"/>
<feBlend mode="normal" in2="shape" result="effect1_innerShadow_5399_4224"/>
</filter>
<filter id="filter1_diii_5399_4224" x="352" y="153" width="82" height="78" filterUnits="userSpaceOnUse" color-interpolation-filters="sRGB">
<feFlood flood-opacity="0" result="BackgroundImageFix"/>
<feColorMatrix in="SourceAlpha" type="matrix" values="0 0 0 0 0 0 0 0 0 0 0 0 0 0 0 0 0 0 127 0" result="hardAlpha"/>
<feOffset dx="-4"/>
<feGaussianBlur stdDeviation="2"/>
<feComposite in2="hardAlpha" operator="out"/>
<feColorMatrix type="matrix" values="0 0 0 0 0 0 0 0 0 0 0 0 0 0 0 0 0 0 0.25 0"/>
<feBlend mode="normal" in2="BackgroundImageFix" result="effect1_dropShadow_5399_4224"/>
<feBlend mode="normal" in="SourceGraphic" in2="effect1_dropShadow_5399_4224" result="shape"/>
<feColorMatrix in="SourceAlpha" type="matrix" values="0 0 0 0 0 0 0 0 0 0 0 0 0 0 0 0 0 0 127 0" result="hardAlpha"/>
<feOffset dy="4"/>
<feGaussianBlur stdDeviation="2"/>
<feComposite in2="hardAlpha" operator="arithmetic" k2="-1" k3="1"/>
<feColorMatrix type="matrix" values="0 0 0 0 0 0 0 0 0 0 0 0 0 0 0 0 0 0 0.25 0"/>
<feBlend mode="normal" in2="shape" result="effect2_innerShadow_5399_4224"/>
<feColorMatrix in="SourceAlpha" type="matrix" values="0 0 0 0 0 0 0 0 0 0 0 0 0 0 0 0 0 0 127 0" result="hardAlpha"/>
<feOffset dy="-4"/>
<feGaussianBlur stdDeviation="2"/>
<feComposite in2="hardAlpha" operator="arithmetic" k2="-1" k3="1"/>
<feColorMatrix type="matrix" values="0 0 0 0 0 0 0 0 0 0 0 0 0 0 0 0 0 0 0.25 0"/>
<feBlend mode="normal" in2="effect2_innerShadow_5399_4224" result="effect3_innerShadow_5399_4224"/>
<feColorMatrix in="SourceAlpha" type="matrix" values="0 0 0 0 0 0 0 0 0 0 0 0 0 0 0 0 0 0 127 0" result="hardAlpha"/>
<feOffset dx="4"/>
<feGaussianBlur stdDeviation="2"/>
<feComposite in2="hardAlpha" operator="arithmetic" k2="-1" k3="1"/>
<feColorMatrix type="matrix" values="0 0 0 0 0 0 0 0 0 0 0 0 0 0 0 0 0 0 0.25 0"/>
<feBlend mode="normal" in2="effect3_innerShadow_5399_4224" result="effect4_innerShadow_5399_4224"/>
</filter>
<clipPath id="clip0_5399_4224">
<rect width="626" height="396" fill="white"/>
</clipPath>
</defs>
</svg>
