<svg width="938" height="613" viewBox="0 0 938 613" fill="none" xmlns="http://www.w3.org/2000/svg">
<g clip-path="url(#clip0_4668_8743)">
<path d="M937.019 342.936C937.019 474.103 793.929 601.935 544.02 601.935C294.111 601.935 51.7734 649.938 18.7735 361.435C-37.7267 177.438 270.519 -81.0639 523.519 49.4362C808.019 110.936 945.02 112.935 937.019 342.936Z" fill="#D8E0F4"/>
<path d="M532 59C535.866 59 539 55.866 539 52C539 48.134 535.866 45 532 45C528.134 45 525 48.134 525 52C525 55.866 528.134 59 532 59Z" fill="white"/>
<path d="M407.5 613C413.299 613 418 608.299 418 602.5C418 596.701 413.299 592 407.5 592C401.701 592 397 596.701 397 602.5C397 608.299 401.701 613 407.5 613Z" fill="white"/>
<path d="M282 186C285.866 186 289 182.866 289 179C289 175.134 285.866 172 282 172C278.134 172 275 175.134 275 179C275 182.866 278.134 186 282 186Z" fill="white"/>
<path d="M861 249C864.866 249 868 245.866 868 242C868 238.134 864.866 235 861 235C857.134 235 854 238.134 854 242C854 245.866 857.134 249 861 249Z" fill="white"/>
<path d="M816 523C819.866 523 823 519.866 823 516C823 512.134 819.866 509 816 509C812.134 509 809 512.134 809 516C809 519.866 812.134 523 816 523Z" fill="white"/>
<path d="M443.5 596C454.822 596 464 586.822 464 575.5C464 564.178 454.822 555 443.5 555C432.178 555 423 564.178 423 575.5C423 586.822 432.178 596 443.5 596Z" stroke="white" stroke-width="4"/>
<path d="M853.5 507C864.822 507 874 497.822 874 486.5C874 475.178 864.822 466 853.5 466C842.178 466 833 475.178 833 486.5C833 497.822 842.178 507 853.5 507Z" stroke="white" stroke-width="4"/>
<path d="M22.5 299C33.8218 299 43 289.822 43 278.5C43 267.178 33.8218 258 22.5 258C11.1782 258 2 267.178 2 278.5C2 289.822 11.1782 299 22.5 299Z" stroke="white" stroke-width="4"/>
<path d="M366.5 43C377.822 43 387 33.8218 387 22.5C387 11.1782 377.822 2 366.5 2C355.178 2 346 11.1782 346 22.5C346 33.8218 355.178 43 366.5 43Z" stroke="white" stroke-width="4"/>
<path d="M248 177C255.18 177 261 171.18 261 164C261 156.82 255.18 151 248 151C240.82 151 235 156.82 235 164C235 171.18 240.82 177 248 177Z" stroke="white" stroke-width="4"/>
<g filter="url(#filter0_d_4668_8743)">
<path d="M128.618 238.09C122.786 225.293 131.633 210.633 145.673 209.829L671.189 179.734C678.995 179.287 686.346 183.43 690.006 190.34L808.145 413.397C814.906 426.163 806.318 441.667 791.909 442.706L253.871 481.5C245.532 482.101 237.7 477.453 234.233 469.845L128.618 238.09Z" fill="#6B7C99"/>
<path d="M671.217 180.232C678.828 179.797 685.996 183.837 689.564 190.574L807.703 413.631C814.295 426.078 805.922 441.194 791.873 442.207L253.835 481.001C245.705 481.587 238.069 477.055 234.688 469.638L129.072 237.883C123.387 225.406 132.013 211.112 145.702 210.328L671.217 180.232Z" stroke="black"/>
</g>
<path d="M630.931 204.807C638.259 204.337 645.203 208.135 648.763 214.558L747.483 392.666C754.203 404.789 746.099 419.794 732.277 420.824L294.106 453.483C286.275 454.067 278.891 449.772 275.526 442.676L188.537 259.215C182.784 247.082 191.09 232.972 204.49 232.113L630.931 204.807Z" fill="#F6B68E" stroke="black" stroke-width="2"/>
<g filter="url(#filter1_i_4668_8743)">
<path d="M712 303C719.18 303 725 298.523 725 293C725 287.477 719.18 283 712 283C704.82 283 699 287.477 699 293C699 298.523 704.82 303 712 303Z" fill="white"/>
</g>
<path d="M712 283.5C715.489 283.5 718.63 284.588 720.888 286.325C723.145 288.062 724.5 290.426 724.5 293C724.5 295.574 723.145 297.938 720.888 299.675C718.63 301.412 715.489 302.5 712 302.5C708.511 302.5 705.37 301.412 703.112 299.675C700.855 297.938 699.5 295.574 699.5 293C699.5 290.426 700.855 288.062 703.112 286.325C705.37 284.588 708.511 283.5 712 283.5Z" stroke="white"/>
<path d="M261.59 268.545C259.297 262.277 263.67 255.565 270.33 255.131L296.164 253.446C300.284 253.177 304.146 255.468 305.885 259.214L323.496 297.145C326.27 303.12 322.61 310.097 316.118 311.212L287.719 316.089C282.958 316.906 278.294 314.205 276.635 309.669L261.59 268.545Z" fill="#E4ECF9"/>
<path d="M294.515 258.948C298.436 258.691 302.111 260.875 303.76 264.442L317.077 293.26C319.698 298.931 316.226 305.545 310.069 306.607L289.901 310.086C285.372 310.867 280.932 308.295 279.359 303.976L268.032 272.869C265.865 266.918 270.018 260.553 276.338 260.139L294.515 258.948Z" fill="#E4ECF9" stroke="#FAD592"/>
<path d="M287.585 334.652C284.758 328.754 288.261 321.774 294.681 320.516L323.279 314.914C327.574 314.073 331.918 316.123 333.999 319.973L354.621 358.124C357.647 363.723 354.743 370.686 348.635 372.476L319.155 381.111C314.453 382.489 309.445 380.256 307.327 375.837L287.585 334.652Z" fill="#E4ECF9"/>
<path d="M321.422 321.902C325.5 321.105 329.623 323.05 331.601 326.704L346.671 354.548C349.55 359.868 346.789 366.489 340.983 368.188L320.652 374.136C316.187 375.442 311.433 373.323 309.42 369.129L295.046 339.178C292.356 333.573 295.685 326.938 301.786 325.744L321.422 321.902Z" fill="#E4ECF9" stroke="#FAD592"/>
<path d="M342.608 325.702C339.182 319.579 342.962 311.923 349.906 310.921L377.45 306.945C381.421 306.372 385.351 308.228 387.43 311.66L406.972 343.904C410.462 349.663 407.378 357.155 400.846 358.789L373.418 365.646C369.039 366.74 364.47 364.766 362.266 360.828L342.608 325.702Z" fill="#E4ECF9"/>
<path d="M376.598 312.473C380.411 311.911 384.185 313.708 386.152 317.022L400.751 341.62C403.987 347.073 401.075 354.105 394.932 355.674L375.646 360.597C371.445 361.669 367.05 359.761 364.966 355.958L350.346 329.282C347.165 323.479 350.745 316.282 357.292 315.317L376.598 312.473Z" fill="#E4ECF9" stroke="#FAD592"/>
<path d="M394.857 317.964C391.137 311.826 394.903 303.883 402.01 302.879L426.638 299.399C430.514 298.851 434.353 300.615 436.462 303.913L453.355 330.328C456.935 335.926 454.161 343.394 447.794 345.297L424.408 352.286C420.045 353.59 415.353 351.782 412.993 347.888L394.857 317.964Z" fill="#E4ECF9"/>
<path d="M425.137 303.395C428.819 302.874 432.465 304.55 434.469 307.683L447.434 327.955C450.835 333.273 448.199 340.367 442.151 342.175L424.979 347.307C420.835 348.545 416.377 346.828 414.135 343.129L400.284 320.276C396.75 314.445 400.329 306.899 407.08 305.945L425.137 303.395Z" fill="#E4ECF9" stroke="#FAD592"/>
<path d="M312.227 265.179C309.186 258.988 313.179 251.651 320.028 250.841L345.785 247.794C349.841 247.314 353.782 249.35 355.738 252.937L375.526 289.214C378.887 295.376 375.02 302.992 368.062 303.915L340.624 307.555C336.367 308.12 332.225 305.904 330.332 302.05L312.227 265.179Z" fill="#E4ECF9"/>
<path d="M344.611 254.3C348.478 253.839 352.233 255.784 354.088 259.208L368.651 286.094C371.82 291.943 368.15 299.154 361.557 300.035L342.731 302.549C338.676 303.091 334.728 300.975 332.935 297.297L319.618 269.99C316.752 264.114 320.541 257.167 327.033 256.394L344.611 254.3Z" fill="#E4ECF9" stroke="#FAD592"/>
<path d="M362.606 259.528C359.21 253.301 363.196 245.615 370.243 244.805L392.579 242.238C396.487 241.789 400.295 243.672 402.31 247.051L423.615 282.777C427.322 288.994 423.4 296.968 416.213 297.828L392.224 300.696C388.163 301.182 384.216 299.146 382.257 295.555L362.606 259.528Z" fill="#E4ECF9"/>
<path d="M392.043 248.26C395.794 247.819 399.451 249.643 401.355 252.905L416.906 279.544C420.348 285.441 416.631 292.935 409.854 293.763L394.218 295.673C390.322 296.149 386.534 294.18 384.686 290.718L370.347 263.863C367.194 257.959 370.972 250.735 377.619 249.954L392.043 248.26Z" fill="#E4ECF9" stroke="#FAD592"/>
<path d="M622.378 251.111C625.833 250.795 629.134 252.609 630.718 255.696L691.877 374.949C694.632 380.321 691.066 386.772 685.052 387.296L528.958 400.889C525.351 401.203 521.941 399.198 520.462 395.894L467.084 276.653C464.702 271.333 468.261 265.248 474.065 264.716L622.378 251.111Z" fill="#E4ECF9" stroke="#FAD592" stroke-width="3"/>
<path d="M127.569 238.207C127.355 237.753 127.789 237.263 128.266 237.422C128.415 237.472 128.537 237.581 128.604 237.724L143.911 270.808C143.967 270.929 143.965 271.07 143.905 271.189C143.741 271.518 143.27 271.513 143.114 271.18L127.569 238.207Z" fill="#D9D9D9"/>
<path d="M151.349 209.198C151.184 208.868 151.411 208.477 151.779 208.455L185.764 206.513C185.914 206.505 186.061 206.561 186.167 206.667C186.489 206.989 186.279 207.541 185.824 207.566L151.837 209.481C151.633 209.493 151.441 209.381 151.349 209.198Z" fill="#D9D9D9"/>
<path d="M190.228 206.956C190.063 206.626 190.289 206.234 190.658 206.213L224.643 204.271C224.793 204.263 224.94 204.319 225.046 204.425C225.368 204.747 225.158 205.298 224.703 205.324L190.716 207.239C190.511 207.25 190.32 207.139 190.228 206.956Z" fill="#D9D9D9"/>
<path d="M350.438 400.32C350.262 400.404 350.077 400.482 349.881 400.555C349.686 400.628 349.495 400.69 349.311 400.743C349.126 400.796 348.928 400.845 348.716 400.889C348.504 400.933 348.309 400.964 348.131 400.982L343.652 385.363L343.751 385.185L352.806 382.589C352.97 382.841 353.101 383.137 353.198 383.475C353.401 384.182 353.064 384.662 352.187 384.913L348.738 385.902C347.869 386.151 347.108 386.357 346.456 386.519C346.592 386.996 346.733 387.472 346.877 387.946C347.02 388.413 347.157 388.877 347.289 389.339L347.888 391.427C348.072 391.374 348.253 391.322 348.43 391.271C348.605 391.213 348.769 391.162 348.923 391.117L353.571 389.784C353.654 389.927 353.729 390.089 353.798 390.269C353.864 390.441 353.914 390.589 353.95 390.712C353.987 390.843 354.025 391.003 354.062 391.192C354.098 391.373 354.119 391.55 354.127 391.722L349.478 393.055C349.325 393.099 349.159 393.147 348.982 393.198C348.803 393.241 348.62 393.285 348.434 393.33L350.438 400.32ZM366.863 393.538C367.055 394.265 367.08 394.803 366.939 395.152C366.797 395.5 366.454 395.753 365.908 395.909L360.567 397.441C360.175 397.553 359.821 397.526 359.507 397.358C359.198 397.18 358.981 396.872 358.855 396.434L355.653 385.268L355.744 385.104L356.632 384.85C357.101 384.715 357.46 384.733 357.708 384.903C357.957 385.073 358.154 385.412 358.299 385.919L360.995 395.321C361.646 395.067 362.276 394.853 362.883 394.679L366.863 393.538ZM366.456 382.12C366.609 382.043 366.791 381.966 367.002 381.889C367.22 381.809 367.41 381.746 367.572 381.7C367.749 381.649 367.939 381.603 368.144 381.561C368.348 381.519 368.543 381.488 368.729 381.468L372.334 394.042C372.166 394.123 371.984 394.2 371.789 394.273C371.593 394.346 371.407 394.407 371.23 394.458C371.069 394.504 370.874 394.552 370.647 394.6C370.427 394.647 370.232 394.678 370.062 394.693L366.456 382.12ZM383.01 381.742C383.403 383.111 383.247 384.267 382.544 385.209C381.846 386.142 380.797 386.809 379.397 387.21L377.356 387.796L378.629 392.237C378.469 392.316 378.287 392.393 378.084 392.468C377.888 392.541 377.702 392.602 377.525 392.653C377.364 392.699 377.173 392.746 376.953 392.792C376.734 392.838 376.535 392.87 376.357 392.888L372.784 380.43L372.878 380.278C373.574 380.062 374.261 379.849 374.941 379.637C375.627 379.415 376.327 379.202 377.042 378.997C377.965 378.732 378.826 378.644 379.625 378.731C380.432 378.816 381.13 379.102 381.719 379.591C382.309 380.079 382.739 380.797 383.01 381.742ZM375.503 381.336L376.853 386.042C377.212 385.931 377.58 385.821 377.957 385.713C378.334 385.605 378.618 385.523 378.811 385.468C379.495 385.272 379.983 384.999 380.274 384.649C380.564 384.3 380.723 383.925 380.75 383.526C380.778 383.127 380.742 382.755 380.642 382.409C380.541 382.055 380.374 381.72 380.142 381.404C379.907 381.08 379.575 380.851 379.146 380.716C378.714 380.573 378.155 380.6 377.471 380.797C377.179 380.88 376.863 380.971 376.525 381.068C376.192 381.155 375.852 381.244 375.503 381.336ZM399.772 376.936C400.165 378.305 400.009 379.46 399.306 380.403C398.608 381.335 397.559 382.002 396.159 382.404L394.118 382.989L395.391 387.43C395.231 387.509 395.049 387.586 394.846 387.661C394.65 387.734 394.464 387.796 394.287 387.847C394.126 387.893 393.935 387.939 393.715 387.986C393.496 388.032 393.297 388.064 393.119 388.082L389.546 375.624L389.64 375.472C390.336 375.256 391.023 375.042 391.703 374.831C392.389 374.609 393.089 374.396 393.804 374.191C394.727 373.926 395.588 373.837 396.387 373.924C397.194 374.009 397.892 374.296 398.481 374.784C399.071 375.273 399.501 375.99 399.772 376.936ZM392.265 376.529L393.615 381.236C393.974 381.124 394.342 381.015 394.719 380.907C395.096 380.799 395.38 380.717 395.573 380.662C396.257 380.466 396.745 380.193 397.036 379.843C397.326 379.493 397.485 379.119 397.512 378.72C397.54 378.321 397.504 377.949 397.404 377.603C397.303 377.249 397.136 376.914 396.904 376.598C396.669 376.274 396.337 376.044 395.908 375.909C395.476 375.767 394.917 375.794 394.233 375.99C393.941 376.074 393.625 376.164 393.287 376.261C392.954 376.349 392.614 376.438 392.265 376.529ZM407.084 384.077C406.924 384.157 406.742 384.234 406.539 384.309C406.343 384.381 406.157 384.443 405.98 384.494C405.819 384.54 405.628 384.586 405.408 384.633C405.188 384.679 404.99 384.711 404.812 384.729L401.206 372.156C401.364 372.069 401.55 371.99 401.763 371.921C401.974 371.844 402.16 371.782 402.322 371.736C402.499 371.685 402.689 371.639 402.894 371.597C403.103 371.545 403.298 371.514 403.479 371.504L404.554 375.253C404.629 375.514 404.691 375.746 404.741 375.948C404.79 376.15 404.85 376.375 404.921 376.621C405.029 376.59 405.224 376.53 405.506 376.44C405.796 376.349 405.991 376.289 406.091 376.26L409.448 375.298C409.54 375.271 409.729 375.221 410.016 375.147C410.311 375.071 410.512 375.018 410.619 374.987C410.549 374.741 410.481 374.519 410.416 374.321C410.351 374.123 410.281 373.894 410.206 373.632L409.131 369.883C409.281 369.798 409.455 369.724 409.653 369.659C409.849 369.586 410.035 369.524 410.212 369.473C410.381 369.425 410.575 369.377 410.795 369.331C411.013 369.277 411.215 369.244 411.403 369.232L415.009 381.805C414.841 381.886 414.655 381.965 414.452 382.039C414.256 382.112 414.066 382.175 413.882 382.228C413.705 382.279 413.514 382.325 413.31 382.367C413.105 382.409 412.914 382.439 412.736 382.456L411.522 378.223C411.445 377.954 411.382 377.718 411.332 377.516C411.282 377.314 411.221 377.086 411.148 376.832C411.041 376.863 410.842 376.924 410.552 377.016C410.27 377.105 410.082 377.163 409.99 377.189L406.633 378.152C406.533 378.181 406.336 378.233 406.042 378.309C405.755 378.383 405.558 378.435 405.45 378.466C405.523 378.72 405.592 378.946 405.657 379.144C405.722 379.341 405.793 379.575 405.87 379.844L407.084 384.077ZM416.146 374.688C415.775 373.396 415.668 372.195 415.824 371.085C415.986 369.965 416.417 369.001 417.117 368.192C417.823 367.374 418.806 366.784 420.067 366.423C421.344 366.057 422.493 366.031 423.516 366.345C424.546 366.657 425.422 367.247 426.145 368.113C426.875 368.977 427.426 370.055 427.796 371.347C428.164 372.631 428.268 373.833 428.106 374.953C427.945 376.073 427.51 377.038 426.802 377.849C426.092 378.652 425.106 379.234 423.845 379.596C422.576 379.96 421.43 379.984 420.408 379.67C419.384 379.348 418.506 378.755 417.776 377.891C417.053 377.024 416.51 375.957 416.146 374.688ZM418.499 374.013C418.651 374.544 418.858 375.075 419.118 375.608C419.379 376.141 419.702 376.614 420.087 377.028C420.47 377.434 420.931 377.722 421.471 377.892C422.009 378.054 422.631 378.034 423.339 377.831C424.054 377.626 424.596 377.312 424.966 376.89C425.334 376.46 425.573 375.971 425.682 375.424C425.789 374.869 425.808 374.297 425.74 373.709C425.679 373.119 425.572 372.559 425.42 372.028C425.266 371.49 425.058 370.955 424.797 370.422C424.542 369.879 424.222 369.405 423.84 368.999C423.455 368.585 422.993 368.297 422.456 368.135C421.916 367.965 421.289 367.982 420.573 368.187C419.866 368.39 419.328 368.707 418.961 369.137C418.591 369.559 418.352 370.048 418.245 370.603C418.136 371.15 418.113 371.723 418.176 372.32C418.237 372.911 418.344 373.475 418.499 374.013ZM431.433 366.983C431.363 366.737 431.303 366.513 431.253 366.311C431.201 366.101 431.138 365.866 431.063 365.604C430.917 365.646 430.714 365.708 430.455 365.791C430.203 365.871 430.004 365.933 429.858 365.975L427.401 366.679C427.324 366.526 427.255 366.372 427.193 366.214C427.131 366.057 427.082 365.913 427.044 365.783C427.005 365.644 426.968 365.488 426.935 365.315C426.902 365.141 426.878 364.969 426.862 364.799L436.355 362.077C436.431 362.196 436.505 362.338 436.577 362.5C436.646 362.655 436.697 362.79 436.73 362.905C436.825 363.236 436.81 363.515 436.683 363.743C436.563 363.961 436.268 364.137 435.799 364.271L434.484 364.648C434.345 364.688 434.144 364.741 433.881 364.809C433.625 364.874 433.427 364.926 433.289 364.966C433.364 365.227 433.435 365.461 433.502 365.666C433.567 365.864 433.635 366.086 433.706 366.332L436.385 375.675C436.248 375.748 436.073 375.823 435.863 375.9C435.652 375.977 435.458 376.041 435.281 376.092C435.112 376.14 434.917 376.188 434.698 376.234C434.478 376.28 434.283 376.311 434.112 376.327L431.433 366.983ZM438.968 368.144C438.598 366.852 438.491 365.651 438.647 364.541C438.808 363.421 439.239 362.457 439.939 361.648C440.645 360.83 441.629 360.24 442.89 359.878C444.166 359.512 445.316 359.487 446.338 359.801C447.368 360.113 448.244 360.702 448.967 361.569C449.698 362.433 450.248 363.511 450.619 364.803C450.987 366.087 451.09 367.289 450.929 368.409C450.767 369.529 450.332 370.494 449.624 371.305C448.914 372.108 447.928 372.69 446.667 373.051C445.398 373.415 444.253 373.44 443.231 373.126C442.206 372.804 441.329 372.21 440.598 371.346C439.875 370.48 439.332 369.412 438.968 368.144ZM441.321 367.469C441.473 367.999 441.68 368.531 441.941 369.064C442.202 369.596 442.525 370.07 442.91 370.484C443.293 370.89 443.754 371.178 444.294 371.348C444.831 371.51 445.454 371.489 446.161 371.287C446.876 371.082 447.419 370.768 447.789 370.346C448.157 369.916 448.395 369.427 448.504 368.879C448.612 368.324 448.631 367.753 448.562 367.165C448.501 366.575 448.395 366.015 448.242 365.484C448.088 364.946 447.88 364.41 447.619 363.878C447.364 363.335 447.045 362.861 446.662 362.454C446.277 362.04 445.816 361.752 445.278 361.59C444.739 361.421 444.111 361.438 443.396 361.643C442.688 361.846 442.151 362.163 441.783 362.593C441.413 363.015 441.175 363.504 441.068 364.059C440.958 364.606 440.935 365.179 440.998 365.776C441.059 366.366 441.167 366.93 441.321 367.469Z" fill="white"/>
<path d="M522.091 243.735C522.192 244.891 522.046 245.883 521.653 246.713C521.259 247.534 520.669 248.18 519.883 248.65C519.105 249.12 518.186 249.401 517.126 249.494L514.52 249.722L515.032 255.579C514.852 255.627 514.655 255.669 514.441 255.703C514.227 255.738 514.021 255.764 513.821 255.782C513.646 255.797 513.446 255.807 513.222 255.81C513.005 255.813 512.812 255.806 512.642 255.789L511.224 239.59L511.355 239.434C512.247 239.34 513.074 239.252 513.838 239.169C514.609 239.078 515.397 238.997 516.201 238.926C517.245 238.835 518.195 238.948 519.05 239.267C519.905 239.586 520.598 240.115 521.128 240.856C521.667 241.596 521.988 242.556 522.091 243.735ZM513.762 241.055L514.355 247.833C514.808 247.785 515.282 247.74 515.776 247.697C516.278 247.645 516.652 247.608 516.899 247.586C517.712 247.515 518.318 247.281 518.717 246.885C519.116 246.489 519.372 246.025 519.486 245.493C519.6 244.961 519.636 244.448 519.593 243.954C519.549 243.452 519.424 242.949 519.22 242.444C519.015 241.94 518.682 241.532 518.221 241.219C517.76 240.906 517.123 240.785 516.31 240.856C515.959 240.887 515.545 240.923 515.067 240.965C514.597 241.006 514.162 241.036 513.762 241.055ZM535.959 249.099C536.098 250.693 535.719 251.955 534.82 252.885C533.93 253.814 532.652 254.351 530.986 254.497C529.328 254.642 527.977 254.335 526.93 253.575C525.892 252.814 525.303 251.637 525.164 250.043L524.431 241.663L524.539 241.521L525.435 241.443C525.913 241.401 526.267 241.495 526.496 241.724C526.724 241.945 526.861 242.318 526.907 242.844L527.518 249.825C527.604 250.806 527.924 251.536 528.481 252.018C529.037 252.499 529.817 252.696 530.821 252.608C531.841 252.519 532.579 252.189 533.035 251.619C533.491 251.049 533.676 250.274 533.591 249.294L532.855 240.89C533.028 240.843 533.217 240.802 533.423 240.768C533.629 240.734 533.819 240.709 533.995 240.694C534.17 240.679 534.37 240.669 534.594 240.666C534.827 240.661 535.037 240.671 535.223 240.695L535.959 249.099ZM543.937 243.775C544.128 243.477 544.368 243.139 544.656 242.761C544.951 242.374 545.236 242.003 545.51 241.65L545.446 241.608C545.21 241.66 544.854 241.72 544.378 241.785C543.909 241.842 543.452 241.894 543.006 241.941C542.56 241.988 542.25 242.02 542.075 242.035L538.739 242.327C538.662 242.085 538.611 241.824 538.587 241.545C538.569 241.346 538.565 241.158 538.573 240.98C538.589 240.794 538.616 240.595 538.654 240.383L547.5 239.609C547.699 240.138 547.826 240.488 547.881 240.66C547.936 240.832 547.968 240.965 547.976 241.061C548.004 241.38 547.926 241.68 547.742 241.961L543.099 249.197C542.893 249.512 542.647 249.867 542.361 250.261C542.081 250.647 541.819 251.003 541.575 251.33L541.629 251.397C542.12 251.314 542.587 251.245 543.032 251.19C543.484 251.127 543.881 251.076 544.223 251.038L546.244 250.861C546.785 250.806 547.272 250.731 547.706 250.637C548.139 250.543 548.494 250.423 548.771 250.279C548.842 250.449 548.9 250.613 548.946 250.769C549 250.925 549.036 251.107 549.054 251.314C549.129 252.175 548.613 252.654 547.505 252.75L539.46 253.454C539.287 252.947 539.177 252.612 539.131 252.447C539.084 252.275 539.056 252.137 539.046 252.033C539.016 251.69 539.096 251.358 539.285 251.036L543.937 243.775ZM555.868 242.731C556.059 242.434 556.299 242.096 556.587 241.717C556.882 241.33 557.167 240.96 557.441 240.606L557.377 240.564C557.141 240.616 556.785 240.676 556.309 240.741C555.84 240.799 555.383 240.851 554.937 240.898C554.491 240.945 554.181 240.976 554.006 240.991L550.67 241.283C550.593 241.041 550.542 240.78 550.518 240.501C550.5 240.302 550.496 240.114 550.504 239.936C550.52 239.75 550.547 239.551 550.585 239.339L559.431 238.565C559.63 239.094 559.757 239.444 559.812 239.616C559.867 239.788 559.899 239.921 559.907 240.017C559.935 240.336 559.857 240.636 559.673 240.917L555.03 248.153C554.824 248.468 554.578 248.823 554.292 249.218C554.012 249.603 553.75 249.96 553.506 250.286L553.56 250.354C554.051 250.271 554.518 250.202 554.963 250.147C555.415 250.083 555.812 250.032 556.154 249.994L558.175 249.817C558.716 249.762 559.203 249.687 559.637 249.593C560.07 249.499 560.425 249.38 560.702 249.235C560.773 249.405 560.831 249.569 560.877 249.726C560.931 249.881 560.967 250.063 560.985 250.27C561.06 251.131 560.544 251.61 559.436 251.707L551.391 252.41C551.218 251.904 551.108 251.568 551.062 251.403C551.015 251.231 550.987 251.093 550.977 250.989C550.947 250.646 551.027 250.314 551.216 249.993L555.868 242.731ZM573.047 248.54C573.112 249.281 573.041 249.806 572.835 250.113C572.628 250.412 572.254 250.585 571.712 250.633L565.508 251.175C565.093 251.212 564.752 251.117 564.483 250.892C564.214 250.658 564.06 250.322 564.022 249.884L563.016 238.384L563.136 238.241L571.695 237.492C571.741 237.657 571.776 237.818 571.797 237.977C571.819 238.136 571.836 238.283 571.848 238.418C571.859 238.546 571.857 238.703 571.841 238.889C571.833 239.074 571.805 239.261 571.758 239.45L566.844 239.88C566.685 239.894 566.482 239.912 566.235 239.933C565.987 239.947 565.736 239.965 565.481 239.987C565.496 240.163 565.516 240.349 565.542 240.548C565.567 240.747 565.59 240.965 565.611 241.204L565.814 243.524C566.06 243.494 566.303 243.469 566.542 243.448C566.789 243.426 566.993 243.408 567.152 243.395L570.989 243.059C571.058 243.205 571.105 243.37 571.129 243.553C571.16 243.726 571.181 243.873 571.191 243.993C571.203 244.128 571.209 244.288 571.209 244.473C571.217 244.649 571.199 244.815 571.157 244.971L567.319 245.307C567.16 245.321 566.957 245.339 566.71 245.361C566.47 245.373 566.226 245.391 565.979 245.412L566.219 248.15C566.236 248.341 566.248 248.525 566.255 248.701C566.262 248.877 566.272 249.037 566.285 249.18C566.491 249.146 566.701 249.116 566.915 249.089C567.138 249.061 567.4 249.034 567.703 249.008L573.047 248.54ZM584.587 247.495C584.636 248.245 584.558 248.778 584.353 249.093C584.148 249.408 583.762 249.59 583.196 249.64L577.661 250.124C577.255 250.16 576.913 250.065 576.637 249.84C576.367 249.607 576.213 249.263 576.173 248.809L575.161 237.237L575.281 237.094L576.201 237.014C576.687 236.971 577.036 237.057 577.248 237.271C577.459 237.486 577.588 237.856 577.634 238.382L578.486 248.125C579.174 248 579.833 247.91 580.462 247.855L584.587 247.495Z" fill="white"/>
<path d="M564.429 398.861C561.113 399.21 558.424 398.738 556.361 397.447C554.344 396.192 553.201 394.281 552.931 391.711C552.508 387.692 553.268 383.359 555.21 378.714C557.147 374.028 560.192 369.518 564.345 365.185C568.494 360.811 573.654 357.085 579.824 354.006C586.032 350.882 593.155 348.897 601.194 348.052C609.274 347.203 616.655 347.663 623.335 349.433C630.052 351.157 635.873 353.729 640.799 357.15C645.763 360.524 649.679 364.302 652.548 368.484C655.455 372.619 657.119 376.697 657.542 380.716C657.812 383.285 657.07 385.395 655.316 387.046C653.608 388.734 651.097 389.752 647.782 390.1L564.429 398.861ZM600.087 336.92C595.653 337.386 591.424 336.615 587.401 334.608C583.373 332.559 579.983 329.606 577.231 325.747C574.517 321.843 572.889 317.322 572.349 312.183C571.818 307.128 572.478 302.45 574.331 298.149C576.224 293.845 578.932 290.313 582.455 287.555C585.978 284.796 589.956 283.184 594.39 282.718C598.824 282.252 603.048 282.981 607.063 284.905C611.078 286.83 614.438 289.702 617.144 293.524C619.887 297.299 621.526 301.736 622.062 306.833C622.607 312.012 621.936 316.796 620.051 321.184C618.208 325.567 615.529 329.18 612.015 332.021C608.497 334.821 604.521 336.453 600.087 336.92Z" fill="#6594D8"/>
<path d="M422.909 345.718C422.017 346.008 421.25 346.036 420.607 345.801C419.979 345.574 419.552 345.115 419.328 344.424C418.976 343.343 418.932 342.107 419.195 340.715C419.454 339.313 420.028 337.894 420.917 336.459C421.802 335.013 423.004 333.686 424.521 332.478C426.046 331.256 427.89 330.293 430.052 329.591C432.226 328.885 434.283 328.58 436.224 328.676C438.173 328.758 439.925 329.125 441.48 329.778C443.043 330.416 444.341 331.226 445.375 332.209C446.416 333.176 447.113 334.201 447.464 335.282C447.688 335.973 447.608 336.597 447.222 337.153C446.851 337.718 446.219 338.145 445.327 338.434L422.909 345.718ZM429.097 326.593C427.904 326.98 426.696 327.016 425.471 326.699C424.244 326.371 423.138 325.757 422.156 324.856C421.181 323.941 420.468 322.792 420.019 321.41C419.578 320.05 419.486 318.725 419.744 317.433C420.013 316.138 420.552 315.008 421.359 314.044C422.167 313.079 423.167 312.403 424.36 312.015C425.552 311.628 426.757 311.581 427.974 311.876C429.191 312.17 430.284 312.764 431.252 313.657C432.227 314.536 432.937 315.66 433.383 317.031C433.835 318.424 433.931 319.779 433.669 321.097C433.418 322.41 432.892 323.561 432.092 324.548C431.287 325.524 430.289 326.206 429.097 326.593Z" fill="#6594D8"/>
<path d="M340.552 301.162C339.624 301.293 338.863 301.187 338.271 300.844C337.692 300.511 337.351 299.985 337.25 299.265C337.092 298.14 337.263 296.915 337.763 295.59C338.262 294.254 339.073 292.956 340.198 291.698C341.322 290.427 342.735 289.329 344.439 288.403C346.153 287.464 348.136 286.837 350.387 286.52C352.65 286.202 354.729 286.259 356.624 286.691C358.529 287.11 360.191 287.775 361.609 288.688C363.037 289.588 364.175 290.612 365.023 291.759C365.88 292.893 366.388 294.023 366.546 295.148C366.647 295.868 366.46 296.468 365.983 296.949C365.519 297.44 364.823 297.751 363.895 297.882L340.552 301.162ZM349.967 283.402C348.725 283.576 347.529 283.401 346.378 282.877C345.226 282.34 344.244 281.543 343.433 280.486C342.632 279.415 342.13 278.16 341.928 276.721C341.729 275.306 341.868 273.984 342.347 272.757C342.837 271.529 343.563 270.509 344.527 269.699C345.49 268.89 346.592 268.397 347.834 268.223C349.075 268.048 350.27 268.212 351.417 268.713C352.565 269.215 353.537 269.989 354.335 271.037C355.144 272.071 355.648 273.302 355.848 274.729C356.052 276.18 355.911 277.531 355.424 278.783C354.949 280.033 354.231 281.075 353.272 281.908C352.31 282.729 351.209 283.227 349.967 283.402Z" fill="#6594D8"/>
<g clip-path="url(#clip1_4668_8743)">
<path d="M937.019 346.936C937.019 478.103 793.929 605.935 544.02 605.935C294.111 605.935 51.7734 653.938 18.7735 365.435C-37.7267 181.438 270.519 -77.0639 523.519 53.4362C808.019 114.936 945.02 116.935 937.019 346.936Z" fill="#D8E0F4"/>
<path d="M532 63C535.866 63 539 59.866 539 56C539 52.134 535.866 49 532 49C528.134 49 525 52.134 525 56C525 59.866 528.134 63 532 63Z" fill="white"/>
<path d="M282 190C285.866 190 289 186.866 289 183C289 179.134 285.866 176 282 176C278.134 176 275 179.134 275 183C275 186.866 278.134 190 282 190Z" fill="white"/>
<path d="M12 332C15.866 332 19 328.866 19 325C19 321.134 15.866 318 12 318C8.13401 318 5 321.134 5 325C5 328.866 8.13401 332 12 332Z" fill="white"/>
<path d="M861 253C864.866 253 868 249.866 868 246C868 242.134 864.866 239 861 239C857.134 239 854 242.134 854 246C854 249.866 857.134 253 861 253Z" fill="white"/>
<path d="M816 527C819.866 527 823 523.866 823 520C823 516.134 819.866 513 816 513C812.134 513 809 516.134 809 520C809 523.866 812.134 527 816 527Z" fill="white"/>
<path d="M443.5 600C454.822 600 464 590.822 464 579.5C464 568.178 454.822 559 443.5 559C432.178 559 423 568.178 423 579.5C423 590.822 432.178 600 443.5 600Z" stroke="white" stroke-width="4"/>
<path d="M853.5 511C864.822 511 874 501.822 874 490.5C874 479.178 864.822 470 853.5 470C842.178 470 833 479.178 833 490.5C833 501.822 842.178 511 853.5 511Z" stroke="white" stroke-width="4"/>
<path d="M22.5 303C33.8218 303 43 293.822 43 282.5C43 271.178 33.8218 262 22.5 262C11.1782 262 2 271.178 2 282.5C2 293.822 11.1782 303 22.5 303Z" stroke="white" stroke-width="4"/>
<path d="M366.5 47C377.822 47 387 37.8218 387 26.5C387 15.1782 377.822 6 366.5 6C355.178 6 346 15.1782 346 26.5C346 37.8218 355.178 47 366.5 47Z" stroke="white" stroke-width="4"/>
<path d="M248 181C255.18 181 261 175.18 261 168C261 160.82 255.18 155 248 155C240.82 155 235 160.82 235 168C235 175.18 240.82 181 248 181Z" stroke="white" stroke-width="4"/>
<g filter="url(#filter2_d_4668_8743)">
<path d="M128.618 242.09C122.786 229.293 131.633 214.633 145.673 213.829L671.189 183.734C678.995 183.287 686.346 187.43 690.006 194.34L808.145 417.397C814.906 430.163 806.318 445.667 791.909 446.706L253.871 485.5C245.532 486.101 237.7 481.453 234.233 473.845L128.618 242.09Z" fill="#6B7C99"/>
<path d="M671.217 184.232C678.828 183.797 685.996 187.837 689.564 194.574L807.703 417.631C814.295 430.078 805.922 445.194 791.873 446.207L253.835 485.001C245.705 485.587 238.069 481.055 234.688 473.638L129.072 241.883C123.387 229.406 132.013 215.112 145.702 214.328L671.217 184.232Z" stroke="black"/>
</g>
<path d="M630.931 208.807C638.259 208.337 645.203 212.135 648.763 218.558L747.483 396.666C754.203 408.789 746.099 423.794 732.277 424.824L294.106 457.483C286.275 458.067 278.891 453.772 275.526 446.676L188.537 263.215C182.784 251.082 191.09 236.972 204.49 236.113L630.931 208.807Z" fill="#F6B69E" stroke="black" stroke-width="2"/>
<g filter="url(#filter3_i_4668_8743)">
<path d="M712 307C719.18 307 725 302.523 725 297C725 291.477 719.18 287 712 287C704.82 287 699 291.477 699 297C699 302.523 704.82 307 712 307Z" fill="white"/>
</g>
<path d="M712 287.5C715.489 287.5 718.63 288.588 720.888 290.325C723.145 292.062 724.5 294.426 724.5 297C724.5 299.574 723.145 301.938 720.888 303.675C718.63 305.412 715.489 306.5 712 306.5C708.511 306.5 705.37 305.412 703.112 303.675C700.855 301.938 699.5 299.574 699.5 297C699.5 294.426 700.855 292.062 703.112 290.325C705.37 288.588 708.511 287.5 712 287.5Z" stroke="white"/>
<path d="M261.59 272.545C259.297 266.277 263.67 259.565 270.33 259.131L296.164 257.446C300.284 257.177 304.146 259.468 305.885 263.214L323.496 301.145C326.27 307.12 322.61 314.097 316.118 315.212L287.719 320.089C282.958 320.906 278.294 318.205 276.635 313.669L261.59 272.545Z" fill="#E4ECF9"/>
<path d="M294.515 262.948C298.436 262.691 302.111 264.875 303.76 268.442L317.077 297.26C319.698 302.931 316.226 309.545 310.069 310.607L289.901 314.086C285.372 314.867 280.932 312.295 279.359 307.976L268.032 276.869C265.865 270.918 270.018 264.553 276.338 264.139L294.515 262.948Z" fill="#E4ECF9" stroke="#FAD592"/>
<path d="M287.585 338.652C284.758 332.754 288.261 325.774 294.681 324.516L323.279 318.914C327.574 318.073 331.918 320.123 333.999 323.973L354.621 362.124C357.647 367.723 354.743 374.686 348.635 376.476L319.155 385.111C314.453 386.489 309.445 384.256 307.327 379.837L287.585 338.652Z" fill="#E4ECF9"/>
<path d="M321.422 325.902C325.5 325.105 329.623 327.05 331.601 330.704L346.671 358.548C349.55 363.868 346.789 370.489 340.983 372.188L320.652 378.136C316.187 379.442 311.433 377.323 309.42 373.129L295.046 343.178C292.356 337.573 295.685 330.938 301.786 329.744L321.422 325.902Z" fill="#E4ECF9" stroke="#FAD592"/>
<path d="M342.608 329.702C339.182 323.579 342.962 315.923 349.906 314.921L377.45 310.945C381.421 310.372 385.351 312.228 387.43 315.66L406.972 347.904C410.462 353.663 407.378 361.155 400.846 362.789L373.418 369.646C369.039 370.74 364.47 368.766 362.266 364.828L342.608 329.702Z" fill="#E4ECF9"/>
<path d="M376.598 316.473C380.411 315.911 384.185 317.708 386.152 321.022L400.751 345.62C403.987 351.073 401.075 358.105 394.932 359.674L375.646 364.597C371.445 365.669 367.05 363.761 364.966 359.958L350.346 333.282C347.165 327.479 350.745 320.282 357.292 319.317L376.598 316.473Z" fill="#E4ECF9" stroke="#FAD592"/>
<path d="M394.857 321.964C391.137 315.826 394.903 307.883 402.01 306.879L426.638 303.399C430.514 302.851 434.353 304.615 436.462 307.913L453.355 334.328C456.935 339.926 454.161 347.394 447.794 349.297L424.408 356.286C420.045 357.59 415.353 355.782 412.993 351.888L394.857 321.964Z" fill="#E4ECF9"/>
<path d="M425.137 307.395C428.819 306.874 432.465 308.55 434.469 311.683L447.434 331.955C450.835 337.273 448.199 344.367 442.151 346.175L424.979 351.307C420.835 352.545 416.377 350.828 414.135 347.129L400.284 324.276C396.75 318.445 400.329 310.899 407.08 309.945L425.137 307.395Z" fill="#E4ECF9" stroke="#FAD592"/>
<path d="M312.227 269.179C309.186 262.988 313.179 255.651 320.028 254.841L345.785 251.794C349.841 251.314 353.782 253.35 355.738 256.937L375.526 293.214C378.887 299.376 375.02 306.992 368.062 307.915L340.624 311.555C336.367 312.12 332.225 309.904 330.332 306.05L312.227 269.179Z" fill="#E4ECF9"/>
<path d="M344.611 258.3C348.478 257.839 352.233 259.784 354.088 263.208L368.651 290.094C371.82 295.943 368.15 303.154 361.557 304.035L342.731 306.549C338.676 307.091 334.728 304.975 332.935 301.297L319.618 273.99C316.752 268.114 320.541 261.167 327.033 260.394L344.611 258.3Z" fill="#E4ECF9" stroke="#FAD592"/>
<path d="M362.606 263.528C359.21 257.301 363.196 249.615 370.243 248.805L392.579 246.238C396.487 245.789 400.295 247.672 402.31 251.051L423.615 286.777C427.322 292.994 423.4 300.968 416.213 301.828L392.224 304.696C388.163 305.182 384.216 303.146 382.257 299.555L362.606 263.528Z" fill="#E4ECF9"/>
<path d="M392.043 252.26C395.794 251.819 399.451 253.643 401.355 256.905L416.906 283.544C420.348 289.441 416.631 296.935 409.854 297.763L394.218 299.673C390.322 300.149 386.534 298.18 384.686 294.718L370.347 267.863C367.194 261.959 370.972 254.735 377.619 253.954L392.043 252.26Z" fill="#E4ECF9" stroke="#FAD592"/>
<path d="M622.378 255.111C625.833 254.795 629.134 256.609 630.718 259.696L691.877 378.949C694.632 384.321 691.066 390.772 685.052 391.296L528.958 404.889C525.351 405.203 521.941 403.198 520.462 399.894L467.084 280.653C464.702 275.333 468.261 269.248 474.065 268.716L622.378 255.111Z" fill="#E4ECF9" stroke="#FAD592" stroke-width="3"/>
<path d="M127.569 242.207C127.355 241.753 127.789 241.263 128.266 241.422C128.415 241.472 128.537 241.581 128.604 241.724L143.911 274.808C143.967 274.929 143.965 275.07 143.905 275.189C143.741 275.518 143.27 275.513 143.114 275.18L127.569 242.207Z" fill="#D9D9D9"/>
<path d="M151.349 213.198C151.184 212.868 151.411 212.477 151.779 212.455L185.764 210.513C185.914 210.505 186.061 210.561 186.167 210.667C186.489 210.989 186.279 211.541 185.824 211.566L151.837 213.481C151.633 213.493 151.441 213.381 151.349 213.198Z" fill="#D9D9D9"/>
<path d="M190.228 210.956C190.063 210.626 190.289 210.234 190.658 210.213L224.643 208.271C224.793 208.263 224.94 208.319 225.046 208.425C225.368 208.747 225.158 209.298 224.703 209.324L190.716 211.239C190.511 211.25 190.32 211.139 190.228 210.956Z" fill="#D9D9D9"/>
<path d="M350.438 404.32C350.262 404.404 350.077 404.482 349.881 404.555C349.686 404.628 349.495 404.69 349.311 404.743C349.126 404.796 348.928 404.845 348.716 404.889C348.504 404.933 348.309 404.964 348.131 404.982L343.652 389.363L343.751 389.185L352.806 386.589C352.97 386.841 353.101 387.137 353.198 387.475C353.401 388.182 353.064 388.662 352.187 388.913L348.738 389.902C347.869 390.151 347.108 390.357 346.456 390.519C346.592 390.996 346.733 391.472 346.877 391.946C347.02 392.413 347.157 392.877 347.289 393.339L347.888 395.427C348.072 395.374 348.253 395.322 348.43 395.271C348.605 395.213 348.769 395.162 348.923 395.117L353.571 393.784C353.654 393.927 353.729 394.089 353.798 394.269C353.864 394.441 353.914 394.589 353.95 394.712C353.987 394.843 354.025 395.003 354.062 395.192C354.098 395.373 354.119 395.55 354.127 395.722L349.478 397.055C349.325 397.099 349.159 397.147 348.982 397.198C348.803 397.241 348.62 397.285 348.434 397.33L350.438 404.32ZM366.863 397.538C367.055 398.265 367.08 398.803 366.939 399.152C366.797 399.5 366.454 399.753 365.908 399.909L360.567 401.441C360.175 401.553 359.821 401.526 359.507 401.358C359.198 401.18 358.981 400.872 358.855 400.434L355.653 389.268L355.744 389.104L356.632 388.85C357.101 388.715 357.46 388.733 357.708 388.903C357.957 389.073 358.154 389.412 358.299 389.919L360.995 399.321C361.646 399.067 362.276 398.853 362.883 398.679L366.863 397.538ZM366.456 386.12C366.609 386.043 366.791 385.966 367.002 385.889C367.22 385.809 367.41 385.746 367.572 385.7C367.749 385.649 367.939 385.603 368.144 385.561C368.348 385.519 368.543 385.488 368.729 385.468L372.334 398.042C372.166 398.123 371.984 398.2 371.789 398.273C371.593 398.346 371.407 398.407 371.23 398.458C371.069 398.504 370.874 398.552 370.647 398.6C370.427 398.647 370.232 398.678 370.062 398.693L366.456 386.12ZM383.01 385.742C383.403 387.111 383.247 388.267 382.544 389.209C381.846 390.142 380.797 390.809 379.397 391.21L377.356 391.796L378.629 396.237C378.469 396.316 378.287 396.393 378.084 396.468C377.888 396.541 377.702 396.602 377.525 396.653C377.364 396.699 377.173 396.746 376.953 396.792C376.734 396.838 376.535 396.87 376.357 396.888L372.784 384.43L372.878 384.278C373.574 384.062 374.261 383.849 374.941 383.637C375.627 383.415 376.327 383.202 377.042 382.997C377.965 382.732 378.826 382.644 379.625 382.731C380.432 382.816 381.13 383.102 381.719 383.591C382.309 384.079 382.739 384.797 383.01 385.742ZM375.503 385.336L376.853 390.042C377.212 389.931 377.58 389.821 377.957 389.713C378.334 389.605 378.618 389.523 378.811 389.468C379.495 389.272 379.983 388.999 380.274 388.649C380.564 388.3 380.723 387.925 380.75 387.526C380.778 387.127 380.742 386.755 380.642 386.409C380.541 386.055 380.374 385.72 380.142 385.404C379.907 385.08 379.575 384.851 379.146 384.716C378.714 384.573 378.155 384.6 377.471 384.797C377.179 384.88 376.863 384.971 376.525 385.068C376.192 385.155 375.852 385.244 375.503 385.336ZM399.772 380.936C400.165 382.305 400.009 383.46 399.306 384.403C398.608 385.335 397.559 386.002 396.159 386.404L394.118 386.989L395.391 391.43C395.231 391.509 395.049 391.586 394.846 391.661C394.65 391.734 394.464 391.796 394.287 391.847C394.126 391.893 393.935 391.939 393.715 391.986C393.496 392.032 393.297 392.064 393.119 392.082L389.546 379.624L389.64 379.472C390.336 379.256 391.023 379.042 391.703 378.831C392.389 378.609 393.089 378.396 393.804 378.191C394.727 377.926 395.588 377.837 396.387 377.924C397.194 378.009 397.892 378.296 398.481 378.784C399.071 379.273 399.501 379.99 399.772 380.936ZM392.265 380.529L393.615 385.236C393.974 385.124 394.342 385.015 394.719 384.907C395.096 384.799 395.38 384.717 395.573 384.662C396.257 384.466 396.745 384.193 397.036 383.843C397.326 383.493 397.485 383.119 397.512 382.72C397.54 382.321 397.504 381.949 397.404 381.603C397.303 381.249 397.136 380.914 396.904 380.598C396.669 380.274 396.337 380.044 395.908 379.909C395.476 379.767 394.917 379.794 394.233 379.99C393.941 380.074 393.625 380.164 393.287 380.261C392.954 380.349 392.614 380.438 392.265 380.529ZM407.084 388.077C406.924 388.157 406.742 388.234 406.539 388.309C406.343 388.381 406.157 388.443 405.98 388.494C405.819 388.54 405.628 388.586 405.408 388.633C405.188 388.679 404.99 388.711 404.812 388.729L401.206 376.156C401.364 376.069 401.55 375.99 401.763 375.921C401.974 375.844 402.16 375.782 402.322 375.736C402.499 375.685 402.689 375.639 402.894 375.597C403.103 375.545 403.298 375.514 403.479 375.504L404.554 379.253C404.629 379.514 404.691 379.746 404.741 379.948C404.79 380.15 404.85 380.375 404.921 380.621C405.029 380.59 405.224 380.53 405.506 380.44C405.796 380.349 405.991 380.289 406.091 380.26L409.448 379.298C409.54 379.271 409.729 379.221 410.016 379.147C410.311 379.071 410.512 379.018 410.619 378.987C410.549 378.741 410.481 378.519 410.416 378.321C410.351 378.123 410.281 377.894 410.206 377.632L409.131 373.883C409.281 373.798 409.455 373.724 409.653 373.659C409.849 373.586 410.035 373.524 410.212 373.473C410.381 373.425 410.575 373.377 410.795 373.331C411.013 373.277 411.215 373.244 411.403 373.232L415.009 385.805C414.841 385.886 414.655 385.965 414.452 386.039C414.256 386.112 414.066 386.175 413.882 386.228C413.705 386.279 413.514 386.325 413.31 386.367C413.105 386.409 412.914 386.439 412.736 386.456L411.522 382.223C411.445 381.954 411.382 381.718 411.332 381.516C411.282 381.314 411.221 381.086 411.148 380.832C411.041 380.863 410.842 380.924 410.552 381.016C410.27 381.105 410.082 381.163 409.99 381.189L406.633 382.152C406.533 382.181 406.336 382.233 406.042 382.309C405.755 382.383 405.558 382.435 405.45 382.466C405.523 382.72 405.592 382.946 405.657 383.144C405.722 383.341 405.793 383.575 405.87 383.844L407.084 388.077ZM416.146 378.688C415.775 377.396 415.668 376.195 415.824 375.085C415.986 373.965 416.417 373.001 417.117 372.192C417.823 371.374 418.806 370.784 420.067 370.423C421.344 370.057 422.493 370.031 423.516 370.345C424.546 370.657 425.422 371.247 426.145 372.113C426.875 372.977 427.426 374.055 427.796 375.347C428.164 376.631 428.268 377.833 428.106 378.953C427.945 380.073 427.51 381.038 426.802 381.849C426.092 382.652 425.106 383.234 423.845 383.596C422.576 383.96 421.43 383.984 420.408 383.67C419.384 383.348 418.506 382.755 417.776 381.891C417.053 381.024 416.51 379.957 416.146 378.688ZM418.499 378.013C418.651 378.544 418.858 379.075 419.118 379.608C419.379 380.141 419.702 380.614 420.087 381.028C420.47 381.434 420.931 381.722 421.471 381.892C422.009 382.054 422.631 382.034 423.339 381.831C424.054 381.626 424.596 381.312 424.966 380.89C425.334 380.46 425.573 379.971 425.682 379.424C425.789 378.869 425.808 378.297 425.74 377.709C425.679 377.119 425.572 376.559 425.42 376.028C425.266 375.49 425.058 374.955 424.797 374.422C424.542 373.879 424.222 373.405 423.84 372.999C423.455 372.585 422.993 372.297 422.456 372.135C421.916 371.965 421.289 371.982 420.573 372.187C419.866 372.39 419.328 372.707 418.961 373.137C418.591 373.559 418.352 374.048 418.245 374.603C418.136 375.15 418.113 375.723 418.176 376.32C418.237 376.911 418.344 377.475 418.499 378.013ZM431.433 370.983C431.363 370.737 431.303 370.513 431.253 370.311C431.201 370.101 431.138 369.866 431.063 369.604C430.917 369.646 430.714 369.708 430.455 369.791C430.203 369.871 430.004 369.933 429.858 369.975L427.401 370.679C427.324 370.526 427.255 370.372 427.193 370.214C427.131 370.057 427.082 369.913 427.044 369.783C427.005 369.644 426.968 369.488 426.935 369.315C426.902 369.141 426.878 368.969 426.862 368.799L436.355 366.077C436.431 366.196 436.505 366.338 436.577 366.5C436.646 366.655 436.697 366.79 436.73 366.905C436.825 367.236 436.81 367.515 436.683 367.743C436.563 367.961 436.268 368.137 435.799 368.271L434.484 368.648C434.345 368.688 434.144 368.741 433.881 368.809C433.625 368.874 433.427 368.926 433.289 368.966C433.364 369.227 433.435 369.461 433.502 369.666C433.567 369.864 433.635 370.086 433.706 370.332L436.385 379.675C436.248 379.748 436.073 379.823 435.863 379.9C435.652 379.977 435.458 380.041 435.281 380.092C435.112 380.14 434.917 380.188 434.698 380.234C434.478 380.28 434.283 380.311 434.112 380.327L431.433 370.983ZM438.968 372.144C438.598 370.852 438.491 369.651 438.647 368.541C438.808 367.421 439.239 366.457 439.939 365.648C440.645 364.83 441.629 364.24 442.89 363.878C444.166 363.512 445.316 363.487 446.338 363.801C447.368 364.113 448.244 364.702 448.967 365.569C449.698 366.433 450.248 367.511 450.619 368.803C450.987 370.087 451.09 371.289 450.929 372.409C450.767 373.529 450.332 374.494 449.624 375.305C448.914 376.108 447.928 376.69 446.667 377.051C445.398 377.415 444.253 377.44 443.231 377.126C442.206 376.804 441.329 376.21 440.598 375.346C439.875 374.48 439.332 373.412 438.968 372.144ZM441.321 371.469C441.473 371.999 441.68 372.531 441.941 373.064C442.202 373.596 442.525 374.07 442.91 374.484C443.293 374.89 443.754 375.178 444.294 375.348C444.831 375.51 445.454 375.489 446.161 375.287C446.876 375.082 447.419 374.768 447.789 374.346C448.157 373.916 448.395 373.427 448.504 372.879C448.612 372.324 448.631 371.753 448.562 371.165C448.501 370.575 448.395 370.015 448.242 369.484C448.088 368.946 447.88 368.41 447.619 367.878C447.364 367.335 447.045 366.861 446.662 366.454C446.277 366.04 445.816 365.752 445.278 365.59C444.739 365.421 444.111 365.438 443.396 365.643C442.688 365.846 442.151 366.163 441.783 366.593C441.413 367.015 441.175 367.504 441.068 368.059C440.958 368.606 440.935 369.179 440.998 369.776C441.059 370.366 441.167 370.93 441.321 371.469Z" fill="white"/>
<path d="M522.091 247.735C522.192 248.891 522.046 249.883 521.653 250.713C521.259 251.534 520.669 252.18 519.883 252.65C519.105 253.12 518.186 253.401 517.126 253.494L514.52 253.722L515.032 259.579C514.852 259.627 514.655 259.669 514.441 259.703C514.227 259.738 514.021 259.764 513.821 259.782C513.646 259.797 513.446 259.807 513.222 259.81C513.005 259.813 512.812 259.806 512.642 259.789L511.224 243.59L511.355 243.434C512.247 243.34 513.074 243.252 513.838 243.169C514.609 243.078 515.397 242.997 516.201 242.926C517.245 242.835 518.195 242.948 519.05 243.267C519.905 243.586 520.598 244.115 521.128 244.856C521.667 245.596 521.988 246.556 522.091 247.735ZM513.762 245.055L514.355 251.833C514.808 251.785 515.282 251.74 515.776 251.697C516.278 251.645 516.652 251.608 516.899 251.586C517.712 251.515 518.318 251.281 518.717 250.885C519.116 250.489 519.372 250.025 519.486 249.493C519.6 248.961 519.636 248.448 519.593 247.954C519.549 247.452 519.424 246.949 519.22 246.444C519.015 245.94 518.682 245.532 518.221 245.219C517.76 244.906 517.123 244.785 516.31 244.856C515.959 244.887 515.545 244.923 515.067 244.965C514.597 245.006 514.162 245.036 513.762 245.055ZM535.959 253.099C536.098 254.693 535.719 255.955 534.82 256.885C533.93 257.814 532.652 258.351 530.986 258.497C529.328 258.642 527.977 258.335 526.93 257.575C525.892 256.814 525.303 255.637 525.164 254.043L524.431 245.663L524.539 245.521L525.435 245.443C525.913 245.401 526.267 245.495 526.496 245.724C526.724 245.945 526.861 246.318 526.907 246.844L527.518 253.825C527.604 254.806 527.924 255.536 528.481 256.018C529.037 256.499 529.817 256.696 530.821 256.608C531.841 256.519 532.579 256.189 533.035 255.619C533.491 255.049 533.676 254.274 533.591 253.294L532.855 244.89C533.028 244.843 533.217 244.802 533.423 244.768C533.629 244.734 533.819 244.709 533.995 244.694C534.17 244.679 534.37 244.669 534.594 244.666C534.827 244.661 535.037 244.671 535.223 244.695L535.959 253.099ZM543.937 247.775C544.128 247.477 544.368 247.139 544.656 246.761C544.951 246.374 545.236 246.003 545.51 245.65L545.446 245.608C545.21 245.66 544.854 245.72 544.378 245.785C543.909 245.842 543.452 245.894 543.006 245.941C542.56 245.988 542.25 246.02 542.075 246.035L538.739 246.327C538.662 246.085 538.611 245.824 538.587 245.545C538.569 245.346 538.565 245.158 538.573 244.98C538.589 244.794 538.616 244.595 538.654 244.383L547.5 243.609C547.699 244.138 547.826 244.488 547.881 244.66C547.936 244.832 547.968 244.965 547.976 245.061C548.004 245.38 547.926 245.68 547.742 245.961L543.099 253.197C542.893 253.512 542.647 253.867 542.361 254.261C542.081 254.647 541.819 255.003 541.575 255.33L541.629 255.397C542.12 255.314 542.587 255.245 543.032 255.19C543.484 255.127 543.881 255.076 544.223 255.038L546.244 254.861C546.785 254.806 547.272 254.731 547.706 254.637C548.139 254.543 548.494 254.423 548.771 254.279C548.842 254.449 548.9 254.613 548.946 254.769C549 254.925 549.036 255.107 549.054 255.314C549.129 256.175 548.613 256.654 547.505 256.75L539.46 257.454C539.287 256.947 539.177 256.612 539.131 256.447C539.084 256.275 539.056 256.137 539.046 256.033C539.016 255.69 539.096 255.358 539.285 255.036L543.937 247.775ZM555.868 246.731C556.059 246.434 556.299 246.096 556.587 245.717C556.882 245.33 557.167 244.96 557.441 244.606L557.377 244.564C557.141 244.616 556.785 244.676 556.309 244.741C555.84 244.799 555.383 244.851 554.937 244.898C554.491 244.945 554.181 244.976 554.006 244.991L550.67 245.283C550.593 245.041 550.542 244.78 550.518 244.501C550.5 244.302 550.496 244.114 550.504 243.936C550.52 243.75 550.547 243.551 550.585 243.339L559.431 242.565C559.63 243.094 559.757 243.444 559.812 243.616C559.867 243.788 559.899 243.921 559.907 244.017C559.935 244.336 559.857 244.636 559.673 244.917L555.03 252.153C554.824 252.468 554.578 252.823 554.292 253.218C554.012 253.603 553.75 253.96 553.506 254.286L553.56 254.354C554.051 254.271 554.518 254.202 554.963 254.147C555.415 254.083 555.812 254.032 556.154 253.994L558.175 253.817C558.716 253.762 559.203 253.687 559.637 253.593C560.07 253.499 560.425 253.38 560.702 253.235C560.773 253.405 560.831 253.569 560.877 253.726C560.931 253.881 560.967 254.063 560.985 254.27C561.06 255.131 560.544 255.61 559.436 255.707L551.391 256.41C551.218 255.904 551.108 255.568 551.062 255.403C551.015 255.231 550.987 255.093 550.977 254.989C550.947 254.646 551.027 254.314 551.216 253.993L555.868 246.731ZM573.047 252.54C573.112 253.281 573.041 253.806 572.835 254.113C572.628 254.412 572.254 254.585 571.712 254.633L565.508 255.175C565.093 255.212 564.752 255.117 564.483 254.892C564.214 254.658 564.06 254.322 564.022 253.884L563.016 242.384L563.136 242.241L571.695 241.492C571.741 241.657 571.776 241.818 571.797 241.977C571.819 242.136 571.836 242.283 571.848 242.418C571.859 242.546 571.857 242.703 571.841 242.889C571.833 243.074 571.805 243.261 571.758 243.45L566.844 243.88C566.685 243.894 566.482 243.912 566.235 243.933C565.987 243.947 565.736 243.965 565.481 243.987C565.496 244.163 565.516 244.349 565.542 244.548C565.567 244.747 565.59 244.965 565.611 245.204L565.814 247.524C566.06 247.494 566.303 247.469 566.542 247.448C566.789 247.426 566.993 247.408 567.152 247.395L570.989 247.059C571.058 247.205 571.105 247.37 571.129 247.553C571.16 247.726 571.181 247.873 571.191 247.993C571.203 248.128 571.209 248.288 571.209 248.473C571.217 248.649 571.199 248.815 571.157 248.971L567.319 249.307C567.16 249.321 566.957 249.339 566.71 249.361C566.47 249.373 566.226 249.391 565.979 249.412L566.219 252.15C566.236 252.341 566.248 252.525 566.255 252.701C566.262 252.877 566.272 253.037 566.285 253.18C566.491 253.146 566.701 253.116 566.915 253.089C567.138 253.061 567.4 253.034 567.703 253.008L573.047 252.54ZM584.587 251.495C584.636 252.245 584.558 252.778 584.353 253.093C584.148 253.408 583.762 253.59 583.196 253.64L577.661 254.124C577.255 254.16 576.913 254.065 576.637 253.84C576.367 253.607 576.213 253.263 576.173 252.809L575.161 241.237L575.281 241.094L576.201 241.014C576.687 240.971 577.036 241.057 577.248 241.271C577.459 241.486 577.588 241.856 577.634 242.382L578.486 252.125C579.174 252 579.833 251.91 580.462 251.855L584.587 251.495Z" fill="white"/>
<path d="M564.429 402.861C561.113 403.21 558.424 402.738 556.361 401.447C554.344 400.192 553.201 398.281 552.931 395.711C552.508 391.692 553.268 387.359 555.21 382.714C557.147 378.028 560.192 373.518 564.345 369.185C568.494 364.811 573.654 361.085 579.824 358.006C586.032 354.882 593.155 352.897 601.194 352.052C609.274 351.203 616.655 351.663 623.335 353.433C630.052 355.157 635.873 357.729 640.799 361.15C645.763 364.524 649.679 368.302 652.548 372.484C655.455 376.619 657.119 380.697 657.542 384.716C657.812 387.285 657.07 389.395 655.316 391.046C653.608 392.734 651.097 393.752 647.782 394.1L564.429 402.861ZM600.087 340.92C595.653 341.386 591.424 340.615 587.401 338.608C583.373 336.559 579.983 333.606 577.231 329.747C574.517 325.843 572.889 321.322 572.349 316.183C571.818 311.128 572.478 306.45 574.331 302.149C576.224 297.845 578.932 294.313 582.455 291.555C585.978 288.796 589.956 287.184 594.39 286.718C598.824 286.252 603.048 286.981 607.063 288.905C611.078 290.83 614.438 293.702 617.144 297.524C619.887 301.299 621.526 305.736 622.062 310.833C622.607 316.012 621.936 320.796 620.051 325.184C618.208 329.567 615.529 333.18 612.015 336.021C608.497 338.821 604.521 340.453 600.087 340.92Z" fill="#6594D8"/>
<path d="M422.909 349.718C422.017 350.008 421.25 350.036 420.607 349.801C419.979 349.574 419.552 349.115 419.328 348.424C418.976 347.343 418.932 346.107 419.195 344.715C419.454 343.313 420.028 341.894 420.917 340.459C421.802 339.013 423.004 337.686 424.521 336.478C426.046 335.256 427.89 334.293 430.052 333.591C432.226 332.885 434.283 332.58 436.224 332.676C438.173 332.758 439.925 333.125 441.48 333.778C443.043 334.416 444.341 335.226 445.375 336.209C446.416 337.176 447.113 338.201 447.464 339.282C447.688 339.973 447.608 340.597 447.222 341.153C446.851 341.718 446.219 342.145 445.327 342.434L422.909 349.718ZM429.097 330.593C427.904 330.98 426.696 331.016 425.471 330.699C424.244 330.371 423.138 329.757 422.156 328.856C421.181 327.941 420.468 326.792 420.019 325.41C419.578 324.05 419.486 322.725 419.744 321.433C420.013 320.138 420.552 319.008 421.359 318.044C422.167 317.079 423.167 316.403 424.36 316.015C425.552 315.628 426.757 315.581 427.974 315.876C429.191 316.17 430.284 316.764 431.252 317.657C432.227 318.536 432.937 319.66 433.383 321.031C433.835 322.424 433.931 323.779 433.669 325.097C433.418 326.41 432.892 327.561 432.092 328.548C431.287 329.524 430.289 330.206 429.097 330.593Z" fill="#6594D8"/>
<path d="M340.552 305.162C339.624 305.293 338.863 305.187 338.271 304.844C337.692 304.511 337.351 303.985 337.25 303.265C337.092 302.14 337.263 300.915 337.763 299.59C338.262 298.254 339.073 296.956 340.198 295.698C341.322 294.427 342.735 293.329 344.439 292.403C346.153 291.464 348.136 290.837 350.387 290.52C352.65 290.202 354.729 290.259 356.624 290.691C358.529 291.11 360.191 291.775 361.609 292.688C363.037 293.588 364.175 294.612 365.023 295.759C365.88 296.893 366.388 298.023 366.546 299.148C366.647 299.868 366.46 300.468 365.983 300.949C365.519 301.44 364.823 301.751 363.895 301.882L340.552 305.162ZM349.967 287.402C348.725 287.576 347.529 287.401 346.378 286.877C345.226 286.34 344.244 285.543 343.433 284.486C342.632 283.415 342.13 282.16 341.928 280.721C341.729 279.306 341.868 277.984 342.347 276.757C342.837 275.529 343.563 274.509 344.527 273.699C345.49 272.89 346.592 272.397 347.834 272.223C349.075 272.048 350.27 272.212 351.417 272.713C352.565 273.215 353.537 273.989 354.335 275.037C355.144 276.071 355.648 277.302 355.848 278.729C356.052 280.18 355.911 281.531 355.424 282.783C354.949 284.033 354.231 285.075 353.272 285.908C352.31 286.729 351.209 287.227 349.967 287.402Z" fill="#6594D8"/>
</g>
</g>
<defs>
<filter id="filter0_d_4668_8743" x="122.797" y="179.7" width="691.695" height="313.852" filterUnits="userSpaceOnUse" color-interpolation-filters="sRGB">
<feFlood flood-opacity="0" result="BackgroundImageFix"/>
<feColorMatrix in="SourceAlpha" type="matrix" values="0 0 0 0 0 0 0 0 0 0 0 0 0 0 0 0 0 0 127 0" result="hardAlpha"/>
<feOffset dy="8"/>
<feGaussianBlur stdDeviation="2"/>
<feComposite in2="hardAlpha" operator="out"/>
<feColorMatrix type="matrix" values="0 0 0 0 0 0 0 0 0 0 0 0 0 0 0 0 0 0 0.25 0"/>
<feBlend mode="normal" in2="BackgroundImageFix" result="effect1_dropShadow_4668_8743"/>
<feBlend mode="normal" in="SourceGraphic" in2="effect1_dropShadow_4668_8743" result="shape"/>
</filter>
<filter id="filter1_i_4668_8743" x="699" y="283" width="26" height="22" filterUnits="userSpaceOnUse" color-interpolation-filters="sRGB">
<feFlood flood-opacity="0" result="BackgroundImageFix"/>
<feBlend mode="normal" in="SourceGraphic" in2="BackgroundImageFix" result="shape"/>
<feColorMatrix in="SourceAlpha" type="matrix" values="0 0 0 0 0 0 0 0 0 0 0 0 0 0 0 0 0 0 127 0" result="hardAlpha"/>
<feOffset dy="2"/>
<feGaussianBlur stdDeviation="2"/>
<feComposite in2="hardAlpha" operator="arithmetic" k2="-1" k3="1"/>
<feColorMatrix type="matrix" values="0 0 0 0 0 0 0 0 0 0 0 0 0 0 0 0 0 0 1 0"/>
<feBlend mode="normal" in2="shape" result="effect1_innerShadow_4668_8743"/>
</filter>
<filter id="filter2_d_4668_8743" x="122.797" y="183.7" width="691.695" height="313.852" filterUnits="userSpaceOnUse" color-interpolation-filters="sRGB">
<feFlood flood-opacity="0" result="BackgroundImageFix"/>
<feColorMatrix in="SourceAlpha" type="matrix" values="0 0 0 0 0 0 0 0 0 0 0 0 0 0 0 0 0 0 127 0" result="hardAlpha"/>
<feOffset dy="8"/>
<feGaussianBlur stdDeviation="2"/>
<feComposite in2="hardAlpha" operator="out"/>
<feColorMatrix type="matrix" values="0 0 0 0 0 0 0 0 0 0 0 0 0 0 0 0 0 0 0.25 0"/>
<feBlend mode="normal" in2="BackgroundImageFix" result="effect1_dropShadow_4668_8743"/>
<feBlend mode="normal" in="SourceGraphic" in2="effect1_dropShadow_4668_8743" result="shape"/>
</filter>
<filter id="filter3_i_4668_8743" x="699" y="287" width="26" height="22" filterUnits="userSpaceOnUse" color-interpolation-filters="sRGB">
<feFlood flood-opacity="0" result="BackgroundImageFix"/>
<feBlend mode="normal" in="SourceGraphic" in2="BackgroundImageFix" result="shape"/>
<feColorMatrix in="SourceAlpha" type="matrix" values="0 0 0 0 0 0 0 0 0 0 0 0 0 0 0 0 0 0 127 0" result="hardAlpha"/>
<feOffset dy="2"/>
<feGaussianBlur stdDeviation="2"/>
<feComposite in2="hardAlpha" operator="arithmetic" k2="-1" k3="1"/>
<feColorMatrix type="matrix" values="0 0 0 0 0 0 0 0 0 0 0 0 0 0 0 0 0 0 1 0"/>
<feBlend mode="normal" in2="shape" result="effect1_innerShadow_4668_8743"/>
</filter>
<clipPath id="clip0_4668_8743">
<rect width="938" height="613" fill="white"/>
</clipPath>
<clipPath id="clip1_4668_8743">
<rect width="938" height="605" fill="white" transform="translate(0 4)"/>
</clipPath>
</defs>
</svg>
