<svg width="690" height="720" viewBox="0 0 690 720" fill="none" xmlns="http://www.w3.org/2000/svg">
<path d="M292.046 354.27C310.187 358.118 322.957 374.42 322.35 392.955L321.898 406.74L204.011 398.325C197.002 397.824 190.156 395.945 183.87 392.802L109.756 355.749C105.976 353.86 101.378 355.393 99.487 359.171C97.597 362.952 99.13 367.549 102.91 369.44L166.24 401.105C170.631 403.302 171.011 409.418 166.928 412.144L136.047 432.74C132.532 435.085 131.582 439.836 133.925 443.353C136.269 446.869 141.02 447.819 144.537 445.475L187.741 416.672C191.405 414.232 195.779 413.078 200.17 413.392L284.676 419.424C305.182 420.888 320.866 438.294 320.195 458.841L313.976 649.15C312.12 705.892 275.502 730.496 233.412 715.19C209.256 706.406 209.354 710.627 187.741 680.752C173.9 661.62 158.632 654.793 136.047 638.662C109.262 619.529 114.793 611.877 99.6664 581.265C83.8101 549.177 68.8756 562.133 49.7435 520.042C45.5123 510.734 44.3873 500.525 44.6583 491.332C45.2131 472.514 45.84 452.997 38.7794 435.545L13.0411 371.924C6.12294 354.823 15.7891 335.534 33.6288 330.84L99.6664 313.464L292.046 354.27Z" fill="url(#paint0_linear_2524_2134)"/>
<path d="M83.5311 196.332C101.821 212.511 126.736 218.986 150.591 213.767L235.691 195.151L298.489 237.016C316.111 248.764 326.41 268.786 325.718 289.955L323.908 345.375L248.732 329.434C236.824 326.908 226.28 320.044 219.152 310.175L186.703 265.237C184.228 261.812 179.441 261.038 176.015 263.511C172.592 265.986 171.817 270.772 174.289 274.198L199.407 308.972C202.416 313.139 198.71 318.827 193.683 317.761L102.163 298.345L12.9536 249.913C5.192 245.699 0.409934 237.388 1.53673 228.629C1.79436 226.626 2.08453 224.631 2.40706 222.644C3.71345 214.597 9.77686 208.277 17.5749 205.899L74.6601 188.485L83.5311 196.332Z" fill="url(#paint1_linear_2524_2134)"/>
<path d="M61.8879 293.898C67.9798 297.205 66.8869 306.266 60.184 308.03L19.2005 318.814C9.49549 321.368 0 314.048 0 304.013V286.023C0 274.418 12.4101 267.035 22.6087 272.572L61.8879 293.898Z" fill="url(#paint2_linear_2524_2134)"/>
<path d="M250.862 82.3462C257.424 110.78 273.926 135.939 297.392 153.284L303.563 157.845C319.751 169.809 329.023 188.966 328.364 209.083L327.421 237.907L241.842 180.854L178.13 127.202C173.031 122.907 168.665 117.807 165.209 112.106L154.137 93.8379C145.208 79.1061 150.189 59.9108 165.154 51.3786L198.841 32.1717C216.653 22.0162 239.218 31.9012 243.83 51.8796L250.862 82.3462Z" fill="url(#paint3_linear_2524_2134)"/>
<path d="M152.123 120.035C156.443 127.163 161.898 133.544 168.273 138.913L208.54 172.82C213.392 176.91 211.443 184.787 205.244 186.145L147.317 198.82C128.234 202.994 108.304 197.81 93.6726 184.867L62.0222 156.867C49.8057 146.06 48.0468 127.337 60.1106 116.359C69.96 107.396 80.8641 99.4343 92.7086 92.682L98.6463 89.2956C113.056 81.0773 131.39 85.8324 139.989 100.018L152.123 120.035Z" fill="url(#paint4_linear_2524_2134)"/>
<path d="M50.9692 167.521C55.446 171.486 53.849 178.824 48.1292 180.57L38.6873 183.45C26.7928 187.077 16.2149 175.763 22.1334 164.826C26.5147 156.73 37.244 155.382 44.1396 161.481L50.9692 167.521Z" fill="url(#paint5_linear_2524_2134)"/>
<path d="M255.821 35.7939C251.631 17.6378 261.715 -2.34257 280.17 0.22391C309.416 4.29081 334.238 29.5253 333.145 62.9674L330.022 158.366L306.488 140.976C285.955 125.799 271.513 103.787 265.772 78.9084L255.821 35.7939Z" fill="url(#paint6_linear_2524_2134)"/>
<path d="M397.273 354.27C379.132 358.118 366.362 374.42 366.969 392.955L367.421 406.74L485.308 398.325C492.317 397.824 499.164 395.945 505.449 392.802L579.564 355.749C583.343 353.86 587.941 355.393 589.832 359.171C591.722 362.952 590.189 367.549 586.409 369.44L523.079 401.105C518.688 403.302 518.308 409.418 522.391 412.143L553.272 432.74C556.787 435.085 557.737 439.836 555.394 443.353C553.05 446.869 548.299 447.819 544.782 445.475L501.578 416.672C497.914 414.231 493.54 413.078 489.149 413.391L404.643 419.424C384.137 420.888 368.453 438.294 369.124 458.841L375.343 649.15C377.199 705.892 413.817 730.496 455.907 715.19C480.063 706.406 479.965 710.627 501.578 680.752C515.419 661.62 530.687 654.793 553.272 638.661C580.057 619.529 574.526 611.877 589.653 581.265C605.509 549.177 620.443 562.133 639.576 520.042C643.807 510.734 644.932 500.525 644.661 491.332C644.106 472.514 643.479 452.997 650.54 435.544L676.278 371.923C683.196 354.823 673.53 335.534 655.69 330.84L589.653 313.464L397.273 354.27Z" fill="url(#paint7_linear_2524_2134)"/>
<path d="M605.788 196.332C587.498 212.51 562.583 218.986 538.728 213.767L453.628 195.151L390.831 237.016C373.208 248.764 362.909 268.786 363.601 289.955L365.411 345.375L440.587 329.434C452.495 326.907 463.039 320.044 470.167 310.175L502.617 265.237C505.091 261.812 509.878 261.038 513.304 263.511C516.727 265.986 517.502 270.772 515.03 274.198L489.912 308.972C486.903 313.139 490.609 318.827 495.636 317.761L587.157 298.345L676.365 249.913C684.127 245.699 688.909 237.388 687.782 228.629C687.525 226.626 687.235 224.631 686.912 222.644C685.606 214.597 679.542 208.277 671.744 205.898L614.659 188.484L605.788 196.332Z" fill="url(#paint8_linear_2524_2134)"/>
<path d="M627.431 293.898C621.339 297.205 622.432 306.266 629.135 308.03L670.119 318.814C679.824 321.368 689.319 314.048 689.319 304.013V286.023C689.319 274.418 676.909 267.035 666.71 272.572L627.431 293.898Z" fill="url(#paint9_linear_2524_2134)"/>
<path d="M438.457 82.3461C431.895 110.779 415.393 135.939 391.927 153.284L385.756 157.845C369.569 169.809 360.296 188.965 360.955 209.083L361.898 237.907L447.477 180.854L511.189 127.202C516.288 122.907 520.655 117.807 524.11 112.106L535.182 93.8378C544.111 79.106 539.13 59.9107 524.166 51.3785L490.478 32.1716C472.666 22.0161 450.101 31.9011 445.489 51.8795L438.457 82.3461Z" fill="url(#paint10_linear_2524_2134)"/>
<path d="M537.196 120.035C532.876 127.163 527.422 133.544 521.046 138.913L480.779 172.82C475.927 176.91 477.876 184.787 484.075 186.145L542.002 198.82C561.085 202.994 581.015 197.81 595.646 184.867L627.297 156.867C639.513 146.06 641.272 127.336 629.208 116.359C619.359 107.396 608.455 99.4342 596.611 92.6819L590.673 89.2955C576.263 81.0772 557.929 85.8323 549.33 100.018L537.196 120.035Z" fill="url(#paint11_linear_2524_2134)"/>
<path d="M638.35 167.521C633.873 171.486 635.47 178.824 641.19 180.57L650.632 183.45C662.526 187.077 673.104 175.763 667.186 164.826C662.804 156.73 652.075 155.382 645.18 161.481L638.35 167.521Z" fill="url(#paint12_linear_2524_2134)"/>
<path d="M433.498 35.7938C437.688 17.6377 427.604 -2.34266 409.149 0.223819C379.903 4.29072 355.081 29.5252 356.174 62.9674L359.298 158.366L382.832 140.976C403.364 125.799 417.806 103.787 423.547 78.9083L433.498 35.7938Z" fill="url(#paint13_linear_2524_2134)"/>
<defs>
<linearGradient id="paint0_linear_2524_2134" x1="344.66" y1="0" x2="344.66" y2="719.649" gradientUnits="userSpaceOnUse">
<stop stop-color="#FDF3CE"/>
<stop offset="0.735577" stop-color="#FAD592"/>
<stop offset="1" stop-color="#FAD28C"/>
</linearGradient>
<linearGradient id="paint1_linear_2524_2134" x1="344.66" y1="0" x2="344.66" y2="719.649" gradientUnits="userSpaceOnUse">
<stop stop-color="#FDF3CE"/>
<stop offset="0.735577" stop-color="#FAD592"/>
<stop offset="1" stop-color="#FAD28C"/>
</linearGradient>
<linearGradient id="paint2_linear_2524_2134" x1="344.66" y1="0" x2="344.66" y2="719.649" gradientUnits="userSpaceOnUse">
<stop stop-color="#FDF3CE"/>
<stop offset="0.735577" stop-color="#FAD592"/>
<stop offset="1" stop-color="#FAD28C"/>
</linearGradient>
<linearGradient id="paint3_linear_2524_2134" x1="344.66" y1="0" x2="344.66" y2="719.649" gradientUnits="userSpaceOnUse">
<stop stop-color="#FDF3CE"/>
<stop offset="0.735577" stop-color="#FAD592"/>
<stop offset="1" stop-color="#FAD28C"/>
</linearGradient>
<linearGradient id="paint4_linear_2524_2134" x1="344.66" y1="0" x2="344.66" y2="719.649" gradientUnits="userSpaceOnUse">
<stop stop-color="#FDF3CE"/>
<stop offset="0.735577" stop-color="#FAD592"/>
<stop offset="1" stop-color="#FAD28C"/>
</linearGradient>
<linearGradient id="paint5_linear_2524_2134" x1="344.66" y1="0" x2="344.66" y2="719.649" gradientUnits="userSpaceOnUse">
<stop stop-color="#FDF3CE"/>
<stop offset="0.735577" stop-color="#FAD592"/>
<stop offset="1" stop-color="#FAD28C"/>
</linearGradient>
<linearGradient id="paint6_linear_2524_2134" x1="344.66" y1="0" x2="344.66" y2="719.649" gradientUnits="userSpaceOnUse">
<stop stop-color="#FDF3CE"/>
<stop offset="0.735577" stop-color="#FAD592"/>
<stop offset="1" stop-color="#FAD28C"/>
</linearGradient>
<linearGradient id="paint7_linear_2524_2134" x1="344.66" y1="0" x2="344.66" y2="719.649" gradientUnits="userSpaceOnUse">
<stop stop-color="#FDF3CE"/>
<stop offset="0.735577" stop-color="#FAD592"/>
<stop offset="1" stop-color="#FAD28C"/>
</linearGradient>
<linearGradient id="paint8_linear_2524_2134" x1="344.66" y1="0" x2="344.66" y2="719.649" gradientUnits="userSpaceOnUse">
<stop stop-color="#FDF3CE"/>
<stop offset="0.735577" stop-color="#FAD592"/>
<stop offset="1" stop-color="#FAD28C"/>
</linearGradient>
<linearGradient id="paint9_linear_2524_2134" x1="344.66" y1="0" x2="344.66" y2="719.649" gradientUnits="userSpaceOnUse">
<stop stop-color="#FDF3CE"/>
<stop offset="0.735577" stop-color="#FAD592"/>
<stop offset="1" stop-color="#FAD28C"/>
</linearGradient>
<linearGradient id="paint10_linear_2524_2134" x1="344.66" y1="0" x2="344.66" y2="719.649" gradientUnits="userSpaceOnUse">
<stop stop-color="#FDF3CE"/>
<stop offset="0.735577" stop-color="#FAD592"/>
<stop offset="1" stop-color="#FAD28C"/>
</linearGradient>
<linearGradient id="paint11_linear_2524_2134" x1="344.66" y1="0" x2="344.66" y2="719.649" gradientUnits="userSpaceOnUse">
<stop stop-color="#FDF3CE"/>
<stop offset="0.735577" stop-color="#FAD592"/>
<stop offset="1" stop-color="#FAD28C"/>
</linearGradient>
<linearGradient id="paint12_linear_2524_2134" x1="344.66" y1="0" x2="344.66" y2="719.649" gradientUnits="userSpaceOnUse">
<stop stop-color="#FDF3CE"/>
<stop offset="0.735577" stop-color="#FAD592"/>
<stop offset="1" stop-color="#FAD28C"/>
</linearGradient>
<linearGradient id="paint13_linear_2524_2134" x1="344.66" y1="0" x2="344.66" y2="719.649" gradientUnits="userSpaceOnUse">
<stop stop-color="#FDF3CE"/>
<stop offset="0.735577" stop-color="#FAD592"/>
<stop offset="1" stop-color="#FAD28C"/>
</linearGradient>
</defs>
</svg>
